# Alias OBJ Model File
# Exported from SketchUp, (c) 2000-2012 Trimble Navigation Limited
# File units = meters

mtllib bay_roof_4.mtl

g Mesh1 Model

usemtl M_0020_Red
v -0.61 0 -0.45
vt -17.7165 0
vn -1 0 -0
v -0.61 0 -0.15
vt -5.90551 0
v -0.61 0.3 -0.45
vt -17.7165 11.811
f 1/1/1 2/2/1 3/3/1

vn 1 -0 0
f 3/3/2 2/2/2 1/1/2

vt -24.0157 4.17583
vn 0 0.707107 0.707107
v 0.613607 0.3 -0.45
vt 24.1577 20.8791
vt -24.0157 20.8791
f 2/4/3 4/5/3 3/6/3

v 0.613607 0 -0.15
vt 24.1577 4.17583
f 4/5/3 2/4/3 5/7/3

vn -0 -0.707107 -0.707107
f 5/7/4 2/4/4 4/5/4

vt 24.0157 5.90551
vn 0 -1 -0
v 0.613607 0 -0.45
vt -24.1577 17.7165
vt -24.1577 5.90551
f 2/8/5 6/9/5 5/10/5

vt 24.0157 17.7165
f 6/9/5 2/8/5 1/11/5

vn -0 1 0
f 1/11/6 2/8/6 6/9/6

f 5/10/6 6/9/6 2/8/6

vt 17.7165 11.811
vn 1 0 -6.01593e-016
vt 5.90551 0
vt 17.7165 0
f 4/12/7 5/13/7 6/14/7

vn -1 -0 6.01593e-016
f 6/14/8 5/13/8 4/12/8

vt -24.1577 0
vn 0 0 -1
vt 24.0157 11.811
vt -24.1577 11.811
f 6/15/9 3/16/9 4/17/9

vt 24.0157 0
f 3/16/9 6/15/9 1/18/9

vn -0 -0 1
f 1/18/10 6/15/10 3/16/10

f 4/17/10 3/16/10 6/15/10

f 3/6/4 4/5/4 2/4/4

