# Alias OBJ Model File
# Exported from SketchUp, (c) 2000-2012 Trimble Navigation Limited
# File units = meters

mtllib bay_roof.mtl

g Mesh1 Component_3_1 Model

usemtl M_0020_Red
v 0.463607 0 -0.15
vt 42.268 1.36276e-015
vn -3.22411e-017 0.707107 0.707107
v -0.27459 0.3 -0.45
vt 13.2051 16.7033
v -0.46 0 -0.15
vt 5.90551 1.904e-016
f 1/1/1 2/2/1 3/3/1

v 0.278197 0.3 -0.45
vt 34.9684 16.7033
f 2/2/1 1/1/1 4/4/1

vn 3.22411e-017 -0.707107 -0.707107
f 3/3/2 2/2/2 1/1/2

v -0.5 0 -0.23
vt 0.880342 3.73497
vn 0.632456 -0.707107 -0.316228
vt 4.65859 20.4383
vt -2.64103 3.73497
f 5/5/3 2/6/3 3/7/3

v -0.61 0 -0.45
vt 10.5641 3.73497
f 2/6/3 5/5/3 6/8/3

vn -0.632456 0.707107 0.316228
f 6/8/4 5/5/4 2/6/4

v -0.5 0 -0.45
vt 4.33071 11.811
vn 0 1 -0
vt 0 11.811
vt 4.33071 3.14961
f 7/9/5 6/10/5 5/11/5

vt 4.33071 7.10543e-015
vn 5.78167e-034 6.01593e-016 1
vt 34.9684 11.811
vt 6.82875e-033 7.10543e-015
f 7/12/6 4/13/6 6/14/6

v 0.503607 0 -0.45
vt 43.8428 7.10543e-015
f 8/15/6 4/13/6 7/12/6

v 0.613607 0 -0.45
vt 48.1735 7.10543e-015
f 4/13/6 8/15/6 9/16/6

vn -5.78167e-034 -6.01593e-016 -1
f 9/16/7 8/15/7 4/13/7

vt 48.1735 11.811
vt 43.8428 11.811
v 0.503607 0 -0.23
vt 43.8428 3.14961
f 9/17/5 8/18/5 10/19/5

vn -0 -1 0
f 10/19/8 8/18/8 9/17/8

vt 42.268 0
f 8/18/5 1/20/5 10/19/5

vt 5.90551 0
f 8/18/5 3/21/5 1/20/5

f 7/9/5 3/21/5 8/18/5

f 3/21/5 7/9/5 5/11/5

f 5/11/8 7/9/8 3/21/8

f 5/11/8 6/10/8 7/9/8

f 6/14/7 4/13/7 7/12/7

vt 13.2051 11.811
f 6/14/6 4/13/6 2/22/6

f 2/22/7 4/13/7 6/14/7

f 4/4/2 1/1/2 2/2/2

vt -32.1079 -26.7326
vn -0.632456 -0.707107 -0.316228
vt -18.9028 -26.7326
vt -26.2024 -10.0293
f 9/23/9 1/24/9 4/25/9

vt -22.4242 -26.7326
f 1/24/9 9/23/9 10/26/9

vn 0.632456 0.707107 0.316228
f 4/25/10 1/24/10 9/23/10

f 10/26/10 9/23/10 1/24/10

f 10/19/8 1/20/8 8/18/8

f 1/20/8 3/21/8 8/18/8

f 8/18/8 3/21/8 7/9/8

f 7/12/7 4/13/7 8/15/7

f 3/7/4 2/6/4 5/5/4

