# Alias OBJ Model File
# Exported from SketchUp, (c) 2000-2012 Trimble Navigation Limited
# File units = meters

mtllib bay_roof_2.mtl

g Mesh1 Model

usemtl M_0020_Red
v 0.5 0 -0.45
vt -19.685 17.7165
vn 0 -1 -0
v -0.4 0 -0.25
vt 15.748 9.84252
v -0.5 0 -0.45
vt 19.685 17.7165
f 1/1/1 2/2/1 3/3/1

v 0.4 0 -0.25
vt -15.748 9.84252
f 2/2/1 1/1/1 4/4/1

usemtl BackColor
vn -0 1 0
f 3/3/2 2/2/2 1/1/2

usemtl M_0020_Red
vt -15.8462 0
vn -0.894427 0 0.447214
v -0.5 0.1 -0.45
vt -24.6496 3.93701
vt -24.6496 0
f 2/5/3 5/6/3 3/7/3

v -0.4 0.1 -0.25
vt -15.8462 3.93701
f 5/6/3 2/5/3 6/8/3

usemtl BackColor
vn 0.894427 -0 -0.447214
f 6/8/4 2/5/4 5/6/4

usemtl M_0020_Red
vt -15.748 0
vn 0 0 1
v 0.4 0.1 -0.25
vt 15.748 3.93701
vt -15.748 3.93701
f 2/9/5 7/10/5 6/11/5

vt 15.748 0
f 7/10/5 2/9/5 4/12/5

usemtl BackColor
vn -0 -0 -1
f 4/12/6 2/9/6 7/10/6

f 4/4/2 1/1/2 2/2/2

usemtl M_0020_Red
vt 24.6496 0
vn 0.894427 0 0.447214
vt 15.8462 3.93701
vt 15.8462 0
f 1/13/7 7/14/7 4/15/7

v 0.5 0.1 -0.45
vt 24.6496 3.93701
f 7/14/7 1/13/7 8/16/7

usemtl BackColor
vn -0.894427 -0 -0.447214
f 4/15/8 7/14/8 1/13/8

f 8/16/8 1/13/8 7/14/8

usemtl M_0020_Red
vt -19.685 0
vn 0 0 -1
vt 19.685 3.93701
vt -19.685 3.93701
f 1/17/9 5/18/9 8/19/9

vt 19.685 0
f 5/18/9 1/17/9 3/20/9

usemtl BackColor
vn -0 -0 1
f 3/20/10 1/17/10 5/18/10

f 8/19/10 5/18/10 1/17/10

usemtl M_0020_Red
vn 0 1 -0
f 6/4/11 8/3/11 5/1/11

f 8/3/11 6/4/11 7/2/11

usemtl BackColor
vn -0 -1 0
f 5/1/12 8/3/12 6/4/12

f 7/2/12 6/4/12 8/3/12

f 6/11/6 7/10/6 2/9/6

f 3/7/4 5/6/4 2/5/4

