# Alias OBJ Model File
# Exported from SketchUp, (c) 2000-2012 Trimble Navigation Limited
# File units = meters

mtllib chimney_top_long.mtl

g Mesh1 Chimney3_1 Model

usemtl M_0043_SaddleBrown
v 0.15 0.95 -0.2
vt 11.811 37.4016
vn 0 0 1
v -0.15 5.63993e-018 -0.2
vt 0 0
v 0.15 5.63993e-018 -0.2
vt 11.811 0
f 1/1/1 2/2/1 3/3/1

v -0.15 0.95 -0.2
vt 0 37.4016
f 2/2/1 1/1/1 4/4/1

vn -0 -0 -1
f 3/3/2 2/2/2 1/1/2

vn 0 -1 -0
v -0.1 5.63993e-018 -0.25
vt -1.9685 1.9685
vt -11.811 0
f 2/2/3 5/5/3 3/6/3

v -0.1 5.63993e-018 -0.45
vt -1.9685 9.84252
f 5/5/3 2/2/3 6/7/3

vn -0 1 0
f 3/6/4 5/5/4 2/2/4

v 0.1 5.63993e-018 -0.25
vt -9.84252 1.9685
f 3/6/3 5/5/3 7/8/3

f 7/8/4 5/5/4 3/6/4

v -0.1 0.95 -0.25
vt -1.9685 37.4016
vn 0 0 -1
vt -9.84252 0
vt -1.9685 0
f 8/9/5 7/10/5 5/11/5

v 0.1 0.95 -0.25
vt -9.84252 37.4016
f 7/10/5 8/9/5 9/12/5

vn -0 -0 1
f 5/11/6 7/10/6 8/9/6

f 9/12/6 8/9/6 7/10/6

vt 1.9685 1.9685
vn 0 1 -0
vt 9.84252 1.9685
f 8/13/7 1/3/7 9/14/7

f 8/13/7 4/2/7 1/3/7

v -0.15 0.95 -0.5
vt 0 11.811
f 4/2/7 8/13/7 10/15/7

vn -0 -1 0
f 10/15/8 8/13/8 4/2/8

v -0.1 0.95 -0.45
vt 1.9685 9.84252
f 11/16/7 10/15/7 8/13/7

v 0.15 0.95 -0.5
vt 11.811 11.811
f 10/15/7 11/16/7 12/17/7

f 12/17/8 11/16/8 10/15/8

v 0.1 0.95 -0.45
vt 9.84252 9.84252
f 12/17/7 11/16/7 13/18/7

f 13/18/8 11/16/8 12/17/8

vt 1.9685 0
vt 9.84252 37.4016
vt 1.9685 37.4016
f 6/19/1 13/20/1 11/21/1

v 0.1 5.63993e-018 -0.45
vt 9.84252 0
f 13/20/1 6/19/1 14/22/1

f 14/22/2 6/19/2 13/20/2

v 0.15 5.63993e-018 -0.5
vt -11.811 11.811
vt -9.84252 9.84252
f 6/7/3 15/23/3 14/24/3

v -0.15 5.63993e-018 -0.5
f 6/7/3 16/15/3 15/23/3

f 16/15/3 6/7/3 2/2/3

f 2/2/4 6/7/4 16/15/4

f 6/7/4 2/2/4 5/5/4

vn 1 0 -0
f 6/22/9 8/21/9 5/19/9

f 8/21/9 6/22/9 11/20/9

vn -1 -0 0
f 5/19/10 8/21/10 6/22/10

f 11/20/10 6/22/10 8/21/10

f 11/21/2 13/20/2 6/19/2

f 8/13/8 10/15/8 11/16/8

f 15/23/4 16/15/4 6/7/4

f 10/4/5 15/6/5 16/2/5

vt -11.811 37.4016
f 15/6/5 10/4/5 12/25/5

f 16/2/6 15/6/6 10/4/6

f 12/25/6 10/4/6 15/6/6

v 0.2 0.95 -0.55
vt 13.7795 13.7795
f 17/26/7 10/15/7 12/17/7

v -0.2 0.95 -0.55
vt -1.9685 13.7795
f 10/15/7 17/26/7 18/27/7

usemtl M_0036_BurlyWood
f 18/27/8 17/26/8 10/15/8

usemtl M_0043_SaddleBrown
v 0.2 1 -0.55
vt 13.7795 39.3701
vt 13.7795 37.4016
f 19/28/1 18/9/1 17/29/1

v -0.2 1 -0.55
vt -1.9685 39.3701
f 18/9/1 19/28/1 20/30/1

usemtl M_0036_BurlyWood
f 17/29/2 18/9/2 19/28/2

f 20/30/2 19/28/2 18/9/2

usemtl M_0043_SaddleBrown
vt -13.7795 13.7795
v -0.15 1 -0.5
vt 1.9685 13.7795
f 19/31/3 21/15/3 20/32/3

v 0.15 1 -0.5
f 21/15/3 19/31/3 22/23/3

usemtl M_0036_BurlyWood
f 20/32/4 21/15/4 19/31/4

usemtl M_0043_SaddleBrown
vt 8.35165 37.4016
vn 0.707107 0 -0.707107
vt 11.1355 39.3701
vt 8.35165 39.3701
f 10/33/11 20/34/11 21/35/11

vt 11.1355 37.4016
f 20/34/11 10/33/11 18/36/11

vn -0.707107 -0 0.707107
f 18/36/12 10/33/12 20/34/12

f 18/27/7 4/2/7 10/15/7

v -0.2 0.95 -0.15
vt -1.9685 -1.9685
f 4/2/7 18/27/7 23/37/7

usemtl M_0036_BurlyWood
f 23/37/8 18/27/8 4/2/8

usemtl M_0043_SaddleBrown
v -0.2 1 -0.15
f 18/29/9 24/30/9 23/9/9

f 24/30/9 18/29/9 20/28/9

usemtl M_0036_BurlyWood
f 23/9/10 24/30/10 18/29/10

usemtl M_0043_SaddleBrown
vt 1.9685 39.3701
v 0.2 0.95 -0.15
vt -13.7795 37.4016
f 24/38/5 25/39/5 23/21/5

v 0.2 1 -0.15
vt -13.7795 39.3701
f 25/39/5 24/38/5 26/40/5

usemtl M_0036_BurlyWood
f 23/21/6 25/39/6 24/38/6

usemtl M_0043_SaddleBrown
vt 13.7795 -1.9685
f 25/41/7 4/2/7 23/37/7

f 4/2/7 25/41/7 1/3/7

usemtl M_0036_BurlyWood
f 23/37/8 4/2/8 25/41/8

usemtl M_0043_SaddleBrown
v -0.15 1 -0.2
vt 0 39.3701
vn 0.707107 0 0.707107
vt -2.78388 37.4016
f 27/42/13 23/43/13 4/4/13

vt -2.78388 39.3701
f 23/43/13 27/42/13 24/44/13

vn -0.707107 -0 -0.707107
f 4/4/14 23/43/14 27/42/14

f 24/44/14 27/42/14 23/43/14

vt -13.7795 -1.9685
vt 1.9685 -1.9685
f 27/2/3 26/45/3 24/46/3

v 0.15 1 -0.2
f 26/45/3 27/2/3 28/6/3

usemtl M_0036_BurlyWood
f 24/46/4 26/45/4 27/2/4

f 26/40/6 24/38/6 25/39/6

usemtl M_0043_SaddleBrown
vn -1 0 -0
f 19/40/15 25/21/15 26/38/15

f 25/21/15 19/40/15 17/39/15

usemtl M_0036_BurlyWood
vn 1 -0 0
f 26/38/16 25/21/16 19/40/16

usemtl M_0043_SaddleBrown
vt -11.1355 37.4016
vt -8.35165 39.3701
vt -11.1355 39.3701
f 25/47/11 28/48/11 26/49/11

vt -8.35165 37.4016
f 28/48/11 25/47/11 1/50/11

f 1/50/12 25/47/12 28/48/12

usemtl M_0036_BurlyWood
f 1/3/8 25/41/8 4/2/8

usemtl M_0043_SaddleBrown
f 25/41/7 12/17/7 1/3/7

f 12/17/7 25/41/7 17/26/7

usemtl M_0036_BurlyWood
f 1/3/8 12/17/8 25/41/8

usemtl M_0043_SaddleBrown
f 12/1/9 28/42/9 1/4/9

vt 11.811 39.3701
f 28/42/9 12/1/9 22/51/9

usemtl M_0036_BurlyWood
f 1/4/10 28/42/10 12/1/10

usemtl M_0043_SaddleBrown
f 28/51/1 4/4/1 1/1/1

f 4/4/1 28/51/1 27/42/1

usemtl M_0036_BurlyWood
f 1/1/2 4/4/2 28/51/2

usemtl M_0043_SaddleBrown
f 4/4/2 1/1/2 2/2/2

f 1/3/8 4/2/8 8/13/8

f 9/14/8 1/3/8 8/13/8

f 9/14/7 1/3/7 13/18/7

f 13/18/8 1/3/8 9/14/8

f 12/17/7 13/18/7 1/3/7

f 1/3/8 13/18/8 12/17/8

f 1/4/9 15/3/9 12/1/9

f 15/3/9 1/4/9 3/2/9

f 3/2/10 1/4/10 15/3/10

f 12/1/10 15/3/10 1/4/10

f 3/6/3 7/8/3 15/23/3

f 15/23/4 7/8/4 3/6/4

f 14/24/3 15/23/3 7/8/3

f 14/24/4 15/23/4 6/7/4

f 7/8/4 15/23/4 14/24/4

f 7/11/15 13/12/15 14/10/15

f 13/12/15 7/11/15 9/9/15

f 9/9/16 7/11/16 13/12/16

f 14/10/16 13/12/16 7/11/16

f 10/25/15 2/2/15 4/4/15

f 2/2/15 10/25/15 16/6/15

f 4/4/16 2/2/16 10/25/16

f 16/6/16 10/25/16 2/2/16

vt -11.811 39.3701
f 4/4/15 21/52/15 10/25/15

f 21/52/15 4/4/15 27/42/15

usemtl M_0036_BurlyWood
f 27/42/16 4/4/16 21/52/16

f 27/42/2 28/51/2 4/4/2

f 28/6/4 27/2/4 26/45/4

usemtl M_0043_SaddleBrown
f 28/6/3 19/31/3 26/45/3

f 19/31/3 28/6/3 22/23/3

usemtl M_0036_BurlyWood
f 22/23/4 28/6/4 19/31/4

f 22/51/10 12/1/10 28/42/10

usemtl M_0043_SaddleBrown
vt 16.7033 37.4016
vt 19.4872 39.3701
vt 16.7033 39.3701
f 12/53/13 19/54/13 22/55/13

vt 19.4872 37.4016
f 19/54/13 12/53/13 17/56/13

f 17/56/14 12/53/14 19/54/14

usemtl M_0036_BurlyWood
f 12/17/8 10/15/8 17/26/8

usemtl M_0043_SaddleBrown
f 21/42/5 12/25/5 10/4/5

f 12/25/5 21/42/5 22/52/5

usemtl M_0036_BurlyWood
f 10/4/6 12/25/6 21/42/6

f 22/52/6 21/42/6 12/25/6

f 22/23/4 19/31/4 21/15/4

usemtl M_0043_SaddleBrown
f 22/55/14 19/54/14 12/53/14

f 21/35/12 20/34/12 10/33/12

f 21/15/3 24/46/3 20/32/3

f 24/46/3 21/15/3 27/2/3

usemtl M_0036_BurlyWood
f 20/32/4 24/46/4 21/15/4

f 20/28/10 18/29/10 24/30/10

f 27/2/4 21/15/4 24/46/4

f 10/25/16 21/52/16 4/4/16

f 10/15/8 4/2/8 18/27/8

f 17/26/8 25/41/8 12/17/8

f 17/39/16 19/40/16 25/21/16

f 26/45/4 19/31/4 28/6/4

usemtl M_0043_SaddleBrown
f 26/49/12 28/48/12 25/47/12

