# Alias OBJ Model File
# Exported from SketchUp, (c) 2000-2012 Trimble Navigation Limited
# File units = meters

mtllib chimney_top.mtl

g Mesh1 Chimney3_1 Model

usemtl M_0043_SaddleBrown
v 0.15 0.4 -0.2
vt 11.811 11.811
vn 0 0 1
v -0.15 0 -0.2
vt 0 -3.93701
v 0.15 0 -0.2
vt 11.811 -3.93701
f 1/1/1 2/2/1 3/3/1

v -0.15 0.4 -0.2
vt 0 11.811
f 2/2/1 1/1/1 4/4/1

vn -0 -0 -1
f 3/3/2 2/2/2 1/1/2

vt 0 0
vn 0 -1 -0
v -0.1 0 -0.25
vt -1.9685 1.9685
vt -11.811 0
f 2/5/3 5/6/3 3/7/3

v -0.1 0 -0.45
vt -1.9685 9.84252
f 5/6/3 2/5/3 6/8/3

vn -0 1 0
f 3/7/4 5/6/4 2/5/4

v 0.1 0 -0.25
vt -9.84252 1.9685
f 3/7/3 5/6/3 7/9/3

f 7/9/4 5/6/4 3/7/4

v -0.1 0.4 -0.25
vt -1.9685 11.811
vn 0 0 -1
vt -9.84252 -3.93701
vt -1.9685 -3.93701
f 8/10/5 7/11/5 5/12/5

v 0.1 0.4 -0.25
vt -9.84252 11.811
f 7/11/5 8/10/5 9/13/5

vn -0 -0 1
f 5/12/6 7/11/6 8/10/6

f 9/13/6 8/10/6 7/11/6

vt 1.9685 1.9685
vn 0 1 -0
vt 11.811 0
vt 9.84252 1.9685
f 8/14/7 1/15/7 9/16/7

f 8/14/7 4/5/7 1/15/7

v -0.15 0.4 -0.5
f 4/5/7 8/14/7 10/4/7

vn -0 -1 0
f 10/4/8 8/14/8 4/5/8

v -0.1 0.4 -0.45
vt 1.9685 9.84252
f 11/17/7 10/4/7 8/14/7

v 0.15 0.4 -0.5
f 10/4/7 11/17/7 12/1/7

f 12/1/8 11/17/8 10/4/8

v 0.1 0.4 -0.45
vt 9.84252 9.84252
f 12/1/7 11/17/7 13/18/7

f 13/18/8 11/17/8 12/1/8

vt 1.9685 -3.93701
vt 9.84252 11.811
vt 1.9685 11.811
f 6/19/1 13/20/1 11/21/1

v 0.1 0 -0.45
vt 9.84252 -3.93701
f 13/20/1 6/19/1 14/22/1

f 14/22/2 6/19/2 13/20/2

v 0.15 0 -0.5
vt -11.811 11.811
vt -9.84252 9.84252
f 6/8/3 15/23/3 14/24/3

v -0.15 0 -0.5
f 6/8/3 16/4/3 15/23/3

f 16/4/3 6/8/3 2/5/3

f 2/5/4 6/8/4 16/4/4

f 6/8/4 2/5/4 5/6/4

vn 1 0 -0
f 6/22/9 8/21/9 5/19/9

f 8/21/9 6/22/9 11/20/9

vn -1 -0 0
f 5/19/10 8/21/10 6/22/10

f 11/20/10 6/22/10 8/21/10

f 11/21/2 13/20/2 6/19/2

f 8/14/8 10/4/8 11/17/8

f 15/23/4 16/4/4 6/8/4

vt -11.811 -3.93701
f 10/4/5 15/25/5 16/2/5

f 15/25/5 10/4/5 12/23/5

f 16/2/6 15/25/6 10/4/6

f 12/23/6 10/4/6 15/25/6

v 0.2 0.4 -0.55
vt 13.7795 13.7795
f 17/26/7 10/4/7 12/1/7

v -0.2 0.4 -0.55
vt -1.9685 13.7795
f 10/4/7 17/26/7 18/27/7

usemtl M_0036_BurlyWood
f 18/27/8 17/26/8 10/4/8

usemtl M_0043_SaddleBrown
v 0.2 0.45 -0.55
vt 13.7795 11.811
f 19/26/1 18/10/1 17/28/1

v -0.2 0.45 -0.55
f 18/10/1 19/26/1 20/27/1

usemtl M_0036_BurlyWood
f 17/28/2 18/10/2 19/26/2

f 20/27/2 19/26/2 18/10/2

usemtl M_0043_SaddleBrown
vt -13.7795 13.7795
v -0.15 0.45 -0.5
vt 1.9685 13.7795
f 19/29/3 21/4/3 20/30/3

v 0.15 0.45 -0.5
f 21/4/3 19/29/3 22/23/3

usemtl M_0036_BurlyWood
f 20/30/4 21/4/4 19/29/4

usemtl M_0043_SaddleBrown
vt 8.35165 11.811
vn 0.707107 0 -0.707107
vt 11.1355 13.7795
vt 8.35165 13.7795
f 10/31/11 20/32/11 21/33/11

vt 11.1355 11.811
f 20/32/11 10/31/11 18/34/11

vn -0.707107 -0 0.707107
f 18/34/12 10/31/12 20/32/12

f 18/27/7 4/5/7 10/4/7

v -0.2 0.4 -0.15
vt -1.9685 -1.9685
f 4/5/7 18/27/7 23/35/7

usemtl M_0036_BurlyWood
f 23/35/8 18/27/8 4/5/8

usemtl M_0043_SaddleBrown
v -0.2 0.45 -0.15
f 18/28/9 24/27/9 23/10/9

f 24/27/9 18/28/9 20/26/9

usemtl M_0036_BurlyWood
f 23/10/10 24/27/10 18/28/10

usemtl M_0043_SaddleBrown
v 0.2 0.4 -0.15
vt -13.7795 11.811
f 24/30/5 25/36/5 23/21/5

v 0.2 0.45 -0.15
f 25/36/5 24/30/5 26/29/5

usemtl M_0036_BurlyWood
f 23/21/6 25/36/6 24/30/6

usemtl M_0043_SaddleBrown
vt 13.7795 -1.9685
f 25/37/7 4/5/7 23/35/7

f 4/5/7 25/37/7 1/15/7

usemtl M_0036_BurlyWood
f 23/35/8 4/5/8 25/37/8

usemtl M_0043_SaddleBrown
v -0.15 0.45 -0.2
vt 0 13.7795
vn 0.707107 0 0.707107
vt -2.78388 11.811
f 27/38/13 23/39/13 4/4/13

vt -2.78388 13.7795
f 23/39/13 27/38/13 24/40/13

vn -0.707107 -0 -0.707107
f 4/4/14 23/39/14 27/38/14

f 24/40/14 27/38/14 23/39/14

vt -13.7795 -1.9685
vt 1.9685 -1.9685
f 27/5/3 26/41/3 24/42/3

v 0.15 0.45 -0.2
f 26/41/3 27/5/3 28/7/3

usemtl M_0036_BurlyWood
f 24/42/4 26/41/4 27/5/4

f 26/29/6 24/30/6 25/36/6

usemtl M_0043_SaddleBrown
vn -1 0 -0
f 19/29/15 25/21/15 26/30/15

f 25/21/15 19/29/15 17/36/15

usemtl M_0036_BurlyWood
vn 1 -0 0
f 26/30/16 25/21/16 19/29/16

usemtl M_0043_SaddleBrown
vt -11.1355 11.811
vt -8.35165 13.7795
vt -11.1355 13.7795
f 25/43/11 28/44/11 26/45/11

vt -8.35165 11.811
f 28/44/11 25/43/11 1/46/11

f 1/46/12 25/43/12 28/44/12

usemtl M_0036_BurlyWood
f 1/15/8 25/37/8 4/5/8

usemtl M_0043_SaddleBrown
f 25/37/7 12/1/7 1/15/7

f 12/1/7 25/37/7 17/26/7

usemtl M_0036_BurlyWood
f 1/15/8 12/1/8 25/37/8

usemtl M_0043_SaddleBrown
f 12/1/9 28/38/9 1/4/9

vt 11.811 13.7795
f 28/38/9 12/1/9 22/47/9

usemtl M_0036_BurlyWood
f 1/4/10 28/38/10 12/1/10

usemtl M_0043_SaddleBrown
f 28/47/1 4/4/1 1/1/1

f 4/4/1 28/47/1 27/38/1

usemtl M_0036_BurlyWood
f 1/1/2 4/4/2 28/47/2

usemtl M_0043_SaddleBrown
f 4/4/2 1/1/2 2/2/2

f 1/15/8 4/5/8 8/14/8

f 9/16/8 1/15/8 8/14/8

f 9/16/7 1/15/7 13/18/7

f 13/18/8 1/15/8 9/16/8

f 12/1/7 13/18/7 1/15/7

f 1/15/8 13/18/8 12/1/8

f 1/4/9 15/3/9 12/1/9

f 15/3/9 1/4/9 3/2/9

f 3/2/10 1/4/10 15/3/10

f 12/1/10 15/3/10 1/4/10

f 3/7/3 7/9/3 15/23/3

f 15/23/4 7/9/4 3/7/4

f 14/24/3 15/23/3 7/9/3

f 14/24/4 15/23/4 6/8/4

f 7/9/4 15/23/4 14/24/4

f 7/12/15 13/13/15 14/11/15

f 13/13/15 7/12/15 9/10/15

f 9/10/16 7/12/16 13/13/16

f 14/11/16 13/13/16 7/12/16

f 10/23/15 2/2/15 4/4/15

f 2/2/15 10/23/15 16/25/15

f 4/4/16 2/2/16 10/23/16

f 16/25/16 10/23/16 2/2/16

vt -11.811 13.7795
f 4/4/15 21/48/15 10/23/15

f 21/48/15 4/4/15 27/38/15

usemtl M_0036_BurlyWood
f 27/38/16 4/4/16 21/48/16

f 27/38/2 28/47/2 4/4/2

f 28/7/4 27/5/4 26/41/4

usemtl M_0043_SaddleBrown
f 28/7/3 19/29/3 26/41/3

f 19/29/3 28/7/3 22/23/3

usemtl M_0036_BurlyWood
f 22/23/4 28/7/4 19/29/4

f 22/47/10 12/1/10 28/38/10

usemtl M_0043_SaddleBrown
vt 16.7033 11.811
vt 19.4872 13.7795
vt 16.7033 13.7795
f 12/49/13 19/50/13 22/51/13

vt 19.4872 11.811
f 19/50/13 12/49/13 17/52/13

f 17/52/14 12/49/14 19/50/14

usemtl M_0036_BurlyWood
f 12/1/8 10/4/8 17/26/8

usemtl M_0043_SaddleBrown
f 21/38/5 12/23/5 10/4/5

f 12/23/5 21/38/5 22/48/5

usemtl M_0036_BurlyWood
f 10/4/6 12/23/6 21/38/6

f 22/48/6 21/38/6 12/23/6

f 22/23/4 19/29/4 21/4/4

usemtl M_0043_SaddleBrown
f 22/51/14 19/50/14 12/49/14

f 21/33/12 20/32/12 10/31/12

f 21/4/3 24/42/3 20/30/3

f 24/42/3 21/4/3 27/5/3

usemtl M_0036_BurlyWood
f 20/30/4 24/42/4 21/4/4

f 20/26/10 18/28/10 24/27/10

f 27/5/4 21/4/4 24/42/4

f 10/23/16 21/48/16 4/4/16

f 10/4/8 4/5/8 18/27/8

f 17/26/8 25/37/8 12/1/8

f 17/36/16 19/29/16 25/21/16

f 26/41/4 19/29/4 28/7/4

usemtl M_0043_SaddleBrown
f 26/45/12 28/44/12 25/43/12

