# Alias OBJ Model File
# Exported from SketchUp, (c) 2000-2012 Trimble Navigation Limited
# File units = meters

mtllib doorway_double.mtl

g Mesh1 wall_7_1 Model

usemtl M_0042_Sienna
v -0.5 1 -0.45
vt 0 0
vn 0 1 -0
v -0.35 1 -0.55
vt 5.90551 3.93701
v -0.5 1 -0.55
vt -1.77636e-014 3.93701
f 1/1/1 2/2/1 3/3/1

v -0.35 1 -0.45
vt 5.90551 1.10761e-013
f 2/2/1 1/1/1 4/4/1

vn -0 -1 0
f 3/3/2 2/2/2 1/1/2

v -0.35 0.7 -0.55
vt -5.90551 27.5591
vn -8.33148e-015 1.3404e-016 -1
vt -1.50375e-014 39.3701
vt -5.90551 39.3701
f 5/5/3 3/6/3 2/7/3

v -0.35 0 -0.55
vt -5.90551 -5.27716e-016
f 6/8/3 3/6/3 5/5/3

v -0.5 0 -0.55
vt -1.50375e-014 -5.27716e-016
f 3/6/3 6/8/3 7/9/3

vn 8.33148e-015 -1.3404e-016 1
f 7/9/4 6/8/4 3/6/4

vt -5.90551 3.93701
vn 0 -1 -0
v -0.5 0 -0.45
vt 1.77636e-014 3.93701
f 6/10/5 8/1/5 7/11/5

v -0.35 0 -0.53
vt -5.90551 3.14961
f 8/1/5 6/10/5 9/12/5

vn -0 1 0
f 7/11/6 8/1/6 6/10/6

vn -1 0 -0
vt -3.93701 39.3701
vt -3.93701 0
f 8/1/7 3/13/7 7/14/7

vt 0 39.3701
f 3/13/7 8/1/7 1/15/7

vn 1 -0 0
f 1/15/8 8/1/8 3/13/8

vn 1.40839e-014 4.25688e-016 1
v -0.35 0.7 -0.45
vt 5.90551 27.5591
f 8/1/9 10/16/9 1/15/9

v -0.35 0 -0.45
vt 5.90551 -5.15862e-030
f 10/16/9 8/1/9 11/17/9

vn -1.40839e-014 -4.25688e-016 -1
f 11/17/10 8/1/10 10/16/10

vt -5.90551 7.10543e-014
f 8/1/5 9/12/5 11/18/5

f 9/12/6 6/10/6 8/1/6

vt 3.93701 0
vn 1 0 -2.77556e-016
v -0.35 0.7 -0.53
vt 3.14961 27.5591
vt 3.14961 0
f 6/19/11 12/20/11 9/21/11

vt 3.93701 27.5591
f 12/20/11 6/19/11 5/22/11

vn -1 -0 2.77556e-016
f 9/21/12 12/20/12 6/19/12

v -0.35 0.7 -0.47
vt 0.787402 27.5591
f 13/23/11 9/21/11 12/20/11

v -0.35 0 -0.47
vt 0.787402 0
f 9/21/11 13/23/11 14/24/11

f 14/24/12 13/23/12 9/21/12

vt 6.94152e-014 27.5591
f 10/25/11 14/24/11 13/23/11

vt 6.94152e-014 0
f 14/24/11 10/25/11 11/26/11

f 11/26/12 10/25/12 14/24/12

f 13/23/12 14/24/12 10/25/12

vn 6.40731e-015 -6.40901e-017 -1
v -0.3 0 -0.47
vt -7.87402 5.04647e-017
vt -5.90551 5.04647e-017
f 13/5/13 15/27/13 14/28/13

v -0.3 0.65 -0.47
vt -7.87402 25.5906
f 15/27/13 13/5/13 16/29/13

usemtl M_0043_SaddleBrown
vn -6.40731e-015 6.40901e-017 1
f 14/28/14 15/27/14 13/5/14

usemtl M_0042_Sienna
vt -5.90551 0.787402
v -0.3 0 -0.53
vt -7.87402 3.14961
vt -7.87402 0.787402
f 14/30/5 17/31/5 15/32/5

f 17/31/5 14/30/5 9/12/5

f 9/12/6 14/30/6 17/31/6

f 11/18/5 9/12/5 14/30/5

f 11/18/6 9/12/6 8/1/6

f 14/30/6 9/12/6 11/18/6

f 15/32/6 17/31/6 14/30/6

vt -0.787402 0
vn -1 0 2.77556e-016
v -0.3 0.65 -0.53
vt -3.14961 25.5906
vt -3.14961 0
f 15/33/15 18/34/15 17/35/15

vt -0.787402 25.5906
f 18/34/15 15/33/15 16/36/15

usemtl M_0043_SaddleBrown
vn 1 -0 -2.77556e-016
f 16/36/16 15/33/16 18/34/16

f 16/29/14 13/5/14 15/27/14

usemtl M_0042_Sienna
v -0.3 0.7 -0.47
vt -7.87402 27.5591
f 16/29/13 13/5/13 19/37/13

usemtl M_0043_SaddleBrown
f 19/37/14 13/5/14 16/29/14

usemtl M_0042_Sienna
v -0.3 0.7 -0.53
f 13/30/5 20/31/5 19/32/5

f 20/31/5 13/30/5 12/12/5

f 12/12/6 13/30/6 20/31/6

f 12/20/12 9/21/12 13/23/12

vt 5.90551 6.45948e-017
vn -3.34978e-015 2.05088e-017 1
vt 7.87402 25.5906
f 9/38/17 18/39/17 12/16/17

vt 7.87402 6.45948e-017
f 18/39/17 9/38/17 17/40/17

usemtl M_0043_SaddleBrown
vn 3.34978e-015 -2.05088e-017 -1
f 17/40/18 9/38/18 18/39/18

f 12/16/18 18/39/18 9/38/18

usemtl M_0042_Sienna
vt 7.87402 27.5591
f 12/16/17 18/39/17 20/41/17

usemtl M_0043_SaddleBrown
f 20/41/18 18/39/18 12/16/18

usemtl M_0042_Sienna
vn -1.31598e-015 -4.51195e-016 1
v 0.3 0.7 -0.53
vt 31.4961 27.5591
f 18/39/19 21/42/19 20/41/19

v 0.3 0.65 -0.53
vt 31.4961 25.5906
f 21/42/19 18/39/19 22/43/19

usemtl M_0043_SaddleBrown
vn 1.31598e-015 4.51195e-016 -1
f 22/43/20 18/39/20 21/42/20

usemtl M_0042_Sienna
vt 7.87402 0.787402
vt 31.4961 3.14961
vt 7.87402 3.14961
f 16/44/1 22/45/1 18/46/1

v 0.3 0.65 -0.47
vt 31.4961 0.787402
f 22/45/1 16/44/1 23/47/1

usemtl M_0043_SaddleBrown
f 18/46/2 22/45/2 16/44/2

f 23/47/2 16/44/2 22/45/2

usemtl M_0042_Sienna
vn 8.4129e-016 5.63993e-017 -1
vt -31.4961 25.5906
f 19/37/21 23/48/21 16/29/21

v 0.3 0.7 -0.47
vt -31.4961 27.5591
f 23/48/21 19/37/21 24/49/21

usemtl M_0043_SaddleBrown
vn -8.4129e-016 -5.63993e-017 1
f 16/29/22 23/48/22 19/37/22

f 24/49/22 19/37/22 23/48/22

usemtl M_0042_Sienna
vt -31.4961 3.14961
vt -31.4961 0.787402
f 19/32/5 21/50/5 24/51/5

f 19/32/5 20/31/5 21/50/5

f 19/32/6 20/31/6 13/30/6

f 21/50/6 20/31/6 19/32/6

v 0.35 0.7 -0.55
vt -33.4646 3.93701
f 20/31/5 25/52/5 21/50/5

f 12/12/5 25/52/5 20/31/5

f 25/52/5 12/12/5 5/10/5

f 5/10/6 12/12/6 25/52/6

f 5/22/12 6/19/12 12/20/12

f 5/5/4 3/6/4 6/8/4

f 2/7/4 3/6/4 5/5/4

vn 1.27301e-015 1.69198e-015 -1
vt -33.4646 27.5591
f 2/7/23 25/53/23 5/5/23

v 0.35 1 -0.55
vt -33.4646 39.3701
f 25/53/23 2/7/23 26/54/23

vn -1.27301e-015 -1.69198e-015 1
f 5/5/24 25/53/24 2/7/24

f 26/54/24 2/7/24 25/53/24

vt 33.4646 3.93701
f 2/2/1 4/4/1 26/55/1

f 4/4/2 1/1/2 2/2/2

vt 5.90551 39.3701
f 1/15/9 10/16/9 4/56/9

f 1/15/10 10/16/10 8/1/10

f 4/56/10 10/16/10 1/15/10

vn 2.76404e-014 1.68092e-015 1
v 0.35 1 -0.45
vt 33.4646 39.3701
f 10/16/25 27/57/25 4/56/25

v 0.35 0.7 -0.45
vt 33.4646 27.5591
f 27/57/25 10/16/25 28/58/25

vn -2.76404e-014 -1.68092e-015 -1
f 28/58/26 10/16/26 27/57/26

vt -5.90551 -5.32907e-014
vn 6.05767e-029 -1 4.51195e-015
vt -33.4646 7.28306e-013
f 10/59/27 19/32/27 28/60/27

f 19/32/27 10/59/27 13/30/27

vn -6.05767e-029 1 -4.51195e-015
f 13/30/28 10/59/28 19/32/28

f 28/60/28 19/32/28 10/59/28

f 28/60/27 19/32/27 24/51/27

f 24/51/28 19/32/28 28/60/28

f 24/51/6 21/50/6 19/32/6

v 0.35 0.7 -0.53
vt -33.4646 3.14961
f 24/51/5 21/50/5 29/61/5

f 29/61/6 21/50/6 24/51/6

f 21/50/5 25/52/5 29/61/5

f 21/50/6 25/52/6 20/31/6

f 29/61/6 25/52/6 21/50/6

vt -3.93701 27.5591
v 0.35 2.70717e-016 -0.53
vt -3.14961 1.06581e-014
vt -3.14961 27.5591
f 25/62/15 30/63/15 29/64/15

v 0.35 1.35358e-016 -0.55
vt -3.93701 5.32907e-015
f 30/63/15 25/62/15 31/65/15

f 29/64/16 30/63/16 25/62/16

v 0.35 2.70717e-016 -0.47
vt -0.787402 1.06581e-014
f 32/66/15 29/64/15 30/63/15

v 0.35 0.7 -0.47
vt -0.787402 27.5591
f 29/64/15 32/66/15 33/67/15

f 33/67/16 32/66/16 29/64/16

vt -33.4646 1.06057e-014
vn 6.37483e-015 6.66538e-017 -1
f 32/68/29 23/48/29 33/53/29

v 0.3 2.70717e-016 -0.47
vt -31.4961 1.06057e-014
f 23/48/29 32/68/29 34/69/29

usemtl M_0043_SaddleBrown
vn -6.37483e-015 -6.66538e-017 1
f 34/69/30 32/68/30 23/48/30

usemtl M_0042_Sienna
vt -33.4646 0.787402
f 34/51/5 30/61/5 32/70/5

v 0.3 2.70717e-016 -0.53
f 30/61/5 34/51/5 35/50/5

f 35/50/6 34/51/6 30/61/6

vt 3.14961 1.06581e-014
vt 0.787402 25.5906
vt 0.787402 1.06581e-014
f 35/71/11 23/72/11 34/73/11

vt 3.14961 25.5906
f 23/72/11 35/71/11 22/74/11

usemtl M_0043_SaddleBrown
f 34/73/12 23/72/12 35/71/12

f 22/74/12 35/71/12 23/72/12

usemtl M_0042_Sienna
vt 31.4961 1.0529e-014
vn -4.89478e-015 -4.10177e-017 1
f 35/75/31 29/58/31 22/43/31

vt 33.4646 1.0529e-014
f 29/58/31 35/75/31 30/76/31

usemtl M_0043_SaddleBrown
vn 4.89478e-015 4.10177e-017 -1
f 30/76/32 35/75/32 29/58/32

f 22/43/32 29/58/32 35/75/32

usemtl M_0042_Sienna
f 22/43/31 29/58/31 21/42/31

usemtl M_0043_SaddleBrown
f 21/42/32 29/58/32 22/43/32

usemtl M_0042_Sienna
f 30/63/16 29/64/16 32/66/16

vn -1.12799e-015 -1 -5.73553e-016
v 0.5 0 -0.55
vt -39.3701 3.93701
f 30/61/33 36/77/33 32/70/33

f 36/77/33 30/61/33 31/52/33

vn 1.12799e-015 1 5.73553e-016
f 31/52/34 30/61/34 36/77/34

f 31/65/16 25/62/16 30/63/16

v 0.5 1 -0.55
vt -39.3701 39.3701
vn 7.67617e-016 -3.03238e-016 -1
vt -33.4646 6.52292e-015
f 37/78/35 31/79/35 25/53/35

vt -39.3701 1.19385e-015
f 31/79/35 37/78/35 36/80/35

vn -7.67617e-016 3.03238e-016 1
f 36/80/36 37/78/36 31/79/36

v 0.5 1 -0.45
vt -3.55271e-014 39.3701
vn 1 0 -0
vt 3.93701 39.3701
f 38/81/37 36/19/37 37/82/37

v 0.5 0 -0.45
vt -3.55271e-014 0
f 36/19/37 38/81/37 39/83/37

vn -1 -0 0
f 39/83/38 38/81/38 36/19/38

vt 39.3701 39.3701
vn -1.50398e-013 -1.16443e-030 1
v 0.35 3.78902e-033 -0.45
vt 33.4646 1.49174e-031
vt 39.3701 -6.85344e-042
f 38/84/39 40/85/39 39/86/39

f 40/85/39 38/84/39 28/58/39

vn 1.50398e-013 1.16443e-030 -1
f 39/86/40 40/85/40 38/84/40

vt -33.4646 8.52651e-013
vt -39.3701 -3.55271e-014
f 40/87/33 36/77/33 39/88/33

f 32/70/33 36/77/33 40/87/33

f 32/70/34 36/77/34 30/61/34

f 40/87/34 36/77/34 32/70/34

f 39/88/34 36/77/34 40/87/34

vt 3.98833e-012 -6.96145e-031
vn -1 -2.52601e-032 1.4466e-013
f 40/89/41 33/67/41 32/66/41

vt 3.98833e-012 27.5591
f 33/67/41 40/89/41 28/90/41

vn 1 2.52601e-032 -1.4466e-013
f 28/90/42 40/89/42 33/67/42

f 28/58/40 38/84/40 40/85/40

f 28/58/39 38/84/39 27/57/39

f 27/57/40 38/84/40 28/58/40

vt 39.3701 3.93701
vt 33.4646 8.52651e-013
vt 39.3701 -3.55271e-014
f 37/91/1 27/92/1 38/93/1

f 26/55/1 27/92/1 37/91/1

f 26/55/1 4/4/1 27/92/1

f 26/55/2 4/4/2 2/2/2

f 27/92/2 4/4/2 26/55/2

f 4/56/26 27/57/26 10/16/26

f 37/91/2 27/92/2 26/55/2

f 38/93/2 27/92/2 37/91/2

f 37/82/38 36/19/38 38/81/38

f 37/78/35 25/53/35 26/54/35

f 25/53/36 31/79/36 37/78/36

f 26/54/36 25/53/36 37/78/36

f 32/66/42 33/67/42 40/89/42

usemtl M_0043_SaddleBrown
f 33/53/30 23/48/30 32/68/30

usemtl M_0042_Sienna
f 33/53/29 23/48/29 24/49/29

usemtl M_0043_SaddleBrown
f 24/49/30 23/48/30 33/53/30

usemtl M_0042_Sienna
f 24/51/5 29/61/5 33/70/5

f 33/70/6 29/61/6 24/51/6

f 28/60/27 24/51/27 33/70/27

f 33/70/28 24/51/28 28/60/28

f 32/70/6 30/61/6 34/51/6

f 20/31/6 25/52/6 12/12/6

usemtl M_0043_SaddleBrown
f 20/41/20 21/42/20 18/39/20

f 17/35/16 18/34/16 15/33/16

usemtl M_0042_Sienna
f 7/14/8 3/13/8 8/1/8

