# Alias OBJ Model File
# Exported from SketchUp, (c) 2000-2012 Trimble Navigation Limited
# File units = meters

mtllib door1.mtl

g Mesh1 Door_4_1 Model

usemtl M_0043_SaddleBrown
v -0.15 0 -0.51
vt -2.10462 11.811
vn 0 -1 -0
v 0.15 0 -0.49
vt -1.31721 0
v -0.15 0 -0.49
vt -1.31721 11.811
f 1/1/1 2/2/1 3/3/1

v 0.15 0 -0.51
vt -2.10462 0
f 2/2/1 1/1/1 4/4/1

usemtl BackColor
vn -0 1 0
f 3/3/2 2/2/2 1/1/2

usemtl M_0043_SaddleBrown
vt 1.0968e-016 0
vn 0 0 1
v 0.11 0.05 -0.49
vt -1.5748 1.9685
vt -11.811 0
f 2/5/3 5/6/3 3/7/3

v 0.15 0.05 -0.49
vt 1.0968e-016 1.9685
f 5/6/3 2/5/3 6/8/3

usemtl BackColor
vn -0 -0 -1
f 6/8/4 2/5/4 5/6/4

usemtl M_0043_SaddleBrown
vt 1.31721 0
vn 1 0 -0
v 0.15 0.05 -0.51
vt 2.10462 1.9685
vt 1.31721 1.9685
f 2/9/5 7/10/5 6/11/5

vt 2.10462 0
f 7/10/5 2/9/5 4/12/5

usemtl BackColor
vn -1 -0 0
f 4/12/6 2/9/6 7/10/6

f 4/4/2 1/1/2 2/2/2

usemtl M_0043_SaddleBrown
vt 11.811 -1.89918e-015
vn 1.18527e-016 9.02389e-016 -1
vt 7.42103e-017 1.9685
vt 7.42103e-017 -1.89918e-015
f 1/13/7 7/14/7 4/15/7

v 0.11 0.05 -0.51
vt 1.5748 1.9685
f 7/14/7 1/13/7 8/16/7

usemtl BackColor
vn -1.18527e-016 -9.02389e-016 1
f 4/15/8 7/14/8 1/13/8

f 8/16/8 1/13/8 7/14/8

usemtl M_0043_SaddleBrown
v -0.11 0.05 -0.51
vt 10.2362 1.9685
f 8/16/7 1/13/7 9/17/7

usemtl BackColor
f 9/17/8 1/13/8 8/16/8

usemtl M_0043_SaddleBrown
v -0.15 0.05 -0.51
vt 11.811 1.9685
f 9/17/7 1/13/7 10/18/7

usemtl BackColor
f 10/18/8 1/13/8 9/17/8

usemtl M_0043_SaddleBrown
vn -1 0 -8.32667e-017
v -0.15 0.05 -0.49
vt -1.31721 1.9685
vt -2.10462 1.9685
f 1/4/9 11/19/9 10/20/9

f 11/19/9 1/4/9 3/2/9

usemtl BackColor
vn 1 -0 8.32667e-017
f 3/2/10 1/4/10 11/19/10

f 10/20/10 11/19/10 1/4/10

usemtl M_0043_SaddleBrown
v -0.15 0.6 -0.49
vt -1.31721 23.622
f 10/20/9 11/19/9 12/21/9

usemtl BackColor
f 12/21/10 11/19/10 10/20/10

usemtl M_0043_SaddleBrown
v -0.11 0.05 -0.49
vt -10.2362 1.9685
vt -11.811 23.622
vt -11.811 1.9685
f 13/22/3 12/23/3 11/24/3

v -0.11 0.6 -0.49
vt -10.2362 23.622
f 12/23/3 13/22/3 14/25/3

usemtl BackColor
f 14/25/4 13/22/4 12/23/4

usemtl FrontColor
vn 1 0 8.32667e-017
v -0.11 0.6 -0.51
vt 2.10462 23.622
vt 1.31721 23.622
f 13/11/11 15/26/11 14/27/11

f 15/26/11 13/11/11 9/10/11

usemtl BackColor
vn -1 -0 -8.32667e-017
f 9/10/12 13/11/12 15/26/12

usemtl FrontColor
vt 1.31721 10.2362
vn 0 1 -0
vt 2.10462 1.5748
vt 2.10462 10.2362
f 13/28/13 8/29/13 9/30/13

vt 1.31721 1.5748
f 8/29/13 13/28/13 5/31/13

usemtl BackColor
vn -0 -1 0
f 5/31/14 13/28/14 8/29/14

usemtl M_0043_SaddleBrown
f 3/7/3 5/6/3 13/22/3

usemtl BackColor
f 3/7/4 5/6/4 2/5/4

f 13/22/4 5/6/4 3/7/4

usemtl M_0094_PowderBlue
f 5/6/3 14/25/3 13/22/3

v 0.11 0.265 -0.49
vt -1.5748 10.4331
f 16/32/3 14/25/3 5/6/3

v 0.11 0.285 -0.49
vt -1.5748 11.2205
f 17/33/3 14/25/3 16/32/3

v 0.11 0.365 -0.49
vt -1.5748 14.3701
f 18/34/3 14/25/3 17/33/3

v 0.11 0.385 -0.49
vt -1.5748 15.1575
f 19/35/3 14/25/3 18/34/3

v 0.11 0.6 -0.49
vt -1.5748 23.622
f 14/25/3 19/35/3 20/36/3

f 20/36/4 19/35/4 14/25/4

usemtl FrontColor
v 0.11 0.385 -0.51
vt -2.10462 15.1575
vt -1.31721 15.1575
f 21/37/9 19/38/9 20/21/9

v 0.11 0.365 -0.51
vt -2.10462 14.3701
f 22/39/9 19/38/9 21/37/9

vt -1.31721 14.3701
f 22/39/9 18/40/9 19/38/9

v 0.11 0.285 -0.51
vt -2.10462 11.2205
f 23/41/9 18/40/9 22/39/9

vt -1.31721 11.2205
f 23/41/9 17/42/9 18/40/9

v 0.11 0.265 -0.51
vt -2.10462 10.4331
f 24/43/9 17/42/9 23/41/9

vt -1.31721 10.4331
f 24/43/9 16/44/9 17/42/9

f 8/20/9 16/44/9 24/43/9

f 16/44/9 8/20/9 5/19/9

usemtl BackColor
f 5/19/10 8/20/10 16/44/10

f 24/43/10 16/44/10 8/20/10

f 17/42/10 16/44/10 24/43/10

usemtl M_0043_SaddleBrown
v 0.12 0.265 -0.49
vt -1.1811 10.4331
f 25/45/3 17/33/3 16/32/3

v 0.12 0.285 -0.49
vt -1.1811 11.2205
f 17/33/3 25/45/3 26/46/3

usemtl BackColor
f 26/46/4 25/45/4 17/33/4

usemtl FrontColor
v 0.14 0.265 -0.49
vt -0.393701 10.4331
f 27/47/3 26/46/3 25/45/3

v 0.14 0.285 -0.49
vt -0.393701 11.2205
f 26/46/3 27/47/3 28/48/3

usemtl BackColor
f 28/48/4 27/47/4 26/46/4

usemtl M_0043_SaddleBrown
v 0.15 0.265 -0.49
vt 1.0968e-016 10.4331
f 29/49/3 28/48/3 27/47/3

v 0.15 0.285 -0.49
vt 1.0968e-016 11.2205
f 28/48/3 29/49/3 30/50/3

usemtl BackColor
f 30/50/4 29/49/4 28/48/4

usemtl M_0043_SaddleBrown
vt 1.31721 10.4331
v 0.15 0.265 -0.51
vt 2.10462 10.4331
vt 1.31721 11.2205
f 29/51/5 31/52/5 30/53/5

f 6/11/5 31/52/5 29/51/5

f 6/11/5 7/10/5 31/52/5

usemtl BackColor
f 6/11/6 7/10/6 2/9/6

f 31/52/6 7/10/6 6/11/6

usemtl M_0043_SaddleBrown
vn 0 0 -1
vt -1.75244e-016 10.4331
vt -1.75244e-016 1.9685
f 8/16/15 31/54/15 7/55/15

v 0.14 0.265 -0.51
vt 0.393701 10.4331
f 31/54/15 8/16/15 32/56/15

usemtl BackColor
vn -0 -0 1
f 7/55/16 31/54/16 8/16/16

f 32/56/16 8/16/16 31/54/16

usemtl M_0043_SaddleBrown
v 0.12 0.265 -0.51
vt 1.1811 10.4331
f 32/56/15 8/16/15 33/57/15

usemtl BackColor
f 33/57/16 8/16/16 32/56/16

usemtl M_0043_SaddleBrown
vt 1.5748 10.4331
f 33/57/15 8/16/15 24/58/15

usemtl BackColor
f 24/58/16 8/16/16 33/57/16

usemtl M_0094_PowderBlue
vn 8.32667e-017 0 -1
f 9/17/17 24/58/17 8/16/17

vt 1.5748 11.2205
f 24/58/17 9/17/17 23/59/17

vn -8.32667e-017 -0 1
f 8/16/18 24/58/18 9/17/18

f 23/59/18 9/17/18 24/58/18

vt 1.5748 14.3701
f 23/59/17 9/17/17 22/60/17

f 22/60/18 9/17/18 23/59/18

vt 1.5748 15.1575
f 22/60/17 9/17/17 21/61/17

f 21/61/18 9/17/18 22/60/18

v 0.11 0.6 -0.51
vt 1.5748 23.622
f 21/61/17 9/17/17 34/62/17

f 34/62/18 9/17/18 21/61/18

vt 10.2362 23.622
f 34/62/17 9/17/17 15/63/17

f 15/63/18 9/17/18 34/62/18

usemtl M_0043_SaddleBrown
f 10/18/15 15/63/15 9/17/15

v -0.15 0.6 -0.51
vt 11.811 23.622
f 15/63/15 10/18/15 35/64/15

usemtl BackColor
f 9/17/16 15/63/16 10/18/16

f 35/64/16 10/18/16 15/63/16

usemtl M_0043_SaddleBrown
vt -2.10462 23.622
f 10/20/9 12/21/9 35/65/9

usemtl BackColor
f 35/65/10 12/21/10 10/20/10

usemtl M_0043_SaddleBrown
v -0.15 0.65 -0.49
vt -1.31721 25.5906
f 35/65/9 12/21/9 36/66/9

usemtl BackColor
f 36/66/10 12/21/10 35/65/10

usemtl M_0043_SaddleBrown
vt -11.811 25.5906
f 14/25/3 36/67/3 12/23/3

f 20/36/3 36/67/3 14/25/3

v 0.15 0.6 -0.49
vt 1.0968e-016 23.622
f 37/68/3 36/67/3 20/36/3

v 0.15 0.65 -0.49
vt 1.0968e-016 25.5906
f 36/67/3 37/68/3 38/69/3

usemtl BackColor
f 38/69/4 37/68/4 36/67/4

usemtl M_0043_SaddleBrown
v 0.15 0.65 -0.51
vt 2.10462 25.5906
vt 1.31721 25.5906
f 37/27/5 39/70/5 38/71/5

v 0.15 0.6 -0.51
f 37/27/5 40/26/5 39/70/5

v 0.15 0.385 -0.49
vt 1.31721 15.1575
f 41/72/5 40/26/5 37/27/5

v 0.15 0.385 -0.51
vt 2.10462 15.1575
f 40/26/5 41/72/5 42/73/5

usemtl BackColor
f 42/73/6 41/72/6 40/26/6

usemtl M_0043_SaddleBrown
v 0.15 0.365 -0.49
vt 1.31721 14.3701
f 43/74/5 42/73/5 41/72/5

v 0.15 0.365 -0.51
vt 2.10462 14.3701
f 43/74/5 44/75/5 42/73/5

v 0.15 0.285 -0.51
vt 2.10462 11.2205
f 43/74/5 45/76/5 44/75/5

f 30/53/5 45/76/5 43/74/5

f 30/53/5 31/52/5 45/76/5

usemtl BackColor
f 30/53/6 31/52/6 29/51/6

f 45/76/6 31/52/6 30/53/6

usemtl M_0043_SaddleBrown
vt -1.75244e-016 11.2205
f 32/56/15 45/77/15 31/54/15

v 0.14 0.285 -0.51
vt 0.393701 11.2205
f 45/77/15 32/56/15 46/78/15

usemtl BackColor
f 31/54/16 45/77/16 32/56/16

f 46/78/16 32/56/16 45/77/16

usemtl FrontColor
f 33/57/15 46/78/15 32/56/15

v 0.12 0.285 -0.51
vt 1.1811 11.2205
f 46/78/15 33/57/15 47/79/15

usemtl BackColor
f 32/56/16 46/78/16 33/57/16

usemtl M_0131_Silver
v 0.14 0.285 -0.53
vt 2.89202 11.2205
f 32/52/5 48/80/5 46/76/5

v 0.14 0.265 -0.53
vt 2.89202 10.4331
f 48/80/5 32/52/5 49/81/5

usemtl BackColor
f 49/81/6 32/52/6 48/80/6

usemtl M_0131_Silver
vt -2.10462 0.393701
v 0.12 0.265 -0.53
vt -2.89202 1.1811
vt -2.89202 0.393701
f 32/82/1 50/83/1 49/84/1

vt -2.10462 1.1811
f 50/83/1 32/82/1 33/85/1

usemtl BackColor
f 33/85/2 32/82/2 50/83/2

f 49/84/2 50/83/2 32/82/2

usemtl M_0131_Silver
v 0.12 0.265 -0.55
vt -3.67942 1.1811
f 51/86/1 49/84/1 50/83/1

v 0.14 0.265 -0.55
vt -3.67942 0.393701
f 49/84/1 51/86/1 52/87/1

usemtl BackColor
f 50/83/2 49/84/2 51/86/2

usemtl FrontColor
vn 0 4.51195e-015 1
v 0.12 0.285 -0.53
f 49/47/19 53/46/19 50/45/19

f 53/46/19 49/47/19 48/48/19

usemtl BackColor
vn -0 -4.51195e-015 -1
f 48/48/20 49/47/20 53/46/20

usemtl M_0131_Silver
v 0.14 0.385 -0.55
vt 3.67942 15.1575
f 49/81/5 54/88/5 48/80/5

vt 3.67942 10.4331
f 54/88/5 49/81/5 52/89/5

usemtl BackColor
f 52/89/6 49/81/6 54/88/6

f 52/87/2 51/86/2 49/84/2

usemtl M_0131_Silver
vt 0.393701 15.1575
f 51/57/17 54/90/17 52/56/17

v 0.12 0.385 -0.55
vt 1.1811 15.1575
f 54/90/17 51/57/17 55/91/17

usemtl BackColor
f 52/56/18 54/90/18 51/57/18

f 55/91/18 51/57/18 54/90/18

usemtl M_0131_Silver
vt -3.67942 10.4331
vn -1 0 -0
vt -2.89202 11.2205
vt -3.67942 15.1575
f 51/92/21 53/93/21 55/94/21

vt -2.89202 10.4331
f 53/93/21 51/92/21 50/95/21

usemtl BackColor
vn 1 -0 0
f 50/95/22 51/92/22 53/93/22

f 55/94/22 53/93/22 51/92/22

usemtl M_0131_Silver
v 0.12 0.365 -0.53
vt -2.89202 14.3701
f 55/94/21 53/93/21 56/96/21

usemtl BackColor
f 56/96/22 53/93/22 55/94/22

usemtl M_0131_Silver
vn -8.32667e-017 0 1
vt -1.1811 14.3701
f 48/48/23 56/97/23 53/46/23

v 0.14 0.365 -0.53
vt -0.393701 14.3701
f 56/97/23 48/48/23 57/98/23

usemtl BackColor
vn 8.32667e-017 -0 -1
f 57/98/24 48/48/24 56/97/24

usemtl M_0131_Silver
vt 2.89202 14.3701
f 48/80/5 54/88/5 57/99/5

usemtl BackColor
f 48/80/6 54/88/6 49/81/6

f 57/99/6 54/88/6 48/80/6

usemtl M_0131_Silver
v 0.14 0.385 -0.53
vt 2.89202 15.1575
f 57/99/5 54/88/5 58/100/5

usemtl BackColor
f 58/100/6 54/88/6 57/99/6

usemtl M_0131_Silver
vt 3.67942 0.393701
v 0.12 0.385 -0.53
vt 2.89202 1.1811
vt 2.89202 0.393701
f 54/101/13 59/102/13 58/103/13

vt 3.67942 1.1811
f 59/102/13 54/101/13 55/104/13

usemtl BackColor
f 58/103/14 59/102/14 54/101/14

usemtl M_0131_Silver
v 0.12 0.385 -0.51
vt 2.10462 1.1811
f 60/105/13 58/103/13 59/102/13

v 0.14 0.385 -0.51
vt 2.10462 0.393701
f 58/103/13 60/105/13 61/106/13

usemtl BackColor
f 61/106/14 60/105/14 58/103/14

usemtl FrontColor
v 0.12 0.365 -0.51
vt 1.1811 14.3701
f 61/90/15 62/107/15 60/91/15

v 0.14 0.365 -0.51
vt 0.393701 14.3701
f 62/107/15 61/90/15 63/108/15

usemtl BackColor
f 63/108/16 61/90/16 62/107/16

usemtl M_0043_SaddleBrown
vt -1.75244e-016 15.1575
f 42/109/15 63/108/15 61/90/15

vt -1.75244e-016 14.3701
f 63/108/15 42/109/15 44/110/15

usemtl BackColor
f 44/110/16 42/109/16 63/108/16

f 42/73/6 44/75/6 43/74/6

f 44/75/6 45/76/6 43/74/6

usemtl M_0043_SaddleBrown
f 46/78/15 44/110/15 45/77/15

f 44/110/15 46/78/15 63/108/15

usemtl BackColor
f 45/77/16 44/110/16 46/78/16

f 63/108/16 46/78/16 44/110/16

usemtl M_0043_SaddleBrown
f 47/79/15 63/108/15 46/78/15

f 63/108/15 47/79/15 62/107/15

usemtl BackColor
f 46/78/16 63/108/16 47/79/16

f 62/107/16 47/79/16 63/108/16

usemtl M_0043_SaddleBrown
f 23/59/15 62/107/15 47/79/15

f 62/107/15 23/59/15 22/60/15

usemtl BackColor
f 47/79/16 62/107/16 23/59/16

f 22/60/16 23/59/16 62/107/16

f 22/39/10 18/40/10 23/41/10

f 19/38/10 18/40/10 22/39/10

usemtl M_0043_SaddleBrown
v 0.12 0.365 -0.49
f 64/97/3 19/35/3 18/34/3

v 0.12 0.385 -0.49
vt -1.1811 15.1575
f 19/35/3 64/97/3 65/111/3

usemtl BackColor
f 65/111/4 64/97/4 19/35/4

usemtl FrontColor
v 0.14 0.365 -0.49
f 66/98/3 65/111/3 64/97/3

v 0.14 0.385 -0.49
vt -0.393701 15.1575
f 65/111/3 66/98/3 67/112/3

usemtl BackColor
f 67/112/4 66/98/4 65/111/4

usemtl FrontColor
v 0.14 0.385 -0.47
vt -0.529812 15.1575
f 66/40/21 68/113/21 67/38/21

v 0.14 0.365 -0.47
vt -0.529812 14.3701
f 68/113/21 66/40/21 69/114/21

usemtl M_0131_Silver
f 69/114/22 66/40/22 68/113/22

usemtl FrontColor
vt 1.31721 0.393701
v 0.12 0.365 -0.47
vt 0.529812 1.1811
vt 0.529812 0.393701
f 66/115/13 70/116/13 69/117/13

vt 1.31721 1.1811
f 70/116/13 66/115/13 64/118/13

usemtl M_0131_Silver
f 69/117/14 70/116/14 66/115/14

usemtl FrontColor
v 0.14 0.285 -0.47
f 70/97/23 71/48/23 69/98/23

v 0.12 0.285 -0.47
f 71/48/23 70/97/23 72/46/23

usemtl M_0131_Silver
f 69/98/24 71/48/24 70/97/24

usemtl FrontColor
vt -0.529812 11.2205
v 0.14 0.385 -0.45
vt 0.257589 15.1575
f 71/119/21 73/120/21 69/114/21

v 0.14 0.265 -0.47
vt -0.529812 10.4331
f 74/121/21 73/120/21 71/119/21

v 0.14 0.265 -0.45
vt 0.257589 10.4331
f 73/120/21 74/121/21 75/122/21

usemtl M_0131_Silver
f 75/122/22 74/121/22 73/120/22

usemtl FrontColor
v 0.12 0.265 -0.45
vt -0.257589 1.1811
vt -0.257589 0.393701
f 74/117/13 76/123/13 75/124/13

v 0.12 0.265 -0.47
f 76/123/13 74/117/13 77/116/13

usemtl M_0131_Silver
f 75/124/14 76/123/14 74/117/14

usemtl FrontColor
f 76/57/17 73/90/17 75/56/17

v 0.12 0.385 -0.45
f 73/90/17 76/57/17 78/91/17

usemtl M_0131_Silver
f 75/56/18 73/90/18 76/57/18

f 78/91/18 76/57/18 73/90/18

usemtl FrontColor
vt -0.257589 10.4331
vt 0.529812 11.2205
vt -0.257589 15.1575
f 76/125/5 72/126/5 78/127/5

vt 0.529812 10.4331
f 72/126/5 76/125/5 77/128/5

usemtl M_0131_Silver
f 77/128/6 76/125/6 72/126/6

f 77/116/14 74/117/14 76/123/14

usemtl FrontColor
f 27/115/13 77/116/13 74/117/13

f 77/116/13 27/115/13 25/118/13

usemtl M_0131_Silver
f 74/117/14 77/116/14 27/115/14

usemtl FrontColor
f 74/47/3 72/46/3 77/45/3

f 72/46/3 74/47/3 71/48/3

usemtl BackColor
f 71/48/4 74/47/4 72/46/4

usemtl FrontColor
f 71/119/21 27/44/21 74/121/21

f 27/44/21 71/119/21 28/42/21

usemtl M_0131_Silver
f 74/121/22 27/44/22 71/119/22

f 28/42/22 71/119/22 27/44/22

usemtl FrontColor
vt -0.529812 0.393701
vt -1.31721 1.1811
vt -1.31721 0.393701
f 71/129/1 26/130/1 28/131/1

vt -0.529812 1.1811
f 26/130/1 71/129/1 72/132/1

usemtl M_0131_Silver
f 72/132/2 71/129/2 26/130/2

f 72/46/24 70/97/24 71/48/24

usemtl FrontColor
vt 0.529812 14.3701
f 78/127/5 72/126/5 70/133/5

usemtl M_0131_Silver
f 78/127/6 72/126/6 76/125/6

f 70/133/6 72/126/6 78/127/6

usemtl FrontColor
v 0.12 0.385 -0.47
vt 0.529812 15.1575
f 78/127/5 70/133/5 79/134/5

usemtl M_0131_Silver
f 79/134/6 70/133/6 78/127/6

usemtl FrontColor
f 70/133/5 65/72/5 79/134/5

f 65/72/5 70/133/5 64/74/5

usemtl M_0131_Silver
f 64/74/6 70/133/6 65/72/6

f 64/118/14 66/115/14 70/116/14

usemtl BackColor
f 64/97/4 65/111/4 66/98/4

usemtl M_0043_SaddleBrown
f 66/98/3 65/111/3 64/97/3

f 65/111/3 66/98/3 67/112/3

usemtl BackColor
f 67/112/4 66/98/4 65/111/4

usemtl M_0131_Silver
f 67/38/22 68/113/22 66/40/22

usemtl FrontColor
f 68/129/1 65/130/1 67/131/1

f 65/130/1 68/129/1 79/132/1

usemtl M_0131_Silver
f 79/132/2 68/129/2 65/130/2

usemtl FrontColor
vt 0.257589 0.393701
f 73/135/1 79/132/1 68/129/1

vt 0.257589 1.1811
f 79/132/1 73/135/1 78/136/1

usemtl M_0131_Silver
f 78/136/2 73/135/2 79/132/2

f 68/129/2 79/132/2 73/135/2

usemtl FrontColor
f 79/111/3 69/98/3 68/112/3

f 69/98/3 79/111/3 70/97/3

usemtl BackColor
f 68/112/4 69/98/4 79/111/4

usemtl FrontColor
f 69/114/21 73/120/21 68/113/21

usemtl M_0131_Silver
f 69/114/22 73/120/22 71/119/22

f 68/113/22 73/120/22 69/114/22

f 71/119/22 73/120/22 74/121/22

usemtl BackColor
f 70/97/4 79/111/4 69/98/4

usemtl M_0131_Silver
f 79/134/6 65/72/6 70/133/6

f 67/131/2 65/130/2 68/129/2

usemtl M_0043_SaddleBrown
f 67/112/3 20/36/3 65/111/3

vt 1.0968e-016 15.1575
f 41/137/3 20/36/3 67/112/3

f 20/36/3 41/137/3 37/68/3

usemtl BackColor
f 37/68/4 41/137/4 20/36/4

f 37/27/6 40/26/6 41/72/6

f 39/70/6 40/26/6 37/27/6

usemtl M_0043_SaddleBrown
vn 1.18527e-016 -9.02389e-016 -1
vt 7.42103e-017 25.5906
vt 7.42103e-017 23.622
f 34/62/25 39/138/25 40/139/25

v -0.15 0.65 -0.51
vt 11.811 25.5906
f 39/138/25 34/62/25 80/140/25

usemtl BackColor
vn -1.18527e-016 9.02389e-016 1
f 40/139/26 39/138/26 34/62/26

f 80/140/26 34/62/26 39/138/26

usemtl M_0043_SaddleBrown
f 80/140/25 34/62/25 15/63/25

usemtl BackColor
f 15/63/26 34/62/26 80/140/26

usemtl FrontColor
vt -1.31721 1.5748
vt -2.10462 10.2362
vt -2.10462 1.5748
f 20/141/1 15/142/1 34/143/1

vt -1.31721 10.2362
f 15/142/1 20/141/1 14/144/1

usemtl BackColor
f 14/144/2 20/141/2 15/142/2

f 14/25/4 36/67/4 20/36/4

f 12/23/4 36/67/4 14/25/4

f 20/36/4 36/67/4 37/68/4

f 34/143/2 15/142/2 20/141/2

usemtl FrontColor
f 21/37/9 20/21/9 34/65/9

usemtl BackColor
f 20/21/10 19/38/10 21/37/10

usemtl M_0043_SaddleBrown
f 65/111/3 20/36/3 19/35/3

usemtl BackColor
f 65/111/4 20/36/4 67/112/4

f 19/35/4 20/36/4 65/111/4

f 67/112/4 20/36/4 41/137/4

usemtl M_0043_SaddleBrown
vt 1.0968e-016 14.3701
f 67/112/3 43/145/3 41/137/3

f 43/145/3 67/112/3 66/98/3

usemtl BackColor
f 41/137/4 43/145/4 67/112/4

f 41/72/6 42/73/6 43/74/6

f 66/98/4 67/112/4 43/145/4

usemtl M_0043_SaddleBrown
f 66/98/3 30/50/3 43/145/3

f 30/50/3 66/98/3 28/48/3

usemtl BackColor
f 43/145/4 30/50/4 66/98/4

f 43/74/6 45/76/6 30/53/6

f 28/48/4 66/98/4 30/50/4

usemtl M_0043_SaddleBrown
f 64/97/3 28/48/3 66/98/3

f 28/48/3 64/97/3 26/46/3

usemtl BackColor
f 66/98/4 28/48/4 64/97/4

f 26/46/4 64/97/4 28/48/4

usemtl M_0043_SaddleBrown
f 18/34/3 26/46/3 64/97/3

f 26/46/3 18/34/3 17/33/3

usemtl BackColor
f 64/97/4 26/46/4 18/34/4

f 17/33/4 18/34/4 26/46/4

f 18/40/10 17/42/10 23/41/10

usemtl M_0094_PowderBlue
f 17/33/4 14/25/4 18/34/4

f 16/32/4 14/25/4 17/33/4

f 5/6/4 14/25/4 16/32/4

f 13/22/4 14/25/4 5/6/4

usemtl BackColor
f 14/27/12 15/26/12 13/11/12

usemtl M_0043_SaddleBrown
f 5/6/3 25/45/3 16/32/3

f 5/6/3 27/47/3 25/45/3

f 6/8/3 27/47/3 5/6/3

f 27/47/3 6/8/3 29/49/3

usemtl BackColor
f 29/49/4 6/8/4 27/47/4

f 29/51/6 31/52/6 6/11/6

f 5/6/4 27/47/4 6/8/4

f 25/45/4 27/47/4 5/6/4

f 25/45/4 26/46/4 27/47/4

usemtl FrontColor
f 26/53/5 77/128/5 25/51/5

f 77/128/5 26/53/5 72/126/5

usemtl M_0131_Silver
f 25/51/6 77/128/6 26/53/6

f 25/118/14 27/115/14 77/116/14

f 72/126/6 26/53/6 77/128/6

usemtl BackColor
f 77/45/4 72/46/4 74/47/4

f 16/32/4 25/45/4 5/6/4

f 16/32/4 17/33/4 25/45/4

f 27/47/4 28/48/4 29/49/4

usemtl M_0094_PowderBlue
f 18/34/4 14/25/4 19/35/4

usemtl BackColor
f 18/34/4 19/35/4 64/97/4

f 23/41/10 17/42/10 24/43/10

usemtl M_0043_SaddleBrown
f 47/79/15 24/58/15 23/59/15

f 24/58/15 47/79/15 33/57/15

usemtl BackColor
f 33/57/16 47/79/16 24/58/16

f 47/79/16 33/57/16 46/78/16

usemtl M_0131_Silver
f 47/41/21 50/95/21 33/43/21

f 50/95/21 47/41/21 53/93/21

usemtl BackColor
f 33/43/22 50/95/22 47/41/22

f 53/93/22 47/41/22 50/95/22

usemtl M_0131_Silver
f 47/105/13 48/103/13 53/102/13

f 48/103/13 47/105/13 46/106/13

usemtl BackColor
f 46/106/14 47/105/14 48/103/14

f 53/102/14 48/103/14 47/105/14

f 53/46/24 56/97/24 48/48/24

f 46/76/6 48/80/6 32/52/6

f 50/45/20 53/46/20 49/47/20

f 23/59/16 24/58/16 47/79/16

usemtl M_0131_Silver
f 28/131/2 26/130/2 71/129/2

usemtl BackColor
f 64/97/4 65/111/4 66/98/4

f 21/37/10 19/38/10 22/39/10

usemtl M_0043_SaddleBrown
f 60/91/15 22/60/15 21/61/15

f 22/60/15 60/91/15 62/107/15

usemtl BackColor
f 62/107/16 60/91/16 22/60/16

f 60/91/16 62/107/16 61/90/16

usemtl M_0131_Silver
f 60/37/21 56/96/21 62/39/21

vt -2.89202 15.1575
f 56/96/21 60/37/21 59/146/21

usemtl BackColor
f 62/39/22 56/96/22 60/37/22

usemtl M_0131_Silver
vn 1.12799e-015 -1 -1.12799e-015
f 56/83/27 63/82/27 62/85/27

f 63/82/27 56/83/27 57/84/27

usemtl BackColor
vn -1.12799e-015 1 1.12799e-015
f 62/85/28 63/82/28 56/83/28

f 57/84/28 56/83/28 63/82/28

usemtl FrontColor
vn 5.05364e-030 -4.51195e-015 1
f 57/98/29 59/111/29 56/97/29

f 59/111/29 57/98/29 58/112/29

usemtl BackColor
vn -5.05364e-030 4.51195e-015 -1
f 58/112/30 57/98/30 59/111/30

usemtl M_0131_Silver
f 61/73/5 57/99/5 58/100/5

f 57/99/5 61/73/5 63/75/5

usemtl BackColor
f 63/75/6 61/73/6 57/99/6

f 61/90/16 63/108/16 42/109/16

usemtl M_0043_SaddleBrown
vt -1.75244e-016 23.622
f 61/90/15 40/147/15 42/109/15

f 40/147/15 61/90/15 34/62/15

usemtl BackColor
f 42/109/16 40/147/16 61/90/16

f 34/62/16 61/90/16 40/147/16

usemtl M_0043_SaddleBrown
f 34/62/15 61/90/15 60/91/15

usemtl BackColor
f 60/91/16 61/90/16 34/62/16

usemtl M_0043_SaddleBrown
f 34/62/15 60/91/15 21/61/15

usemtl BackColor
f 21/61/16 60/91/16 34/62/16

f 21/61/16 22/60/16 60/91/16

f 34/65/10 20/21/10 21/37/10

f 58/100/6 57/99/6 61/73/6

f 56/97/30 59/111/30 57/98/30

usemtl M_0131_Silver
f 55/94/21 56/96/21 59/146/21

usemtl BackColor
f 59/146/22 56/96/22 55/94/22

f 59/146/22 60/37/22 56/96/22

f 59/102/14 58/103/14 60/105/14

f 55/104/14 54/101/14 59/102/14

usemtl M_0043_SaddleBrown
f 80/140/25 15/63/25 35/64/25

usemtl BackColor
f 35/64/26 15/63/26 80/140/26

usemtl M_0043_SaddleBrown
vt -2.10462 25.5906
f 35/65/9 36/66/9 80/148/9

usemtl BackColor
f 80/148/10 36/66/10 35/65/10

usemtl M_0043_SaddleBrown
vt 1.31721 11.811
vt 2.10462 11.811
f 36/149/13 39/12/13 80/150/13

f 39/12/13 36/149/13 38/9/13

usemtl BackColor
f 38/9/14 36/149/14 39/12/14

f 80/150/14 39/12/14 36/149/14

f 38/71/6 39/70/6 37/27/6

f 9/30/14 8/29/14 13/28/14

usemtl M_0043_SaddleBrown
f 3/7/3 13/22/3 11/24/3

usemtl BackColor
f 11/24/4 13/22/4 3/7/4

f 11/24/4 12/23/4 13/22/4

