# Alias OBJ Model File
# Exported from SketchUp, (c) 2000-2012 Trimble Navigation Limited
# File units = meters

mtllib garage_door_1.mtl

g Mesh1 Model

usemtl M_0041_Chocolate
v 1.2 0.7 -0.47
vt 47.2441 27.5591
vn 0 0 1
v -0.2 0 -0.47
vt -7.87402 0
v 1.2 0 -0.47
vt 47.2441 0
f 1/1/1 2/2/1 3/3/1

v -0.2 0.7 -0.47
vt -7.87402 27.5591
f 2/2/1 1/1/1 4/4/1

usemtl BackColor
vn -0 -0 -1
f 3/3/2 2/2/2 1/1/2

usemtl M_0041_Chocolate
vt 7.87402 18.5039
vn 0 -1 -0
v 1.2 0 -0.53
vt -47.2441 20.8661
vt -47.2441 18.5039
f 2/5/3 5/6/3 3/7/3

v -0.2 0 -0.53
vt 7.87402 20.8661
f 5/6/3 2/5/3 6/8/3

usemtl BackColor
vn -0 1 0
f 6/8/4 2/5/4 5/6/4

usemtl M_0041_Chocolate
vt -18.5039 0
vn -1 0 -0
v -0.2 0.7 -0.53
vt -20.8661 27.5591
vt -20.8661 0
f 2/9/5 7/10/5 6/11/5

vt -18.5039 27.5591
f 7/10/5 2/9/5 4/12/5

usemtl BackColor
vn 1 -0 0
f 4/12/6 2/9/6 7/10/6

f 4/4/2 1/1/2 2/2/2

usemtl M_0041_Chocolate
vt 47.2441 18.5039
vn 0 1 -0
vt -7.87402 20.8661
vt -7.87402 18.5039
f 1/13/7 7/14/7 4/15/7

v 1.2 0.7 -0.53
vt 47.2441 20.8661
f 7/14/7 1/13/7 8/16/7

usemtl BackColor
vn -0 -1 0
f 4/15/8 7/14/8 1/13/8

f 8/16/8 1/13/8 7/14/8

usemtl M_0041_Chocolate
vt 18.5039 27.5591
vn 1 0 -0
vt 20.8661 0
vt 20.8661 27.5591
f 1/17/9 5/18/9 8/19/9

vt 18.5039 0
f 5/18/9 1/17/9 3/20/9

usemtl BackColor
vn -1 -0 0
f 3/20/10 1/17/10 5/18/10

f 8/19/10 5/18/10 1/17/10

usemtl M_0041_Chocolate
vt -47.2441 0
vn 0 0 -1
vt 7.87402 27.5591
vt -47.2441 27.5591
f 5/21/11 7/22/11 8/23/11

vt 7.87402 0
f 7/22/11 5/21/11 6/24/11

usemtl BackColor
vn -0 -0 1
f 6/24/12 5/21/12 7/22/12

f 8/23/12 7/22/12 5/21/12

f 6/11/6 7/10/6 2/9/6

f 3/7/4 5/6/4 2/5/4

