# Alias OBJ Model File
# Exported from SketchUp, (c) 2000-2012 Trimble Navigation Limited
# File units = meters

mtllib garage_door_2.mtl

g Mesh1 Component_4_1 Model

usemtl FrontColor
v 1.2 0.3 -0.47
vt 55.1181 0.787402
vn 3.22282e-017 1 -0
v -0.2 0.3 -0.49
vt -3.80648e-016 1.5748
v -0.2 0.3 -0.47
vt -3.80648e-016 0.787402
f 1/1/1 2/2/1 3/3/1

v 1.2 0.3 -0.49
vt 55.1181 1.5748
f 2/2/1 1/1/1 4/4/1

usemtl BackColor
vn -3.22282e-017 -1 0
f 3/3/2 2/2/2 1/1/2

usemtl M_0043_SaddleBrown
v -0.2 0.2 -0.49
vt -1.5748 7.87402
vn -1 0 -0
vt -0.787402 11.811
vt -1.5748 11.811
f 5/5/3 3/6/3 2/7/3

v -0.2 0.2 -0.47
vt -0.787402 7.87402
f 3/6/3 5/5/3 6/8/3

usemtl BackColor
vn 1 -0 0
f 6/8/4 5/5/4 3/6/4

usemtl FrontColor
v 1.2 0.2 -0.47
vn 4.83423e-017 1 -0
f 7/1/5 5/2/5 6/3/5

v 1.2 0.2 -0.49
f 5/2/5 7/1/5 8/4/5

usemtl BackColor
vn -4.83423e-017 -1 0
f 6/3/6 5/2/6 7/1/6

usemtl M_0041_Chocolate
v -0.2 0.1 -0.49
vt -1.5748 3.93701
f 9/9/3 6/8/3 5/5/3

v -0.2 0.1 -0.47
vt -0.787402 3.93701
f 6/8/3 9/9/3 10/10/3

usemtl BackColor
f 10/10/4 9/9/4 6/8/4

usemtl FrontColor
v 1.2 0.1 -0.47
vn 2.81997e-017 1 2.81997e-016
vt -1.11022e-016 1.5748
vt -1.11022e-016 0.787402
f 11/1/7 9/11/7 10/12/7

v 1.2 0.1 -0.49
f 9/11/7 11/1/7 12/4/7

usemtl BackColor
vn -2.81997e-017 -1 -2.81997e-016
f 10/12/8 9/11/8 11/1/8

usemtl M_0043_SaddleBrown
v -0.2 -3.90795e-018 -0.47
vt -0.787402 0
f 9/9/3 13/13/3 10/10/3

v -0.2 -3.90795e-018 -0.49
vt -1.5748 0
f 13/13/3 9/9/3 14/14/3

usemtl BackColor
f 10/10/4 13/13/4 9/9/4

usemtl M_0043_SaddleBrown
vt 2.53765e-017 3.55271e-016
vn 3.22282e-017 4.51195e-016 1
vt 55.1181 3.93701
vt 2.53765e-017 3.93701
f 13/15/9 11/16/9 10/17/9

v 1.2 -3.90795e-018 -0.47
vt 55.1181 3.55271e-016
f 11/16/9 13/15/9 15/18/9

usemtl BackColor
vn -3.22282e-017 -4.51195e-016 -1
f 15/18/10 13/15/10 11/16/10

usemtl M_0043_SaddleBrown
vt 0 0.787402
vn 0 -1 -0
v 1.2 -3.90795e-018 -0.49
vt -55.1181 1.5748
vt -55.1181 0.787402
f 13/19/11 16/20/11 15/21/11

vt 0 1.5748
f 16/20/11 13/19/11 14/22/11

usemtl BackColor
vn -0 1 0
f 14/22/12 13/19/12 16/20/12

f 14/14/4 9/9/4 13/13/4

usemtl M_0043_SaddleBrown
vt 0 3.93701
vn 0 0 -1
vt -55.1181 0
vt 0 0
f 9/23/13 16/24/13 14/25/13

vt -55.1181 3.93701
f 16/24/13 9/23/13 12/26/13

usemtl BackColor
vn -0 -0 1
f 14/25/14 16/24/14 9/23/14

f 12/26/14 9/23/14 16/24/14

f 12/4/8 11/1/8 9/11/8

usemtl M_0041_Chocolate
vt 1.5748 3.93701
vn 1 0 -0
vt 0.787402 7.87402
vt 0.787402 3.93701
f 12/27/15 7/28/15 11/29/15

vt 1.5748 7.87402
f 7/28/15 12/27/15 8/30/15

usemtl BackColor
vn -1 -0 0
f 11/29/16 7/28/16 12/27/16

usemtl M_0041_Chocolate
vt 55.1181 7.87402
f 7/31/9 10/17/9 11/16/9

vt 2.53765e-017 7.87402
f 10/17/9 7/31/9 6/32/9

usemtl BackColor
f 11/16/10 10/17/10 7/31/10

f 10/17/10 11/16/10 13/15/10

f 6/32/10 7/31/10 10/17/10

usemtl M_0043_SaddleBrown
vt 55.1181 11.811
vn 3.58793e-032 9.02389e-016 1
vt 2.82514e-032 7.87402
f 1/33/17 6/34/17 7/31/17

vt 2.82514e-032 11.811
f 6/34/17 1/33/17 3/35/17

usemtl BackColor
vn -3.58793e-032 -9.02389e-016 -1
f 7/31/18 6/34/18 1/33/18

f 3/35/18 1/33/18 6/34/18

usemtl M_0041_Chocolate
v 1.2 0.4 -0.47
vt 55.1181 15.748
vn -2.95145e-032 -9.02389e-016 1
vt -2.32397e-032 11.811
f 17/36/19 3/37/19 1/33/19

v -0.2 0.4 -0.47
vt 3.55271e-015 15.748
f 3/37/19 17/36/19 18/38/19

usemtl BackColor
vn 2.95145e-032 9.02389e-016 -1
f 1/33/20 3/37/20 17/36/20

f 18/38/20 17/36/20 3/37/20

usemtl FrontColor
vn 3.22282e-017 1 9.23365e-032
v -0.2 0.4 -0.49
vt 6.5979e-015 1.5748
vt 3.04518e-015 0.787402
f 17/1/21 19/39/21 18/40/21

v 1.2 0.4 -0.49
f 19/39/21 17/1/21 20/4/21

usemtl BackColor
vn -3.22282e-017 -1 -9.23365e-032
f 18/40/22 19/39/22 17/1/22

usemtl M_0041_Chocolate
vt -1.5748 15.748
vn -1 1.35358e-015 -2.25597e-015
vt -0.787402 15.748
f 19/41/23 3/6/23 18/42/23

f 3/6/23 19/41/23 2/7/23

usemtl BackColor
vn 1 -1.35358e-015 2.25597e-015
f 18/42/24 3/6/24 19/41/24

f 2/7/24 19/41/24 3/6/24

usemtl M_0041_Chocolate
vt -55.1181 15.748
vt 0 11.811
vt -7.10543e-015 15.748
f 20/43/13 2/44/13 19/45/13

vt -55.1181 11.811
f 2/44/13 20/43/13 4/46/13

usemtl BackColor
f 4/46/14 20/43/14 2/44/14

usemtl M_0041_Chocolate
vt 1.5748 15.748
vt 0.787402 11.811
vt 1.5748 11.811
f 20/47/15 1/48/15 4/49/15

vt 0.787402 15.748
f 1/48/15 20/47/15 17/50/15

usemtl BackColor
f 17/50/16 20/47/16 1/48/16

f 20/4/22 17/1/22 19/39/22

usemtl M_0043_SaddleBrown
v 1.2 0.5 -0.47
vt 0.787402 19.685
f 20/47/15 21/51/15 17/50/15

v 1.2 0.5 -0.49
vt 1.5748 19.685
f 21/51/15 20/47/15 22/52/15

usemtl BackColor
f 17/50/16 21/51/16 20/47/16

usemtl M_0043_SaddleBrown
vt 55.1181 19.685
vn 0 0 1
f 21/53/25 18/38/25 17/36/25

v -0.2 0.5 -0.47
vt 7.10543e-015 19.685
f 18/38/25 21/53/25 23/54/25

usemtl BackColor
vn -0 -0 -1
f 17/36/26 18/38/26 21/53/26

f 23/54/26 21/53/26 18/38/26

usemtl FrontColor
vt -7.10543e-015 0.787402
f 23/55/11 22/20/11 21/21/11

v -0.2 0.5 -0.49
vt -7.10543e-015 1.5748
f 22/20/11 23/55/11 24/56/11

usemtl BackColor
f 24/56/12 23/55/12 22/20/12

usemtl M_0043_SaddleBrown
vt -1.5748 19.685
vn -1 4.51195e-016 -2.25597e-015
vt -0.787402 19.685
f 24/57/27 18/42/27 23/58/27

f 18/42/27 24/57/27 19/41/27

usemtl BackColor
vn 1 -4.51195e-016 2.25597e-015
f 23/58/28 18/42/28 24/57/28

f 19/41/28 24/57/28 18/42/28

usemtl M_0043_SaddleBrown
vt -55.1181 19.685
vn -1.47738e-032 -9.02389e-016 -1
vt -7.10543e-015 19.685
f 22/59/29 19/45/29 24/60/29

f 19/45/29 22/59/29 20/43/29

usemtl BackColor
vn 1.47738e-032 9.02389e-016 1
f 20/43/30 22/59/30 19/45/30

f 22/52/16 20/47/16 21/51/16

f 21/21/12 22/20/12 23/55/12

usemtl M_0041_Chocolate
v 1.2 0.6 -0.47
vt 0.787402 23.622
f 22/52/15 25/61/15 21/51/15

v 1.2 0.6 -0.49
vt 1.5748 23.622
f 25/61/15 22/52/15 26/62/15

usemtl BackColor
f 21/51/16 25/61/16 22/52/16

usemtl M_0041_Chocolate
vt 55.1181 23.622
f 25/63/25 23/54/25 21/53/25

v -0.2 0.6 -0.47
vt 3.55271e-015 23.622
f 23/54/25 25/63/25 27/64/25

usemtl BackColor
f 21/53/26 23/54/26 25/63/26

f 27/64/26 25/63/26 23/54/26

usemtl FrontColor
vt -5.07531e-015 0.787402
vn 6.44564e-017 -1 -2.62436e-045
f 27/65/31 26/20/31 25/21/31

v -0.2 0.6 -0.49
vt -5.07531e-015 1.5748
f 26/20/31 27/65/31 28/66/31

usemtl BackColor
vn -6.44564e-017 1 2.62436e-045
f 28/66/32 27/65/32 26/20/32

usemtl M_0041_Chocolate
vt -1.5748 23.622
vn -1 -9.02389e-016 1.27235e-033
vt -0.787402 23.622
f 28/67/33 23/58/33 27/68/33

f 23/58/33 28/67/33 24/57/33

usemtl BackColor
vn 1 9.02389e-016 -1.27235e-033
f 27/68/34 23/58/34 28/67/34

f 24/57/34 28/67/34 23/58/34

usemtl M_0041_Chocolate
vt -3.55271e-015 23.622
vn -3.15918e-032 9.02389e-016 -1
f 28/69/35 22/59/35 24/60/35

vt -55.1181 23.622
f 22/59/35 28/69/35 26/70/35

usemtl BackColor
vn 3.15918e-032 -9.02389e-016 1
f 24/60/36 22/59/36 28/69/36

f 24/60/30 19/45/30 22/59/30

f 26/70/36 28/69/36 22/59/36

usemtl M_0043_SaddleBrown
v -0.2 0.7 -0.49
vt 0 27.5591
f 29/71/13 26/70/13 28/69/13

v 1.2 0.7 -0.49
vt -55.1181 27.5591
f 26/70/13 29/71/13 30/72/13

usemtl BackColor
f 28/69/14 26/70/14 29/71/14

f 30/72/14 29/71/14 26/70/14

usemtl M_0043_SaddleBrown
vn 0 1 1.50398e-015
v 1.2 0.7 -0.47
f 29/22/37 31/1/37 30/4/37

v -0.2 0.7 -0.47
f 31/1/37 29/22/37 32/19/37

usemtl BackColor
vn -0 -1 -1.50398e-015
f 32/19/38 29/22/38 31/1/38

usemtl M_0043_SaddleBrown
vt -1.5748 27.5591
vn -1 -9.02389e-016 -2.10066e-030
vt -0.787402 27.5591
f 29/73/39 27/68/39 32/74/39

f 27/68/39 29/73/39 28/67/39

usemtl BackColor
vn 1 9.02389e-016 2.10066e-030
f 32/74/40 27/68/40 29/73/40

usemtl M_0043_SaddleBrown
f 25/63/25 32/71/25 27/64/25

vt 55.1181 27.5591
f 32/71/25 25/63/25 31/75/25

usemtl BackColor
f 27/64/26 32/71/26 25/63/26

f 31/75/26 25/63/26 32/71/26

usemtl M_0043_SaddleBrown
vt 0.787402 27.5591
f 26/62/15 31/76/15 25/61/15

vt 1.5748 27.5591
f 31/76/15 26/62/15 30/77/15

usemtl BackColor
f 25/61/16 31/76/16 26/62/16

f 30/77/16 26/62/16 31/76/16

f 30/4/38 31/1/38 29/22/38

f 26/62/16 22/52/16 25/61/16

f 25/21/32 26/20/32 27/65/32

f 28/67/40 29/73/40 27/68/40

f 19/45/14 2/44/14 20/43/14

f 4/49/16 1/48/16 20/47/16

f 4/4/2 1/1/2 2/2/2

usemtl M_0043_SaddleBrown
f 1/48/15 8/30/15 4/49/15

f 8/30/15 1/48/15 7/28/15

usemtl BackColor
f 7/28/16 1/48/16 8/30/16

f 4/49/16 8/30/16 1/48/16

usemtl M_0043_SaddleBrown
vt 5.98266e-032 7.87402
vn 3.79899e-032 9.02389e-016 -1
vt -55.1181 7.87402
f 5/78/41 4/46/41 8/79/41

vt 5.98266e-032 11.811
f 4/46/41 5/78/41 2/80/41

usemtl BackColor
vn -3.79899e-032 -9.02389e-016 1
f 8/79/42 4/46/42 5/78/42

f 2/80/42 5/78/42 4/46/42

f 2/7/4 3/6/4 5/5/4

f 8/4/6 7/1/6 5/2/6

f 8/30/16 12/27/16 7/28/16

usemtl M_0041_Chocolate
vt -4.98555e-032 3.93701
vn -3.16582e-032 -9.02389e-016 -1
f 9/81/43 8/79/43 12/26/43

vt -4.98555e-032 7.87402
f 8/79/43 9/81/43 5/82/43

usemtl BackColor
vn 3.16582e-032 9.02389e-016 1
f 12/26/44 8/79/44 9/81/44

f 5/82/44 9/81/44 8/79/44

f 5/5/4 6/8/4 9/9/4

usemtl M_0043_SaddleBrown
vt 1.5748 0
f 11/29/15 16/83/15 12/27/15

vt 0.787402 0
f 16/83/15 11/29/15 15/84/15

usemtl BackColor
f 15/84/16 11/29/16 16/83/16

f 12/27/16 16/83/16 11/29/16

f 15/21/12 16/20/12 13/19/12

