# Alias OBJ Model File
# Exported from SketchUp, (c) 2000-2012 Trimble Navigation Limited
# File units = meters

mtllib roof_small_gable_corner_noroof.mtl

g Mesh1 roof_small_gable1 Model

usemtl M_0042_Sienna
v -0.5 0 -0.45
vt 0 3.93701
vn 0 -1 0
v -0.5 0 -0.55
vt 0 0
v 0.5 0 -0.45
vt -39.3701 3.93701
f 1/1/1 2/2/1 3/3/1

vn -0 1 -0
f 3/3/2 2/2/2 1/1/2

v 0.5 0 -0.55
vt -39.3701 4.44089e-016
f 4/4/1 3/3/1 2/2/1

f 2/2/2 3/3/2 4/4/2

vt 4.44089e-016 0
vn 1 0 1.249e-016
v 0.5 0.5 -0.55
vt 4.44089e-016 19.685
vt 3.93701 0
f 4/5/3 5/6/3 3/7/3

vn -1 -0 -1.249e-016
f 3/7/4 5/6/4 4/5/4

v 0.5 0.5 -0.45
vt 3.93701 19.685
f 6/8/3 3/7/3 5/6/3

f 5/6/4 3/7/4 6/8/4

vn -1.249e-016 0 1
vt -39.3701 0
vt -39.3701 19.685
f 1/2/5 3/9/5 6/10/5

vn 1.249e-016 -0 -1
f 6/10/6 3/9/6 1/2/6

vt -3.93701 44.0171
vn -0.447214 0.894427 -5.5857e-017
vt -4.44089e-016 44.0171
vt -3.93701 0
f 6/11/7 5/12/7 1/13/7

vn 0.447214 -0.894427 5.5857e-017
f 1/13/8 5/12/8 6/11/8

f 2/2/7 1/13/7 5/12/7

f 5/12/8 1/13/8 2/2/8

vt 39.3701 3.03858e-064
vn 1.3618e-016 -4.03475e-033 -1
vt 39.3701 19.685
f 4/14/9 2/2/9 5/15/9

vn -1.3618e-016 4.03475e-033 1
f 5/15/10 2/2/10 4/14/10

