# Alias OBJ Model File
# Exported from SketchUp, (c) 2000-2012 Trimble Navigation Limited
# File units = meters

mtllib roof_gable_middle.mtl

g Mesh1 Component_2_1 Model

usemtl M_0042_Sienna
v -1.71454e-015 0.5 -0.55
vt -3.57332e-013 1.06581e-014
vn 0.707107 0.707107 -8.75198e-015
v 0.5 -3.60956e-016 -0.45
vt -3.93701 -27.8388
v 0.5 0 -0.55
vt -4.8729e-013 -27.8388
f 1/1/1 2/2/1 3/3/1

v 1.17311e-015 0.5 -0.45
vt -3.93701 -3.55271e-014
f 2/2/1 1/1/1 4/4/1

usemtl BackColor
vn -0.707107 -0.707107 8.75198e-015
f 3/3/2 2/2/2 1/1/2

usemtl M_0042_Sienna
vt -3.93701 39.3701
vn -8.3385e-033 -1 -3.60956e-015
v -0.5 0 -0.55
vt 5.12949e-029 1.13687e-013
vt 5.12949e-029 39.3701
f 2/5/3 5/6/3 3/7/3

v -0.5 -3.60956e-016 -0.45
vt -3.93701 -1.18497e-046
f 5/6/3 2/5/3 6/8/3

usemtl BackColor
vn 8.3385e-033 1 3.60956e-015
f 3/7/4 5/6/4 2/5/4

usemtl M_0042_Sienna
vt -39.3701 1.42109e-014
vn 1.07289e-031 5.77529e-015 -1
vt -1.13687e-013 1.42109e-014
vt -19.685 19.685
f 3/9/5 5/10/5 1/11/5

usemtl BackColor
vn -1.07289e-031 -5.77529e-015 1
f 1/11/6 5/10/6 3/9/6

usemtl M_0042_Sienna
vt 2.3452e-028 9.04373e-014
vn -0.707107 0.707107 1.45866e-015
vt 3.93701 27.8388
vt 1.54294e-013 27.8388
f 5/12/7 4/13/7 1/14/7

vt 3.93701 -5.74277e-015
f 4/13/7 5/12/7 6/15/7

usemtl BackColor
vn 0.707107 -0.707107 -1.45866e-015
f 6/15/8 5/12/8 4/13/8

f 6/8/4 2/5/4 5/6/4

usemtl M_0042_Sienna
vt 39.3701 1.13687e-014
vn -2.61273e-032 -2.88765e-015 1
vt 19.685 19.685
vt 1.02863e-031 1.13687e-014
f 2/16/9 4/17/9 6/18/9

usemtl BackColor
f 4/4/2 1/1/2 2/2/2

f 1/14/8 4/13/8 5/12/8

vn 2.61273e-032 2.88765e-015 -1
f 6/18/10 4/17/10 2/16/10

