# Alias OBJ Model File
# Exported from SketchUp, (c) 2000-2012 Trimble Navigation Limited
# File units = meters

mtllib roof_small_corner_outer.mtl

g Mesh1 sloped_roof_9_1 Model

usemtl M_0024_OrangeRed
v -0.589443 -0.0447214 0.5
vt -3.52137 -5.69769
vn -3.89725e-015 3.85027e-015 1
v 0.5 0.6 0.5
vt 39.3701 19.685
v -0.789443 -0.0447214 0.5
vt -11.3954 -5.69769
f 1/1/1 2/2/1 3/3/1

v -0.5 1.12799e-017 0.5
vt 2.41648e-014 -3.93701
f 2/2/1 1/1/1 4/4/1

vn 3.89725e-015 -3.85027e-015 -1
f 3/3/2 2/2/2 1/1/2

vt 39.3701 44.0171
vn -0.447214 0.894427 1.41099e-016
v -0.789443 -0.0447214 -0.789443
vt -11.3954 -12.7404
vt 39.3701 -12.7404
f 2/5/3 5/6/3 3/7/3

vt -39.3701 44.0171
vn -1.88132e-016 0.894427 -0.447214
v 0.5 -0.0447214 -0.789443
vt -39.3701 -12.7404
vt 11.3954 -12.7404
f 2/8/4 6/9/4 5/10/4

v 0.5 -1.53406e-015 -0.5
vt 2.44172e-013 -3.93701
vn 1 -9.08354e-016 1.5444e-015
vt 11.3954 -5.69769
vt -39.3701 19.685
f 7/11/5 6/12/5 2/13/5

v 0.5 -0.0447214 -0.589443
vt 3.52137 -5.69769
f 6/12/5 7/11/5 8/14/5

vn -1 9.08354e-016 -1.5444e-015
f 8/14/6 7/11/6 6/12/6

v -0.5 -6.99352e-016 -0.5
vt -1.52767e-013 -1.76068
vn -9.14765e-016 -0.894427 0.447214
vt 39.3701 -5.69769
vt 39.3701 -1.76068
f 9/15/7 8/16/7 7/17/7

v -0.589443 -0.0447214 -0.589443
f 8/16/7 9/15/7 10/1/7

vn 9.14765e-016 0.894427 -0.447214
f 10/1/8 9/15/8 8/16/8

vt 1.56319e-013 -1.76068
vn 0.447214 -0.894427 1.1579e-015
vt -39.3701 -5.69769
f 9/18/9 1/19/9 10/14/9

vt -39.3701 -1.76068
f 1/19/9 9/18/9 4/20/9

vn -0.447214 0.894427 -1.1579e-015
f 10/14/10 1/19/10 9/18/10

vt -39.3701 -11.3954
vn -2.22783e-019 -1 -5.94168e-018
vt 3.52137 -3.52137
vt -39.3701 -3.52137
f 3/21/11 10/22/11 1/23/11

vt 11.3954 -11.3954
f 10/22/11 3/21/11 5/24/11

vn 2.22783e-019 1 5.94168e-018
f 5/24/12 3/21/12 10/22/12

vn 0.447214 -0.894427 -1.41099e-016
f 3/7/13 5/6/13 2/5/13

vn 1.88132e-016 -0.894427 0.447214
f 5/10/14 6/9/14 2/8/14

vt 3.52137 39.3701
vt 11.3954 39.3701
f 8/25/11 5/24/11 6/26/11

f 5/24/11 8/25/11 10/22/11

f 6/26/12 5/24/12 8/25/12

f 10/22/12 8/25/12 5/24/12

f 2/13/6 6/12/6 7/11/6

v 0.5 0.5 0.5
vt -39.3701 15.748
f 7/11/5 2/13/5 11/27/5

f 11/27/6 2/13/6 7/11/6

vt 39.3701 15.748
f 2/2/1 4/4/1 11/28/1

f 4/4/2 1/1/2 2/2/2

f 4/20/10 9/18/10 1/19/10

vt -39.3701 42.2564
vn 0.447214 -0.894427 5.20081e-016
f 11/29/15 4/20/15 9/18/15

f 11/28/2 4/4/2 2/2/2

vn -0.447214 0.894427 -5.20081e-016
f 9/18/16 4/20/16 11/29/16

vt 39.3701 42.2564
vn -6.50102e-016 -0.894427 0.447214
f 11/30/17 9/15/17 7/17/17

vn 6.50102e-016 0.894427 -0.447214
f 7/17/18 9/15/18 11/30/18

f 7/17/8 8/16/8 9/15/8

f 1/23/12 10/22/12 3/21/12

