# Alias OBJ Model File
# Exported from SketchUp, (c) 2000-2012 Trimble Navigation Limited
# File units = meters

mtllib roof_skylight_3.mtl

g Mesh1 sloped_roof1 Model

usemtl M_0020_Red
v -0.5 1.1 -0.5
vt 7.10543e-015 39.3701
vn 2.34621e-015 0 -1
v 0.5 1 -0.5
vt -39.3701 35.4331
v -0.5 1 -0.5
vt 7.10543e-015 35.4331
f 1/1/1 2/2/1 3/3/1

v 0.5 1.1 -0.5
vt -39.3701 39.3701
f 2/2/1 1/1/1 4/4/1

usemtl M_0021_DarkRed
vn -2.34621e-015 -0 1
f 3/3/2 2/2/2 1/1/2

vt -39.3701 52.8938
vn 8.03886e-016 -0.707107 -0.707107
v 0.3 0.858579 -0.358579
vt -31.4961 45.0198
vt -4.05066e-014 52.8938
f 2/5/3 5/6/3 3/7/3

v 0.3 0.141421 0.358579
vt -31.4961 5.09013
f 2/5/3 6/8/3 5/6/3

v 0.5 -5.63993e-016 0.5
vt -39.3701 -2.78388
f 7/9/3 6/8/3 2/5/3

v -0.5 -2.25597e-017 0.5
vt -8.52651e-014 -2.78388
f 6/8/3 7/9/3 8/10/3

usemtl M_0020_Red
vn -8.03886e-016 0.707107 0.707107
f 2/5/4 6/8/4 7/9/4

f 5/6/4 6/8/4 2/5/4

vt -5.56777 1.63076
vn -1 4.21942e-016 2.37671e-015
v 0.3 0.220208 0.337365
vt -6.40294 4.7326
vt -33.8023 29.8653
f 6/11/5 9/12/5 5/13/5

v 0.3 0.241421 0.358579
vt -5.56777 5.56777
f 9/12/5 6/11/5 10/14/5

vn 1 -4.21942e-016 -2.37671e-015
f 10/14/6 6/11/6 9/12/6

vt -31.4961 1.63076
vn -2.25597e-016 -7.12518e-034 -1
v 0.1 0.241421 0.358579
vt -23.622 5.56777
vt -31.4961 5.56777
f 6/15/7 11/16/7 10/17/7

v 0.1 0.141421 0.358579
vt -23.622 1.63076
f 11/16/7 6/15/7 12/18/7

vn 2.25597e-016 7.12518e-034 1
f 12/18/8 6/15/8 11/16/8

usemtl M_0021_DarkRed
v -0.1 0.141421 0.358579
vt -15.748 5.09013
vt -23.622 5.09013
f 6/8/3 13/19/3 12/20/3

v -0.3 0.141421 0.358579
vt -7.87402 5.09013
f 6/8/3 14/21/3 13/19/3

f 6/8/3 8/10/3 14/21/3

usemtl M_0020_Red
f 8/10/4 7/9/4 6/8/4

usemtl M_0021_DarkRed
v 0.5 -0.0707107 0.570711
vt -39.3701 -6.72089
vn -7.01779e-016 -0.707107 -0.707107
f 15/22/9 8/10/9 7/9/9

v -0.5 -0.0707107 0.570711
vt 2.76291e-015 -6.72089
f 8/10/9 15/22/9 16/23/9

usemtl M_0020_Red
vn 7.01779e-016 0.707107 0.707107
f 16/23/10 15/22/10 8/10/10

usemtl M_0021_DarkRed
v 0.5 -0.0207107 0.620711
vt 39.3701 -2.22045e-014
vn 1.31216e-016 -0.707107 0.707107
vt -5.16599e-016 -2.78388
vt 39.3701 -2.78388
f 17/24/11 16/25/11 15/26/11

v -0.5 -0.0207107 0.620711
vt 5.59615e-014 -2.75335e-014
f 16/25/11 17/24/11 18/27/11

usemtl M_0020_Red
vn -1.31216e-016 0.707107 -0.707107
f 15/26/12 16/25/12 17/24/12

f 18/27/12 17/24/12 16/25/12

vt 39.3701 -6.72089
vn -1.01134e-015 0.707107 0.707107
vt 31.4961 7.87402
vt 6.36405e-014 -6.72089
f 17/28/13 10/29/13 18/30/13

vt 39.3701 55.6777
f 10/29/13 17/28/13 4/31/13

vn 1.01134e-015 -0.707107 -0.707107
f 18/30/14 10/29/14 17/28/14

v -0.1 0.241421 0.358579
vt 15.748 7.87402
f 18/30/13 10/29/13 19/32/13

f 19/32/14 10/29/14 18/30/14

vt 23.622 7.87402
f 19/32/13 10/29/13 11/33/13

f 11/33/14 10/29/14 19/32/14

f 10/17/8 11/16/8 6/15/8

usemtl M_0094_PowderBlue
vt -31.4961 5.19584e-014
vn -1.27617e-015 0.707107 -0.707107
v 0.1 0.220208 0.337365
vt -23.622 -1.1811
vt -23.622 3.41949e-014
f 10/34/15 20/35/15 11/36/15

vt -31.4961 -1.1811
f 20/35/15 10/34/15 9/37/15

usemtl M_0020_Red
vn 1.27617e-015 -0.707107 0.707107
f 11/36/16 20/35/16 10/34/16

vn -1 2.78349e-016 1.91876e-015
f 20/12/17 12/11/17 11/14/17

v 0.1 0.858579 -0.358579
f 12/11/17 20/12/17 21/13/17

vn 1 -2.78349e-016 -1.91876e-015
f 11/14/18 12/11/18 20/12/18

vn 0 0 -1
vt -15.748 5.56777
f 12/18/19 19/38/19 11/16/19

vt -15.748 1.63076
f 19/38/19 12/18/19 13/39/19

vn -0 -0 1
f 13/39/20 12/18/20 19/38/20

f 12/20/4 13/19/4 6/8/4

v -0.1 0.858579 -0.358579
vt -15.748 45.0198
vn 1.13452e-015 -0.707107 -0.707107
f 22/40/21 12/20/21 13/19/21

vt -23.622 45.0198
f 12/20/21 22/40/21 21/41/21

vn -1.13452e-015 0.707107 0.707107
f 13/19/22 12/20/22 22/40/22

f 21/41/22 22/40/22 12/20/22

usemtl M_0021_DarkRed
f 22/40/3 3/7/3 21/41/3

v -0.3 0.858579 -0.358579
vt -7.87402 45.0198
f 23/42/3 3/7/3 22/40/3

f 14/21/3 3/7/3 23/42/3

f 3/7/3 14/21/3 8/10/3

usemtl M_0020_Red
f 8/10/4 14/21/4 3/7/4

f 14/21/4 8/10/4 6/8/4

f 13/19/4 14/21/4 6/8/4

v -0.3 0.241421 0.358579
vt -7.87402 5.56777
vn -2.25597e-016 -4.78405e-033 -1
vt -7.87402 1.63076
f 24/43/23 13/39/23 14/44/23

f 13/39/23 24/43/23 19/38/23

vn 2.25597e-016 4.78405e-033 1
f 14/44/24 13/39/24 24/43/24

usemtl M_0094_PowderBlue
vn 1.45866e-015 -0.707107 -0.707107
f 23/42/25 13/19/25 14/21/25

f 13/19/25 23/42/25 22/40/25

usemtl M_0020_Red
vn -1.45866e-015 0.707107 0.707107
f 14/21/26 13/19/26 23/42/26

f 22/40/26 23/42/26 13/19/26

f 22/40/4 3/7/4 23/42/4

f 21/41/4 3/7/4 22/40/4

usemtl M_0021_DarkRed
f 21/41/3 3/7/3 5/6/3

usemtl M_0020_Red
f 5/6/4 3/7/4 21/41/4

f 3/7/4 5/6/4 2/5/4

vt 31.4961 29.8653
vn -7.51991e-017 1.76847e-015 1
v 0.1 0.916152 -0.358579
vt 23.622 32.132
vt 23.622 29.8653
f 5/45/27 25/46/27 21/47/27

v 0.3 0.916152 -0.358579
vt 31.4961 32.132
f 25/46/27 5/45/27 26/48/27

vn 7.51991e-017 -1.76847e-015 -1
f 21/47/28 25/46/28 5/45/28

v -0.1 0.916152 -0.358579
vt 15.748 32.132
vn 4.51195e-016 8.9554e-016 1
f 27/49/29 21/47/29 25/46/29

vt 15.748 29.8653
f 21/47/29 27/49/29 22/50/29

vn -4.51195e-016 -8.9554e-016 -1
f 22/50/30 27/49/30 21/47/30

v -0.3 0.916152 -0.358579
vt 7.87402 32.132
vn 0 0 1
f 28/51/31 22/50/31 27/49/31

vt 7.87402 29.8653
f 22/50/31 28/51/31 23/52/31

vn -0 -0 -1
f 23/52/32 28/51/32 22/50/32

v -0.3 0.220208 0.337365
vt 6.40294 4.7326
vn 1 3.86427e-016 3.10075e-016
vt 33.8023 29.8653
vt 33.8023 32.132
f 29/53/33 23/54/33 28/55/33

vt 5.56777 1.63076
f 29/53/33 14/56/33 23/54/33

vt 5.56777 5.56777
f 14/56/33 29/53/33 24/57/33

vn -1 -3.86427e-016 -3.10075e-016
f 24/57/34 29/53/34 14/56/34

vn 1 3.19222e-017 -9.57666e-017
v -0.3 0.958579 -0.358579
vt 33.8023 33.8023
f 29/53/35 30/58/35 24/57/35

f 30/58/35 29/53/35 28/55/35

vn -1 -3.19222e-017 9.57666e-017
f 24/57/36 30/58/36 29/53/36

vt 2.8956e-014 55.6777
vt 7.87402 7.87402
vt 7.87402 47.8037
f 1/59/13 24/60/13 30/61/13

f 24/60/13 1/59/13 18/30/13

f 18/30/14 1/59/14 24/60/14

usemtl M_0021_DarkRed
vn -1 5.66092e-015 4.40489e-015
vt 2.78388 -6.72089
vt 4.75239 -4.75239
f 1/4/37 16/62/37 18/63/37

vt 2.84217e-014 -3.93701
f 16/62/37 1/4/37 8/64/37

usemtl M_0020_Red
vn 1 -5.66092e-015 -4.40489e-015
f 18/63/38 16/62/38 1/4/38

f 8/64/38 1/4/38 16/62/38

usemtl M_0021_DarkRed
f 8/64/37 1/4/37 3/2/37

usemtl M_0020_Red
f 3/2/38 1/4/38 8/64/38

f 30/61/14 24/60/14 1/59/14

v -0.1 0.958579 -0.358579
vt 15.748 47.8037
f 1/59/13 30/61/13 31/65/13

f 31/65/14 30/61/14 1/59/14

vt 7.87402 33.8023
vt 15.748 33.8023
f 30/66/31 27/49/31 31/67/31

f 28/51/31 27/49/31 30/66/31

f 27/49/32 22/50/32 28/51/32

vn -1 2.04125e-016 1.96687e-015
v -0.1 0.220208 0.337365
vt -33.8023 32.132
f 22/13/39 32/12/39 27/68/39

f 13/11/39 32/12/39 22/13/39

f 32/12/39 13/11/39 19/14/39

vn 1 -2.04125e-016 -1.96687e-015
f 19/14/40 13/11/40 32/12/40

f 19/38/24 24/43/24 13/39/24

f 18/30/13 19/32/13 24/60/13

f 24/60/14 19/32/14 18/30/14

usemtl M_0094_PowderBlue
vt -15.748 5.77316e-015
vn -7.97607e-016 0.707107 -0.707107
vt -7.87402 -1.1811
vt -7.87402 -4.44089e-015
f 19/69/41 29/70/41 24/71/41

vt -15.748 -1.1811
f 29/70/41 19/69/41 32/72/41

usemtl M_0020_Red
vn 7.97607e-016 -0.707107 0.707107
f 24/71/42 29/70/42 19/69/42

f 32/72/42 19/69/42 29/70/42

vt -33.8023 33.8023
vn -1 -1.24452e-015 5.43125e-016
f 31/73/43 32/12/43 19/14/43

f 32/12/43 31/73/43 27/68/43

vn 1 1.24452e-015 -5.43125e-016
f 19/14/44 32/12/44 31/73/44

f 27/68/44 31/73/44 32/12/44

f 27/49/29 25/46/29 31/67/29

f 25/46/30 21/47/30 27/49/30

f 21/13/17 20/12/17 25/68/17

f 21/13/18 20/12/18 12/11/18

f 25/68/18 20/12/18 21/13/18

usemtl M_0094_PowderBlue
vn -2.05293e-015 0.707107 0.707107
vt 23.622 46.6226
f 9/29/45 25/74/45 20/33/45

vt 31.4961 46.6226
f 25/74/45 9/29/45 26/75/45

usemtl M_0020_Red
vn 2.05293e-015 -0.707107 -0.707107
f 20/33/46 25/74/46 9/29/46

vn -1 -1.74826e-015 -7.25882e-017
v 0.1 0.958579 -0.358579
f 20/12/47 33/73/47 25/68/47

f 33/73/47 20/12/47 11/14/47

vn 1 1.74826e-015 7.25882e-017
f 11/14/48 20/12/48 33/73/48

f 25/68/48 33/73/48 20/12/48

vt 23.622 33.8023
f 25/46/27 26/48/27 33/76/27

f 26/48/28 5/45/28 25/46/28

f 5/13/5 9/12/5 26/68/5

f 5/13/6 9/12/6 6/11/6

f 26/68/6 9/12/6 5/13/6

f 26/75/46 9/29/46 25/74/46

vn -1 -4.78833e-016 1.4365e-015
v 0.3 0.958579 -0.358579
f 9/12/49 34/73/49 26/68/49

f 34/73/49 9/12/49 10/14/49

vn 1 4.78833e-016 -1.4365e-015
f 10/14/50 9/12/50 34/73/50

f 9/37/16 10/34/16 20/35/16

f 26/68/50 34/73/50 9/12/50

vt 31.4961 33.8023
f 33/76/27 26/48/27 34/77/27

f 33/76/28 26/48/28 25/46/28

f 34/77/28 26/48/28 33/76/28

usemtl M_0094_PowderBlue
v 0.3 0.937365 -0.379792
vt -34.6375 32.9671
vn -1 0 -0
f 35/78/51 26/68/51 34/73/51

v 0.1 0.937365 -0.379792
vt 23.622 47.8037
vt 31.4961 47.8037
f 36/79/45 26/75/45 35/80/45

f 25/74/45 26/75/45 36/79/45

usemtl M_0020_Red
f 36/79/46 26/75/46 25/74/46

f 35/80/46 26/75/46 36/79/46

vn 1 -0 0
f 34/73/52 26/68/52 35/78/52

usemtl M_0094_PowderBlue
vt 31.4961 9.9476e-014
vn 2.55234e-015 -0.707107 0.707107
vt 23.622 -1.1811
vt 31.4961 -1.1811
f 34/81/53 36/82/53 35/83/53

vt 23.622 5.68434e-014
f 36/82/53 34/81/53 33/84/53

usemtl M_0020_Red
vn -2.55234e-015 0.707107 -0.707107
f 33/84/54 34/81/54 36/82/54

f 1/59/13 33/79/13 34/80/13

f 1/59/13 31/65/13 33/79/13

f 33/79/14 31/65/14 1/59/14

vn -1.62074e-015 0.707107 0.707107
f 31/65/55 11/33/55 33/79/55

f 11/33/55 31/65/55 19/32/55

vn 1.62074e-015 -0.707107 -0.707107
f 19/32/56 31/65/56 11/33/56

f 33/79/56 11/33/56 31/65/56

f 31/67/29 25/46/29 33/76/29

f 31/67/30 25/46/30 27/49/30

f 33/76/30 25/46/30 31/67/30

usemtl M_0094_PowderBlue
vt 34.6375 32.9671
vn 1 1.06348e-015 2.12695e-015
f 36/85/57 33/58/57 25/55/57

usemtl M_0020_Red
vn -1 -1.06348e-015 -2.12695e-015
f 25/55/58 33/58/58 36/85/58

f 31/67/32 27/49/32 30/66/32

usemtl M_0094_PowderBlue
v -0.1 0.937365 -0.379792
vn -1 -7.97607e-016 -7.97607e-016
f 37/78/59 27/68/59 31/73/59

v -0.3 0.937365 -0.379792
vn -1.94488e-015 0.707107 0.707107
vt 15.748 46.6226
f 38/61/60 27/86/60 37/65/60

vt 7.87402 46.6226
f 28/87/60 27/86/60 38/61/60

usemtl M_0020_Red
f 30/66/32 27/49/32 28/51/32

usemtl M_0094_PowderBlue
f 28/87/60 32/32/60 27/86/60

f 32/32/60 28/87/60 29/60/60

usemtl M_0020_Red
vn 1.94488e-015 -0.707107 -0.707107
f 29/60/61 28/87/61 32/32/61

f 28/55/36 29/53/36 30/58/36

f 28/55/34 23/54/34 29/53/34

f 23/54/34 14/56/34 29/53/34

f 23/42/4 3/7/4 14/21/4

usemtl M_0094_PowderBlue
vn 1 0 -0
f 38/85/62 30/58/62 28/55/62

vt 15.748 -1.1811
vt 7.87402 7.10543e-015
vt 7.87402 -1.1811
f 37/88/53 30/89/53 38/90/53

vt 15.748 4.61853e-014
f 30/89/53 37/88/53 31/91/53

usemtl M_0020_Red
f 38/90/54 30/89/54 37/88/54

vn -1 -0 0
f 28/55/63 30/58/63 38/85/63

f 38/61/61 27/86/61 28/87/61

f 37/65/61 27/86/61 38/61/61

vn 1 7.97607e-016 7.97607e-016
f 31/73/64 27/68/64 37/78/64

f 31/91/54 37/88/54 30/89/54

f 27/86/61 32/32/61 28/87/61

f 27/68/40 32/12/40 22/13/40

f 22/13/40 32/12/40 13/11/40

f 11/16/20 19/38/20 12/18/20

f 34/80/14 33/79/14 1/59/14

f 1/59/13 34/80/13 4/31/13

f 4/31/14 34/80/14 1/59/14

f 10/29/13 4/31/13 34/80/13

f 4/31/14 17/28/14 10/29/14

vt -2.78388 -6.72089
vn 1 -3.05507e-015 -5.14359e-015
vt 39.3701 39.3701
vt -4.75239 -4.75239
f 15/92/65 4/93/65 17/94/65

vt -2.30925e-013 -3.93701
f 4/93/65 15/92/65 7/95/65

usemtl M_0021_DarkRed
vn -1 3.05507e-015 5.14359e-015
f 17/94/66 4/93/66 15/92/66

f 7/95/66 15/92/66 4/93/66

usemtl M_0020_Red
f 7/9/10 8/10/10 15/22/10

vt 39.3701 35.4331
f 4/93/65 7/95/65 2/96/65

usemtl M_0021_DarkRed
f 2/96/66 7/95/66 4/93/66

f 4/4/2 1/1/2 2/2/2

usemtl M_0020_Red
f 34/80/14 4/31/14 10/29/14

f 35/83/54 36/82/54 34/81/54

usemtl M_0094_PowderBlue
f 6/8/25 21/41/25 5/6/25

f 21/41/25 6/8/25 12/20/25

usemtl M_0020_Red
f 12/20/26 6/8/26 21/41/26

f 5/6/26 21/41/26 6/8/26

