# Alias OBJ Model File
# Exported from SketchUp, (c) 2000-2012 Trimble Navigation Limited
# File units = meters

mtllib roof_small_3_corner.mtl

g Mesh1 Component_9_1 Model

usemtl M_0024_OrangeRed
v -0.5 0 0.5
vt -1.42109e-013 3.93701
vn -1 2.88765e-014 1.44382e-014
v -0.5 0.15 8.30198e-015
vt -19.685 9.84252
v -0.5 -0.1 0.5
vt 0 0
f 1/1/1 2/2/1 3/3/1

v -0.5 0.25 8.30198e-015
vt -19.685 13.7795
f 2/2/1 1/1/1 4/4/1

vn 1 -2.88765e-014 -1.44382e-014
f 3/3/2 2/2/2 1/1/2

v -1.17311e-015 0.15 7.21911e-016
vt 19.685 22.0085
vn 6.50102e-015 0.894427 0.447214
vt 3.99843e-013 22.0085
f 5/5/3 2/6/3 3/3/3

vt 19.685 -13.2051
vn 7.08611e-015 -0.894427 0.447214
vt 4.25597e-013 -13.2051
v -0.5 -0.1 -0.5
vt 6.2382e-013 -35.2137
f 5/7/4 2/8/4 6/9/4

vn -7.08611e-015 0.894427 -0.447214
f 6/9/5 2/8/5 5/7/5

vn -1 1.44382e-014 -4.33147e-015
v -0.5 0 -0.5
vt -39.3701 3.93701
vt -39.3701 -2.46215e-027
f 2/2/6 7/10/6 6/11/6

f 7/10/6 2/2/6 4/4/6

vn 1 -1.44382e-014 4.33147e-015
f 4/4/7 2/2/7 7/10/7

f 4/4/2 1/1/2 2/2/2

v -1.17311e-015 0.25 7.21911e-016
vt 19.685 23.7692
vn 6.76106e-015 0.894427 0.447214
vt 4.11289e-013 23.7692
vt 2.27374e-013 1.76068
f 8/12/8 4/13/8 1/14/8

vt 4.12115e-013 13.7795
vn 1.51601e-014 2.1628e-030 1
vt 19.685 9.84252
vt 19.685 13.7795
f 4/15/9 5/16/9 8/17/9

vt 4.12115e-013 9.84252
f 5/16/9 4/15/9 2/18/9

vn -1.51601e-014 -2.1628e-030 -1
f 2/18/10 4/15/10 5/16/10

f 8/17/10 5/16/10 4/15/10

v -1.17311e-015 0.15 -0.5
vt 39.3701 9.84252
vn 1 0 -0
f 9/19/11 8/17/11 5/16/11

v -1.17311e-015 0.25 -0.5
vt 39.3701 13.7795
f 8/17/11 9/19/11 10/20/11

vn -1 -0 0
f 5/16/12 8/17/12 9/19/12

vt -1.19016e-013 9.84252
vn 0.707107 -1.0279e-014 -0.707107
vt 27.8388 3.93701
vt -1.19016e-013 13.7795
f 5/21/13 7/22/13 8/23/13

vt 27.8388 2.86156e-013
f 7/22/13 5/21/13 6/24/13

vn -0.707107 1.0279e-014 0.707107
f 6/24/14 5/21/14 7/22/14

vn 0.447214 -0.894427 -0
vt 39.3701 0
vt 39.3701 22.0085
f 5/5/15 6/25/15 9/26/15

vn -0.447214 0.894427 0
f 9/26/16 6/25/16 5/5/16

vt -3.41061e-013 3.93701
vn -5.77529e-015 7.74672e-029 -1
vt -2.27374e-013 -3.04989e-027
f 7/27/17 9/2/17 6/28/17

f 9/2/17 7/27/17 10/4/17

vn 5.77529e-015 -7.74672e-029 1
f 6/28/18 9/2/18 7/27/18

f 10/4/18 7/27/18 9/2/18

vt -39.3701 23.7692
vn -0.447214 0.894427 -6.50102e-017
vt -39.3701 1.76068
vt -19.685 23.7692
f 10/29/19 7/30/19 8/31/19

vn 0.447214 -0.894427 6.50102e-017
f 8/31/20 7/30/20 10/29/20

f 8/23/14 7/22/14 5/21/14

vt -19.685 -11.4444
vn -6.76106e-015 0.894427 -0.447214
vt -7.08891e-013 -33.453
vt -4.11289e-013 -11.4444
f 8/32/21 7/33/21 4/34/21

vn 6.76106e-015 -0.894427 0.447214
f 4/34/22 7/33/22 8/32/22

vn -6.76106e-015 -0.894427 -0.447214
f 1/14/23 4/13/23 8/12/23

vt 2.61263e-013 3.93701
vn 0.707107 -8.56584e-015 0.707107
vt 27.8388 9.84252
vt 27.8388 13.7795
f 1/35/24 5/36/24 8/37/24

f 5/36/24 1/35/24 3/3/24

vn -0.707107 8.56584e-015 -0.707107
f 3/3/25 1/35/25 5/36/25

vt -2.27374e-013 3.93701
vn 6.85816e-015 -1.80478e-014 -1
v -1.17311e-015 0.15 0.5
f 1/38/26 11/2/26 3/3/26

v -1.17311e-015 0.25 0.5
f 11/2/26 1/38/26 12/4/26

vn -6.85816e-015 1.80478e-014 1
f 3/3/27 11/2/27 1/38/27

vt -19.685 22.0085
vn -0.447214 0.894427 -0
vt -1.13687e-013 22.0085
f 5/39/28 3/3/28 11/40/28

vn 0.447214 -0.894427 0
f 11/40/29 3/3/29 5/39/29

vn -6.50102e-015 -0.894427 -0.447214
f 3/3/30 2/6/30 5/5/30

vt 1.13687e-013 13.7795
vt 1.13687e-013 9.84252
f 5/16/11 12/41/11 11/42/11

f 12/41/11 5/16/11 8/17/11

f 11/42/12 12/41/12 5/16/12

v 0.7 -0.1 0.5
vt -47.2441 2.66454e-015
vn -6.32063e-015 -1.74228e-014 -1
f 13/43/31 11/2/31 12/4/31

v 0.5 -0.1 0.5
vt -39.3701 -4.33554e-027
f 11/2/31 13/43/31 14/44/31

vn 6.32063e-015 1.74228e-014 1
f 14/44/32 13/43/32 11/2/32

vt -39.3701 1.25232e-031
vn 2.81997e-016 -1 1.12799e-017
v 0.7 -0.1 -0.5
vt -47.2441 39.3701
vt -47.2441 7.81597e-014
f 14/45/33 15/46/33 13/47/33

v 0.5 -0.1 -0.5
vt -39.3701 39.3701
f 15/46/33 14/45/33 16/48/33

vn -2.81997e-016 1 -1.12799e-017
f 16/48/34 14/45/34 15/46/34

vt -1.13326e-013 -13.2051
vn -0.447214 -0.894427 8.20035e-018
vt -39.3701 -35.2137
vt 7.21911e-016 -35.2137
f 11/49/35 16/50/35 14/51/35

vt -19.685 -13.2051
f 5/52/35 16/50/35 11/49/35

vt -39.3701 -13.2051
f 16/50/35 5/52/35 9/53/35

vn 0.447214 0.894427 -8.20035e-018
f 9/53/36 5/52/36 16/50/36

f 11/49/36 16/50/36 5/52/36

f 14/51/36 16/50/36 11/49/36

vt -47.2441 6.87712e-013
vt -39.3701 6.85935e-013
f 9/2/31 15/54/31 16/55/31

f 15/54/31 9/2/31 10/4/31

f 16/55/32 15/54/32 9/2/32

f 10/4/32 9/2/32 15/54/32

f 10/20/12 9/19/12 8/17/12

vt 19.685 -11.4444
vn 0.447214 0.894427 3.28014e-017
vt 8.16249e-014 -42.2564
vt 39.3701 -11.4444
f 8/56/37 13/57/37 10/58/37

vt 1.15131e-013 -11.4444
f 13/57/37 8/56/37 12/59/37

vn -0.447214 -0.894427 -3.28014e-017
f 12/59/38 8/56/38 13/57/38

f 8/17/12 5/16/12 12/41/12

f 8/37/25 5/36/25 1/35/25

vt 1.13687e-013 23.7692
vt 1.42109e-013 1.76068
f 12/60/15 1/61/15 8/12/15

f 12/4/27 1/38/27 11/2/27

f 8/12/16 1/61/16 12/60/16

f 12/4/32 11/2/32 13/43/32

f 10/58/38 13/57/38 8/56/38

vt 39.3701 -42.2564
f 10/58/37 13/57/37 15/62/37

f 15/62/38 13/57/38 10/58/38

f 13/47/34 15/46/34 14/45/34

f 6/11/7 7/10/7 2/2/7

