# Alias OBJ Model File
# Exported from SketchUp, (c) 2000-2012 Trimble Navigation Limited
# File units = meters

mtllib roof_small_gable_roof.mtl

g Mesh1 roof_small_gable1 Model

usemtl M_0042_Sienna
v 0.45 0 -0.5
vt -39.3701 3.93701
vn 0 -1 -0
v 0.55 0 0.5
vt 0 0
v 0.45 0 0.5
vt 0 3.93701
f 1/1/1 2/2/1 3/3/1

v 0.55 0 -0.5
vt -39.3701 0
f 2/2/1 1/1/1 4/4/1

vn -0 1 0
f 3/3/2 2/2/2 1/1/2

v 0.55 0.5 -0.5
vt 1.35638e-031 44.0171
vn -9.3095e-018 0.894427 0.447214
vt -3.93701 1.21318e-032
f 5/5/3 3/6/3 2/2/3

v 0.45 0.5 -0.5
vt -3.93701 44.0171
f 3/6/3 5/5/3 6/7/3

vn 9.3095e-018 -0.894427 -0.447214
f 2/2/4 3/6/4 5/5/4

usemtl M_0024_OrangeRed
v 0.45 -0.0447214 0.589443
vt -3.93701 -3.93701
vn 0 0.894427 0.447214
vt -3.93701 7.33032e-017
f 7/8/5 2/2/5 3/9/5

v 0.55 -0.0447214 0.589443
vt -7.33032e-017 -3.93701
f 2/2/5 7/8/5 8/10/5

vn -0 -0.894427 -0.447214
f 8/10/6 7/8/6 2/2/6

usemtl M_0042_Sienna
vt 3.93701 3.77476e-015
vn 2.75481e-016 0.447214 -0.894427
v 0.55 0.0352786 0.629443
vt -1.46352e-015 3.52137
vt -1.01127e-015 3.33067e-015
f 7/11/7 9/12/7 8/13/7

v 0.35 0.0352786 0.629443
vt 7.87402 3.52137
f 9/12/7 7/11/7 10/14/7

usemtl M_0024_OrangeRed
vn -2.75481e-016 -0.447214 0.894427
f 8/13/8 9/12/8 7/11/8

vn 1 0 -0
vt -5.09617 1.38892
vt -3.52137 -1.76068
f 2/2/9 9/15/9 8/16/9

vt 39.3701 19.685
f 9/15/9 2/2/9 5/17/9

usemtl M_0042_Sienna
vn -1 -0 0
f 8/16/10 9/15/10 2/2/10

f 5/17/10 2/2/10 9/15/10

vn 1 -4.03475e-033 9.53682e-018
vt 39.3701 1.79179e-048
f 5/17/11 2/2/11 4/18/11

vn -1 4.03475e-033 -9.53682e-018
f 4/18/12 2/2/12 5/17/12

f 4/4/2 1/1/2 2/2/2

vt 3.93701 0
vn 2.08167e-017 0 -1
vt 0 19.685
f 1/19/13 5/20/13 4/2/13

vt 3.93701 19.685
f 5/20/13 1/19/13 6/21/13

vn -2.08167e-017 -0 1
f 4/2/14 5/20/14 1/19/14

f 6/21/14 1/19/14 5/20/14

vt -39.3701 19.685
vn -1 0 -2.08167e-017
f 6/22/15 1/4/15 3/2/15

vn 1 -0 2.08167e-017
f 3/2/16 1/4/16 6/22/16

f 6/7/4 5/5/4 3/6/4

usemtl M_0024_OrangeRed
vn 0 0 -1
v 0.55 0.6 -0.5
vt -8.19554e-016 23.622
vt -8.19554e-016 19.685
f 6/21/17 11/23/17 5/24/17

v 0.35 0.6 -0.5
vt 7.87402 23.622
f 11/23/17 6/21/17 12/25/17

vn -0 -0 1
f 5/24/18 11/23/18 6/21/18

vt 39.3701 23.622
f 9/15/9 5/17/9 11/26/9

usemtl M_0042_Sienna
f 11/26/10 5/17/10 9/15/10

usemtl M_0024_OrangeRed
vt 8.19554e-016 45.7778
vn -1.54074e-033 0.894427 0.447214
vt -7.87402 -3.93701
vt -1.06085e-016 -3.93701
f 11/27/19 10/28/19 9/29/19

vt -7.87402 45.7778
f 10/28/19 11/27/19 12/30/19

usemtl M_0042_Sienna
vn 1.54074e-033 -0.894427 -0.447214
f 9/29/20 10/28/20 11/27/20

usemtl M_0024_OrangeRed
f 10/14/8 7/11/8 9/12/8

usemtl M_0042_Sienna
v 0.35 -0.0447214 0.589443
vt 7.87402 5.55112e-015
f 10/14/7 7/11/7 13/31/7

usemtl M_0024_OrangeRed
f 13/31/8 7/11/8 10/14/8

vn 2.55529e-016 0.894427 0.447214
v 0.35 0.5 -0.5
vt -7.87402 44.0171
f 7/8/21 14/32/21 13/28/21

vt -3.93701 2.08535e-015
f 14/32/21 7/8/21 3/33/21

vn -2.55529e-016 -0.894427 -0.447214
f 13/28/22 14/32/22 7/8/22

usemtl M_0042_Sienna
f 14/17/9 10/15/9 13/16/9

f 10/15/9 14/17/9 12/26/9

usemtl M_0024_OrangeRed
f 13/16/10 10/15/10 14/17/10

f 12/26/10 14/17/10 10/15/10

vt 7.87402 19.685
f 12/25/17 6/21/17 14/34/17

f 12/25/18 6/21/18 11/23/18

f 14/34/18 6/21/18 12/25/18

f 14/32/21 3/33/21 6/7/21

f 3/33/22 7/8/22 14/32/22

f 3/9/6 2/2/6 7/8/6

f 6/7/22 3/33/22 14/32/22

usemtl M_0042_Sienna
f 12/30/20 11/27/20 10/28/20

