# Alias OBJ Model File
# Exported from SketchUp, (c) 2000-2012 Trimble Navigation Limited
# File units = meters

mtllib roof_small_hip_point.mtl

g Mesh1 Group1 Model

usemtl M_0024_OrangeRed
v 0.5 0.1 0.5
vt 19.685 3.93701
vn 7.21911e-016 -2.88765e-014 1
v -0.5 0 0.5
vt -19.685 5.68434e-013
v 0.5 0 0.5
vt 19.685 5.68434e-013
f 1/1/1 2/2/1 3/3/1

v -0.5 0.1 0.5
vt -19.685 3.93701
f 2/2/1 1/1/1 4/4/1

vn -7.21911e-016 2.88765e-014 -1
f 3/3/2 2/2/2 1/1/2

vt 19.685 -17.6068
vn -1.62367e-015 -0.894427 -0.447214
v 6.67768e-015 0.25 -3.60956e-015
vt -2.55795e-013 4.40171
vt -19.685 -17.6068
f 2/5/3 5/6/3 3/7/3

vt 2.81361e-013 9.84252
vn 0.707107 0 0.707107
vt -27.8388 3.93701
vt -27.8388 0
f 5/8/4 4/9/4 2/10/4

v 3.79003e-015 0.35 -7.21911e-016
vt 1.20583e-013 13.7795
f 4/9/4 5/8/4 6/11/4

vn -0.707107 -0 -0.707107
f 2/10/5 4/9/5 5/8/5

f 4/4/2 1/1/2 2/2/2

vt -19.685 -15.8462
vn -9.67642e-016 0.894427 0.447214
vt 19.685 -15.8462
vt 1.42109e-013 6.16239
f 4/12/6 1/13/6 6/14/6

vn 9.67642e-016 -0.894427 -0.447214
f 6/14/7 1/13/7 4/12/7

vt 8.03887e-014 13.7795
vn -0.707107 -5.65346e-014 0.707107
vt 27.8388 -5.079e-026
vt 27.8388 3.93701
f 6/15/8 3/16/8 1/17/8

vt 8.03887e-014 9.84252
f 3/16/8 6/15/8 5/18/8

vn 0.707107 5.65346e-014 -0.707107
f 5/18/9 6/15/9 3/16/9

vn 0.707107 1.71317e-015 0.707107
v 0.5 0.1 -0.5
f 5/8/10 7/17/10 6/11/10

v 0.5 0 -0.5
vt 27.8388 -1.86171e-028
f 7/17/10 5/8/10 8/19/10

vn -0.707107 -1.71317e-015 -0.707107
f 8/19/11 5/8/11 7/17/11

v -0.5 0 -0.5
vn 6.39628e-016 -0.894427 0.447214
vt 2.55795e-013 4.40171
f 9/7/12 8/5/12 5/20/12

vn -6.39628e-016 0.894427 -0.447214
f 5/20/13 8/5/13 9/7/13

vt -1.42109e-013 4.40171
vn -0.447214 -0.894427 -9.67642e-016
f 5/21/14 8/7/14 3/5/14

vn 0.447214 0.894427 9.67642e-016
f 3/5/15 8/7/15 5/21/15

vt 19.685 -4.26326e-013
vn 1 2.16573e-014 4.33147e-015
vt -19.685 -4.26326e-013
f 8/22/16 1/4/16 3/23/16

f 1/4/16 8/22/16 7/1/16

vn -1 -2.16573e-014 -4.33147e-015
f 7/1/17 8/22/17 1/4/17

vt -19.685 0
vn -1.44382e-015 0 -1
v -0.5 0.1 -0.5
f 8/24/18 10/1/18 7/4/18

vt 19.685 0
f 10/1/18 8/24/18 9/25/18

vn 1.44382e-015 -0 1
f 9/25/19 8/24/19 10/1/19

vt -19.685 -19.685
vn 1.01033e-016 1 -1.73375e-014
v -0.7 -3.3607e-015 -0.7
vt 27.5591 -27.5591
vt 19.685 -19.685
f 8/26/20 11/27/20 9/28/20

v 0.7 -3.57431e-015 -0.7
vt -27.5591 -27.5591
f 11/27/20 8/26/20 12/29/20

vn -1.01033e-016 -1 1.73375e-014
f 12/29/21 8/26/21 11/27/21

vt 27.8388 1.75522e-029
vn 0.707107 -1.25476e-016 0.707107
vt 38.9744 -1.40721e-013
f 8/30/22 12/31/22 7/17/22

vn -0.707107 1.25476e-016 -0.707107
f 7/17/23 12/31/23 8/30/23

vn 0.447214 0.894427 2.11104e-015
v 0.7 -5.41152e-015 0.7
vt -27.5591 -24.6496
vt 27.5591 -24.6496
f 7/13/24 13/32/24 12/33/24

f 13/32/24 7/13/24 1/12/24

vn -0.447214 -0.894427 -2.11104e-015
f 12/33/25 13/32/25 7/13/25

vn 2.24646e-014 1 8.6895e-016
vt -27.5591 27.5591
f 8/26/26 13/34/26 12/29/26

vt -19.685 19.685
f 13/34/26 8/26/26 3/35/26

vn -2.24646e-014 -1 -8.6895e-016
f 12/29/27 13/34/27 8/26/27

f 3/35/27 8/26/27 13/34/27

f 3/23/17 1/4/17 8/22/17

f 1/17/9 3/16/9 6/15/9

vt 38.9744 -2.13052e-013
vn -0.707107 -7.15214e-014 0.707107
vt 27.8388 -7.8356e-026
f 13/36/28 1/17/28 3/37/28

f 1/12/25 7/13/25 13/32/25

vt 2.84217e-014 6.16239
vn 0.447214 0.894427 2.91933e-015
f 6/38/29 1/12/29 7/13/29

vn -0.447214 -0.894427 -2.91933e-015
f 7/13/30 1/12/30 6/38/30

f 6/11/11 7/17/11 5/8/11

vt -1.42109e-013 6.16239
f 10/13/13 6/39/13 7/12/13

vn -0.707107 -2.0558e-014 0.707107
f 10/9/31 5/18/31 6/15/31

vt -27.8388 -8.38086e-027
f 5/18/31 10/9/31 9/40/31

vn 0.707107 2.0558e-014 -0.707107
f 9/40/32 10/9/32 5/18/32

vn -1 0 -3.60956e-016
f 2/25/33 10/4/33 9/24/33

f 10/4/33 2/25/33 4/1/33

vn 1 -0 3.60956e-016
f 9/24/34 10/4/34 2/25/34

vn -0.707107 0 0.707107
vt -38.9744 -1.32311e-013
f 10/9/35 11/41/35 9/10/35

vn 5.81782e-017 0.894427 -0.447214
f 7/12/36 11/33/36 10/13/36

f 11/33/36 7/12/36 12/32/36

vn -5.81782e-017 -0.894427 0.447214
f 12/32/37 7/12/37 11/33/37

f 10/13/37 11/33/37 7/12/37

vn 0.707107 -0 -0.707107
f 9/10/38 11/41/38 10/9/38

f 9/28/21 11/27/21 8/26/21

v -0.7 -3.24261e-015 0.7
vt 27.5591 27.5591
vn -1.65083e-014 1 -5.58515e-017
f 14/42/39 9/28/39 11/27/39

vt 19.685 19.685
f 9/28/39 14/42/39 2/43/39

vn 1.65083e-014 -1 5.58515e-017
f 2/43/40 14/42/40 9/28/40

vt -38.9744 -1.27662e-013
f 4/9/4 14/44/4 2/10/4

vn -0.447214 0.894427 -2.52105e-016
f 10/12/41 14/33/41 4/13/41

f 14/33/41 10/12/41 11/32/41

vn 0.447214 -0.894427 2.52105e-016
f 4/13/42 14/33/42 10/12/42

f 2/10/5 14/44/5 4/9/5

vn 1.02583e-015 1 2.16353e-014
f 14/42/43 3/35/43 2/43/43

f 3/35/43 14/42/43 13/34/43

vn -1.02583e-015 -1 -2.16353e-014
f 13/34/44 14/42/44 3/35/44

vn -8.78214e-016 0.894427 0.447214
f 1/13/45 14/32/45 13/33/45

f 14/32/45 1/13/45 4/12/45

vn 8.78214e-016 -0.894427 -0.447214
f 13/33/46 14/32/46 1/13/46

f 4/12/46 1/13/46 14/32/46

vn 0.707107 7.15214e-014 -0.707107
f 3/37/47 1/17/47 13/36/47

f 2/43/44 3/35/44 14/42/44

vn 1.62367e-015 0.894427 0.447214
f 3/7/48 5/6/48 2/5/48

vn 0.447214 -0.894427 1.64007e-016
vt 1.42109e-013 4.40171
f 9/5/49 5/45/49 2/7/49

vn -0.447214 0.894427 -1.64007e-016
f 2/7/50 5/45/50 9/5/50

f 4/1/34 2/25/34 10/4/34

vt -2.84217e-014 6.16239
f 10/12/50 4/13/50 6/46/50

f 6/46/49 4/13/49 10/12/49

f 6/11/5 5/8/5 4/9/5

f 6/15/32 5/18/32 10/9/32

f 7/12/12 6/39/12 10/13/12

f 7/4/19 10/1/19 8/24/19

f 11/32/42 10/12/42 14/33/42

f 11/27/40 9/28/40 14/42/40

