# Alias OBJ Model File
# Exported from SketchUp, (c) 2000-2012 Trimble Navigation Limited
# File units = meters

mtllib roof_4_corner.mtl

g Mesh1 Component_7_1 Model

usemtl M_0020_Red
v -1.89502e-015 0.5 0.5
vt -19.685 19.685
vn 7.44471e-015 3.60956e-015 -1
v 0.5 0.1 0.5
vt -39.3701 3.93701
v 0.5 -1.08287e-015 0.5
vt -39.3701 -1.05796e-027
f 1/1/1 2/2/1 3/3/1

v -1.89502e-015 0.6 0.5
vt -19.685 23.622
f 2/2/1 1/1/1 4/4/1

vn -7.44471e-015 -3.60956e-015 1
f 3/3/2 2/2/2 1/1/2

v -4.51195e-016 0.6 -3.60956e-016
vt -2.23821e-013 23.622
vn -0.707107 -1.0279e-014 0.707107
vt 27.8388 -2.86156e-013
vt 27.8388 3.93701
f 5/5/3 3/6/3 2/7/3

v -4.51195e-016 0.5 -3.60956e-016
vt -2.23821e-013 19.685
f 3/6/3 5/5/3 6/8/3

vn 0.707107 1.0279e-014 -0.707107
f 2/7/4 3/6/4 5/5/4

v 0.5 0.6 -3.60956e-016
vn -1 -1.44382e-014 -1.44382e-014
vt -5.68434e-013 -5.68434e-013
vt -5.40012e-013 3.93701
f 7/4/5 3/9/5 2/10/5

v 0.5 0.5 -3.60956e-016
f 3/9/5 7/4/5 8/1/5

vn 1 1.44382e-014 1.44382e-014
f 2/10/6 3/9/6 7/4/6

f 8/1/6 7/4/6 3/9/6

vt 39.3701 23.622
vn 0 0 1
vt 19.685 19.685
vt 39.3701 19.685
f 7/11/7 6/12/7 8/13/7

vt 19.685 23.622
f 6/12/7 7/11/7 5/14/7

vn -0 -0 -1
f 8/13/8 6/12/8 7/11/8

vt 19.685 27.8388
vn 1.0279e-016 0.707107 0.707107
vt 39.3701 -4.04685e-015
vt 39.3701 27.8388
f 6/15/9 3/16/9 8/17/9

vt 2.86156e-014 -27.8388
vn 0.707107 0.707107 5.1395e-016
vt 19.685 -1.95399e-014
vt 7.47039e-014 4.08562e-014
f 3/18/10 6/19/10 1/20/10

vn -0.707107 -0.707107 -5.1395e-016
f 1/20/11 6/19/11 3/18/11

vt -19.685 27.8388
vn -0.707107 0.707107 -3.59765e-015
v -0.5 -1.08287e-015 0.5
vt 0 0
vt -1.60551e-013 27.8388
f 6/21/12 9/22/12 1/23/12

vn 0.707107 -0.707107 3.59765e-015
f 1/23/13 9/22/13 6/21/13

v -0.5 0.1 0.5
vt 0 3.93701
vn -3.11324e-015 0 -1
f 10/24/14 1/1/14 9/22/14

f 1/1/14 10/24/14 4/4/14

vn 3.11324e-015 -0 1
f 9/22/15 1/1/15 10/24/15

f 4/4/15 10/24/15 1/1/15

vt 19.685 30.6227
vt 1.60551e-013 30.6227
vt -1.57772e-030 2.78388
f 5/25/13 4/26/13 10/27/13

vn -1 -1.45924e-031 -2.88765e-015
vt -1.1724e-013 19.685
vt -1.1724e-013 23.622
f 5/4/16 1/28/16 4/29/16

f 1/28/16 5/4/16 6/1/16

vn 1 1.45924e-031 2.88765e-015
f 4/29/17 1/28/17 5/4/17

f 4/4/2 1/1/2 2/2/2

vt -5.91699e-015 -25.055
vn -0.707107 -0.707107 -6.16741e-016
vt -7.75655e-014 2.78388
vt -19.685 2.78388
f 2/30/18 4/31/18 5/32/18

vn 0.707107 0.707107 6.16741e-016
f 5/32/19 4/31/19 2/30/19

f 10/27/12 4/26/12 5/25/12

vn 0.707107 0 0.707107
vt 27.8388 19.685
vt 27.8388 23.622
f 10/24/20 6/33/20 5/34/20

f 6/33/20 10/24/20 9/22/20

vn -0.707107 -0 -0.707107
f 9/22/21 10/24/21 6/33/21

v -0.5 0.5 -3.60956e-016
vn 1 0 -1.44382e-015
f 11/12/22 10/24/22 9/22/22

v -0.5 0.6 -3.60956e-016
f 10/24/22 11/12/22 12/14/22

vn -1 -0 1.44382e-015
f 9/22/23 10/24/23 11/12/23

f 12/14/23 11/12/23 10/24/23

v -0.5 -1.08287e-015 -0.5
vt 39.3701 -8.20718e-028
vn 1 -3.60956e-015 5.77529e-015
f 13/35/24 12/14/24 11/12/24

v -0.5 0.1 -0.5
vt 39.3701 3.93701
f 12/14/24 13/35/24 14/36/24

vn -1 3.60956e-015 -5.77529e-015
f 11/12/25 12/14/25 13/35/25

vt -2.84217e-014 19.685
vt -2.84217e-014 23.622
f 11/37/7 5/14/7 12/38/7

f 5/14/7 11/37/7 6/12/7

f 6/12/8 11/37/8 5/14/8

vt -2.84217e-014 27.8388
vn 0 0.707107 0.707107
f 11/39/26 9/22/26 6/15/26

vn -0 -0.707107 -0.707107
f 6/15/27 9/22/27 11/39/27

vt -19.685 -3.55271e-015
vn 0 0.707107 -0.707107
vt 0 -27.8388
vt 2.84217e-014 -3.55271e-015
f 6/40/28 13/41/28 11/42/28

vn -0 -0.707107 0.707107
f 11/42/29 13/41/29 6/40/29

vt -39.3701 4.04685e-015
vn -0.707107 0.707107 1.0279e-016
v -4.51195e-016 0.5 -0.5
vt -39.3701 27.8388
f 13/43/30 6/21/30 15/44/30

vn 0.707107 -0.707107 -1.0279e-016
f 15/44/31 6/21/31 13/43/31

vn -1 0 -0
v -4.51195e-016 0.6 -0.5
vt -39.3701 23.622
vt -39.3701 19.685
f 6/1/32 16/45/32 15/46/32

f 16/45/32 6/1/32 5/4/32

vn 1 -0 0
f 5/4/33 6/1/33 16/45/33

f 6/1/17 5/4/17 1/28/17

f 5/34/21 6/33/21 10/24/21

f 5/14/8 7/11/8 6/12/8

vt 39.3701 30.6227
vn -1.0279e-016 0.707107 0.707107
vt 39.3701 2.78388
f 7/47/34 5/25/34 2/48/34

vn 1.0279e-016 -0.707107 -0.707107
f 2/48/35 5/25/35 7/47/35

v 0.5 0.1 -0.5
vt 39.3701 -25.055
vn -1.0279e-016 -0.707107 0.707107
vt 19.685 2.78388
f 17/49/36 7/48/36 5/50/36

vn -1 0 -2.88765e-015
f 17/2/37 8/1/37 7/4/37

v 0.5 -1.08287e-015 -0.5
vt -39.3701 0
f 8/1/37 17/2/37 18/51/37

vn 1 -0 2.88765e-015
f 7/4/38 8/1/38 17/2/38

f 18/51/38 17/2/38 8/1/38

vn 7.21911e-016 2.15187e-030 1
vt 39.3701 8.47191e-029
f 17/36/39 15/12/39 18/52/39

f 15/12/39 17/36/39 16/14/39

vn -7.21911e-016 -2.15187e-030 -1
f 18/52/40 15/12/40 17/36/40

vt 39.3701 -27.8388
vn 0.707107 0.707107 1.0279e-016
vt 39.3701 -8.88178e-015
vt 19.685 -1.06581e-014
f 18/53/41 15/54/41 6/55/41

vn -0.707107 -0.707107 -1.0279e-016
f 6/55/42 15/54/42 18/53/42

f 15/46/33 16/45/33 6/1/33

vt -1.95638e-028 3.93701
vn -7.21911e-016 4.30373e-030 1
f 14/56/43 15/12/43 16/14/43

vt -2.84217e-014 1.69438e-028
f 15/12/43 14/56/43 13/57/43

vn 7.21911e-016 -4.30373e-030 -1
f 13/57/44 14/56/44 15/12/44

f 14/36/25 13/35/25 12/14/25

vt -1.52767e-013 19.685
vn -0.707107 3.42634e-015 0.707107
vt -27.8388 3.93701
vt -27.8388 9.53853e-014
f 6/58/45 14/59/45 13/60/45

vt -1.52767e-013 23.622
f 14/59/45 6/58/45 5/61/45

vn 0.707107 -3.42634e-015 -0.707107
f 5/61/46 6/58/46 14/59/46

f 6/8/4 5/5/4 3/6/4

vt 55.6777 3.93701
f 6/33/20 17/62/20 5/34/20

vt 55.6777 0
f 17/62/20 6/33/20 18/63/20

f 18/63/21 6/33/21 17/62/21

vt -39.3701 -27.8388
vn 1.0279e-016 0.707107 -0.707107
vt -39.3701 -5.32907e-015
f 18/64/47 6/40/47 8/65/47

f 8/65/36 6/40/36 18/64/36

vn -1.0279e-016 -0.707107 -0.707107
f 8/17/48 3/16/48 6/15/48

f 5/34/21 17/62/21 6/33/21

f 17/49/41 16/48/41 5/50/41

f 16/14/40 17/36/40 15/12/40

f 5/50/42 16/48/42 17/49/42

vt -39.3701 2.78388
vn -0.707107 0.707107 2.0558e-016
vt -19.685 30.6227
vt -39.3701 30.6227
f 14/66/49 5/67/49 16/68/49

vn 0.707107 -0.707107 -2.0558e-016
f 16/68/50 5/67/50 14/66/50

vn 1.0279e-016 -0.707107 0.707107
vt -2.55602e-014 2.78388
vt 3.41448e-014 -25.055
f 5/50/51 12/69/51 14/70/51

f 12/38/8 5/14/8 11/37/8

vn 0 -0.707107 -0.707107
vt 0 2.78388
vt 2.84217e-014 30.6227
f 5/67/52 10/71/52 12/72/52

vn -0 0.707107 0.707107
f 12/72/53 10/71/53 5/67/53

vn -1.0279e-016 0.707107 -0.707107
f 14/70/54 12/69/54 5/50/54

f 16/14/44 15/12/44 14/56/44

f 5/50/47 7/48/47 17/49/47

f 13/60/46 14/59/46 6/58/46

