# Alias OBJ Model File
# Exported from SketchUp, (c) 2000-2012 Trimble Navigation Limited
# File units = meters

mtllib roof_3_corner.mtl

g Mesh1 Component_6_1 Model

usemtl M_0020_Red
v -5.41434e-016 0.5 0.5
vt -19.685 19.685
vn 7.44471e-015 3.60956e-015 -1
v 0.5 0.1 0.5
vt -39.3701 3.93701
v 0.5 -1.08287e-015 0.5
vt -39.3701 -1.05796e-027
f 1/1/1 2/2/1 3/3/1

v -5.41434e-016 0.6 0.5
vt -19.685 23.622
f 2/2/1 1/1/1 4/4/1

vn -7.44471e-015 -3.60956e-015 1
f 3/3/2 2/2/2 1/1/2

v 9.02389e-016 0.6 -3.60956e-016
vt -2.23821e-013 23.622
vn -0.707107 -1.0279e-014 0.707107
vt 27.8388 -2.86156e-013
vt 27.8388 3.93701
f 5/5/3 3/6/3 2/7/3

v 9.02389e-016 0.5 -3.60956e-016
vt -2.23821e-013 19.685
f 3/6/3 5/5/3 6/8/3

vn 0.707107 1.0279e-014 -0.707107
f 2/7/4 3/6/4 5/5/4

v 0.5 0.6 -3.60956e-016
vn -1 -1.44382e-014 -1.44382e-014
vt -5.68434e-013 -5.68434e-013
vt -5.40012e-013 3.93701
f 7/4/5 3/9/5 2/10/5

v 0.5 0.5 -3.60956e-016
f 3/9/5 7/4/5 8/1/5

vn 1 1.44382e-014 1.44382e-014
f 2/10/6 3/9/6 7/4/6

f 8/1/6 7/4/6 3/9/6

vt 39.3701 23.622
vn 0 0 1
vt 19.685 19.685
vt 39.3701 19.685
f 7/11/7 6/12/7 8/13/7

vt 19.685 23.622
f 6/12/7 7/11/7 5/14/7

vn -0 -0 -1
f 8/13/8 6/12/8 7/11/8

vt 19.685 1.77636e-015
vn -1.29659e-017 -0.707107 0.707107
v 0.5 -1.08287e-015 -0.5
vt 39.3701 -27.8388
vt 39.3701 1.77636e-015
f 6/15/9 9/16/9 8/17/9

v -0.5 -1.08287e-015 -0.5
vt -7.21911e-016 -27.8388
f 6/15/9 10/18/9 9/16/9

v -0.5 0.5 -3.60956e-016
vt -2.87827e-014 1.77636e-015
f 10/18/9 6/15/9 11/19/9

vn 1.29659e-017 0.707107 -0.707107
f 11/19/10 6/15/10 10/18/10

vt -2.84217e-014 27.8388
vn 0 0.707107 0.707107
v -0.5 -1.08287e-015 0.5
vt 0 0
vt 19.685 27.8388
f 11/20/11 12/21/11 6/22/11

vn 1 0 -1.44382e-015
v -0.5 0.1 0.5
vt 0 3.93701
f 11/12/12 13/23/12 12/21/12

v -0.5 0.6 -3.60956e-016
f 13/23/12 11/12/12 14/14/12

vn -1 -0 1.44382e-015
f 12/21/13 13/23/13 11/12/13

vn -3.11324e-015 0 -1
f 13/23/14 1/1/14 12/21/14

f 1/1/14 13/23/14 4/4/14

vn 3.11324e-015 -0 1
f 12/21/15 1/1/15 13/23/15

vt -19.685 27.8388
vn -0.707107 0.707107 -3.59765e-015
vt -1.61439e-013 27.8388
f 6/24/16 12/21/16 1/25/16

vn 0.707107 -0.707107 3.59765e-015
f 1/25/17 12/21/17 6/24/17

vn -0 -0.707107 -0.707107
f 6/22/18 12/21/18 11/20/18

vt 27.8388 19.685
vn 0.707107 0 0.707107
f 6/26/19 13/23/19 12/21/19

vt 27.8388 23.622
f 13/23/19 6/26/19 5/27/19

vn -0.707107 -0 -0.707107
f 12/21/20 13/23/20 6/26/20

f 5/27/20 6/26/20 13/23/20

vt -1.18128e-013 19.685
vn -1 -1.45924e-031 -2.88765e-015
f 1/28/21 5/4/21 6/1/21

vt -1.18128e-013 23.622
f 5/4/21 1/28/21 4/29/21

vn 1 1.45924e-031 2.88765e-015
f 4/29/22 1/28/22 5/4/22

f 4/4/2 1/1/2 2/2/2

f 4/4/15 13/23/15 1/1/15

vt 19.685 30.6227
vt 1.61439e-013 30.6227
vt -1.57772e-030 2.78388
f 5/30/17 4/31/17 13/32/17

vt -5.91699e-015 -25.055
vn -0.707107 -0.707107 -6.16741e-016
vt -7.84537e-014 2.78388
vt -19.685 2.78388
f 2/33/23 4/34/23 5/35/23

vn 0.707107 0.707107 6.16741e-016
f 5/35/24 4/34/24 2/33/24

f 13/32/16 4/31/16 5/30/16

vt -19.685 30.6227
vn 0 -0.707107 -0.707107
vt 0 2.78388
vt 2.84217e-014 30.6227
f 5/36/25 13/37/25 14/38/25

vn -0 0.707107 0.707107
f 14/38/26 13/37/26 5/36/26

f 14/14/13 11/12/13 13/23/13

vt 39.3701 -8.20718e-028
vn 1 -3.60956e-015 5.77529e-015
f 10/39/27 14/14/27 11/12/27

v -0.5 0.1 -0.5
vt 39.3701 3.93701
f 14/14/27 10/39/27 15/40/27

vn -1 3.60956e-015 -5.77529e-015
f 11/12/28 14/14/28 10/39/28

vt -2.84217e-014 19.685
vt -2.84217e-014 23.622
f 11/41/7 5/14/7 14/42/7

f 5/14/7 11/41/7 6/12/7

f 6/12/8 11/41/8 5/14/8

f 14/42/8 5/14/8 11/41/8

vt 2.84217e-014 -25.055
vn -4.0576e-031 -0.707107 0.707107
vt 19.685 2.78388
vt -2.84217e-014 2.78388
f 15/43/29 5/44/29 14/45/29

v 0.5 0.1 -0.5
vt 39.3701 -25.055
f 5/44/29 15/43/29 16/46/29

vn 4.0576e-031 0.707107 -0.707107
f 14/45/30 5/44/30 15/43/30

f 16/46/30 15/43/30 5/44/30

vt 2.84217e-014 3.93701
f 10/21/7 16/40/7 15/47/7

vt 39.3701 0
f 16/40/7 10/21/7 9/48/7

f 9/48/8 10/21/8 16/40/8

f 9/16/10 10/18/10 6/15/10

f 8/17/10 9/16/10 6/15/10

vn -1 0 -2.88765e-015
vt -39.3701 0
f 8/1/31 16/2/31 9/49/31

f 16/2/31 8/1/31 7/4/31

vn 1 -0 2.88765e-015
f 7/4/32 8/1/32 16/2/32

f 9/49/32 16/2/32 8/1/32

vt 39.3701 2.78388
f 5/44/29 16/46/29 7/50/29

f 7/50/30 16/46/30 5/44/30

f 5/14/8 7/11/8 6/12/8

vt 39.3701 30.6227
vn -1.0279e-016 0.707107 0.707107
f 7/51/33 5/30/33 2/50/33

vn 1.0279e-016 -0.707107 -0.707107
f 2/50/34 5/30/34 7/51/34

f 6/1/22 5/4/22 1/28/22

f 6/8/4 5/5/4 3/6/4

vt 2.86156e-014 -27.8388
vn 0.707107 0.707107 5.1395e-016
vt 19.685 -1.95399e-014
vt 7.55921e-014 4.08562e-014
f 3/52/35 6/53/35 1/54/35

vn -0.707107 -0.707107 -5.1395e-016
f 1/54/36 6/53/36 3/52/36

vn 1.0279e-016 0.707107 0.707107
vt 39.3701 -4.04685e-015
vt 39.3701 27.8388
f 6/22/37 3/55/37 8/56/37

vn -1.0279e-016 -0.707107 -0.707107
f 8/56/38 3/55/38 6/22/38

f 15/47/8 16/40/8 10/21/8

f 15/40/28 10/39/28 14/14/28

