# Alias OBJ Model File
# Exported from SketchUp, (c) 2000-2012 Trimble Navigation Limited
# File units = meters

mtllib roof_skylight_1.mtl

g Mesh1 sloped_roof1 Model

usemtl M_0020_Red
v -0.5 1.1 -0.5
vt 7.10543e-015 39.3701
vn 2.34621e-015 0 -1
v 0.5 1 -0.5
vt -39.3701 35.4331
v -0.5 1 -0.5
vt 7.10543e-015 35.4331
f 1/1/1 2/2/1 3/3/1

v 0.5 1.1 -0.5
vt -39.3701 39.3701
f 2/2/1 1/1/1 4/4/1

usemtl M_0021_DarkRed
vn -2.34621e-015 -0 1
f 3/3/2 2/2/2 1/1/2

vt -39.3701 52.8938
vn 8.03886e-016 -0.707107 -0.707107
v 0.3 0.858579 -0.358579
vt -31.4961 45.0198
vt -4.05066e-014 52.8938
f 2/5/3 5/6/3 3/7/3

v 0.3 0.141421 0.358579
vt -31.4961 5.09013
f 2/5/3 6/8/3 5/6/3

v 0.5 -5.63993e-016 0.5
vt -39.3701 -2.78388
f 7/9/3 6/8/3 2/5/3

v -0.5 -2.25597e-017 0.5
vt -8.52651e-014 -2.78388
f 6/8/3 7/9/3 8/10/3

usemtl M_0020_Red
vn -8.03886e-016 0.707107 0.707107
f 2/5/4 6/8/4 7/9/4

f 5/6/4 6/8/4 2/5/4

usemtl M_0094_PowderBlue
vn 1.40464e-015 -0.707107 -0.707107
v -0.3 0.858579 -0.358579
vt -7.87402 45.0198
f 6/8/5 9/11/5 5/6/5

v -0.3 0.141421 0.358579
vt -7.87402 5.09013
f 9/11/5 6/8/5 10/12/5

usemtl M_0020_Red
vn -1.40464e-015 0.707107 0.707107
f 10/12/6 6/8/6 9/11/6

usemtl M_0021_DarkRed
f 6/8/3 8/10/3 10/12/3

usemtl M_0020_Red
f 8/10/4 7/9/4 6/8/4

usemtl M_0021_DarkRed
v 0.5 -0.0707107 0.570711
vt -39.3701 -6.72089
vn -7.01779e-016 -0.707107 -0.707107
f 11/13/7 8/10/7 7/9/7

v -0.5 -0.0707107 0.570711
vt 2.76291e-015 -6.72089
f 8/10/7 11/13/7 12/14/7

usemtl M_0020_Red
vn 7.01779e-016 0.707107 0.707107
f 12/14/8 11/13/8 8/10/8

usemtl M_0021_DarkRed
v 0.5 -0.0207107 0.620711
vt 39.3701 -2.22045e-014
vn 1.31216e-016 -0.707107 0.707107
vt -5.16599e-016 -2.78388
vt 39.3701 -2.78388
f 13/15/9 12/16/9 11/17/9

v -0.5 -0.0207107 0.620711
vt 5.59615e-014 -2.75335e-014
f 12/16/9 13/15/9 14/18/9

usemtl M_0020_Red
vn -1.31216e-016 0.707107 -0.707107
f 11/17/10 12/16/10 13/15/10

f 14/18/10 13/15/10 12/16/10

vt 39.3701 -6.72089
vn -1.01134e-015 0.707107 0.707107
v 0.3 0.241421 0.358579
vt 31.4961 7.87402
vt 6.36405e-014 -6.72089
f 13/19/11 15/20/11 14/21/11

vt 39.3701 55.6777
f 15/20/11 13/19/11 4/22/11

vn 1.01134e-015 -0.707107 -0.707107
f 14/21/12 15/20/12 13/19/12

v -0.3 0.241421 0.358579
vt 7.87402 7.87402
f 14/21/11 15/20/11 16/23/11

f 16/23/12 15/20/12 14/21/12

vt -31.4961 1.63076
vn -1.50398e-016 7.60019e-033 -1
vt -7.87402 5.56777
vt -31.4961 5.56777
f 6/24/13 16/25/13 15/26/13

vt -7.87402 1.63076
f 16/25/13 6/24/13 10/27/13

vn 1.50398e-016 -7.60019e-033 1
f 10/27/14 6/24/14 16/25/14

f 10/12/4 8/10/4 6/8/4

usemtl M_0021_DarkRed
f 3/7/3 10/12/3 8/10/3

f 10/12/3 3/7/3 9/11/3

usemtl M_0020_Red
f 8/10/4 10/12/4 3/7/4

f 9/11/4 3/7/4 10/12/4

usemtl M_0021_DarkRed
f 9/11/3 3/7/3 5/6/3

usemtl M_0020_Red
f 5/6/4 3/7/4 9/11/4

f 3/7/4 5/6/4 2/5/4

f 5/6/6 9/11/6 6/8/6

vt 31.4961 29.8653
vn 1.25332e-016 8.72932e-016 1
v -0.3 0.916152 -0.358579
vt 7.87402 32.132
vt 7.87402 29.8653
f 5/28/15 17/29/15 9/30/15

v 0.3 0.916152 -0.358579
vt 31.4961 32.132
f 17/29/15 5/28/15 18/31/15

vn -1.25332e-016 -8.72932e-016 -1
f 9/30/16 17/29/16 5/28/16

v -0.3 0.220208 0.337365
vt 6.40294 4.7326
vn 1 3.86427e-016 3.10075e-016
vt 33.8023 29.8653
vt 33.8023 32.132
f 19/32/17 9/33/17 17/34/17

vt 5.56777 1.63076
f 19/32/17 10/35/17 9/33/17

vt 5.56777 5.56777
f 10/35/17 19/32/17 16/36/17

vn -1 -3.86427e-016 -3.10075e-016
f 16/36/18 19/32/18 10/35/18

vn 1 3.19222e-017 -9.57666e-017
v -0.3 0.958579 -0.358579
vt 33.8023 33.8023
f 19/32/19 20/37/19 16/36/19

f 20/37/19 19/32/19 17/34/19

vn -1 -3.19222e-017 9.57666e-017
f 16/36/20 20/37/20 19/32/20

vt 2.8956e-014 55.6777
vt 7.87402 47.8037
f 1/38/11 16/23/11 20/39/11

f 16/23/11 1/38/11 14/21/11

f 14/21/12 1/38/12 16/23/12

usemtl M_0021_DarkRed
vn -1 5.66092e-015 4.40489e-015
vt 2.78388 -6.72089
vt 4.75239 -4.75239
f 1/4/21 12/40/21 14/41/21

vt 2.84217e-014 -3.93701
f 12/40/21 1/4/21 8/42/21

usemtl M_0020_Red
vn 1 -5.66092e-015 -4.40489e-015
f 14/41/22 12/40/22 1/4/22

f 8/42/22 1/4/22 12/40/22

usemtl M_0021_DarkRed
f 8/42/21 1/4/21 3/2/21

usemtl M_0020_Red
f 3/2/22 1/4/22 8/42/22

f 20/39/12 16/23/12 1/38/12

v 0.3 0.958579 -0.358579
vt 31.4961 47.8037
f 1/38/11 20/39/11 21/43/11

f 21/43/12 20/39/12 1/38/12

vt 7.87402 33.8023
vt 31.4961 33.8023
f 20/44/15 18/31/15 21/45/15

f 17/29/15 18/31/15 20/44/15

f 18/31/16 5/28/16 17/29/16

vt -33.8023 29.8653
vn -1 4.21942e-016 2.37671e-015
v 0.3 0.220208 0.337365
vt -6.40294 4.7326
vt -33.8023 32.132
f 5/46/23 22/47/23 18/48/23

vt -5.56777 1.63076
f 6/49/23 22/47/23 5/46/23

vt -5.56777 5.56777
f 22/47/23 6/49/23 15/50/23

vn 1 -4.21942e-016 -2.37671e-015
f 15/50/24 6/49/24 22/47/24

f 15/26/14 16/25/14 6/24/14

usemtl M_0094_PowderBlue
vt -31.4961 5.10703e-014
vn -1.223e-015 0.707107 -0.707107
vt -7.87402 -1.1811
vt -7.87402 -2.22045e-015
f 15/51/25 19/52/25 16/53/25

vt -31.4961 -1.1811
f 19/52/25 15/51/25 22/54/25

usemtl M_0020_Red
vn 1.223e-015 -0.707107 0.707107
f 16/53/26 19/52/26 15/51/26

f 22/54/26 15/51/26 19/52/26

vt -33.8023 33.8023
vn -1 -4.78833e-016 1.4365e-015
f 21/55/27 22/47/27 15/50/27

f 22/47/27 21/55/27 18/48/27

vn 1 4.78833e-016 -1.4365e-015
f 15/50/28 22/47/28 21/55/28

f 18/48/28 21/55/28 22/47/28

f 21/45/16 18/31/16 20/44/16

usemtl M_0094_PowderBlue
v 0.3 0.937365 -0.379792
vt -34.6375 32.9671
vn -1 0 -0
f 23/56/29 18/48/29 21/55/29

v -0.3 0.937365 -0.379792
vn -1.7648e-015 0.707107 0.707107
vt 31.4961 46.6226
f 24/39/30 18/57/30 23/43/30

vt 7.87402 46.6226
f 17/58/30 18/57/30 24/39/30

usemtl M_0020_Red
f 20/44/16 18/31/16 17/29/16

usemtl M_0094_PowderBlue
f 17/58/30 22/20/30 18/57/30

f 22/20/30 17/58/30 19/23/30

usemtl M_0020_Red
vn 1.7648e-015 -0.707107 -0.707107
f 19/23/31 17/58/31 22/20/31

f 17/34/20 19/32/20 20/37/20

f 17/34/18 9/33/18 19/32/18

f 9/33/18 10/35/18 19/32/18

usemtl M_0094_PowderBlue
vt 34.6375 32.9671
vn 1 0 -0
f 24/59/32 20/37/32 17/34/32

vt 31.4961 -1.1811
vn 2.55234e-015 -0.707107 0.707107
vt 7.87402 0
vt 7.87402 -1.1811
f 23/60/33 20/61/33 24/62/33

vt 31.4961 1.10134e-013
f 20/61/33 23/60/33 21/63/33

usemtl M_0020_Red
vn -2.55234e-015 0.707107 -0.707107
f 24/62/34 20/61/34 23/60/34

vn -1 -0 0
f 17/34/35 20/37/35 24/59/35

f 24/39/31 18/57/31 17/58/31

f 23/43/31 18/57/31 24/39/31

vn 1 -0 0
f 21/55/36 18/48/36 23/56/36

f 21/63/34 23/60/34 20/61/34

f 18/57/31 22/20/31 17/58/31

f 18/48/24 22/47/24 5/46/24

f 5/46/24 22/47/24 6/49/24

f 15/20/11 4/22/11 21/43/11

f 4/22/12 13/19/12 15/20/12

vt -2.78388 -6.72089
vn 1 -3.05507e-015 -5.14359e-015
vt 39.3701 39.3701
vt -4.75239 -4.75239
f 11/64/37 4/65/37 13/66/37

vt -2.30925e-013 -3.93701
f 4/65/37 11/64/37 7/67/37

usemtl M_0021_DarkRed
vn -1 3.05507e-015 5.14359e-015
f 13/66/38 4/65/38 11/64/38

f 7/67/38 11/64/38 4/65/38

usemtl M_0020_Red
f 7/9/8 8/10/8 11/13/8

vt 39.3701 35.4331
f 4/65/37 7/67/37 2/68/37

usemtl M_0021_DarkRed
f 2/68/38 7/67/38 4/65/38

f 4/4/2 1/1/2 2/2/2

usemtl M_0020_Red
f 1/38/11 21/43/11 4/22/11

f 4/22/12 21/43/12 1/38/12

f 21/43/12 4/22/12 15/20/12

