# Alias OBJ Model File
# Exported from SketchUp, (c) 2000-2012 Trimble Navigation Limited
# File units = meters

mtllib roof_hip_end.mtl

g Mesh1 peak2_1 Model

usemtl M_0021_DarkRed
v 0.5 0.1 0.5
vt -39.3701 3.93701
vn 1 0 -4.71845e-016
v 0.5 -1.35358e-016 -0.5
vt 0 0
v 0.5 0.1 -0.5
vt 0 3.93701
f 1/1/1 2/2/1 3/3/1

v 0.5 -1.35358e-016 0.5
vt -39.3701 0
f 2/2/1 1/1/1 4/4/1

vn -1 -0 4.71845e-016
f 3/3/2 2/2/2 1/1/2

vn -4.71845e-016 -1.20319e-014 -1
v -0.5 0.1 -0.5
vt 39.3701 3.93701
f 2/2/3 5/5/3 3/3/3

v -0.5 -1.35358e-016 -0.5
vt 39.3701 -4.2039e-043
f 5/5/3 2/2/3 6/6/3

vn 4.71845e-016 1.20319e-014 1
f 6/6/4 2/2/4 5/5/4

v -5.41434e-016 0.5 -2.25597e-015
vt -19.685 27.8388
vn 3.33645e-016 -0.707107 0.707107
f 7/7/5 6/4/5 2/2/5

vt -1.47438e-013 19.685
vn -0.707107 0 0.707107
vt -27.8388 3.93701
vt -27.8388 0
f 7/8/6 5/9/6 6/10/6

v -5.41434e-016 0.6 -2.25597e-015
vt -1.47438e-013 23.622
f 5/9/6 7/8/6 8/11/6

vn 0.707107 -0 -0.707107
f 6/10/7 5/9/7 7/8/7

v -0.5 -1.35358e-016 0.5
vt 39.3701 0
vn -1 0 4.71845e-016
f 9/12/8 5/3/8 6/2/8

v -0.5 0.1 0.5
f 5/3/8 9/12/8 10/5/8

vn 1 -0 -4.71845e-016
f 6/2/9 5/3/9 9/12/9

f 10/5/9 9/12/9 5/3/9

v 3.60956e-016 0.5 0.5
vt -19.685 19.685
vn 2.56039e-015 9.08065e-016 1
vt -39.3701 -3.57506e-014
f 11/13/10 10/1/10 9/14/10

v 3.60956e-016 0.6 0.5
vt -19.685 23.622
f 10/1/10 11/13/10 12/15/10

vn -2.56039e-015 -9.08065e-016 -1
f 9/14/11 10/1/11 11/13/11

f 12/15/11 11/13/11 10/1/11

vn -1.6167e-015 9.08065e-016 1
vt 8.22263e-014 3.93701
f 11/13/12 1/16/12 12/15/12

vt 8.22263e-014 -3.57506e-014
f 1/16/12 11/13/12 4/17/12

vn 1.6167e-015 -9.08065e-016 -1
f 4/17/13 11/13/13 1/16/13

vt 39.3701 27.8388
vn -0.707107 -0.707107 3.33645e-016
f 11/18/14 2/2/14 4/12/14

vt 19.685 27.8388
f 2/2/14 11/18/14 7/19/14

vn 0.707107 0.707107 -3.33645e-016
f 4/12/15 2/2/15 11/18/15

f 4/4/2 1/1/2 2/2/2

f 7/19/15 11/18/15 2/2/15

vt 39.3701 19.685
vt 19.685 23.622
vt 19.685 19.685
f 11/20/8 8/21/8 7/22/8

vt 39.3701 23.622
f 8/21/8 11/20/8 12/23/8

f 7/22/9 8/21/9 11/20/9

f 8/11/7 7/8/7 5/9/7

vn -0.707107 0 -0.707107
vt 27.8388 19.685
vt 27.8388 23.622
f 3/3/16 7/24/16 8/25/16

f 7/24/16 3/3/16 2/2/16

vn 0.707107 -0 0.707107
f 2/2/17 3/3/17 7/24/17

f 3/3/4 5/5/4 2/2/4

usemtl M_0020_Red
vt 19.685 30.6227
vn -3.33645e-016 0.707107 -0.707107
vt 0 2.78388
vt 39.3701 2.78388
f 8/26/18 3/27/18 5/28/18

vt -19.685 30.6227
vt -39.3701 2.78388
f 8/29/15 1/30/15 3/27/15

vt -39.3701 30.6227
f 1/30/15 8/29/15 12/31/15

usemtl M_0021_DarkRed
f 3/27/14 1/30/14 8/29/14

f 12/31/14 8/29/14 1/30/14

usemtl M_0020_Red
vt 19.685 2.78388
vn -0.707107 0.707107 3.56487e-016
vt 39.3701 -25.055
f 8/32/19 10/33/19 12/28/19

vt -1.2718e-015 -25.055
f 10/33/19 8/32/19 5/34/19

usemtl M_0021_DarkRed
vn 0.707107 -0.707107 -3.56487e-016
f 5/34/20 8/32/20 10/33/20

f 5/28/5 3/27/5 8/26/5

f 8/25/17 7/24/17 3/3/17

f 12/28/20 10/33/20 8/32/20

f 12/23/9 11/20/9 8/21/9

f 12/15/13 1/16/13 11/13/13

f 2/2/18 6/4/18 7/7/18

vt -19.685 -3.90799e-014
vn 0.707107 -0.707107 -3.33645e-016
vt -39.3701 -27.8388
vt 0 -27.8388
f 7/35/21 9/36/21 6/37/21

vt -39.3701 -1.95399e-014
f 9/36/21 7/35/21 11/38/21

vn -0.707107 0.707107 3.33645e-016
f 11/38/22 7/35/22 9/36/22

f 6/37/22 9/36/22 7/35/22

