# Alias OBJ Model File
# Exported from SketchUp, (c) 2000-2012 Trimble Navigation Limited
# File units = meters

mtllib roof_skylight_2.mtl

g Mesh1 sloped_roof1 Model

usemtl M_0020_Red
v -0.5 1.1 -0.5
vt 7.10543e-015 39.3701
vn 2.34621e-015 0 -1
v 0.5 1 -0.5
vt -39.3701 35.4331
v -0.5 1 -0.5
vt 7.10543e-015 35.4331
f 1/1/1 2/2/1 3/3/1

v 0.5 1.1 -0.5
vt -39.3701 39.3701
f 2/2/1 1/1/1 4/4/1

usemtl M_0021_DarkRed
vn -2.34621e-015 -0 1
f 3/3/2 2/2/2 1/1/2

vt -39.3701 52.8938
vn 8.03886e-016 -0.707107 -0.707107
v 0.3 0.858579 -0.358579
vt -31.4961 45.0198
vt -4.05066e-014 52.8938
f 2/5/3 5/6/3 3/7/3

v 0.3 0.141421 0.358579
vt -31.4961 5.09013
f 2/5/3 6/8/3 5/6/3

v 0.5 -5.63993e-016 0.5
vt -39.3701 -2.78388
f 7/9/3 6/8/3 2/5/3

v -0.5 -2.25597e-017 0.5
vt -8.52651e-014 -2.78388
f 6/8/3 7/9/3 8/10/3

usemtl M_0020_Red
vn -8.03886e-016 0.707107 0.707107
f 2/5/4 6/8/4 7/9/4

f 5/6/4 6/8/4 2/5/4

usemtl M_0094_PowderBlue
vn 1.40464e-015 -0.707107 -0.707107
v -0.3 0.858579 -0.358579
vt -7.87402 45.0198
f 6/8/5 9/11/5 5/6/5

v -0.3 0.141421 0.358579
vt -7.87402 5.09013
f 9/11/5 6/8/5 10/12/5

usemtl M_0020_Red
vn -1.40464e-015 0.707107 0.707107
f 10/12/6 6/8/6 9/11/6

usemtl M_0021_DarkRed
f 6/8/3 8/10/3 10/12/3

usemtl M_0020_Red
f 8/10/4 7/9/4 6/8/4

usemtl M_0021_DarkRed
v 0.5 -0.0707107 0.570711
vt -39.3701 -6.72089
vn -7.01779e-016 -0.707107 -0.707107
f 11/13/7 8/10/7 7/9/7

v -0.5 -0.0707107 0.570711
vt 2.76291e-015 -6.72089
f 8/10/7 11/13/7 12/14/7

usemtl M_0020_Red
vn 7.01779e-016 0.707107 0.707107
f 12/14/8 11/13/8 8/10/8

usemtl M_0021_DarkRed
v 0.5 -0.0207107 0.620711
vt 39.3701 -2.22045e-014
vn 1.31216e-016 -0.707107 0.707107
vt -5.16599e-016 -2.78388
vt 39.3701 -2.78388
f 13/15/9 12/16/9 11/17/9

v -0.5 -0.0207107 0.620711
vt 5.59615e-014 -2.75335e-014
f 12/16/9 13/15/9 14/18/9

usemtl M_0020_Red
vn -1.31216e-016 0.707107 -0.707107
f 11/17/10 12/16/10 13/15/10

f 14/18/10 13/15/10 12/16/10

vt 39.3701 -6.72089
vn -1.01134e-015 0.707107 0.707107
v 0.34 0.213137 0.386863
vt 33.0709 6.29921
vt 6.36405e-014 -6.72089
f 13/19/11 15/20/11 14/21/11

vt 39.3701 55.6777
f 15/20/11 13/19/11 4/22/11

vn 1.01134e-015 -0.707107 -0.707107
f 14/21/12 15/20/12 13/19/12

v -0.34 0.213137 0.386863
vt 6.29921 6.29921
f 16/23/11 14/21/11 15/20/11

vt 2.8956e-014 55.6777
f 14/21/11 16/23/11 1/24/11

f 1/24/12 16/23/12 14/21/12

v -0.34 0.241421 0.358579
vt 6.29921 7.87402
f 1/24/11 16/23/11 17/25/11

f 17/25/12 16/23/12 1/24/12

vn -2.832e-016 0.707107 0.707107
f 15/20/13 17/25/13 16/23/13

v -0.3 0.241421 0.358579
vt 7.87402 7.87402
f 17/25/13 15/20/13 18/26/13

vn 2.832e-016 -0.707107 -0.707107
f 16/23/14 17/25/14 15/20/14

v -0.34 0.269706 0.386863
vt 4.45422 6.68132
vn 1 0 -0
vt 4.45422 4.45422
vt 5.56777 5.56777
f 19/27/15 16/28/15 17/29/15

v -0.34 0.241421 0.415147
vt 3.34066 5.56777
f 16/28/15 19/27/15 20/30/15

usemtl M_0135_DarkGray
vn -1 -0 0
f 20/30/16 19/27/16 16/28/16

usemtl M_0020_Red
v -0.3 0.269706 0.386863
vt -7.87402 7.87402
vn 3.56996e-016 -0.707107 -0.707107
vt -6.29921 6.29921
vt -6.29921 7.87402
f 21/31/17 20/32/17 19/33/17

v 0.34 0.241421 0.415147
vt -33.0709 6.29921
f 20/32/17 21/31/17 22/34/17

usemtl M_0135_DarkGray
vn -3.56996e-016 0.707107 0.707107
f 19/33/18 20/32/18 21/31/18

f 22/34/18 21/31/18 20/32/18

usemtl M_0020_Red
v 0.3 0.269706 0.386863
vt -31.4961 7.87402
f 22/34/17 21/31/17 23/35/17

usemtl M_0135_DarkGray
f 23/35/18 21/31/18 22/34/18

usemtl M_0020_Red
vt 7.87402 1.5748
vn 1.24932e-015 -0.707107 0.707107
v 0.3 0.255563 0.372721
vt 31.4961 0.787402
vt 31.4961 1.5748
f 21/36/19 24/37/19 23/38/19

v -0.3 0.255563 0.372721
vt 7.87402 0.787402
f 24/37/19 21/36/19 25/39/19

vn -1.24932e-015 0.707107 -0.707107
f 25/39/20 21/36/20 24/37/20

vt 6.29921 1.5748
vn -1.87292e-014 -0.707107 0.707107
f 19/40/21 25/39/21 21/36/21

vt 6.29921 -9.85878e-014
f 17/41/21 25/39/21 19/40/21

vt 7.87402 -1.51879e-013
f 25/39/21 17/41/21 18/42/21

vn 1.87292e-014 0.707107 -0.707107
f 18/42/22 17/41/22 25/39/22

f 18/26/14 15/20/14 17/25/14

v 0.3 0.241421 0.358579
vt 31.4961 7.87402
f 18/26/13 15/20/13 26/43/13

f 26/43/14 15/20/14 18/26/14

v 0.34 0.241421 0.358579
vt 33.0709 7.87402
f 26/43/13 15/20/13 27/44/13

f 27/44/14 15/20/14 26/43/14

f 15/20/11 4/22/11 27/44/11

f 4/22/12 13/19/12 15/20/12

vt -2.78388 -6.72089
vn 1 -3.05507e-015 -5.14359e-015
vt 39.3701 39.3701
vt -4.75239 -4.75239
f 11/45/23 4/46/23 13/47/23

vt -2.30925e-013 -3.93701
f 4/46/23 11/45/23 7/48/23

usemtl M_0021_DarkRed
vn -1 3.05507e-015 5.14359e-015
f 13/47/24 4/46/24 11/45/24

f 7/48/24 11/45/24 4/46/24

usemtl M_0020_Red
f 7/9/8 8/10/8 11/13/8

vt 39.3701 35.4331
f 4/46/23 7/48/23 2/49/23

usemtl M_0021_DarkRed
f 2/49/24 7/48/24 4/46/24

f 4/4/2 1/1/2 2/2/2

usemtl M_0020_Red
v -0.34 0.986863 -0.386863
vt 6.29921 49.3785
f 1/24/11 28/50/11 4/22/11

v -0.34 0.958579 -0.358579
vt 6.29921 47.8037
f 1/24/11 29/51/11 28/50/11

f 1/24/11 17/25/11 29/51/11

f 29/51/12 17/25/12 1/24/12

vn 2.27916e-014 0.707107 0.707107
v -0.3 0.958579 -0.358579
vt 7.87402 47.8037
f 17/25/25 30/52/25 29/51/25

f 30/52/25 17/25/25 18/26/25

vn -2.27916e-014 -0.707107 -0.707107
f 18/26/26 17/25/26 30/52/26

f 29/51/26 30/52/26 17/25/26

vn -5.96045e-016 0.707107 0.707107
v 0.3 0.958579 -0.358579
vt 31.4961 47.8037
f 29/51/27 30/52/27 31/53/27

vn 5.96045e-016 -0.707107 -0.707107
f 31/53/28 30/52/28 29/51/28

vt 7.87402 33.8023
vn 1.00265e-016 8.50324e-016 1
v 0.3 0.916152 -0.358579
vt 31.4961 32.132
vt 31.4961 33.8023
f 30/54/29 32/55/29 31/56/29

v -0.3 0.916152 -0.358579
vt 7.87402 32.132
f 33/57/29 32/55/29 30/54/29

vt 31.4961 29.8653
f 33/57/29 5/58/29 32/55/29

vt 7.87402 29.8653
f 5/58/29 33/57/29 9/59/29

vn -1.00265e-016 -8.50324e-016 -1
f 9/59/30 33/57/30 5/58/30

vt 33.8023 33.8023
vn 1 4.7217e-016 3.89947e-016
vt 33.8023 29.8653
vt 33.8023 32.132
f 30/60/31 9/61/31 33/62/31

f 18/29/31 9/61/31 30/60/31

vt 5.56777 1.63076
f 9/61/31 18/29/31 10/63/31

vn -1 -4.7217e-016 -3.89947e-016
f 10/63/32 18/29/32 9/61/32

vt -7.87402 5.56777
vn -1.50398e-016 7.60019e-033 -1
vt -31.4961 1.63076
vt -7.87402 1.63076
f 18/64/33 6/65/33 10/66/33

vt -31.4961 5.56777
f 6/65/33 18/64/33 26/67/33

vn 1.50398e-016 -7.60019e-033 1
f 10/66/34 6/65/34 18/64/34

f 10/12/4 8/10/4 6/8/4

usemtl M_0021_DarkRed
f 3/7/3 10/12/3 8/10/3

f 10/12/3 3/7/3 9/11/3

usemtl M_0020_Red
f 8/10/4 10/12/4 3/7/4

f 9/11/4 3/7/4 10/12/4

usemtl M_0021_DarkRed
f 9/11/3 3/7/3 5/6/3

usemtl M_0020_Red
f 5/6/4 3/7/4 9/11/4

f 3/7/4 5/6/4 2/5/4

f 5/6/6 9/11/6 6/8/6

vt -33.8023 29.8653
vn -1 4.7217e-016 2.4032e-015
vt -5.56777 1.63076
vt -33.8023 32.132
f 5/68/35 6/69/35 32/70/35

vn 1 -4.7217e-016 -2.4032e-015
f 32/70/36 6/69/36 5/68/36

vt -33.8023 33.8023
f 6/69/35 31/71/35 32/70/35

vt -5.56777 5.56777
f 31/71/35 6/69/35 26/72/35

f 26/72/36 6/69/36 31/71/36

f 26/67/34 18/64/34 6/65/34

usemtl M_0094_PowderBlue
vt 31.4961 5.24025e-014
vn 1.223e-015 -0.707107 0.707107
vt 7.87402 -4.44089e-016
f 26/73/37 25/39/37 18/74/37

f 25/39/37 26/73/37 24/37/37

usemtl M_0020_Red
vn -1.223e-015 0.707107 -0.707107
f 18/74/38 25/39/38 26/73/38

usemtl M_0094_PowderBlue
v -0.3 0.972721 -0.344437
vt -33.2455 34.3591
vn -1 -1.18348e-015 -1.05765e-015
vt -5.01099 6.12455
f 34/75/39 18/72/39 25/76/39

f 18/72/39 34/75/39 30/71/39

usemtl M_0020_Red
vn 1 1.18348e-015 1.05765e-015
f 25/76/40 18/72/40 34/75/40

f 30/71/40 34/75/40 18/72/40

usemtl M_0094_PowderBlue
v 0.3 0.972721 -0.344437
vt -31.4961 0.787402
vn -2.55234e-015 0.707107 -0.707107
vt -7.87402 7.10543e-015
vt -7.87402 0.787402
f 35/77/41 30/78/41 34/79/41

vt -31.4961 1.1724e-013
f 30/78/41 35/77/41 31/80/41

usemtl M_0020_Red
vn 2.55234e-015 -0.707107 0.707107
f 34/79/42 30/78/42 35/77/42

vt -7.87402 -1.1191e-012
vn 1.99999e-014 0.707107 -0.707107
v -0.3 0.993934 -0.323223
vt -7.87402 1.9685
f 30/81/43 36/82/43 34/79/43

v -0.34 0.993934 -0.323223
vt -6.29921 1.9685
f 30/81/43 37/83/43 36/82/43

vt -6.29921 -1.03739e-012
f 37/83/43 30/81/43 29/84/43

vn -1.99999e-014 -0.707107 0.707107
f 29/84/44 30/81/44 37/83/44

f 36/82/44 37/83/44 30/81/44

v -0.34 1.02222 -0.351508
vt -6.29921 49.3785
vn 1.25579e-015 -0.707107 -0.707107
vt -7.87402 47.8037
vt -6.29921 47.8037
f 38/85/45 36/86/45 37/87/45

v 0.3 0.993934 -0.323223
vt -31.4961 47.8037
f 36/86/45 38/85/45 39/88/45

usemtl M_0135_DarkGray
vn -1.25579e-015 0.707107 0.707107
f 37/87/46 36/86/46 38/85/46

usemtl M_0020_Red
vt -7.87402 47.8208
vn -9.46996e-015 -0.700101 -0.714044
vt -6.29921 7.88916
vt -6.29921 47.8208
f 36/89/47 19/90/47 37/91/47

vt -7.87402 7.88916
f 19/90/47 36/89/47 21/92/47

usemtl M_0135_DarkGray
vn 9.46996e-015 0.700101 0.714044
f 21/92/48 36/89/48 19/90/48

usemtl M_0020_Red
vt -32.4104 35.1943
vn -1 -6.29143e-017 6.29143e-017
vt -4.45422 6.68132
f 36/93/49 25/76/49 21/94/49

f 25/76/49 36/93/49 34/75/49

usemtl M_0135_DarkGray
vn 1 6.29143e-017 -6.29143e-017
f 21/94/50 25/76/50 36/93/50

usemtl M_0020_Red
f 21/36/22 25/39/22 19/40/22

f 19/40/22 25/39/22 17/41/22

usemtl M_0135_DarkGray
f 17/29/16 16/28/16 19/27/16

usemtl M_0020_Red
vn 1 -9.59426e-015 -1.06377e-014
vt 32.4104 35.1943
f 17/29/51 37/95/51 19/27/51

f 37/95/51 17/29/51 29/60/51

usemtl M_0135_DarkGray
vn -1 9.59426e-015 1.06377e-014
f 19/27/52 37/95/52 17/29/52

f 37/91/48 19/90/48 36/89/48

f 29/60/52 17/29/52 37/95/52

usemtl M_0020_Red
vn 1 -1.57926e-014 -1.73878e-014
vt 33.5239 36.3078
f 29/60/53 38/96/53 37/95/53

vt 34.9159 34.9159
f 38/96/53 29/60/53 28/97/53

usemtl M_0135_DarkGray
vn -1 1.57926e-014 1.73878e-014
f 37/95/54 38/96/54 29/60/54

f 28/97/54 29/60/54 38/96/54

usemtl M_0020_Red
f 28/50/12 29/51/12 1/24/12

v 0.34 0.986863 -0.386863
vt 33.0709 49.3785
f 29/51/27 40/98/27 28/50/27

f 31/53/27 40/98/27 29/51/27

v 0.34 0.958579 -0.358579
vt 33.0709 47.8037
f 40/98/27 31/53/27 41/99/27

f 41/99/28 31/53/28 40/98/28

vt -31.4961 -1.84031e-012
vn 4.85881e-015 0.707107 -0.707107
v 0.34 0.993934 -0.323223
vt -33.0709 1.9685
vt -33.0709 -1.84741e-012
f 31/100/55 42/101/55 41/102/55

f 35/77/55 42/101/55 31/100/55

vt -31.4961 1.9685
f 42/101/55 35/77/55 39/103/55

vn -4.85881e-015 -0.707107 0.707107
f 39/103/56 35/77/56 42/101/56

vn -1.27633e-015 0.707107 -0.707107
f 34/79/57 39/103/57 35/77/57

f 39/103/57 34/79/57 36/82/57

usemtl M_0135_DarkGray
vn 1.27633e-015 -0.707107 0.707107
f 36/82/58 34/79/58 39/103/58

usemtl M_0020_Red
f 34/79/44 36/82/44 30/81/44

usemtl M_0135_DarkGray
f 34/75/50 36/93/50 25/76/50

usemtl M_0094_PowderBlue
vn -1.58472e-015 0.707107 0.707107
f 24/43/59 34/52/59 25/26/59

f 34/52/59 24/43/59 35/53/59

usemtl M_0020_Red
vn 1.58472e-015 -0.707107 -0.707107
f 25/26/60 34/52/60 24/43/60

f 35/53/60 24/43/60 34/52/60

usemtl M_0094_PowderBlue
vn 1 2.06428e-015 1.76852e-016
vt 33.2455 34.3591
vt 5.01099 6.12455
f 26/29/61 35/104/61 24/105/61

f 35/104/61 26/29/61 31/60/61

usemtl M_0020_Red
vn -1 -2.06428e-015 -1.76852e-016
f 24/105/62 35/104/62 26/29/62

vn 1 9.43715e-016 -9.43715e-016
f 39/95/63 24/105/63 35/104/63

f 24/105/63 39/95/63 23/27/63

usemtl M_0135_DarkGray
vn -1 -9.43715e-016 9.43715e-016
f 23/27/64 39/95/64 24/105/64

usemtl M_0020_Red
vt -31.4961 47.8208
vn 6.62064e-017 -0.700101 -0.714044
v 0.34 0.269706 0.386863
vt -33.0709 7.88916
vt -31.4961 7.88916
f 39/106/65 43/107/65 23/108/65

vt -33.0709 47.8208
f 43/107/65 39/106/65 42/109/65

usemtl M_0135_DarkGray
vn -6.62064e-017 0.700101 0.714044
f 23/108/66 43/107/66 39/106/66

usemtl M_0020_Red
vn 1.31896e-016 -0.707107 0.707107
vt 33.0709 1.5748
f 24/37/67 43/110/67 23/38/67

vt 31.4961 2.70894e-014
f 26/111/67 43/110/67 24/37/67

vt 33.0709 2.75335e-014
f 43/110/67 26/111/67 27/112/67

vn -1.31896e-016 0.707107 -0.707107
f 27/112/68 26/111/68 43/110/68

vn -7.39625e-028 0.707107 0.707107
f 41/99/69 26/43/69 27/44/69

f 26/43/69 41/99/69 31/53/69

vn 7.39625e-028 -0.707107 -0.707107
f 27/44/70 26/43/70 41/99/70

f 31/53/70 41/99/70 26/43/70

f 41/102/56 42/101/56 31/100/56

v 0.34 1.02222 -0.351508
vt -33.5239 36.3078
vn -1 -7.97607e-016 7.97607e-016
f 44/113/71 41/71/71 42/93/71

vt -34.9159 34.9159
f 41/71/71 44/113/71 40/114/71

usemtl M_0135_DarkGray
vn 1 7.97607e-016 -7.97607e-016
f 42/93/72 41/71/72 44/113/72

usemtl M_0020_Red
f 27/72/64 42/93/64 41/71/64

f 42/93/64 27/72/64 43/94/64

usemtl M_0135_DarkGray
f 43/94/63 27/72/63 42/93/63

usemtl M_0020_Red
vt -4.45422 4.45422
vn -1 0 -0
f 15/115/73 43/94/73 27/72/73

vt -3.34066 5.56777
f 43/94/73 15/115/73 22/116/73

usemtl M_0135_DarkGray
vn 1 -0 0
f 22/116/74 15/115/74 43/94/74

usemtl M_0020_Red
vt -33.0709 2.13163e-014
vn 0 0.707107 -0.707107
vt -6.29921 1.5748
vt -33.0709 1.5748
f 15/117/75 20/118/75 22/119/75

vt -6.29921 2.13163e-014
f 20/118/75 15/117/75 16/120/75

usemtl M_0135_DarkGray
vn -0 -0.707107 0.707107
f 16/120/76 15/117/76 20/118/76

usemtl M_0020_Red
f 15/20/12 14/21/12 16/23/12

usemtl M_0135_DarkGray
f 22/119/76 20/118/76 15/117/76

f 27/72/74 43/94/74 15/115/74

usemtl M_0020_Red
f 27/44/12 4/22/12 15/20/12

f 27/44/11 4/22/11 41/99/11

f 41/99/12 4/22/12 27/44/12

f 41/99/11 4/22/11 40/98/11

f 40/98/12 4/22/12 41/99/12

f 40/98/11 4/22/11 28/50/11

f 28/50/12 4/22/12 40/98/12

f 4/22/12 28/50/12 1/24/12

f 28/50/28 40/98/28 29/51/28

vt 33.0709 -1.71951e-012
vn 2.27829e-017 -0.707107 0.707107
vt 6.29921 1.9685
vt 6.29921 -1.71951e-012
f 40/121/77 38/122/77 28/123/77

vt 33.0709 1.9685
f 38/122/77 40/121/77 44/124/77

vn -2.27829e-017 0.707107 -0.707107
f 28/123/78 38/122/78 40/121/78

f 44/124/78 40/121/78 38/122/78

usemtl M_0135_DarkGray
f 40/114/72 44/113/72 41/71/72

usemtl M_0020_Red
vt -33.0709 47.8037
vt -33.0709 49.3785
f 42/125/45 38/85/45 44/126/45

f 39/88/45 38/85/45 42/125/45

usemtl M_0135_DarkGray
f 39/88/46 38/85/46 36/86/46

f 42/125/46 38/85/46 39/88/46

f 44/126/46 38/85/46 42/125/46

f 42/109/66 39/106/66 43/107/66

usemtl M_0020_Red
f 29/51/28 40/98/28 31/53/28

usemtl M_0135_DarkGray
f 41/71/63 42/93/63 27/72/63

usemtl M_0020_Red
vt -33.0709 7.87402
f 22/34/17 23/35/17 43/127/17

usemtl M_0135_DarkGray
f 43/127/18 23/35/18 22/34/18

usemtl M_0020_Red
f 23/38/68 43/110/68 24/37/68

f 24/37/68 43/110/68 26/111/68

f 24/37/38 26/73/38 25/39/38

f 23/38/20 24/37/20 21/36/20

f 31/100/56 42/101/56 35/77/56

f 31/80/42 35/77/42 30/78/42

f 31/60/62 26/29/62 35/104/62

f 31/56/30 32/55/30 30/54/30

usemtl M_0094_PowderBlue
v 0.3 0.937365 -0.379792
vt -34.6375 32.9671
f 45/128/73 32/70/73 31/71/73

usemtl M_0020_Red
f 31/71/74 32/70/74 45/128/74

f 32/70/36 31/71/36 6/69/36

usemtl M_0094_PowderBlue
vt 7.87402 0
vt 31.4961 -1.1811
vt 31.4961 1.10134e-013
f 30/129/42 45/130/42 31/131/42

v -0.3 0.937365 -0.379792
vt 7.87402 -1.1811
f 45/130/42 30/129/42 46/132/42

usemtl M_0020_Red
f 46/132/41 30/129/41 45/130/41

usemtl M_0094_PowderBlue
vt 34.6375 32.9671
f 46/133/15 30/60/15 33/62/15

usemtl M_0020_Red
f 33/62/16 30/60/16 46/133/16

f 30/54/30 32/55/30 33/57/30

f 32/55/30 5/58/30 33/57/30

f 33/62/32 9/61/32 30/60/32

f 30/60/32 9/61/32 18/29/32

f 31/131/41 45/130/41 30/129/41

usemtl M_0135_DarkGray
f 35/104/64 24/105/64 39/95/64

f 35/77/58 39/103/58 34/79/58

usemtl M_0021_DarkRed
vt 2.84217e-014 -3.93701
vn -1 5.66092e-015 4.40489e-015
f 8/134/79 1/4/79 3/2/79

vt 2.78388 -6.72089
f 12/135/79 1/4/79 8/134/79

vt 4.75239 -4.75239
f 1/4/79 12/135/79 14/136/79

usemtl M_0020_Red
vn 1 -5.66092e-015 -4.40489e-015
f 14/136/80 12/135/80 1/4/80

f 8/134/80 1/4/80 12/135/80

f 3/2/80 1/4/80 8/134/80

