# Alias OBJ Model File
# Exported from SketchUp, (c) 2000-2012 Trimble Navigation Limited
# File units = meters

mtllib roof_small_gable_corner.mtl

g Mesh1 roof_small_gable1 Model

usemtl M_0042_Sienna
v -0.5 0 -0.45
vt -39.3701 3.93701
vn -0 -1 -0
v 0.5 0 -0.55
vt 0 0
v 0.5 0 -0.45
vt 0 3.93701
f 1/1/1 2/2/1 3/3/1

v -0.5 0 -0.55
vt -39.3701 4.44089e-016
f 2/2/1 1/1/1 4/4/1

vn 0 1 0
f 3/3/2 2/2/2 1/1/2

v -0.5 0.5 -0.55
vt -4.44089e-016 44.0171
vn 0.447214 0.894427 5.5857e-017
vt -3.93701 0
f 5/5/3 3/6/3 2/2/3

v -0.5 0.5 -0.45
vt -3.93701 44.0171
f 3/6/3 5/5/3 6/7/3

vn -0.447214 -0.894427 -5.5857e-017
f 2/2/4 3/6/4 5/5/4

f 6/7/4 5/5/4 3/6/4

vt 4.44089e-016 19.685
vn -1 0 -1.249e-016
vt 3.93701 0
vt 3.93701 19.685
f 5/8/5 1/9/5 6/10/5

vt 4.44089e-016 0
f 1/9/5 5/8/5 4/11/5

vn 1 -0 1.249e-016
f 4/11/6 5/8/6 1/9/6

vt 39.3701 19.685
vn 1.1362e-016 -4.03475e-033 -1
vt 39.3701 3.03858e-064
f 5/12/7 2/2/7 4/13/7

vn -1.1362e-016 4.03475e-033 1
f 4/13/8 2/2/8 5/12/8

f 4/4/2 1/1/2 2/2/2

f 6/10/6 1/9/6 5/8/6

vt -39.3701 19.685
vn -1.249e-016 0 1
vt -39.3701 0
f 6/14/9 1/15/9 3/2/9

vn 1.249e-016 -0 -1
f 3/2/10 1/15/10 6/14/10

