# Alias OBJ Model File
# Exported from SketchUp, (c) 2000-2012 Trimble Navigation Limited
# File units = meters

mtllib roof_corner_outer.mtl

g Mesh1 CORNER_1_1 Model

usemtl M_0021_DarkRed
v -0.5 -0.0207107 0.620711
vt -39.3701 -6.21725e-015
vn 1.65994e-017 -0.707107 0.707107
v 0.570711 -0.0707107 0.570711
vt 2.78388 -2.78388
v 0.620711 -0.0207107 0.620711
vt 4.75239 -1.33227e-015
f 1/1/1 2/2/1 3/3/1

v -0.5 -0.0707107 0.570711
vt -39.3701 -2.78388
f 2/2/1 1/1/1 4/4/1

usemtl BackColor
vn -1.65994e-017 0.707107 -0.707107
f 3/3/2 2/2/2 1/1/2

usemtl M_0021_DarkRed
vt -2.78388 -2.78388
vn 0.707107 -0.707107 4.14621e-017
v 0.620711 -0.0207107 -0.5
vt 39.3701 3.10862e-014
vt -4.75239 2.84217e-014
f 2/5/3 5/6/3 3/7/3

v 0.570711 -0.0707107 -0.5
vt 39.3701 -2.78388
f 5/6/3 2/5/3 6/8/3

usemtl BackColor
vn -0.707107 0.707107 -4.14621e-017
f 3/7/4 5/6/4 2/5/4

usemtl M_0020_Red
v -0.5 1.1 -0.5
vt 39.3701 55.6777
vn 0.707107 0.707107 9.81308e-017
vt -4.75239 -6.72089
vt 39.3701 -6.72089
f 7/9/5 3/10/5 5/11/5

usemtl BackColor
vn -0.707107 -0.707107 -9.81308e-017
f 5/11/6 3/10/6 7/9/6

usemtl M_0020_Red
vt -39.3701 -6.72089
vn -9.81308e-017 0.707107 0.707107
vt 4.75239 -6.72089
vt -39.3701 55.6777
f 1/12/7 3/13/7 7/14/7

usemtl BackColor
vn 9.81308e-017 -0.707107 -0.707107
f 7/14/8 3/13/8 1/12/8

usemtl M_0021_DarkRed
vt -55.6777 39.3701
vn -0.707107 1.14096e-014 0.707107
vt 3.93701 -6.72089
vt 6.72089 -4.75239
f 7/15/9 2/16/9 3/17/9

v -0.5 1 -0.5
vt -55.6777 35.4331
f 2/16/9 7/15/9 8/18/9

usemtl BackColor
vn 0.707107 -1.14096e-014 -0.707107
f 3/17/10 2/16/10 7/15/10

f 8/18/10 7/15/10 2/16/10

usemtl M_0021_DarkRed
vt -39.3701 35.4331
vn -1 0 -1.38778e-016
vt 4.75239 -4.75239
vt -39.3701 39.3701
f 8/19/11 1/20/11 7/21/11

vt 2.78388 -6.72089
f 1/20/11 8/19/11 4/22/11

usemtl BackColor
vn 1 -0 1.38778e-016
f 4/22/12 8/19/12 1/20/12

usemtl M_0021_DarkRed
vt 39.3701 52.8938
vn -1.36499e-016 -0.707107 -0.707107
vt -2.78388 -6.72089
f 8/23/13 2/24/13 4/11/13

usemtl BackColor
vn 1.36499e-016 0.707107 0.707107
f 4/11/14 2/24/14 8/23/14

f 4/4/2 1/1/2 2/2/2

usemtl M_0021_DarkRed
vn -0.707107 -0.707107 -1.76341e-016
vt -39.3701 52.8938
f 6/12/15 2/22/15 8/25/15

usemtl BackColor
f 6/8/4 2/5/4 5/6/4

vn 0.707107 0.707107 1.76341e-016
f 8/25/16 2/22/16 6/12/16

usemtl M_0021_DarkRed
vt 39.3701 39.3701
vn 1.38778e-016 0 -1
vt 39.3701 35.4331
f 7/26/17 6/24/17 8/27/17

vt -4.75239 -4.75239
f 6/24/17 7/26/17 5/28/17

usemtl BackColor
vn -1.38778e-016 -0 1
f 5/28/18 7/26/18 6/24/18

f 8/27/18 6/24/18 7/26/18

f 7/21/12 1/20/12 8/19/12

