# Alias OBJ Model File
# Exported from SketchUp, (c) 2000-2012 Trimble Navigation Limited
# File units = meters

mtllib roof_hip.mtl

g Mesh1 peak2_1_1 Model

usemtl M_0021_DarkRed
v 0.5 0.1 0.5
vt -39.3701 3.93701
vn 1 0 2.22045e-016
v 0.5 9.02389e-017 -0.5
vt 0 0
v 0.5 0.1 -0.5
vt 0 3.93701
f 1/1/1 2/2/1 3/3/1

v 0.5 9.02389e-017 0.5
vt -39.3701 0
f 2/2/1 1/1/1 4/4/1

vn -1 -0 -2.22045e-016
f 3/3/2 2/2/2 1/1/2

v -6.31672e-016 0.5 -0.5
vt 19.685 19.685
vn 4.55351e-015 -1.72149e-029 -1
f 5/5/3 3/3/3 2/2/3

v -6.31672e-016 0.6 -0.5
vt 19.685 23.622
f 3/3/3 5/5/3 6/6/3

vn -4.55351e-015 1.72149e-029 1
f 2/2/4 3/3/4 5/5/4

f 6/6/4 5/5/4 3/3/4

v -9.02389e-017 0.5 0.5
vt 39.3701 19.685
vn -1 0 -2.22045e-016
vt -8.52651e-014 23.622
vt -8.52651e-014 19.685
f 7/7/5 6/8/5 5/9/5

v -9.02389e-017 0.6 0.5
vt 39.3701 23.622
f 6/8/5 7/7/5 8/10/5

vn 1 -0 2.22045e-016
f 5/9/6 6/8/6 7/7/6

vn -4.10942e-015 0 -1
v -0.5 0.1 -0.5
vt 39.3701 3.93701
f 5/5/7 9/11/7 6/6/7

v -0.5 9.02389e-017 -0.5
vt 39.3701 0
f 9/11/7 5/5/7 10/12/7

vn 4.10942e-015 -0 1
f 10/12/8 5/5/8 9/11/8

vt -39.3701 1.95399e-014
vn 0.707107 -0.707107 1.44043e-016
vt 7.21911e-016 -27.8388
vt 8.56261e-014 -1.77636e-015
f 7/13/9 10/14/9 5/15/9

v -0.5 9.02389e-017 0.5
vt -39.3701 -27.8388
f 10/14/9 7/13/9 11/16/9

vn -0.707107 0.707107 -1.44043e-016
f 5/15/10 10/14/10 7/13/10

f 11/16/10 7/13/10 10/14/10

vt -19.685 19.685
vn 1.8665e-015 9.08065e-016 1
v -0.5 0.1 0.5
vt -39.3701 -3.57506e-014
f 7/17/11 12/1/11 11/18/11

vt -19.685 23.622
f 12/1/11 7/17/11 8/19/11

vn -1.8665e-015 -9.08065e-016 -1
f 11/18/12 12/1/12 7/17/12

f 9/3/5 11/12/5 12/11/5

f 11/12/5 9/3/5 10/2/5

f 10/2/6 9/3/6 11/12/6

f 12/11/6 11/12/6 9/3/6

usemtl M_0020_Red
vt 39.3701 2.78388
vn -0.707107 0.707107 -1.57009e-016
vt 5.49025e-029 -25.055
vt 39.3701 -25.055
f 8/20/13 9/21/13 12/22/13

vt -8.52651e-014 2.78388
f 9/21/13 8/20/13 6/23/13

usemtl M_0021_DarkRed
vn 0.707107 -0.707107 1.57009e-016
f 6/23/14 8/20/14 9/21/14

usemtl M_0020_Red
vt -39.3701 30.6227
vn 0.707107 0.707107 1.69975e-016
vt 0 2.78388
vt 8.49042e-014 30.6227
f 8/24/15 3/25/15 6/26/15

vt -39.3701 2.78388
f 3/25/15 8/24/15 1/27/15

usemtl M_0021_DarkRed
vn -0.707107 -0.707107 -1.69975e-016
f 1/27/16 8/24/16 3/25/16

vn -2.31059e-015 9.08065e-016 1
vt 1.10648e-013 3.93701
f 7/17/17 1/28/17 8/19/17

vt 1.10648e-013 -3.57506e-014
f 1/28/17 7/17/17 4/29/17

vn 2.31059e-015 -9.08065e-016 -1
f 4/29/18 7/17/18 1/28/18

vt 39.3701 27.8388
vt 39.3701 -2.06077e-014
f 7/30/16 2/2/16 4/31/16

vt -8.49042e-014 27.8388
f 2/2/16 7/30/16 5/32/16

f 4/31/15 2/2/15 7/30/15

f 4/4/2 1/1/2 2/2/2

f 5/32/15 7/30/15 2/2/15

f 8/19/18 1/28/18 7/17/18

f 8/19/12 7/17/12 12/1/12

f 8/10/6 7/7/6 6/8/6

f 6/26/16 3/25/16 8/24/16

f 12/22/14 9/21/14 8/20/14

f 6/6/8 9/11/8 5/5/8

