# Alias OBJ Model File
# Exported from SketchUp, (c) 2000-2012 Trimble Navigation Limited
# File units = meters

mtllib roof_dormer5.mtl

g Mesh1 sloped_roof_3_1 Model

usemtl FrontColor
v 0.5 1.1 -0.5
vt 39.3701 39.3701
vn -2.34621e-015 0 1
v -0.5 1 -0.5
vt -6.39488e-014 35.4331
v 0.5 1 -0.5
vt 39.3701 35.4331
f 1/1/1 2/2/1 3/3/1

v -0.5 1.1 -0.5
vt -6.39488e-014 39.3701
f 2/2/1 1/1/1 4/4/1

usemtl M_0021_DarkRed
vn 2.34621e-015 -0 -1
f 3/3/2 2/2/2 1/1/2

v 0.5 0 0.5
vt -39.3701 -2.78388
vn 1.52998e-015 -0.707107 -0.707107
vt 5.67638e-014 52.8938
vt -39.3701 52.8938
f 5/5/3 2/6/3 3/7/3

v -0.5 0 0.5
vt -1.5099e-014 -2.78388
f 2/6/3 5/5/3 6/8/3

usemtl BackColor
vn -1.52998e-015 0.707107 0.707107
f 6/8/4 5/5/4 2/6/4

usemtl M_0021_DarkRed
v 0.5 -0.0707107 0.570711
vt -39.3701 -6.72089
vn -1.29659e-016 -0.707107 -0.707107
f 7/9/5 6/8/5 5/5/5

v -0.5 -0.0707107 0.570711
vt 5.10468e-016 -6.72089
f 6/8/5 7/9/5 8/10/5

usemtl BackColor
vn 1.29659e-016 0.707107 0.707107
f 8/10/6 7/9/6 6/8/6

usemtl M_0021_DarkRed
v 0.5 -0.0207107 0.620711
vt 39.3701 -3.28626e-014
vn 1.31216e-016 -0.707107 0.707107
vt -5.16599e-016 -2.78388
vt 39.3701 -2.78388
f 9/11/7 8/12/7 7/13/7

v -0.5 -0.0207107 0.620711
vt 5.59615e-014 -3.81917e-014
f 8/12/7 9/11/7 10/14/7

usemtl BackColor
vn -1.31216e-016 0.707107 -0.707107
f 7/13/8 8/12/8 9/11/8

f 10/14/8 9/11/8 8/12/8

usemtl M_0020_Red
vt 39.3701 -6.72089
vn -1.06813e-015 0.707107 0.707107
v 0.2 0.45 0.15
vt 27.5591 19.4872
vt 6.40222e-014 -6.72089
f 9/15/9 11/16/9 10/17/9

vt 39.3701 55.6777
f 11/16/9 9/15/9 1/18/9

usemtl BackColor
vn 1.06813e-015 -0.707107 -0.707107
f 10/17/10 11/16/10 9/15/10

usemtl M_0020_Red
v -0.2 0.35 0.25
vt 11.811 13.9194
f 10/17/9 11/16/9 12/19/9

usemtl BackColor
f 12/19/10 11/16/10 10/17/10

usemtl M_0020_Red
v -0.2 0.45 0.15
vt 11.811 19.4872
f 13/20/9 12/19/9 11/16/9

usemtl BackColor
f 11/16/10 12/19/10 13/20/10

usemtl FrontColor
v -0.2 0.499321 0.15
vt -13.7795 15.7213
vn -1 -7.31847e-015 -7.58215e-015
vt -13.7795 13.7795
vt -9.84252 9.84252
f 14/21/11 13/22/11 12/23/11

usemtl M_0042_Sienna
vt 11.811 13.7795
vn -1.16607e-015 -3.35868e-015 1
v -0.17 0.479502 0.15
vt 12.9921 14.941
vt 11.811 15.7213
f 13/24/12 15/25/12 14/26/12

v 0.17 0.479502 0.15
vt 26.378 14.941
f 15/25/12 13/24/12 16/27/12

usemtl BackColor
vn 1.16607e-015 3.35868e-015 -1
f 14/26/13 15/25/13 13/24/13

usemtl M_0042_Sienna
v -0.17 0.77 0.15
vt 12.9921 26.378
f 14/26/12 15/25/12 17/28/12

usemtl BackColor
f 17/28/13 15/25/13 14/26/13

usemtl M_0042_Sienna
v -0.17 0.479502 0.13
vt 14.5669 14.941
vn 1 0 2.63678e-016
vt 13.7795 26.378
vt 13.7795 14.941
f 18/29/14 17/30/14 15/31/14

v -0.17 0.77 0.13
vt 14.5669 26.378
f 17/30/14 18/29/14 19/32/14

usemtl BackColor
vn -1 -0 -2.63678e-016
f 15/31/15 17/30/15 18/29/15

f 19/32/15 18/29/15 17/30/15

usemtl M_0045_Goldenrod
vn 1.32877e-015 4.3489e-015 1
v -0.15 0.499955 0.13
vt 13.7795 15.7463
f 18/25/16 20/33/16 19/28/16

v -0.01 0.499744 0.13
vt 19.2913 15.7379
f 20/33/16 18/25/16 21/34/16

usemtl BackColor
vn -1.32877e-015 -4.3489e-015 -1
f 19/28/17 20/33/17 18/25/17

usemtl M_0045_Goldenrod
v -0.15 0.614977 0.13
vt 13.7795 20.2747
f 19/28/16 20/33/16 22/35/16

usemtl BackColor
f 22/35/17 20/33/17 19/28/17

usemtl M_0045_Goldenrod
v -0.15 0.499955 0.11
vt 15.3543 15.7463
vt 14.5669 20.2747
vt 14.5669 15.7463
f 23/36/14 22/37/14 20/38/14

v -0.15 0.614977 0.11
vt 15.3543 20.2747
f 22/37/14 23/36/14 24/39/14

usemtl BackColor
f 20/38/15 22/37/15 23/36/15

f 24/39/15 23/36/15 22/37/15

usemtl M_0094_PowderBlue
vn -7.99608e-015 3.13812e-015 1
v -0.01 0.614977 0.11
vt 19.2913 20.2747
f 23/33/18 25/40/18 24/35/18

v -0.01 0.499744 0.11
f 25/40/18 23/33/18 26/34/18

usemtl BackColor
vn 7.99608e-015 -3.13812e-015 -1
f 26/34/19 23/33/19 25/40/19

usemtl M_0045_Goldenrod
vt 15.3543 -13.7558
vn 0.00150825 0.999999 1.30105e-019
vt 14.5669 -19.2676
vt 15.3543 -19.2676
f 23/41/20 21/42/20 26/43/20

vt 14.5669 -13.7558
f 21/42/20 23/41/20 20/44/20

usemtl BackColor
vn -0.00150825 -0.999999 -1.30105e-019
f 20/44/21 23/41/21 21/42/21

f 26/43/21 21/42/21 23/41/21

usemtl M_0045_Goldenrod
v -0.01 0.614977 0.13
vt -14.5669 20.2747
vn -1 0 -2.63678e-016
vt -15.3543 15.7379
vt -14.5669 15.7379
f 27/45/22 26/46/22 21/47/22

vt -15.3543 20.2747
f 26/46/22 27/45/22 25/48/22

usemtl BackColor
vn 1 -0 2.63678e-016
f 21/47/23 26/46/23 27/45/23

f 25/48/23 27/45/23 26/46/23

usemtl M_0045_Goldenrod
vt -13.7795 14.5669
vn 0 -1 -0
vt -19.2913 15.3543
vt -19.2913 14.5669
f 22/49/24 25/50/24 27/51/24

vt -13.7795 15.3543
f 25/50/24 22/49/24 24/52/24

usemtl BackColor
vn -0 1 0
f 24/52/25 22/49/25 25/50/25

f 27/51/25 25/50/25 22/49/25

usemtl M_0045_Goldenrod
v 0.15 0.634977 0.13
vt 25.5906 21.0621
f 27/40/16 28/53/16 22/35/16

v 0.01 0.614977 0.13
vt 20.0787 20.2747
f 29/54/16 28/53/16 27/40/16

v 0.15 0.614977 0.13
vt 25.5906 20.2747
f 30/55/16 28/53/16 29/54/16

v 0.17 0.77 0.13
vt 26.378 26.378
f 30/55/16 31/56/16 28/53/16

v 0.15 0.499502 0.13
vt 25.5906 15.7284
f 32/57/16 31/56/16 30/55/16

v 0.17 0.479502 0.13
f 32/57/16 33/27/16 31/56/16

f 33/27/16 32/57/16 18/25/16

usemtl BackColor
f 18/25/17 32/57/17 33/27/17

usemtl M_0045_Goldenrod
f 21/34/16 18/25/16 32/57/16

usemtl BackColor
f 21/34/17 18/25/17 20/33/17

f 32/57/17 18/25/17 21/34/17

usemtl M_0045_Goldenrod
v 0.01 0.499713 0.13
vt 20.0787 15.7367
f 21/34/16 32/57/16 34/58/16

usemtl BackColor
f 34/58/17 32/57/17 21/34/17

usemtl M_0045_Goldenrod
vt 14.5669 -25.5668
vn 0.00150825 0.999999 8.70954e-019
v 0.01 0.499713 0.11
vt 15.3543 -20.055
vt 14.5669 -20.055
f 32/59/26 35/60/26 34/61/26

v 0.15 0.499502 0.11
vt 15.3543 -25.5668
f 35/60/26 32/59/26 36/62/26

usemtl BackColor
vn -0.00150825 -0.999999 -8.70954e-019
f 34/61/27 35/60/27 32/59/27

usemtl M_0045_Goldenrod
vt 15.3543 15.7367
vt 14.5669 15.7367
f 35/63/14 29/37/14 34/64/14

v 0.01 0.614977 0.11
f 29/37/14 35/63/14 37/39/14

usemtl BackColor
f 34/64/15 29/37/15 35/63/15

usemtl M_0045_Goldenrod
f 29/54/16 21/34/16 34/58/16

f 21/34/16 29/54/16 27/40/16

usemtl BackColor
f 34/58/17 21/34/17 29/54/17

f 27/40/17 29/54/17 21/34/17

f 27/40/17 28/53/17 29/54/17

f 22/35/17 28/53/17 27/40/17

usemtl M_0045_Goldenrod
v -0.15 0.634977 0.13
vt 13.7795 21.0621
f 38/65/16 22/35/16 28/53/16

f 19/28/16 22/35/16 38/65/16

usemtl BackColor
f 38/65/17 22/35/17 19/28/17

f 28/53/17 22/35/17 38/65/17

usemtl M_0045_Goldenrod
v 0.01 0.634989 0.13
vt 20.0787 21.0625
f 39/66/16 38/65/16 28/53/16

v -0.01 0.63499 0.13
vt 19.2913 21.0626
f 38/65/16 39/66/16 40/67/16

usemtl BackColor
f 28/53/17 38/65/17 39/66/17

f 40/67/17 39/66/17 38/65/17

usemtl M_0045_Goldenrod
v 0.01 0.75 0.13
vt 20.0787 25.5906
f 40/67/16 39/66/16 41/68/16

usemtl BackColor
f 41/68/17 39/66/17 40/67/17

usemtl M_0045_Goldenrod
v 0.01 0.634989 0.11
vt 15.3543 21.0625
vn 1 -2.55124e-028 -5.38797e-014
vt 14.5669 25.5906
vt 14.5669 21.0625
f 42/69/28 41/70/28 39/71/28

v 0.01 0.75 0.11
vt 15.3543 25.5906
f 41/70/28 42/69/28 43/72/28

usemtl BackColor
vn -1 2.55124e-028 5.38797e-014
f 39/71/29 41/70/29 42/69/29

f 43/72/29 42/69/29 41/70/29

usemtl M_0094_PowderBlue
vn 7.47121e-015 3.13813e-015 1
v 0.15 0.75 0.11
vt 25.5906 25.5906
f 42/66/30 44/73/30 43/68/30

v 0.15 0.634977 0.11
f 44/73/30 42/66/30 45/53/30

usemtl BackColor
vn -7.47121e-015 -3.13813e-015 -1
f 45/53/31 42/66/31 44/73/31

usemtl M_0045_Goldenrod
vt 20.077 14.5669
vn 8.07275e-005 1 -5.41477e-014
vt 25.5889 15.3543
vt 20.077 15.3543
f 39/74/32 45/75/32 42/76/32

vt 25.5889 14.5669
f 45/75/32 39/74/32 28/77/32

usemtl BackColor
vn -8.07275e-005 -1 5.41477e-014
f 42/76/33 45/75/33 39/74/33

f 28/77/33 39/74/33 45/75/33

usemtl M_0045_Goldenrod
vt -14.5669 21.0621
vn -1 5.30861e-032 5.38797e-014
vt -15.3543 25.5906
vt -15.3543 21.0621
f 28/78/34 44/79/34 45/80/34

v 0.15 0.75 0.13
vt -14.5669 25.5906
f 44/79/34 28/78/34 46/81/34

usemtl BackColor
vn 1 -5.30861e-032 -5.38797e-014
f 46/81/35 28/78/35 44/79/35

usemtl M_0045_Goldenrod
f 28/53/16 31/56/16 46/73/16

usemtl BackColor
f 28/53/17 31/56/17 30/55/17

f 46/73/17 31/56/17 28/53/17

usemtl M_0045_Goldenrod
f 46/73/16 31/56/16 41/68/16

usemtl BackColor
f 41/68/17 31/56/17 46/73/17

usemtl M_0045_Goldenrod
v -0.01 0.75 0.13
vt 19.2913 25.5906
f 41/68/16 31/56/16 47/82/16

usemtl BackColor
f 47/82/17 31/56/17 41/68/17

usemtl M_0045_Goldenrod
v -0.15 0.75 0.13
vt 13.7795 25.5906
f 47/82/16 31/56/16 48/83/16

usemtl BackColor
f 48/83/17 31/56/17 47/82/17

usemtl M_0045_Goldenrod
f 19/28/16 48/83/16 31/56/16

f 19/28/16 38/65/16 48/83/16

usemtl BackColor
f 48/83/17 38/65/17 19/28/17

usemtl M_0045_Goldenrod
vt 14.5669 21.0621
vn 1 3.13813e-015 2.63678e-016
v -0.15 0.75 0.11
f 38/84/36 49/72/36 48/70/36

v -0.15 0.634977 0.11
vt 15.3543 21.0621
f 49/72/36 38/84/36 50/85/36

usemtl BackColor
vn -1 -3.13813e-015 -2.63678e-016
f 48/70/37 49/72/37 38/84/37

usemtl M_0045_Goldenrod
v -0.01 0.75 0.11
f 51/50/24 48/49/24 49/52/24

f 48/49/24 51/50/24 47/51/24

usemtl BackColor
f 49/52/25 48/49/25 51/50/25

f 47/51/25 51/50/25 48/49/25

usemtl M_0045_Goldenrod
v -0.01 0.63499 0.11
vt -15.3543 21.0626
f 52/86/22 47/81/22 51/79/22

vt -14.5669 21.0626
f 47/81/22 52/86/22 40/87/22

usemtl BackColor
f 40/87/23 52/86/23 47/81/23

usemtl M_0045_Goldenrod
vt 13.7815 15.3543
vn -9.226e-005 1 -2.0363e-020
vt 19.2933 14.5669
vt 19.2933 15.3543
f 50/88/38 40/89/38 52/90/38

vt 13.7815 14.5669
f 40/89/38 50/88/38 38/91/38

usemtl BackColor
vn 9.226e-005 -1 2.0363e-020
f 38/91/39 50/88/39 40/89/39

f 50/85/37 38/84/37 49/72/37

usemtl M_0094_PowderBlue
vn -2.84193e-015 -1.76217e-019 1
f 52/67/40 49/83/40 50/65/40

f 49/83/40 52/67/40 51/82/40

usemtl BackColor
vn 2.84193e-015 1.76217e-019 -1
f 50/65/41 49/83/41 52/67/41

f 51/82/41 52/67/41 49/83/41

f 51/79/23 47/81/23 52/86/23

f 52/90/39 40/89/39 50/88/39

usemtl M_0045_Goldenrod
f 40/67/16 41/68/16 47/82/16

usemtl BackColor
f 47/82/17 41/68/17 40/67/17

f 31/56/17 48/83/17 19/28/17

usemtl M_0042_Sienna
vt -26.378 14.5669
vt -12.9921 13.7795
vt -12.9921 14.5669
f 31/92/24 17/93/24 19/94/24

v 0.17 0.77 0.15
vt -26.378 13.7795
f 17/93/24 31/92/24 53/95/24

usemtl BackColor
f 19/94/25 17/93/25 31/92/25

f 53/95/25 31/92/25 17/93/25

usemtl M_0042_Sienna
vt -14.5669 14.941
vt -13.7795 26.378
vt -14.5669 26.378
f 33/96/22 53/97/22 31/98/22

vt -13.7795 14.941
f 53/97/22 33/96/22 16/99/22

usemtl BackColor
f 16/99/23 33/96/23 53/97/23

usemtl M_0042_Sienna
vt 12.9921 14.5669
vn 0 1 -0
vt 26.378 13.7795
vt 26.378 14.5669
f 18/100/42 16/101/42 33/102/42

vt 12.9921 13.7795
f 16/101/42 18/100/42 15/103/42

usemtl BackColor
vn -0 -1 0
f 15/103/43 18/100/43 16/101/43

f 33/102/43 16/101/43 18/100/43

f 16/27/13 13/24/13 15/25/13

usemtl M_0042_Sienna
vt 27.5591 13.7795
f 11/104/12 16/27/12 13/24/12

v 0.2 0.499321 0.15
vt 27.5591 15.7213
f 16/27/12 11/104/12 54/105/12

usemtl BackColor
f 13/24/13 16/27/13 11/104/13

f 54/105/13 11/104/13 16/27/13

usemtl M_0042_Sienna
v 0.2 0.8 -0.2
vt 27.5591 27.5591
vn 1 6.21534e-015 8.68529e-015
vt 13.7795 15.7213
vt 13.7795 13.7795
f 55/106/44 54/107/44 11/108/44

v 0.2 0.8 -0.150679
vt 25.6173 27.5591
f 54/107/44 55/106/44 56/109/44

usemtl BackColor
vn -1 -6.21534e-015 -8.68529e-015
f 11/108/45 54/107/45 55/106/45

usemtl FrontColor
vn 1 7.31847e-015 3.97259e-015
v 0.2 0.35 0.25
vt 9.84252 9.84252
f 54/107/46 57/110/46 11/108/46

vn 1 -1.66614e-015 -4.58983e-015
v 0.2 0.8 0.25
vt 9.84252 27.5591
f 54/107/47 58/111/47 57/110/47

v 0.2 0.8 0.15
vt 13.7795 27.5591
f 58/111/47 54/107/47 59/112/47

usemtl M_0042_Sienna
vn -1 1.66614e-015 4.58983e-015
f 57/110/48 58/111/48 54/107/48

usemtl FrontColor
vt -27.5591 27.5591
vn -1.59793e-014 4.01062e-016 -1
v 0.3 0.35 0.25
vt -31.4961 9.84252
vt -27.5591 9.84252
f 58/113/49 60/114/49 57/115/49

v 0.3 0.8 0.25
vt -31.4961 27.5591
f 60/114/49 58/113/49 61/116/49

usemtl M_0021_DarkRed
vn 1.59793e-014 -4.01062e-016 1
f 57/115/50 60/114/50 58/113/50

f 61/116/50 58/113/50 60/114/50

usemtl FrontColor
vt 31.4961 9.84252
vt 27.5591 9.84252
f 61/117/42 59/104/42 58/118/42

v 0.3 0.8 -0.2
vt 31.4961 27.5591
f 59/104/42 61/117/42 62/119/42

usemtl BackColor
f 58/118/43 59/104/43 61/117/43

usemtl FrontColor
v -9.02389e-017 1 0.15
vt 13.7795 11.1355
vn 0.707107 0.707107 1.86448e-016
vt 9.84252 8.52651e-014
vt 13.7795 8.52651e-014
f 63/120/51 58/121/51 59/122/51

v -9.02389e-017 1 0.25
vt 9.84252 11.1355
f 58/121/51 63/120/51 64/123/51

usemtl M_0042_Sienna
vn -0.707107 -0.707107 -1.86448e-016
f 64/123/52 63/120/52 58/121/52

usemtl FrontColor
vt 13.7795 35.4331
vn 1 -2.43691e-015 -1.00058e-015
v -9.02389e-017 1.1 0.25
vt 9.84252 39.3701
vt 9.84252 35.4331
f 63/124/53 65/125/53 64/126/53

v -8.1215e-016 1.1 -0.5
f 65/125/53 63/124/53 66/1/53

usemtl BackColor
vn -1 2.43691e-015 1.00058e-015
f 64/126/54 65/125/54 63/124/54

usemtl FrontColor
vn -9.31553e-015 -4.85902e-015 -1
vt -19.685 35.4331
vt -19.685 39.3701
f 61/116/55 64/127/55 65/128/55

f 64/127/55 61/116/55 58/113/55

usemtl M_0021_DarkRed
vn 9.31553e-015 4.85902e-015 1
f 58/113/56 61/116/56 64/127/56

f 65/128/56 64/127/56 61/116/56

usemtl FrontColor
v -0.2 0.8 0.25
vt -11.811 27.5591
vn 2.63678e-016 0 -1
f 67/129/57 65/128/57 64/127/57

v -0.3 0.8 0.25
vt -7.87402 27.5591
f 65/128/57 67/129/57 68/130/57

usemtl M_0021_DarkRed
vn -2.63678e-016 -0 1
f 68/130/58 67/129/58 65/128/58

usemtl FrontColor
v -0.2 0.8 -0.150679
vt 11.811 25.6173
vt 7.87402 9.84252
vt 11.811 9.84252
f 69/131/42 68/132/42 67/133/42

v -0.3 0.8 -0.2
vt 7.87402 27.5591
f 68/132/42 69/131/42 70/134/42

usemtl BackColor
f 70/134/43 69/131/43 68/132/43

usemtl FrontColor
v -0.2 0.8 -0.2
vt 11.811 27.5591
f 71/135/42 70/134/42 69/131/42

v -5.86553e-015 1 -0.4
vt 19.685 50.1099
vn 1.46083e-015 0.707107 0.707107
vt 7.87402 38.9744
vt 11.811 38.9744
f 72/136/59 70/137/59 71/138/59

vt 19.685 55.6777
f 70/137/59 72/136/59 66/139/59

usemtl BackColor
vn -1.46083e-015 -0.707107 -0.707107
f 71/138/60 70/137/60 72/136/60

usemtl M_0020_Red
f 71/138/9 1/18/9 70/137/9

vt 27.5591 38.9744
f 55/140/9 1/18/9 71/138/9

f 11/16/9 1/18/9 55/140/9

usemtl BackColor
f 1/18/10 9/15/10 11/16/10

usemtl FrontColor
vt -39.3701 39.3701
vn -1 3.05507e-015 5.14359e-015
vt 2.78388 -6.72089
vt 4.75239 -4.75239
f 1/141/61 7/142/61 9/143/61

vt 2.30925e-013 -3.93701
f 7/142/61 1/141/61 5/144/61

usemtl M_0021_DarkRed
vn 1 -3.05507e-015 -5.14359e-015
f 9/143/62 7/142/62 1/141/62

f 5/144/62 1/141/62 7/142/62

usemtl FrontColor
vt -39.3701 35.4331
f 5/144/61 1/141/61 3/145/61

usemtl M_0021_DarkRed
f 3/145/62 1/141/62 5/144/62

usemtl BackColor
f 3/7/4 2/6/4 5/5/4

f 5/5/6 6/8/6 7/9/6

f 55/140/10 1/18/10 11/16/10

f 71/138/10 1/18/10 55/140/10

f 70/137/10 1/18/10 71/138/10

usemtl M_0020_Red
vt -3.10493e-014 55.6777
f 4/146/9 70/137/9 1/18/9

v -0.3 0.35 0.25
vt 7.87402 13.9194
f 4/146/9 73/147/9 70/137/9

f 10/17/9 73/147/9 4/146/9

f 73/147/9 10/17/9 12/19/9

usemtl BackColor
f 4/146/10 73/147/10 10/17/10

f 70/137/10 73/147/10 4/146/10

usemtl M_0021_DarkRed
vn -1.86448e-016 0.707107 0.707107
f 70/137/63 73/147/63 12/19/63

usemtl BackColor
vn 1.86448e-016 -0.707107 -0.707107
f 12/19/64 73/147/64 70/137/64

usemtl FrontColor
vt -11.811 9.84252
vt -7.87402 9.84252
f 68/130/57 12/148/57 73/149/57

f 12/148/57 68/130/57 67/129/57

usemtl M_0021_DarkRed
f 73/149/58 12/148/58 68/130/58

usemtl BackColor
f 12/19/10 10/17/10 73/147/10

usemtl M_0021_DarkRed
f 67/129/58 68/130/58 12/148/58

usemtl BackColor
f 67/133/43 68/132/43 69/131/43

usemtl FrontColor
v -0.2 0.8 0.15
f 69/131/42 67/133/42 74/24/42

usemtl BackColor
f 74/24/43 67/133/43 69/131/43

usemtl FrontColor
vt -9.84252 38.9744
vn -0.707107 0.707107 -1.86448e-016
vt -13.7795 27.8388
vt -9.84252 27.8388
f 64/150/65 74/151/65 67/152/65

vt -13.7795 38.9744
f 74/151/65 64/150/65 63/153/65

usemtl M_0042_Sienna
vn 0.707107 -0.707107 1.86448e-016
f 67/152/66 74/151/66 64/150/66

usemtl FrontColor
vt -13.7795 27.5591
vn -1 3.70532e-016 1.81774e-015
vt -9.84252 27.5591
f 74/154/67 12/23/67 67/155/67

f 12/23/67 74/154/67 14/21/67

usemtl M_0042_Sienna
vn 1 -3.70532e-016 -1.81774e-015
f 67/155/68 12/23/68 74/154/68

f 14/21/68 74/154/68 12/23/68

f 14/26/12 17/28/12 74/135/12

usemtl BackColor
f 74/135/13 17/28/13 14/26/13

usemtl M_0042_Sienna
f 74/135/12 17/28/12 59/106/12

usemtl BackColor
f 59/106/13 17/28/13 74/135/13

usemtl M_0042_Sienna
f 53/56/12 59/106/12 17/28/12

f 53/56/12 54/105/12 59/106/12

f 16/27/12 54/105/12 53/56/12

usemtl BackColor
f 53/56/13 54/105/13 16/27/13

f 59/106/13 54/105/13 53/56/13

usemtl FrontColor
vn 1 -3.60141e-015 -9.36791e-016
f 56/109/69 59/112/69 54/107/69

vt 27.5591 25.6173
f 59/104/42 55/106/42 56/156/42

f 55/106/42 59/104/42 62/119/42

usemtl BackColor
f 56/156/43 55/106/43 59/104/43

usemtl FrontColor
vt 27.5591 -7.4607e-014
vn 0.707107 0.707107 -2.414e-015
vt 25.6173 -4.9738e-014
f 55/157/70 63/120/70 56/158/70

vt 35.4331 11.1355
f 63/120/70 55/157/70 72/159/70

usemtl BackColor
vn -0.707107 -0.707107 2.414e-015
f 72/159/71 55/157/71 63/120/71

usemtl FrontColor
vn -1.83373e-015 0.707107 0.707107
f 55/140/72 66/139/72 72/136/72

vt 31.4961 38.9744
f 66/139/72 55/140/72 62/160/72

usemtl BackColor
vn 1.83373e-015 -0.707107 -0.707107
f 62/160/73 55/140/73 66/139/73

f 62/119/43 59/104/43 55/106/43

f 62/119/43 61/117/43 59/104/43

usemtl FrontColor
vt -9.84252 -2.78388
vn -0.707107 -0.707107 4.82272e-016
vt -39.3701 13.9194
vt -27.5591 -2.78388
f 61/161/74 66/162/74 62/163/74

vt -9.84252 13.9194
f 66/162/74 61/161/74 65/164/74

usemtl M_0020_Red
vn 0.707107 0.707107 -4.82272e-016
f 65/164/75 61/161/75 66/162/75

f 62/163/75 66/162/75 61/161/75

usemtl FrontColor
vn -1 8.02124e-016 5.38446e-016
f 62/113/76 60/23/76 61/155/76

usemtl M_0021_DarkRed
vn 1 -8.02124e-016 -5.38446e-016
f 61/155/77 60/23/77 62/113/77

usemtl BackColor
f 66/1/54 63/124/54 65/125/54

usemtl FrontColor
vt 35.4331 35.4331
f 66/1/53 63/124/53 72/165/53

usemtl BackColor
f 72/165/54 63/124/54 66/1/54

usemtl FrontColor
vt -25.6173 27.8388
vn -0.707107 0.707107 2.4015e-015
vt -35.4331 38.9744
f 69/166/78 63/153/78 72/167/78

f 63/153/78 69/166/78 74/151/78

usemtl BackColor
vn 0.707107 -0.707107 -2.4015e-015
f 74/151/79 69/166/79 63/153/79

usemtl FrontColor
f 74/24/42 71/135/42 69/131/42

f 71/135/42 74/24/42 55/106/42

usemtl BackColor
f 69/131/43 71/135/43 74/24/43

usemtl FrontColor
vt -27.5591 27.8388
f 69/166/78 72/167/78 71/168/78

usemtl BackColor
f 72/167/79 63/153/79 69/166/79

f 71/168/79 72/167/79 69/166/79

f 69/131/43 70/134/43 71/135/43

usemtl M_0021_DarkRed
vt -5.12858 39.3443
vn -0.329302 0.667668 0.667668
vt 4.49752 23.4432
vt -0.738754 39.3443
f 70/169/80 14/170/80 69/171/80

usemtl BackColor
vn 0.329302 -0.667668 -0.667668
f 69/171/81 14/170/81 70/169/81

usemtl M_0042_Sienna
vt -25.6173 27.5591
vn -1 1.20047e-015 9.36791e-016
f 69/172/82 14/21/82 74/154/82

usemtl BackColor
vn 1 -1.20047e-015 -9.36791e-016
f 74/154/83 14/21/83 69/172/83

usemtl M_0042_Sienna
f 71/113/11 14/21/11 69/172/11

f 14/21/11 71/113/11 13/22/11

usemtl BackColor
vn 1 7.31847e-015 7.58215e-015
f 13/22/84 71/113/84 14/21/84

usemtl M_0045_Goldenrod
vn -8.14484e-016 0.707107 0.707107
f 13/20/85 55/140/85 71/138/85

f 55/140/85 13/20/85 11/16/85

usemtl BackColor
vn 8.14484e-016 -0.707107 -0.707107
f 11/16/86 13/20/86 55/140/86

f 71/138/86 55/140/86 13/20/86

f 55/106/43 74/24/43 71/135/43

usemtl FrontColor
f 55/106/42 74/24/42 56/156/42

usemtl BackColor
f 56/156/43 74/24/43 55/106/43

usemtl FrontColor
f 59/104/42 56/156/42 74/24/42

vt 13.7795 -6.03961e-014
f 59/173/70 56/158/70 63/120/70

usemtl BackColor
f 63/120/71 56/158/71 59/173/71

f 56/158/71 63/120/71 55/157/71

f 56/109/45 55/106/45 54/107/45

vn -1 3.60141e-015 9.36791e-016
f 54/107/87 59/112/87 56/109/87

usemtl M_0042_Sienna
f 59/112/48 54/107/48 58/111/48

f 59/122/52 58/121/52 63/120/52

vt 19.685 35.4331
vn -2.63678e-016 1.80478e-015 1
f 63/174/88 74/135/88 59/106/88

f 63/153/66 64/150/66 74/151/66

usemtl BackColor
vn 2.63678e-016 -1.80478e-015 -1
f 59/106/89 74/135/89 63/174/89

f 74/24/43 56/156/43 59/104/43

f 69/172/84 14/21/84 71/113/84

usemtl M_0042_Sienna
f 12/23/84 13/22/84 14/21/84

usemtl M_0021_DarkRed
vt -18.4704 33.4887
vn -0.777171 0.350163 0.522868
vt -1.57333 14.5747
vt -4.83986 20.8508
f 70/175/90 12/176/90 14/177/90

usemtl BackColor
vn 0.777171 -0.350163 -0.522868
f 14/177/91 12/176/91 70/175/91

f 66/139/60 72/136/60 70/137/60

f 72/136/73 66/139/73 55/140/73

usemtl FrontColor
vt 39.3701 41.7583
vn 0.707107 -0.707107 -4.6672e-016
vt 9.84252 25.055
vt 27.5591 25.055
f 66/178/92 68/179/92 70/180/92

vt 9.84252 41.7583
f 68/179/92 66/178/92 65/181/92

usemtl M_0020_Red
vn -0.707107 0.707107 4.6672e-016
f 70/180/93 68/179/93 66/178/93

usemtl FrontColor
vn 1 -1.60425e-015 -2.14269e-015
f 70/106/94 68/111/94 73/110/94

usemtl M_0021_DarkRed
vn -1 1.60425e-015 2.14269e-015
f 73/110/95 68/111/95 70/106/95

usemtl M_0020_Red
f 65/181/93 66/178/93 68/179/93

usemtl BackColor
f 17/28/13 59/106/13 53/56/13

usemtl M_0021_DarkRed
f 64/127/58 65/128/58 67/129/58

usemtl BackColor
f 1/18/10 70/137/10 4/146/10

usemtl FrontColor
vt 19.685 39.3701
f 4/4/1 1/1/1 66/182/1

usemtl M_0021_DarkRed
f 4/4/2 1/1/2 2/2/2

f 66/182/2 1/1/2 4/4/2

usemtl M_0020_Red
f 4/146/9 1/18/9 66/139/9

usemtl BackColor
f 66/139/10 1/18/10 4/146/10

usemtl M_0021_DarkRed
vt 2.84217e-014 -3.93701
vn -1 5.66092e-015 4.40489e-015
f 6/183/96 4/141/96 2/145/96

f 8/142/96 4/141/96 6/183/96

f 4/141/96 8/142/96 10/143/96

usemtl BackColor
vn 1 -5.66092e-015 -4.40489e-015
f 10/143/97 8/142/97 4/141/97

f 6/183/97 4/141/97 8/142/97

f 2/145/97 4/141/97 6/183/97

usemtl M_0042_Sienna
vn -1 -7.31847e-015 -3.97259e-015
f 11/108/98 57/110/98 54/107/98

usemtl BackColor
f 31/98/23 53/97/23 33/96/23

f 31/56/17 33/27/17 32/57/17

f 30/55/17 31/56/17 32/57/17

usemtl M_0045_Goldenrod
vt -15.3543 15.7284
vt -14.5669 15.7284
f 30/45/22 36/184/22 32/185/22

v 0.15 0.614977 0.11
f 36/184/22 30/45/22 75/48/22

usemtl BackColor
f 32/185/23 36/184/23 30/45/23

f 36/62/27 32/59/27 35/60/27

usemtl M_0094_PowderBlue
vn 2.3193e-015 6.26311e-015 1
f 75/55/99 35/58/99 36/57/99

f 35/58/99 75/55/99 37/54/99

usemtl BackColor
vn -2.3193e-015 -6.26311e-015 -1
f 36/57/100 35/58/100 75/55/100

f 37/54/100 75/55/100 35/58/100

usemtl M_0045_Goldenrod
vt -25.5906 15.3543
vt -20.0787 14.5669
vt -20.0787 15.3543
f 75/186/24 29/187/24 37/188/24

vt -25.5906 14.5669
f 29/187/24 75/186/24 30/189/24

usemtl BackColor
f 37/188/25 29/187/25 75/186/25

f 37/39/15 35/63/15 29/37/15

f 30/189/25 75/186/25 29/187/25

f 75/48/23 30/45/23 36/184/23

f 29/54/17 28/53/17 30/55/17

usemtl M_0045_Goldenrod
f 41/187/24 44/186/24 46/189/24

f 44/186/24 41/187/24 43/188/24

usemtl BackColor
f 43/188/25 41/187/25 44/186/25

f 46/189/25 44/186/25 41/187/25

f 43/68/31 44/73/31 42/66/31

f 45/80/35 44/79/35 28/78/35

f 24/35/19 25/40/19 23/33/19

