# Alias OBJ Model File
# Exported from SketchUp, (c) 2000-2012 Trimble Navigation Limited
# File units = meters

mtllib roof_small_hip.mtl

g Mesh1 Component_1_1 Model

usemtl M_0024_OrangeRed
v 3.15836e-015 0.25 -0.5
vt -16.7938 32.3114
vn -4.33147e-015 8.60746e-030 -1
v 0.5 0.1 -0.5
vt -36.4789 26.4059
v 0.5 9.02389e-017 -0.5
vt -36.4789 22.4689
f 1/1/1 2/2/1 3/3/1

v 3.15836e-015 0.35 -0.5
vt -16.7938 36.2485
f 2/2/1 1/1/1 4/4/1

vn 4.33147e-015 -8.60746e-030 1
f 3/3/2 2/2/2 1/1/2

v 0.5 0.1 0.5
vt -16.9646 26.4059
vn 1 -2.16573e-014 3.60956e-015
vt 22.4054 22.4689
vt 22.4054 26.4059
f 5/5/3 3/6/3 2/7/3

v 0.5 9.02389e-017 0.5
vt -16.9646 22.4689
f 3/6/3 5/5/3 6/8/3

vn -1 2.16573e-014 -3.60956e-015
f 6/8/4 5/5/4 3/6/4

v 3.15836e-015 0.25 0.5
vn -6.85816e-015 -1.80478e-014 -1
f 7/1/5 5/2/5 6/3/5

v 3.15836e-015 0.35 0.5
f 5/2/5 7/1/5 8/4/5

vn 6.85816e-015 1.80478e-014 1
f 6/3/6 5/2/6 7/1/6

vn -9.92628e-015 -3.60956e-014 -1
v 0.7 9.02389e-017 0.5
vt -44.3529 22.4689
f 5/2/7 9/9/7 6/3/7

vn 9.92628e-015 3.60956e-014 1
f 6/3/8 9/9/8 5/2/8

vt -36.4789 22.4054
vn 1.12799e-016 -1 2.25597e-017
vt -44.3529 -16.9646
vt -36.4789 -16.9646
f 3/10/9 9/11/9 6/12/9

v 0.7 9.02389e-017 -0.5
vt -44.3529 22.4054
f 9/11/9 3/10/9 10/13/9

vn -1.12799e-016 1 -2.25597e-017
f 6/12/10 9/11/10 3/10/10

f 10/13/10 3/10/10 9/11/10

vn -4.51195e-015 0 -1
f 2/2/11 10/9/11 3/3/11

vn 4.51195e-015 -0 1
f 3/3/12 10/9/12 2/2/12

vt 22.4054 -20.8186
vn 0.447214 0.894427 7.87234e-016
vt -16.9646 -29.622
vt 22.4054 -29.622
f 2/14/13 9/15/13 10/16/13

vt -16.9646 -20.8186
f 9/15/13 2/14/13 5/17/13

vn -0.447214 -0.894427 -7.87234e-016
f 5/17/14 2/14/14 9/15/14

f 2/7/4 3/6/4 5/5/4

vt 22.4054 1.18992
vn 0.447214 0.894427 3.19814e-016
f 4/18/15 5/17/15 2/14/15

vt -16.9646 1.18992
f 5/17/15 4/18/15 8/19/15

vn -0.447214 -0.894427 -3.19814e-016
f 8/19/16 4/18/16 5/17/16

vt -22.4054 36.2485
vn -1 0 -0
vt 16.9646 32.3114
vt 16.9646 36.2485
f 4/20/17 7/21/17 8/22/17

vt -22.4054 32.3114
f 7/21/17 4/20/17 1/23/17

vn 1 -0 0
f 8/22/18 7/21/18 4/20/18

vn -5.77529e-015 0 -1
v -0.5 0.1 0.5
vt 2.89119 26.4059
f 7/1/19 11/24/19 8/4/19

v -0.5 9.02389e-017 0.5
vt 2.89119 22.4689
f 11/24/19 7/1/19 12/25/19

vn 5.77529e-015 -0 1
f 12/25/20 7/1/20 11/24/20

v -0.5 9.02389e-017 -0.5
vt 22.4054 7.46245
vn 0.447214 -0.894427 3.93617e-016
vt -16.9646 29.471
vt -16.9646 7.46245
f 13/26/21 7/27/21 12/28/21

vt 22.4054 29.471
f 7/27/21 13/26/21 1/29/21

vn -0.447214 0.894427 -3.93617e-016
f 12/28/22 7/27/22 13/26/22

f 1/29/22 13/26/22 7/27/22

v -0.5 0.1 -0.5
vn -5.77529e-015 -5.16448e-029 -1
f 14/24/23 1/1/23 13/25/23

f 1/1/23 14/24/23 4/4/23

vn 5.77529e-015 5.16448e-029 1
f 13/25/24 1/1/24 14/24/24

f 4/4/24 14/24/24 1/1/24

vt -22.4054 9.22313
vn -0.447214 0.894427 1.64007e-017
vt 16.9646 31.2317
vt -22.4054 31.2317
f 14/30/25 8/31/25 4/32/25

vt 16.9646 9.22313
f 8/31/25 14/30/25 11/33/25

vn 0.447214 -0.894427 -1.64007e-017
f 11/33/26 14/30/26 8/31/26

vt -22.4054 26.4059
vn -1 -7.21911e-015 -7.21911e-016
vt 16.9646 22.4689
vt 16.9646 26.4059
f 14/34/27 12/35/27 11/36/27

vt -22.4054 22.4689
f 12/35/27 14/34/27 13/37/27

vn 1 7.21911e-015 7.21911e-016
f 11/36/28 12/35/28 14/34/28

vn -2.70717e-015 0 -1
v -0.7 9.02389e-017 0.5
vt 10.7652 22.4689
f 11/24/29 12/25/29 15/38/29

vn 2.70717e-015 -0 1
f 15/38/30 12/25/30 11/24/30

vt 10.7652 -16.9646
vn -5.63993e-017 -1 -4.04303e-032
vt 2.89119 22.4054
vt 2.89119 -16.9646
f 15/39/31 13/40/31 12/41/31

v -0.7 9.02389e-017 -0.5
vt 10.7652 22.4054
f 13/40/31 15/39/31 16/42/31

vn 5.63993e-017 1 4.04303e-032
f 16/42/32 15/39/32 13/40/32

vn -0.447214 0.894427 -3.75916e-032
vt -22.4054 0.419716
vt 16.9646 0.419716
f 11/33/33 16/43/33 15/44/33

f 16/43/33 11/33/33 14/30/33

vn 0.447214 -0.894427 3.75916e-032
f 15/44/34 16/43/34 11/33/34

f 14/30/34 11/33/34 16/43/34

vn -2.70717e-015 -3.97171e-029 -1
f 14/24/35 13/25/35 16/38/35

f 13/37/28 14/34/28 12/35/28

vn 2.70717e-015 3.97171e-029 1
f 16/38/36 13/25/36 14/24/36

f 12/41/32 13/40/32 15/39/32

f 4/32/26 8/31/26 14/30/26

f 8/4/20 11/24/20 7/1/20

f 8/4/6 7/1/6 5/2/6

f 4/4/2 1/1/2 2/2/2

f 1/23/18 4/20/18 7/21/18

vt -22.4054 -22.5793
vn -0.447214 -0.894427 -1.20545e-015
vt 16.9646 -0.570759
vt -22.4054 -0.570759
f 3/45/37 7/46/37 1/47/37

vt 16.9646 -22.5793
f 7/46/37 3/45/37 6/48/37

vn 0.447214 0.894427 1.20545e-015
f 1/47/38 7/46/38 3/45/38

f 6/48/38 3/45/38 7/46/38

f 2/14/16 5/17/16 4/18/16

f 10/16/14 9/15/14 2/14/14

