# Alias OBJ Model File
# Exported from SketchUp, (c) 2000-2012 Trimble Navigation Limited
# File units = meters

mtllib roof_hip_point.mtl

g Mesh1 peak1 Model

usemtl M_0021_DarkRed
v -0.5 0.1 -0.5
vt -27.8388 3.93701
vn -0.707107 0 0.707107
v 2.70717e-016 0.5 -0
vt -5.68434e-014 19.685
v 2.70717e-016 0.6 -0
vt -5.68434e-014 23.622
f 1/1/1 2/2/1 3/3/1

v -0.5 0 -0.5
vt -27.8388 0
f 2/2/1 1/1/1 4/4/1

vn 0.707107 -0 -0.707107
f 3/3/2 2/2/2 1/1/2

v 0.5 0 0.5
vt 27.8388 -9.53853e-014
vn -0.707107 -3.42634e-015 0.707107
vt 8.88178e-015 23.622
vt 8.88178e-015 19.685
f 5/5/3 3/6/3 2/7/3

v 0.5 0.1 0.5
vt 27.8388 3.93701
f 3/6/3 5/5/3 6/8/3

vn 0.707107 3.42634e-015 -0.707107
f 6/8/4 5/5/4 3/6/4

vt 39.3701 3.93701
vn 0 0 1
v -0.5 0 0.5
vt 0 0
vt 39.3701 0
f 6/9/5 7/10/5 5/11/5

v -0.5 0.1 0.5
vt 0 3.93701
f 7/10/5 6/9/5 8/12/5

vn -0 -0 -1
f 5/11/6 7/10/6 6/9/6

vt -19.685 27.8388
vn 0 -0.707107 -0.707107
vt -39.3701 0
f 2/13/7 5/14/7 7/10/7

f 2/7/4 3/6/4 5/5/4

vn 0.707107 -3.42634e-015 0.707107
vt 27.8388 19.685
vt 27.8388 23.622
f 8/12/8 2/15/8 3/16/8

f 2/15/8 8/12/8 7/10/8

vn -0.707107 3.42634e-015 -0.707107
f 7/10/9 8/12/9 2/15/9

vt -39.3701 3.93701
vn -1 0 -0
f 1/17/10 7/10/10 8/12/10

f 7/10/10 1/17/10 4/14/10

vn 1 -0 0
f 8/12/11 7/10/11 1/17/11

f 8/12/6 6/9/6 7/10/6

usemtl M_0020_Red
vt 19.685 30.6227
vn 0 0.707107 0.707107
vt 0 2.78388
vt 39.3701 2.78388
f 3/18/12 8/19/12 6/20/12

vt -39.3701 2.78388
vn -0.707107 0.707107 -0
vt -19.685 30.6227
f 1/21/13 8/19/13 3/22/13

usemtl M_0021_DarkRed
vn 0.707107 -0.707107 0
f 3/22/14 8/19/14 1/21/14

f 3/16/9 2/15/9 8/12/9

v 0.5 0.1 -0.5
vt 55.6777 3.93701
f 2/15/8 9/23/8 3/16/8

v 0.5 0 -0.5
vt 55.6777 -5.42736e-028
f 9/23/8 2/15/8 10/24/8

f 10/24/9 2/15/9 9/23/9

vt 19.685 0
vn -2.59318e-017 -0.707107 0.707107
vt -1.44382e-015 -27.8388
vt 39.3701 -27.8388
f 2/25/15 4/26/15 10/27/15

f 4/4/2 1/1/2 2/2/2

vn 0 0 -1
f 1/12/16 10/14/16 4/10/16

f 10/14/16 1/12/16 9/17/16

vn -0 -0 1
f 4/10/17 10/14/17 1/12/17

vn 2.59318e-017 0.707107 -0.707107
f 10/27/18 4/26/18 2/25/18

vn 0.707107 -0.707107 -0
vt 19.685 27.8388
f 4/11/19 2/28/19 7/10/19

vn -0.707107 0.707107 0
f 7/10/20 2/28/20 4/11/20

vn -0 0.707107 0.707107
f 7/10/21 5/14/21 2/13/21

vt 0 -27.8388
vn -0.707107 -0.707107 -0
vt -19.685 -1.59872e-014
vt -39.3701 -27.8388
f 5/29/22 2/30/22 10/31/22

vn 0.707107 0.707107 0
f 10/31/23 2/30/23 5/29/23

vn 1 0 -0
f 10/11/24 6/12/24 5/10/24

f 6/12/24 10/11/24 9/9/24

vn -1 -0 0
f 5/10/25 6/12/25 10/11/25

f 9/9/25 10/11/25 6/12/25

f 9/17/17 1/12/17 10/14/17

usemtl M_0020_Red
vt -19.685 2.78388
vn 0 0.707107 -0.707107
vt -39.3701 -25.055
vt 0 -25.055
f 3/32/26 9/33/26 1/34/26

usemtl M_0021_DarkRed
vn -0 -0.707107 0.707107
f 1/34/27 9/33/27 3/32/27

f 3/16/9 9/23/9 2/15/9

usemtl M_0020_Red
vt 39.3701 -25.055
vn 0.707107 0.707107 -0
vt 19.685 2.78388
f 9/35/28 3/36/28 6/34/28

usemtl M_0021_DarkRed
vn -0.707107 -0.707107 0
f 6/34/29 3/36/29 9/35/29

vn -0 -0.707107 -0.707107
f 6/20/30 8/19/30 3/18/30

f 4/14/11 1/17/11 7/10/11

