# Alias OBJ Model File
# Exported from SketchUp, (c) 2000-2012 Trimble Navigation Limited
# File units = meters

mtllib roof_small_skylight_3.mtl

g Mesh1 sloped_roof_8_1 Model

usemtl M_0024_OrangeRed
v 0.5 0.5 -0.5
vt 4.90717e-014 42.2564
vn 0.447214 -0.894427 1.77128e-015
v 0.321115 0.410557 -0.3
vt -7.87402 34.3824
v -0.321115 0.0894427 -0.3
vt -7.87402 6.11333
f 1/1/1 2/2/1 3/3/1

v 0.5 0.5 0.5
vt -39.3701 42.2564
f 2/2/1 1/1/1 4/4/1

vn -0.447214 0.894427 -1.77128e-015
f 3/3/2 2/2/2 1/1/2

usemtl M_0094_PowderBlue
vn 0.447214 -0.894427 -5.12522e-017
v -0.321115 0.0894427 -0.1
vt -15.748 6.11333
f 2/2/3 5/5/3 3/3/3

v 0.321115 0.410557 -0.1
vt -15.748 34.3824
f 5/5/3 2/2/3 6/6/3

usemtl M_0024_OrangeRed
vn -0.447214 0.894427 5.12522e-017
f 3/3/4 5/5/4 2/2/4

v -0.5 3.60956e-016 0.5
vt -39.3701 -1.76068
f 7/7/1 3/3/1 5/5/1

v -0.5 -1.12799e-017 -0.5
vt -1.42109e-014 -1.76068
f 8/8/1 3/3/1 7/7/1

f 3/3/1 8/8/1 1/1/1

f 7/7/2 3/3/2 8/8/2

f 5/5/2 3/3/2 7/7/2

vt -7.87402 -0.415641
vn 1 -1.57918e-015 -1.01519e-015
v -0.321115 0.189443 -0.1
vt -15.748 3.52137
vt -15.748 -0.415641
f 3/9/5 9/10/5 5/11/5

v -0.321115 0.189443 -0.3
vt -7.87402 3.52137
f 9/10/5 3/9/5 10/12/5

vn -1 1.57918e-015 1.01519e-015
f 5/11/6 9/10/6 3/9/6

v -0.321115 0.189443 0.1
vt -23.622 3.52137
vn 1 -3.15836e-015 2.25597e-016
f 11/13/7 5/11/7 9/10/7

v -0.321115 0.0894427 0.1
vt -23.622 -0.415641
f 5/11/7 11/13/7 12/14/7

vn -1 3.15836e-015 -2.25597e-016
f 12/14/8 11/13/8 5/11/8

v -0.321115 0.189443 0.3
vt -31.4961 3.52137
vn 1 -6.76792e-016 1.12799e-016
f 13/15/9 12/14/9 11/13/9

v -0.321115 0.0894427 0.3
vt -31.4961 -0.415641
f 12/14/9 13/15/9 14/16/9

vn -1 6.76792e-016 -1.12799e-016
f 14/16/10 13/15/10 12/14/10

v -0.31217 0.171554 0.3
vt -7.39487 2.81709
vn -4.35951e-015 1.36105e-014 -1
vt -7.04273 -0.415641
vt -7.04273 3.52137
f 15/17/11 14/18/11 13/19/11

v 0.321115 0.410557 0.3
vt -32.3273 12.2267
f 14/18/11 15/17/11 16/20/11

vn 4.35951e-015 -1.36105e-014 1
f 13/19/12 14/18/12 15/17/12

f 16/20/12 15/17/12 14/18/12

v 0.321115 0.477016 0.3
vt -32.3273 14.8432
f 16/20/11 15/17/11 17/21/11

f 17/21/12 15/17/12 16/20/12

v 0.321115 0.488197 0.3
vt -32.3273 15.2833
f 17/21/11 15/17/11 18/22/11

f 18/22/12 15/17/12 17/21/12

vn 1.54857e-015 4.82813e-015 -1
v 0.321115 0.510557 0.3
vt -32.3273 16.1637
f 15/17/13 19/23/13 18/22/13

f 19/23/13 15/17/13 13/19/13

vn -1.54857e-015 -4.82813e-015 1
f 13/19/14 15/17/14 19/23/14

vt -31.4961 -0.787402
vn 0.894427 0.447214 -5.54896e-016
vt -23.622 1.13243e-013
vt -31.4961 1.36779e-013
f 15/24/15 11/25/15 13/26/15

v -0.31217 0.171554 0.1
vt -23.622 -0.787402
f 11/25/15 15/24/15 20/27/15

vn -0.894427 -0.447214 5.54896e-016
f 20/27/16 15/24/16 11/25/16

usemtl M_0094_PowderBlue
vt 31.4961 7.87402
vn -0.447214 0.894427 -5.4669e-016
v 0.321115 0.488197 0.1
vt 23.622 35.7494
vt 23.622 7.87402
f 15/28/17 21/29/17 20/30/17

v 0.330059 0.492669 0.1
vt 23.622 36.1431
f 21/29/17 15/28/17 22/31/17

usemtl M_0024_OrangeRed
vn 0.447214 -0.894427 5.4669e-016
f 20/30/18 21/29/18 15/28/18

v 0.321115 0.510557 0.1
vt 32.3273 16.1637
vn -1.61044e-015 -9.18376e-016 1
vt 7.39487 2.81709
vt 32.3273 15.2833
f 23/32/19 20/33/19 21/34/19

vt 7.04273 3.52137
f 20/33/19 23/32/19 11/35/19

vn 1.61044e-015 9.18376e-016 -1
f 11/35/20 23/32/20 20/33/20

v 0.321115 0.510557 -0.1
vt 15.748 36.1431
vn -0.447214 0.894427 -1.1788e-015
f 24/36/21 11/30/21 23/31/21

vt 15.748 7.87402
f 11/30/21 24/36/21 9/37/21

vn 0.447214 -0.894427 1.1788e-015
f 9/37/22 24/36/22 11/30/22

v -0.31217 0.171554 -0.1
vn 1.24532e-015 -2.52577e-015 1
f 25/33/23 24/32/23 9/35/23

v 0.321115 0.488197 -0.1
f 24/32/23 25/33/23 26/34/23

vn -1.24532e-015 2.52577e-015 -1
f 9/35/24 24/32/24 25/33/24

f 26/34/24 25/33/24 24/32/24

usemtl M_0094_PowderBlue
v 0.330059 0.492669 -0.1
vn -0.447214 0.894427 2.18676e-015
vt 15.748 35.7494
f 27/36/25 25/37/25 26/38/25

v 0.330059 0.492669 -0.3
vt 7.87402 36.1431
f 28/39/25 25/37/25 27/36/25

v 0.321115 0.488197 -0.3
vt 7.87402 35.7494
f 29/40/25 25/37/25 28/39/25

v -0.31217 0.171554 -0.3
vt 7.87402 7.87402
f 25/37/25 29/40/25 30/41/25

usemtl M_0024_OrangeRed
vn 0.447214 -0.894427 -2.18676e-015
f 30/41/26 29/40/26 25/37/26

v 0.321115 0.510557 -0.3
vn -1.67501e-015 -4.85623e-015 1
f 31/32/27 30/33/27 29/34/27

f 30/33/27 31/32/27 10/35/27

vn 1.67501e-015 4.85623e-015 -1
f 10/35/28 31/32/28 30/33/28

vn -0.447214 0.894427 4.12261e-017
v 0.5 0.6 -0.5
vt 1.1049e-013 44.0171
f 31/39/29 32/42/29 10/41/29

v 0.5 0.6 0.5
vt 39.3701 44.0171
f 32/42/29 31/39/29 33/43/29

vn 0.447214 -0.894427 -4.12261e-017
f 33/43/30 31/39/30 32/42/30

f 33/43/29 31/39/29 24/36/29

f 24/36/30 31/39/30 33/43/30

vt 7.87402 15.2833
vn -1 -1.21248e-030 9.02389e-016
vt 15.748 16.1637
vt 7.87402 16.1637
f 29/44/31 24/45/31 31/46/31

vt 15.748 15.2833
f 29/44/31 26/47/31 24/45/31

v 0.321115 0.477016 -0.3
vt 7.87402 14.8432
f 34/48/31 26/47/31 29/44/31

vt 7.87402 12.2267
f 2/49/31 26/47/31 34/48/31

vt 15.748 12.2267
f 26/47/31 2/49/31 6/50/31

vn 1 1.21248e-030 -9.02389e-016
f 6/50/32 2/49/32 26/47/32

f 2/2/1 4/4/1 6/6/1

f 4/4/2 1/1/2 2/2/2

vt -1.09047e-013 19.685
vn 1 0 -5.55112e-017
vt -39.3701 15.748
vt -1.09047e-013 15.748
f 32/51/33 4/52/33 1/53/33

vt -39.3701 19.685
f 4/52/33 32/51/33 33/54/33

vn -1 -0 5.55112e-017
f 1/53/34 4/52/34 32/51/34

f 33/54/34 32/51/34 4/52/34

vt 2.12465e-013 -3.93701
vn -1.05802e-015 -6.54368e-016 -1
f 7/55/35 33/54/35 4/52/35

v -0.589443 -0.0447214 0.5
vt 3.52137 -5.69769
f 35/56/35 33/54/35 7/55/35

v -0.629443 0.0352786 0.5
vt 5.09617 -2.54809
f 33/54/35 35/56/35 36/57/35

vn 1.05802e-015 6.54368e-016 1
f 36/57/36 35/56/36 33/54/36

vt 39.3701 5.41789e-014
vn -0.894427 -0.447214 5.06757e-017
v -0.589443 -0.0447214 -0.5
vt -4.4821e-014 -3.52137
vt 39.3701 -3.52137
f 36/58/37 37/59/37 35/60/37

v -0.629443 0.0352786 -0.5
vt 1.97442e-015 -2.35367e-014
f 37/59/37 36/58/37 38/61/37

vn 0.894427 0.447214 -5.06757e-017
f 35/60/38 37/59/38 36/58/38

vn 0.447214 -0.894427 1.77948e-015
vt -39.3701 -5.69769
vt 3.06098e-014 -5.69769
f 8/8/39 35/62/39 37/63/39

f 35/62/39 8/8/39 7/7/39

vn -0.447214 0.894427 -1.77948e-015
f 37/63/40 35/62/40 8/8/40

vt -39.3701 -3.52137
vn -1.97398e-016 -1 -5.63993e-018
v -0.789443 -0.0447214 -0.5
vt 3.19423e-014 -11.3954
vt 4.61531e-014 -3.52137
f 35/64/41 39/65/41 37/66/41

v -0.789443 -0.0447214 0.5
vt -39.3701 -11.3954
f 39/65/41 35/64/41 40/67/41

vn 1.97398e-016 1 5.63993e-018
f 37/66/42 39/65/42 35/64/42

vn -2.25597e-015 1.24079e-014 -1
vt 11.3954 -5.69769
f 37/56/43 39/68/43 38/57/43

vn 2.25597e-015 -1.24079e-014 1
f 38/57/44 39/68/44 37/56/44

vt 39.3701 -12.7404
vn -0.447214 0.894427 -1.99064e-015
vt 2.49472e-014 -5.69769
vt 2.38092e-014 -12.7404
f 40/69/45 38/70/45 39/71/45

vt 39.3701 -5.69769
f 38/70/45 40/69/45 36/72/45

vn 0.447214 -0.894427 1.99064e-015
f 39/71/46 38/70/46 40/69/46

f 36/72/46 40/69/46 38/70/46

vn 9.02389e-016 4.51195e-016 -1
f 35/56/47 40/68/47 36/57/47

vn -9.02389e-016 -4.51195e-016 1
f 36/57/48 40/68/48 35/56/48

f 40/67/42 35/64/42 39/65/42

f 38/61/38 36/58/38 37/59/38

vt 1.79337e-015 -5.69769
f 10/41/29 38/73/29 36/72/29

f 38/73/29 10/41/29 32/42/29

f 32/42/30 10/41/30 38/73/30

f 10/41/30 32/42/30 31/39/30

f 36/72/30 38/73/30 10/41/30

f 10/41/29 36/72/29 9/37/29

f 9/37/30 36/72/30 10/41/30

f 9/37/29 36/72/29 11/30/29

f 11/30/30 36/72/30 9/37/30

f 11/30/29 36/72/29 13/28/29

f 13/28/30 36/72/30 11/30/30

vt 31.4961 36.1431
f 13/28/29 36/72/29 19/74/29

f 19/74/30 36/72/30 13/28/30

f 33/43/29 19/74/29 36/72/29

f 33/43/29 23/31/29 19/74/29

f 33/43/29 24/36/29 23/31/29

f 23/31/30 24/36/30 33/43/30

usemtl M_0094_PowderBlue
vt 15.748 -0.787402
vn -0.894427 -0.447214 9.07037e-016
vt 23.622 6.75016e-014
vt 15.748 6.92779e-014
f 27/75/49 23/76/49 24/77/49

vt 23.622 -0.787402
f 23/76/49 27/75/49 22/78/49

usemtl M_0024_OrangeRed
vn 0.894427 0.447214 -9.07037e-016
f 22/78/50 27/75/50 23/76/50

usemtl M_0094_PowderBlue
vt 7.87402 -0.787402
f 28/79/49 22/78/49 27/75/49

v 0.330059 0.492669 0.3
vt 31.4961 -0.787402
f 28/79/49 41/80/49 22/78/49

v 0.334531 0.483724 -0.3
vt 7.87402 -1.1811
f 42/81/49 41/80/49 28/79/49

v 0.334531 0.483724 0.3
vt 31.4961 -1.1811
f 41/80/49 42/81/49 43/82/49

usemtl M_0024_OrangeRed
f 43/82/50 42/81/50 41/80/50

f 28/79/50 41/80/50 42/81/50

f 22/78/50 41/80/50 28/79/50

usemtl M_0094_PowderBlue
vt 31.4961 35.7494
f 22/31/17 18/83/17 41/74/17

f 22/31/17 15/28/17 18/83/17

usemtl M_0024_OrangeRed
f 22/31/18 15/28/18 21/29/18

f 18/83/18 15/28/18 22/31/18

f 18/22/14 19/23/14 15/17/14

vt 23.622 15.2833
vn -1 1.95502e-015 1.09148e-015
vt 31.4961 15.2833
vt 31.4961 16.1637
f 21/84/51 18/85/51 19/86/51

vt 31.4961 14.8432
f 21/84/51 17/87/51 18/85/51

v 0.321115 0.410557 0.1
vt 23.622 12.2267
f 44/88/51 17/87/51 21/84/51

vt 31.4961 12.2267
f 17/87/51 44/88/51 16/89/51

vn 1 -1.95502e-015 -1.09148e-015
f 16/89/52 44/88/52 17/87/52

vt -23.622 34.3824
vt -31.4961 34.3824
f 44/90/1 4/4/1 16/91/1

f 6/6/1 4/4/1 44/90/1

f 6/6/2 4/4/2 2/2/2

f 44/90/2 4/4/2 6/6/2

f 16/91/2 4/4/2 44/90/2

vt -31.4961 6.11333
f 16/91/1 4/4/1 14/92/1

f 14/92/2 4/4/2 16/91/2

f 14/92/1 4/4/1 7/7/1

f 7/7/2 4/4/2 14/92/2

f 4/52/36 33/54/36 7/55/36

f 7/55/36 33/54/36 35/56/36

f 7/7/40 8/8/40 35/62/40

vt -23.622 6.11333
f 7/7/1 12/93/1 14/92/1

f 7/7/1 5/5/1 12/93/1

f 12/93/2 5/5/2 7/7/2

vn 0.447214 -0.894427 -4.10018e-016
f 6/6/53 12/93/53 5/5/53

f 12/93/53 6/6/53 44/90/53

vn -0.447214 0.894427 4.10018e-016
f 5/5/54 12/93/54 6/6/54

f 44/90/54 6/6/54 12/93/54

vn -1 8.94424e-016 5.26394e-016
f 21/84/55 6/50/55 44/88/55

f 6/50/55 21/84/55 26/47/55

vn 1 -8.94424e-016 -5.26394e-016
f 44/88/56 6/50/56 21/84/56

f 26/47/56 21/84/56 6/50/56

vt 23.622 16.1637
f 26/47/55 21/84/55 23/94/55

f 23/94/56 21/84/56 26/47/56

f 21/84/51 19/86/51 23/94/51

f 19/86/52 18/85/52 21/84/52

usemtl M_0094_PowderBlue
vt -32.6795 15.4594
vn 1.61424e-014 8.07122e-015 -1
f 41/95/57 18/22/57 19/23/57

vt -32.8555 15.1073
vn 2.26615e-014 2.29719e-014 -1
f 43/96/58 18/22/58 41/95/58

f 18/22/58 43/96/58 17/21/58

usemtl M_0024_OrangeRed
vn -2.26615e-014 -2.29719e-014 1
f 17/21/59 43/96/59 18/22/59

f 41/95/59 18/22/59 43/96/59

f 41/74/18 18/83/18 22/31/18

vn -1.61424e-014 -8.07122e-015 1
f 19/23/60 18/22/60 41/95/60

usemtl M_0094_PowderBlue
vt 31.4961 4.61853e-014
vn -0.894427 -0.447214 8.07222e-016
f 19/97/61 22/78/61 41/80/61

vt 23.622 4.44089e-014
f 22/78/61 19/97/61 23/98/61

usemtl M_0024_OrangeRed
vn 0.894427 0.447214 -8.07222e-016
f 41/80/62 22/78/62 19/97/62

f 23/98/62 19/97/62 22/78/62

f 19/74/30 23/31/30 33/43/30

f 23/94/52 19/86/52 21/84/52

f 21/34/20 20/33/20 23/32/20

vn -8.62688e-016 -2.07727e-015 1
vt 32.3273 12.2267
f 20/33/63 44/99/63 21/34/63

vt 7.04273 -0.415641
f 20/33/63 12/100/63 44/99/63

f 12/100/63 20/33/63 11/35/63

vn 8.62688e-016 2.07727e-015 -1
f 11/35/64 20/33/64 12/100/64

f 44/99/64 12/100/64 20/33/64

usemtl M_0094_PowderBlue
f 44/90/53 14/92/53 12/93/53

f 14/92/53 44/90/53 16/91/53

usemtl M_0024_OrangeRed
f 12/93/54 14/92/54 44/90/54

f 14/92/2 12/93/2 7/7/2

f 16/91/54 44/90/54 14/92/54

f 21/34/64 44/99/64 20/33/64

f 21/84/52 17/87/52 44/88/52

f 18/85/52 17/87/52 21/84/52

f 11/13/10 12/14/10 13/15/10

f 13/26/16 11/25/16 15/24/16

usemtl M_0094_PowderBlue
vt 32.6795 15.4594
vn -6.55786e-015 -2.0178e-015 1
f 22/101/65 23/32/65 21/34/65

usemtl M_0024_OrangeRed
vn 6.55786e-015 2.0178e-015 -1
f 21/34/66 23/32/66 22/101/66

f 36/72/30 19/74/30 33/43/30

f 26/47/55 23/94/55 24/45/55

f 24/45/56 23/94/56 26/47/56

f 24/77/50 23/76/50 27/75/50

f 23/31/22 11/30/22 24/36/22

usemtl M_0094_PowderBlue
vt 15.748 4.61853e-014
f 24/102/61 28/79/61 27/75/61

vt 7.87402 4.44089e-014
f 28/79/61 24/102/61 31/103/61

usemtl M_0024_OrangeRed
f 27/75/62 28/79/62 24/102/62

f 27/75/50 22/78/50 28/79/50

f 27/36/26 25/37/26 28/39/26

f 26/38/26 25/37/26 27/36/26

vn 5.99408e-016 -1.20426e-015 1
f 25/33/67 6/99/67 26/34/67

f 25/33/67 5/100/67 6/99/67

f 5/100/67 25/33/67 9/35/67

vn -5.99408e-016 1.20426e-015 -1
f 9/35/68 25/33/68 5/100/68

vt -7.87402 -0.787402
vn 0.894427 0.447214 5.04451e-017
vt -15.748 8.12683e-014
vt -15.748 -0.787402
f 30/104/69 9/105/69 25/106/69

vt -7.87402 1.26565e-013
f 9/105/69 30/104/69 10/107/69

vn -0.894427 -0.447214 -5.04451e-017
f 25/106/70 9/105/70 30/104/70

f 10/107/70 30/104/70 9/105/70

vn -3.60634e-015 -9.59695e-016 1
f 3/100/71 30/33/71 10/35/71

f 30/33/71 3/100/71 2/99/71

vn 3.60634e-015 9.59695e-016 -1
f 10/35/72 30/33/72 3/100/72

f 2/99/72 3/100/72 30/33/72

f 30/33/71 2/99/71 29/34/71

f 29/34/72 2/99/72 30/33/72

vt 32.3273 14.8432
f 29/34/71 2/99/71 34/108/71

f 34/108/72 2/99/72 29/34/72

f 34/48/32 26/47/32 2/49/32

f 29/44/32 26/47/32 34/48/32

f 24/45/32 26/47/32 29/44/32

usemtl M_0094_PowderBlue
vn -3.53116e-015 2.0178e-015 -1
f 27/95/73 26/22/73 24/23/73

usemtl M_0024_OrangeRed
vn 3.53116e-015 -2.0178e-015 1
f 24/23/74 26/22/74 27/95/74

f 31/46/32 24/45/32 29/44/32

f 31/103/62 24/102/62 28/79/62

usemtl M_0094_PowderBlue
vn 2.0178e-015 -4.03561e-015 1
f 28/101/75 31/32/75 29/34/75

usemtl M_0024_OrangeRed
vn -2.0178e-015 4.03561e-015 -1
f 29/34/76 31/32/76 28/101/76

f 29/34/28 30/33/28 31/32/28

usemtl M_0094_PowderBlue
vn -5.12212e-015 5.58776e-015 1
vt 32.8555 15.1073
f 29/34/77 42/109/77 28/101/77

f 42/109/77 29/34/77 34/108/77

usemtl M_0024_OrangeRed
vn 5.12212e-015 -5.58776e-015 -1
f 34/108/78 29/34/78 42/109/78

f 28/101/78 42/109/78 29/34/78

f 28/39/26 25/37/26 29/40/26

f 10/12/6 3/9/6 9/10/6

f 6/99/68 5/100/68 25/33/68

f 6/6/4 2/2/4 5/5/4

f 26/34/68 6/99/68 25/33/68

f 9/10/8 5/11/8 11/13/8

vn -1.22639e-015 -2.60194e-016 -1
f 32/54/79 37/56/79 38/57/79

vt 1.42109e-013 -3.93701
f 37/56/79 32/54/79 8/110/79

vn 1.22639e-015 2.60194e-016 1
f 38/57/80 37/56/80 32/54/80

f 8/110/80 32/54/80 37/56/80

f 8/110/79 32/54/79 1/52/79

f 1/52/80 32/54/80 8/110/80

f 1/1/2 8/8/2 3/3/2

