# Alias OBJ Model File
# Exported from SketchUp, (c) 2000-2012 Trimble Navigation Limited
# File units = meters

mtllib roof_small_4_corner.mtl

g Mesh1 Component_10_1 Model

usemtl M_0024_OrangeRed
v -0.5 0 0.5
vt -1.42109e-013 3.93701
vn -1 2.88765e-014 1.44382e-014
v -0.5 0.15 4.51195e-015
vt -19.685 9.84252
v -0.5 -0.1 0.5
vt 0 0
f 1/1/1 2/2/1 3/3/1

v -0.5 0.25 4.51195e-015
vt -19.685 13.7795
f 2/2/1 1/1/1 4/4/1

vn 1 -2.88765e-014 -1.44382e-014
f 3/3/2 2/2/2 1/1/2

v 3.6998e-015 0.15 -3.06812e-015
vt 19.685 22.0085
vn 6.50102e-015 0.894427 0.447214
vt 3.99843e-013 22.0085
f 5/5/3 2/6/3 3/3/3

vt 19.685 -13.2051
vn 7.08611e-015 -0.894427 0.447214
vt 4.25597e-013 -13.2051
v -0.5 -0.1 -0.5
vt 6.2382e-013 -35.2137
f 5/7/4 2/8/4 6/9/4

vn -7.08611e-015 0.894427 -0.447214
f 6/9/5 2/8/5 5/7/5

vn -1 1.44382e-014 -4.33147e-015
v -0.5 0 -0.5
vt -39.3701 3.93701
vt -39.3701 -2.46215e-027
f 2/2/6 7/10/6 6/11/6

f 7/10/6 2/2/6 4/4/6

vn 1 -1.44382e-014 4.33147e-015
f 4/4/7 2/2/7 7/10/7

f 4/4/2 1/1/2 2/2/2

v 3.6998e-015 0.25 -3.06812e-015
vt 19.685 23.7692
vn 6.76106e-015 0.894427 0.447214
vt 4.11289e-013 23.7692
vt 2.27374e-013 1.76068
f 8/12/8 4/13/8 1/14/8

vt 4.12115e-013 13.7795
vn 1.51601e-014 2.1628e-030 1
vt 19.685 9.84252
vt 19.685 13.7795
f 4/15/9 5/16/9 8/17/9

vt 4.12115e-013 9.84252
f 5/16/9 4/15/9 2/18/9

vn -1.51601e-014 -2.1628e-030 -1
f 2/18/10 4/15/10 5/16/10

f 8/17/10 5/16/10 4/15/10

v 3.6998e-015 0.15 -0.5
vt 39.3701 9.84252
vn 1 0 -0
f 9/19/11 8/17/11 5/16/11

v 3.6998e-015 0.25 -0.5
vt 39.3701 13.7795
f 8/17/11 9/19/11 10/20/11

vn -1 -0 0
f 5/16/12 8/17/12 9/19/12

vt -1.19016e-013 9.84252
vn 0.707107 -1.0279e-014 -0.707107
vt 27.8388 3.93701
vt -1.19016e-013 13.7795
f 5/21/13 7/22/13 8/23/13

vt 27.8388 2.86156e-013
f 7/22/13 5/21/13 6/24/13

vn -0.707107 1.0279e-014 0.707107
f 6/24/14 5/21/14 7/22/14

vn 0.447214 -0.894427 -0
vt 39.3701 0
vt 39.3701 22.0085
f 5/5/15 6/25/15 9/26/15

vn -0.447214 0.894427 0
f 9/26/16 6/25/16 5/5/16

vt -3.41061e-013 3.93701
vn -5.77529e-015 7.74672e-029 -1
vt -2.27374e-013 -3.04989e-027
f 7/27/17 9/2/17 6/28/17

f 9/2/17 7/27/17 10/4/17

vn 5.77529e-015 -7.74672e-029 1
f 6/28/18 9/2/18 7/27/18

f 10/4/18 7/27/18 9/2/18

vt -39.3701 23.7692
vn -0.447214 0.894427 -6.50102e-017
vt -39.3701 1.76068
vt -19.685 23.7692
f 10/29/19 7/30/19 8/31/19

vn 0.447214 -0.894427 6.50102e-017
f 8/31/20 7/30/20 10/29/20

f 8/23/14 7/22/14 5/21/14

vt -19.685 -11.4444
vn -6.76106e-015 0.894427 -0.447214
vt -7.08891e-013 -33.453
vt -4.11289e-013 -11.4444
f 8/32/21 7/33/21 4/34/21

vn 6.76106e-015 -0.894427 0.447214
f 4/34/22 7/33/22 8/32/22

vn -6.76106e-015 -0.894427 -0.447214
f 1/14/23 4/13/23 8/12/23

vt 2.61263e-013 3.93701
vn 0.707107 -8.56584e-015 0.707107
vt 27.8388 9.84252
vt 27.8388 13.7795
f 1/35/24 5/36/24 8/37/24

f 5/36/24 1/35/24 3/3/24

vn -0.707107 8.56584e-015 -0.707107
f 3/3/25 1/35/25 5/36/25

vt -2.27374e-013 3.93701
vn 6.85816e-015 -1.80478e-014 -1
v 3.6998e-015 0.15 0.5
f 1/38/26 11/2/26 3/3/26

v 3.6998e-015 0.25 0.5
f 11/2/26 1/38/26 12/4/26

vn -6.85816e-015 1.80478e-014 1
f 3/3/27 11/2/27 1/38/27

vt -19.685 22.0085
vn -0.447214 0.894427 -0
vt -1.13687e-013 22.0085
f 5/39/28 3/3/28 11/40/28

vn 0.447214 -0.894427 0
f 11/40/29 3/3/29 5/39/29

vn -6.50102e-015 -0.894427 -0.447214
f 3/3/30 2/6/30 5/5/30

vt 1.13687e-013 13.7795
vt 1.13687e-013 9.84252
f 5/16/11 12/41/11 11/42/11

f 12/41/11 5/16/11 8/17/11

f 11/42/12 12/41/12 5/16/12

v 0.5 0 0.5
vn -6.85816e-015 -1.80478e-014 -1
f 13/10/31 11/2/31 12/4/31

v 0.5 -0.1 0.5
vt -39.3701 -4.87301e-027
f 11/2/31 13/10/31 14/43/31

vn 6.85816e-015 1.80478e-014 1
f 14/43/32 13/10/32 11/2/32

v 0.5 0.15 -3.06812e-015
vt -4.26326e-013 3.93701
vt -5.68434e-013 1.13687e-012
f 15/16/2 13/44/2 14/45/2

v 0.5 0.25 -3.06812e-015
f 13/44/2 15/16/2 16/17/2

f 14/45/1 13/44/1 15/16/1

vt -3.21521e-013 9.84252
vn 0.707107 -3.25502e-014 -0.707107
vt -27.8388 3.93701
vt -27.8388 9.0616e-013
f 5/46/33 13/47/33 14/48/33

vt -3.21521e-013 13.7795
f 13/47/33 5/46/33 8/49/33

vn -0.707107 3.25502e-014 0.707107
f 14/48/34 13/47/34 5/46/34

f 8/49/34 5/46/34 13/47/34

f 8/17/12 5/16/12 12/41/12

f 8/37/25 5/36/25 1/35/25

vn 0 0 1
f 5/16/35 16/20/35 8/17/35

f 16/20/35 5/16/35 15/19/35

vn -0 -0 -1
f 15/19/36 5/16/36 16/20/36

vt 39.3701 -13.2051
vn -6.50102e-017 -0.894427 0.447214
v 0.5 -0.1 -0.5
vt 39.3701 -35.2137
f 15/50/37 5/7/37 17/51/37

vn 6.50102e-017 0.894427 -0.447214
f 17/51/38 5/7/38 15/50/38

vt -39.3701 -35.2137
vn -0.447214 -0.894427 -6.50102e-017
vt -19.685 -13.2051
vt -39.3701 -13.2051
f 17/52/39 5/53/39 9/54/39

vn 0.447214 0.894427 6.50102e-017
f 9/54/40 5/53/40 17/52/40

v 0.5 0 -0.5
vt 55.6777 3.93701
vn 0.707107 -6.85267e-015 0.707107
vt 55.6777 -1.03499e-027
f 18/55/41 5/36/41 17/56/41

f 5/36/41 18/55/41 8/37/41

vn -0.707107 6.85267e-015 -0.707107
f 17/56/42 5/36/42 18/55/42

f 8/37/42 18/55/42 5/36/42

vt 39.3701 -33.453
vn 0.447214 0.894427 -1.3002e-016
vt 39.3701 -11.4444
vt 19.685 -11.4444
f 18/57/43 10/58/43 8/59/43

f 18/10/31 9/2/31 10/4/31

vt -39.3701 7.10543e-013
f 9/2/31 18/10/31 17/60/31

f 17/60/32 18/10/32 9/2/32

vn 1 -2.88765e-014 1.44382e-014
vt 39.3701 1.13687e-012
vt 39.3701 3.93701
f 16/17/44 17/61/44 18/62/44

f 17/61/44 16/17/44 15/16/44

vn -1 2.88765e-014 -1.44382e-014
f 15/16/45 16/17/45 17/61/45

f 16/17/1 15/16/1 13/44/1

vt 39.3701 1.76068
vn -6.50102e-017 0.894427 0.447214
vt 39.3701 23.7692
f 13/63/46 16/64/46 8/12/46

vn 6.50102e-017 -0.894427 -0.447214
f 8/12/47 16/64/47 13/63/47

f 8/17/36 16/20/36 5/16/36

vt -39.3701 -33.453
vn -6.50102e-017 0.894427 -0.447214
vt -39.3701 -11.4444
f 18/65/48 8/32/48 16/66/48

vn -0.447214 -0.894427 1.3002e-016
f 8/59/49 10/58/49 18/57/49

f 10/20/12 9/19/12 8/17/12

f 10/4/32 9/2/32 18/10/32

vn 6.50102e-017 -0.894427 0.447214
f 16/66/50 8/32/50 18/65/50

f 18/62/45 17/61/45 16/17/45

vt 1.47832e-013 -33.453
vt 1.16548e-013 -11.4444
f 13/67/40 8/59/40 12/68/40

f 12/68/39 8/59/39 13/67/39

vt 1.13687e-013 23.7692
vt 1.42109e-013 1.76068
f 12/69/15 1/70/15 8/12/15

f 12/4/27 1/38/27 11/2/27

f 8/12/16 1/70/16 12/69/16

f 12/4/32 11/2/32 13/10/32

vn 6.50102e-017 0.894427 0.447214
vt 39.3701 -5.11891e-015
f 15/26/51 5/5/51 14/71/51

vn -6.50102e-017 -0.894427 -0.447214
f 14/71/52 5/5/52 15/26/52

vt 0 -35.2137
vn 0.447214 0.894427 -0
vt 1.13687e-013 -13.2051
f 14/72/53 5/7/53 11/73/53

vn -0.447214 -0.894427 0
f 11/73/54 5/7/54 14/72/54

f 6/11/7 7/10/7 2/2/7

