# Alias OBJ Model File
# Exported from SketchUp, (c) 2000-2012 Trimble Navigation Limited
# File units = meters

mtllib roof_dormer3.mtl

g Mesh1 sloped_roof_5_1 Model

usemtl FrontColor
v 0.5 1.1 -0.5
vt 39.3701 39.3701
vn -2.34621e-015 0 1
v -0.5 1 -0.5
vt -3.55271e-014 35.4331
v 0.5 1 -0.5
vt 39.3701 35.4331
f 1/1/1 2/2/1 3/3/1

v -0.5 1.1 -0.5
vt -3.55271e-014 39.3701
f 2/2/1 1/1/1 4/4/1

usemtl M_0021_DarkRed
vn 2.34621e-015 -0 -1
f 3/3/2 2/2/2 1/1/2

vt -39.3701 52.8938
vn 3.63045e-016 -0.707107 -0.707107
v -0.5 0 0.5
vt -3.01981e-014 -2.78388
vt -3.66299e-014 52.8938
f 3/5/3 5/6/3 2/7/3

v 0.5 -1.3987e-015 0.5
vt -39.3701 -2.78388
f 5/6/3 3/5/3 6/8/3

usemtl BackColor
vn -3.63045e-016 0.707107 0.707107
f 6/8/4 3/5/4 5/6/4

usemtl FrontColor
vt 1.54542e-013 -3.93701
vn -1 3.05507e-015 5.14359e-015
vt -39.3701 39.3701
vt -39.3701 35.4331
f 6/9/5 1/10/5 3/11/5

v 0.5 -0.0707107 0.570711
vt 2.78388 -6.72089
f 7/12/5 1/10/5 6/9/5

v 0.5 -0.0207107 0.620711
vt 4.75239 -4.75239
f 1/10/5 7/12/5 8/13/5

usemtl M_0021_DarkRed
vn 1 -3.05507e-015 -5.14359e-015
f 8/13/6 7/12/6 1/10/6

vt 39.3701 -1.83853e-013
vn 1.31216e-016 -0.707107 0.707107
v -0.5 -0.0707107 0.570711
vt -5.16599e-016 -2.78388
vt 39.3701 -2.78388
f 8/14/7 9/15/7 7/16/7

v -0.5 -0.0207107 0.620711
vt 5.59615e-014 -3.86358e-014
f 9/15/7 8/14/7 10/17/7

usemtl BackColor
vn -1.31216e-016 0.707107 -0.707107
f 7/16/8 9/15/8 8/14/8

usemtl M_0021_DarkRed
vn -2.93678e-015 -0.707107 -0.707107
vt -39.3701 -6.72089
vt 1.15621e-014 -6.72089
f 5/6/9 7/18/9 9/19/9

f 7/18/9 5/6/9 6/8/9

usemtl BackColor
vn 2.93678e-015 0.707107 0.707107
f 9/19/10 7/18/10 5/6/10

f 6/8/10 5/6/10 7/18/10

usemtl M_0021_DarkRed
f 6/9/6 1/10/6 7/12/6

f 3/11/6 1/10/6 6/9/6

vn -1 5.66092e-015 4.40489e-015
vt -3.55271e-015 -3.93701
f 9/12/11 4/10/11 5/20/11

f 4/10/11 9/12/11 10/13/11

usemtl BackColor
vn 1 -5.66092e-015 -4.40489e-015
f 10/13/12 9/12/12 4/10/12

f 10/17/8 8/14/8 9/15/8

usemtl M_0020_Red
vt 39.3701 -6.72089
vn 5.91505e-016 0.707107 0.707107
v 0.2 0.1 0.5
vt 27.5591 3.79585e-015
vt 5.2868e-014 -6.72089
f 8/21/13 11/22/13 10/23/13

vt 39.3701 55.6777
f 11/22/13 8/21/13 1/24/13

usemtl BackColor
vn -5.91505e-016 -0.707107 -0.707107
f 10/23/14 11/22/14 8/21/14

usemtl M_0020_Red
v -0.2 0.1 0.5
vt 11.811 1.03548e-013
f 12/25/13 10/23/13 11/22/13

vt 8.97771e-014 55.6777
f 10/23/13 12/25/13 4/26/13

usemtl BackColor
f 4/26/14 12/25/14 10/23/14

usemtl M_0020_Red
v -0.320711 0.779289 -0.179289
vt 7.05863 37.8213
f 4/26/13 12/25/13 13/27/13

usemtl BackColor
f 13/27/14 12/25/14 4/26/14

usemtl M_0020_Red
v -0.270711 0.729289 -0.129289
vt 9.02714 35.0374
f 13/27/13 12/25/13 14/28/13

usemtl BackColor
f 14/28/14 12/25/14 13/27/14

usemtl M_0020_Red
v -0.2 0.8 -0.2
vt 11.811 38.9744
f 15/29/13 14/28/13 12/25/13

usemtl BackColor
f 12/25/14 14/28/14 15/29/14

usemtl FrontColor
vn -3.39331e-015 0.707107 0.707107
f 15/29/15 13/27/15 14/28/15

v -0.3 0.8 -0.2
vt 7.87402 38.9744
f 13/27/15 15/29/15 16/30/15

usemtl BackColor
vn 3.39331e-015 -0.707107 -0.707107
f 14/28/16 13/27/16 15/29/16

usemtl M_0021_DarkRed
vt -24.7752 11.1355
vn -0.707107 -0.707107 -1.85811e-016
v -0.320711 0.779289 0.6
vt 3.93701 13.9194
vt -26.7437 13.9194
f 14/31/17 17/32/17 13/33/17

v -0.270711 0.729289 0.6
vt 3.93701 11.1355
f 17/32/17 14/31/17 18/34/17

usemtl BackColor
vn 0.707107 0.707107 1.85811e-016
f 13/33/18 17/32/18 14/31/18

usemtl M_0020_Red
v -4.69242e-015 1.1 0.6
vt 3.93701 41.7583
vn -0.707107 0.707107 -9.46508e-016
vt -26.7437 23.9018
vt 3.93701 23.9018
f 19/35/19 13/36/19 17/37/19

vt -27.5591 25.055
f 13/36/19 19/35/19 16/38/19

usemtl BackColor
vn 0.707107 -0.707107 9.46508e-016
f 17/37/20 13/36/20 19/35/20

f 16/38/20 19/35/20 13/36/20

usemtl M_0020_Red
v -1.08287e-015 1.1 -0.5
vt -39.3701 41.7583
f 16/38/19 19/35/19 20/39/19

usemtl BackColor
f 20/39/20 19/35/20 16/38/20

usemtl FrontColor
vt -3.93701 39.3701
vn 1 5.39259e-015 2.93823e-015
v -3.60956e-016 1 0.5
vt 1.85737e-013 35.4331
f 19/40/21 21/41/21 20/1/21

v -4.69242e-015 1 0.6
vt -3.93701 35.4331
f 21/41/21 19/40/21 22/42/21

usemtl BackColor
vn -1 -5.39259e-015 -2.93823e-015
f 22/42/22 19/40/22 21/41/22

usemtl M_0021_DarkRed
v 0.2 0.8 0.6
vt 27.5591 27.5591
vn 2.89515e-014 1.01713e-014 1
vt 19.685 39.3701
vt 19.685 35.4331
f 23/43/23 19/44/23 22/45/23

v 0.320711 0.779289 0.6
vt 32.3114 26.7437
f 23/43/23 24/46/23 19/44/23

v 0.270711 0.729289 0.6
vt 30.3429 24.7752
f 24/46/23 23/43/23 25/47/23

usemtl BackColor
vn -2.89515e-014 -1.01713e-014 -1
f 25/47/24 23/43/24 24/46/24

usemtl FrontColor
vt -3.93701 -3.93701
vn 0.707107 0.707107 -3.2875e-015
v 0.2 0.8 0.5
vt -2.30609e-016 -2.29861e-012
vt -3.93701 -2.23466e-012
f 25/48/25 26/49/25 23/50/25

v 0.2 0.8 -0.2
vt 27.5591 -2.41229e-012
f 26/49/25 25/48/25 27/51/25

usemtl M_0021_DarkRed
vn -0.707107 -0.707107 3.2875e-015
f 23/50/26 26/49/26 25/48/26

vt 3.93701 -4.26326e-014
vn -0.707107 -0.707107 -4.8606e-014
vt -1.48103e-012 11.1355
vt -2.02229e-012 9.9476e-014
f 23/52/27 21/53/27 26/54/27

f 21/53/27 23/52/27 22/34/27

usemtl BackColor
vn 0.707107 0.707107 4.8606e-014
f 22/34/28 23/52/28 21/53/28

f 22/45/24 19/44/24 23/43/24

usemtl M_0021_DarkRed
vn -7.09179e-017 2.4993e-015 1
v -0.2 0.8 0.6
vt 11.811 27.5591
f 19/44/29 28/55/29 22/45/29

vt 7.05863 26.7437
f 17/56/29 28/55/29 19/44/29

vt 9.02714 24.7752
f 28/55/29 17/56/29 18/57/29

usemtl BackColor
vn 7.09179e-017 -2.4993e-015 -1
f 18/57/30 17/56/30 28/55/30

f 18/34/18 14/31/18 17/32/18

usemtl M_0021_DarkRed
v -0.2 0.8 0.5
vt 1.1486e-013 27.8388
vn 0.707107 -0.707107 7.02321e-017
vt -3.93701 23.9018
vt 24.7752 23.9018
f 29/58/31 18/59/31 14/60/31

vt -3.93701 27.8388
f 18/59/31 29/58/31 28/61/31

usemtl BackColor
vn -0.707107 0.707107 -7.02321e-017
f 28/61/32 29/58/32 18/59/32

usemtl M_0021_DarkRed
vt 1.79743e-013 27.8388
vn 0.707107 -0.707107 3.95466e-015
vt -3.93701 38.9744
f 29/62/33 22/63/33 28/61/33

vt 2.37991e-013 38.9744
f 22/63/33 29/62/33 21/64/33

usemtl BackColor
vn -0.707107 0.707107 -3.95466e-015
f 28/61/34 22/63/34 29/62/34

f 22/45/30 28/55/30 19/44/30

f 19/44/30 28/55/30 17/56/30

f 21/64/34 29/62/34 22/63/34

usemtl FrontColor
vt -1.20203e-013 38.9744
vn -0.707107 0.707107 2.76391e-016
v -0.2 0.8 0.25
vt -9.84252 27.8388
vt -1.0907e-013 27.8388
f 21/65/35 30/66/35 29/67/35

v -2.52669e-015 1 -0.4
vt -35.4331 38.9744
f 30/66/35 21/65/35 31/68/35

usemtl BackColor
vn 0.707107 -0.707107 -2.76391e-016
f 29/67/36 30/66/36 21/65/36

usemtl FrontColor
vt 27.5591 1.01193e-013
vn -3.81547e-016 1 -9.69009e-016
vt 11.811 9.84252
vt 11.811 8.69819e-014
f 26/69/37 30/70/37 29/71/37

f 30/70/37 26/69/37 15/55/37

usemtl M_0021_DarkRed
vn 3.81547e-016 -1 9.69009e-016
f 29/71/38 30/70/38 26/69/38

vt 9.84252 27.8388
f 29/58/31 14/60/31 30/72/31

usemtl BackColor
f 14/60/32 18/59/32 29/58/32

f 30/72/32 14/60/32 29/58/32

usemtl M_0021_DarkRed
vt 27.5591 27.8388
f 30/72/31 14/60/31 15/73/31

usemtl BackColor
f 15/73/32 14/60/32 30/72/32

usemtl M_0021_DarkRed
f 15/55/38 26/69/38 30/70/38

usemtl FrontColor
f 15/55/37 26/69/37 27/43/37

usemtl M_0021_DarkRed
f 27/43/38 26/69/38 15/55/38

usemtl FrontColor
vt 27.5591 -4.26326e-014
vn 0.707107 0.707107 -1.49944e-015
vt 8.61551e-014 11.1355
vt 6.94581e-014 1.77636e-014
f 27/74/39 21/75/39 26/76/39

vt 35.4331 11.1355
f 21/75/39 27/74/39 31/77/39

usemtl BackColor
vn -0.707107 -0.707107 1.49944e-015
f 31/77/40 27/74/40 21/75/40

usemtl FrontColor
vt 27.5591 38.9744
vn -1.00072e-014 0.707107 0.707107
vt 19.685 55.6777
vt 19.685 50.1099
f 27/78/41 20/79/41 31/80/41

v 0.320711 0.779289 -0.179289
vt 32.3114 37.8213
f 20/79/41 27/78/41 32/81/41

usemtl BackColor
vn 1.00072e-014 -0.707107 -0.707107
f 31/80/42 20/79/42 27/78/42

usemtl FrontColor
vt 35.4331 35.4331
f 20/1/21 21/41/21 31/82/21

usemtl BackColor
f 20/1/22 21/41/22 19/40/22

f 31/82/22 21/41/22 20/1/22

f 31/68/36 21/65/36 30/66/36

usemtl FrontColor
vt -27.5591 27.8388
f 30/66/35 31/68/35 15/83/35

usemtl BackColor
f 15/83/36 31/68/36 30/66/36

usemtl FrontColor
vn 6.3719e-016 0.707107 0.707107
f 31/80/43 16/30/43 15/29/43

f 16/30/43 31/80/43 20/79/43

usemtl BackColor
vn -6.3719e-016 -0.707107 -0.707107
f 15/29/44 16/30/44 31/80/44

usemtl M_0020_Red
f 15/29/13 1/24/13 16/30/13

f 27/78/13 1/24/13 15/29/13

f 11/22/13 1/24/13 27/78/13

usemtl BackColor
f 1/24/14 8/21/14 11/22/14

f 27/78/14 1/24/14 11/22/14

f 15/29/14 1/24/14 27/78/14

f 16/30/14 1/24/14 15/29/14

usemtl M_0020_Red
f 4/26/13 16/30/13 1/24/13

f 4/26/13 13/27/13 16/30/13

usemtl BackColor
f 16/30/14 13/27/14 4/26/14

f 16/30/16 15/29/16 13/27/16

f 1/24/14 16/30/14 4/26/14

usemtl FrontColor
f 4/4/1 1/1/1 20/44/1

usemtl M_0021_DarkRed
f 4/4/2 1/1/2 2/2/2

f 20/44/2 1/1/2 4/4/2

usemtl M_0020_Red
f 4/26/13 1/24/13 20/79/13

usemtl BackColor
f 20/79/14 1/24/14 4/26/14

usemtl M_0021_DarkRed
f 5/20/11 4/10/11 2/11/11

usemtl BackColor
f 5/20/12 4/10/12 9/12/12

f 2/11/12 4/10/12 5/20/12

f 2/7/4 5/6/4 3/5/4

usemtl M_0021_DarkRed
vn -2.41496e-015 0.707107 0.707107
vt 27.5591 8.66513e-014
f 15/29/45 11/84/45 27/78/45

vt 11.811 1.39058e-013
f 11/84/45 15/29/45 12/85/45

usemtl BackColor
vn 2.41496e-015 -0.707107 -0.707107
f 12/85/46 15/29/46 11/84/46

usemtl M_0042_Sienna
v -0.2 0.45 0.5
vt -1.59434e-013 13.7795
vn -1 0 -2.63678e-016
vt -27.5591 27.5591
vt -4.57469e-014 1.13687e-013
f 33/86/47 15/87/47 12/88/47

vt -9.84252 27.5591
f 15/87/47 33/86/47 30/89/47

usemtl BackColor
vn 1 -0 2.63678e-016
f 12/88/48 15/87/48 33/86/48

f 30/89/48 33/86/48 15/87/48

usemtl M_0042_Sienna
vt -1.16801e-013 27.5591
f 30/89/47 33/86/47 29/90/47

usemtl BackColor
f 29/90/48 33/86/48 30/89/48

usemtl M_0042_Sienna
vt 11.811 13.7795
vn -1.88918e-015 -2.31023e-015 1
v -0.17 0.479502 0.5
vt 12.9921 14.941
f 33/91/49 34/92/49 29/55/49

v 0.17 0.479502 0.5
vt 26.378 14.941
f 34/92/49 33/91/49 35/93/49

usemtl BackColor
vn 1.88918e-015 2.31023e-015 -1
f 29/55/50 34/92/50 33/91/50

usemtl M_0042_Sienna
v -0.17 0.77 0.5
vt 12.9921 26.378
f 29/55/49 34/92/49 36/94/49

usemtl BackColor
f 36/94/50 34/92/50 29/55/50

usemtl M_0042_Sienna
v -0.17 0.479502 0.48
vt 0.787402 14.941
vn 1 0 2.63678e-016
vt 1.17113e-013 26.378
vt 7.448e-014 14.941
f 37/95/51 36/96/51 34/97/51

v -0.17 0.77 0.48
vt 0.787402 26.378
f 36/96/51 37/95/51 38/98/51

usemtl BackColor
vn -1 -0 -2.63678e-016
f 34/97/52 36/96/52 37/95/52

f 38/98/52 37/95/52 36/96/52

usemtl M_0045_Goldenrod
vn -2.63678e-016 3.72763e-015 1
v -0.15 0.499955 0.48
vt 13.7795 15.7463
f 37/92/53 39/99/53 38/94/53

v 0.01 0.499713 0.48
vt 20.0787 15.7367
f 39/99/53 37/92/53 40/100/53

usemtl BackColor
vn 2.63678e-016 -3.72763e-015 -1
f 38/94/54 39/99/54 37/92/54

usemtl M_0045_Goldenrod
v -0.15 0.614977 0.48
vt 13.7795 20.2747
f 38/94/53 39/99/53 41/101/53

usemtl BackColor
f 41/101/54 39/99/54 38/94/54

usemtl M_0045_Goldenrod
v -0.15 0.499955 0.46
vt 1.5748 15.7463
vn 1 0 7.99608e-015
vt 0.787402 20.2747
vt 0.787402 15.7463
f 42/102/55 41/103/55 39/104/55

v -0.15 0.614977 0.46
vt 1.5748 20.2747
f 41/103/55 42/102/55 43/105/55

usemtl BackColor
vn -1 -0 -7.99608e-015
f 39/104/56 41/103/56 42/102/56

f 43/105/56 42/102/56 41/103/56

usemtl M_0094_PowderBlue
vn -7.99608e-015 3.13812e-015 1
v -0.01 0.614977 0.46
vt 19.2913 20.2747
f 42/99/57 44/106/57 43/101/57

v -0.01 0.499744 0.46
vt 19.2913 15.7379
f 44/106/57 42/99/57 45/107/57

usemtl BackColor
vn 7.99608e-015 -3.13812e-015 -1
f 45/107/58 42/99/58 44/106/58

usemtl M_0045_Goldenrod
vt 0.787402 -13.7558
vn 0.00150825 0.999999 -3.12606e-015
vt 1.5748 -19.2676
vt 1.5748 -13.7558
f 39/108/59 45/109/59 42/110/59

v -0.01 0.499744 0.48
vt 0.787402 -19.2676
f 45/109/59 39/108/59 46/111/59

usemtl BackColor
vn -0.00150825 -0.999999 3.12606e-015
f 42/110/60 45/109/60 39/108/60

f 46/111/60 39/108/60 45/109/60

usemtl M_0045_Goldenrod
f 39/99/53 40/100/53 46/107/53

usemtl BackColor
f 40/100/54 37/92/54 39/99/54

usemtl M_0045_Goldenrod
v 0.15 0.499502 0.48
vt 25.5906 15.7284
f 40/100/53 37/92/53 47/112/53

usemtl BackColor
f 47/112/54 37/92/54 40/100/54

usemtl M_0045_Goldenrod
v 0.17 0.479502 0.48
f 48/93/53 47/112/53 37/92/53

v 0.17 0.77 0.48
vt 26.378 26.378
f 47/112/53 48/93/53 49/113/53

usemtl BackColor
f 37/92/54 47/112/54 48/93/54

f 49/113/54 48/93/54 47/112/54

usemtl M_0042_Sienna
vt -0.787402 14.941
v 0.17 0.77 0.5
vt -6.37987e-014 26.378
vt -0.787402 26.378
f 48/114/47 50/115/47 49/116/47

vt -6.95528e-015 14.941
f 50/115/47 48/114/47 35/117/47

usemtl BackColor
f 35/117/48 48/114/48 50/115/48

usemtl M_0042_Sienna
vt 12.9921 0.787402
vn 9.82893e-031 1 -3.72763e-015
vt 26.378 -5.56946e-014
vt 26.378 0.787402
f 37/118/61 35/119/61 48/120/61

vt 12.9921 1.53597e-014
f 35/119/61 37/118/61 34/121/61

usemtl BackColor
vn -9.82893e-031 -1 3.72763e-015
f 34/121/62 37/118/62 35/119/62

f 48/120/62 35/119/62 37/118/62

f 35/93/50 33/91/50 34/92/50

usemtl M_0042_Sienna
v 0.2 0.45 0.5
vt 27.5591 13.7795
f 51/122/49 35/93/49 33/91/49

v 0.2 0.64 0.5
vt 27.5591 21.2598
f 35/93/49 51/122/49 52/123/49

usemtl BackColor
f 33/91/50 35/93/50 51/122/50

f 52/123/50 51/122/50 35/93/50

usemtl M_0042_Sienna
vt 1.78197e-013 13.7795
vn 1 6.30172e-016 1.30948e-015
vt 1.63986e-013 27.5591
vt 5.02988e-014 21.2598
f 51/124/63 26/125/63 52/126/63

f 26/125/63 51/124/63 27/43/63

usemtl BackColor
vn -1 -6.30172e-016 -1.30948e-015
f 52/126/64 26/125/64 51/124/64

usemtl M_0042_Sienna
f 50/113/49 52/123/49 26/43/49

f 35/93/49 52/123/49 50/113/49

usemtl BackColor
f 50/113/50 52/123/50 35/93/50

f 26/43/50 52/123/50 50/113/50

usemtl M_0042_Sienna
f 50/113/49 26/43/49 36/94/49

usemtl BackColor
f 36/94/50 26/43/50 50/113/50

usemtl M_0042_Sienna
f 29/55/49 36/94/49 26/43/49

usemtl BackColor
f 26/43/50 36/94/50 29/55/50

usemtl M_0042_Sienna
vn 1.5411e-015 -6.51527e-030 1
f 21/45/65 29/55/65 26/43/65

usemtl BackColor
vn -1.5411e-015 6.51527e-030 -1
f 26/43/66 29/55/66 21/45/66

f 26/76/40 21/75/40 27/74/40

f 26/54/28 21/53/28 23/52/28

usemtl M_0021_DarkRed
f 27/51/26 25/48/26 26/49/26

usemtl FrontColor
v 0.270711 0.729289 -0.129289
vt 24.7752 -3.93701
f 27/51/25 25/48/25 53/127/25

usemtl M_0021_DarkRed
f 53/127/26 25/48/26 27/51/26

vt 26.7437 41.7583
vn 0.707107 -0.707107 -1.29648e-016
vt 24.7752 38.9744
f 32/128/67 25/63/67 53/129/67

vt -3.93701 41.7583
f 25/63/67 32/128/67 24/130/67

usemtl BackColor
vn -0.707107 0.707107 1.29648e-016
f 53/129/68 25/63/68 32/128/68

f 24/130/68 32/128/68 25/63/68

usemtl FrontColor
vt 3.93701 -3.93701
vn -0.707107 -0.707107 1.65235e-015
vt -39.3701 13.9194
vt -26.7437 -3.93701
f 24/131/69 20/132/69 32/133/69

f 20/132/69 24/131/69 19/32/69

usemtl M_0020_Red
vn 0.707107 0.707107 -1.65235e-015
f 19/32/70 24/131/70 20/132/70

usemtl BackColor
f 19/44/24 24/46/24 23/43/24

usemtl M_0020_Red
f 32/133/70 20/132/70 24/131/70

usemtl BackColor
f 32/81/42 27/78/42 20/79/42

usemtl FrontColor
vt 30.3429 35.0374
f 32/81/41 27/78/41 53/134/41

usemtl BackColor
f 53/134/42 27/78/42 32/81/42

f 27/43/64 51/124/64 26/125/64

usemtl M_0042_Sienna
vt -4.91771e-014 9.63199e-014
f 27/43/63 51/124/63 11/135/63

usemtl BackColor
f 11/135/64 51/124/64 27/43/64

usemtl M_0042_Sienna
vn -3.87324e-015 1.23756e-014 1
vt 11.811 1.13687e-013
vt 27.5591 1.13687e-013
f 51/122/71 12/136/71 11/137/71

f 12/136/71 51/122/71 33/91/71

usemtl BackColor
vn 3.87324e-015 -1.23756e-014 -1
f 11/137/72 12/136/72 51/122/72

f 11/22/14 10/23/14 12/25/14

f 33/91/72 51/122/72 12/136/72

f 27/78/46 11/84/46 15/29/46

usemtl M_0042_Sienna
vt -12.9921 1.53597e-014
vn 2.97448e-030 -1 3.72763e-015
vt -26.378 0.787402
vt -26.378 -4.14837e-014
f 36/138/73 49/139/73 50/140/73

vt -12.9921 0.787402
f 49/139/73 36/138/73 38/141/73

usemtl BackColor
vn -2.97448e-030 1 -3.72763e-015
f 38/141/74 36/138/74 49/139/74

f 50/140/74 49/139/74 36/138/74

f 49/116/48 50/115/48 48/114/48

usemtl M_0045_Goldenrod
v -0.15 0.75 0.48
vt 13.7795 25.5906
f 38/94/53 54/142/53 49/113/53

v -0.15 0.634977 0.48
vt 13.7795 21.0621
f 38/94/53 55/143/53 54/142/53

f 38/94/53 41/101/53 55/143/53

usemtl BackColor
f 55/143/54 41/101/54 38/94/54

usemtl M_0045_Goldenrod
v 0.15 0.634977 0.48
vt 25.5906 21.0621
f 55/143/53 41/101/53 56/144/53

usemtl BackColor
f 56/144/54 41/101/54 55/143/54

usemtl M_0045_Goldenrod
v -0.01 0.614977 0.48
f 57/106/53 56/144/53 41/101/53

v 0.01 0.614977 0.48
vt 20.0787 20.2747
f 58/145/53 56/144/53 57/106/53

v 0.15 0.614977 0.48
vt 25.5906 20.2747
f 59/146/53 56/144/53 58/145/53

f 59/146/53 49/113/53 56/144/53

f 47/112/53 49/113/53 59/146/53

usemtl BackColor
f 59/146/54 49/113/54 47/112/54

f 56/144/54 49/113/54 59/146/54

usemtl M_0045_Goldenrod
v 0.15 0.75 0.48
vt 25.5906 25.5906
f 56/144/53 49/113/53 60/147/53

usemtl BackColor
f 60/147/54 49/113/54 56/144/54

usemtl M_0045_Goldenrod
v 0.01 0.75 0.48
vt 20.0787 25.5906
f 60/147/53 49/113/53 61/148/53

usemtl BackColor
f 61/148/54 49/113/54 60/147/54

usemtl M_0045_Goldenrod
v -0.01 0.75 0.48
vt 19.2913 25.5906
f 61/148/53 49/113/53 62/149/53

usemtl BackColor
f 62/149/54 49/113/54 61/148/54

usemtl M_0045_Goldenrod
f 62/149/53 49/113/53 54/142/53

usemtl BackColor
f 54/142/54 49/113/54 62/149/54

f 49/113/54 54/142/54 38/94/54

f 54/142/54 55/143/54 38/94/54

usemtl M_0045_Goldenrod
vt 0.787402 21.0621
vn 1 3.13813e-015 1.72462e-015
v -0.15 0.75 0.46
vt 1.5748 25.5906
vt 0.787402 25.5906
f 55/150/75 63/151/75 54/152/75

v -0.15 0.634977 0.46
vt 1.5748 21.0621
f 63/151/75 55/150/75 64/153/75

usemtl BackColor
vn -1 -3.13813e-015 -1.72462e-015
f 54/152/76 63/151/76 55/150/76

usemtl M_0045_Goldenrod
v -0.01 0.75 0.46
vt -19.2913 1.5748
vn -4.98012e-031 -1 1.88871e-015
vt -13.7795 0.787402
vt -13.7795 1.5748
f 65/154/77 54/155/77 63/156/77

vt -19.2913 0.787402
f 54/155/77 65/154/77 62/157/77

usemtl BackColor
vn 4.98012e-031 1 -1.88871e-015
f 63/156/78 54/155/78 65/154/78

f 62/157/78 65/154/78 54/155/78

usemtl M_0045_Goldenrod
v -0.01 0.63499 0.46
vt -1.5748 21.0626
vn -1 -4.58512e-030 -1.72462e-015
vt -0.787402 25.5906
vt -1.5748 25.5906
f 66/158/79 62/159/79 65/160/79

v -0.01 0.63499 0.48
vt -0.787402 21.0626
f 62/159/79 66/158/79 67/161/79

usemtl BackColor
vn 1 4.58512e-030 1.72462e-015
f 67/161/80 66/158/80 62/159/80

usemtl M_0045_Goldenrod
vt 19.2933 1.5748
vn -9.226e-005 1 -2.0363e-020
vt 13.7815 0.787402
vt 19.2933 0.787402
f 66/162/81 55/163/81 67/164/81

vt 13.7815 1.5748
f 55/163/81 66/162/81 64/165/81

usemtl BackColor
vn 9.226e-005 -1 2.0363e-020
f 64/165/82 66/162/82 55/163/82

usemtl M_0094_PowderBlue
vt 19.2913 21.0626
vn -1.72462e-015 1.88871e-015 1
f 66/166/83 63/142/83 64/143/83

f 63/142/83 66/166/83 65/149/83

usemtl BackColor
vn 1.72462e-015 -1.88871e-015 -1
f 64/143/84 63/142/84 66/166/84

f 64/153/76 55/150/76 63/151/76

f 65/149/84 66/166/84 63/142/84

f 65/160/80 62/159/80 66/158/80

f 67/164/82 55/163/82 66/162/82

usemtl M_0045_Goldenrod
v 0.01 0.634989 0.48
vt 20.0787 21.0625
f 55/143/53 68/167/53 67/166/53

f 68/167/53 55/143/53 56/144/53

usemtl BackColor
f 56/144/54 55/143/54 68/167/54

f 67/166/54 68/167/54 55/143/54

usemtl M_0045_Goldenrod
f 67/166/53 68/167/53 61/148/53

usemtl BackColor
f 61/148/54 68/167/54 67/166/54

usemtl M_0045_Goldenrod
v 0.01 0.634989 0.46
vt 1.5748 21.0625
vn 1 -4.04604e-030 -1.02551e-015
vt 0.787402 21.0625
f 69/168/85 61/152/85 68/169/85

v 0.01 0.75 0.46
f 61/152/85 69/168/85 70/151/85

usemtl BackColor
vn -1 4.04604e-030 1.02551e-015
f 68/169/86 61/152/86 69/168/86

f 70/151/86 69/168/86 61/152/86

usemtl M_0094_PowderBlue
vn 1.02551e-015 1.56906e-015 1
v 0.15 0.75 0.46
f 69/167/87 71/147/87 70/148/87

v 0.15 0.634977 0.46
f 71/147/87 69/167/87 72/144/87

usemtl BackColor
vn -1.02551e-015 -1.56906e-015 -1
f 72/144/88 69/167/88 71/147/88

usemtl M_0045_Goldenrod
vt 20.077 0.787402
vn 8.07275e-005 1 -1.56915e-015
vt 25.5889 1.5748
vt 20.077 1.5748
f 68/170/89 72/171/89 69/172/89

vt 25.5889 0.787402
f 72/171/89 68/170/89 56/173/89

usemtl BackColor
vn -8.07275e-005 -1 1.56915e-015
f 69/172/90 72/171/90 68/170/90

f 56/173/90 68/170/90 72/171/90

usemtl M_0045_Goldenrod
vt -0.787402 21.0621
vn -1 0 1.02551e-015
vt -1.5748 21.0621
f 56/174/91 71/160/91 72/175/91

f 71/160/91 56/174/91 60/159/91

usemtl BackColor
vn 1 -0 -1.02551e-015
f 60/159/92 56/174/92 71/160/92

f 72/175/92 71/160/92 56/174/92

usemtl M_0045_Goldenrod
vt -20.0787 0.787402
vn 3.63172e-030 -1 1.56906e-015
vt -25.5906 1.5748
vt -25.5906 0.787402
f 61/176/93 71/177/93 60/178/93

vt -20.0787 1.5748
f 71/177/93 61/176/93 70/179/93

usemtl BackColor
vn -3.63172e-030 1 -1.56906e-015
f 70/179/94 61/176/94 71/177/94

f 60/178/94 71/177/94 61/176/94

f 70/148/88 71/147/88 69/167/88

usemtl M_0045_Goldenrod
f 67/166/53 61/148/53 62/149/53

usemtl BackColor
f 62/149/54 61/148/54 67/166/54

f 58/145/54 56/144/54 59/146/54

f 57/106/54 56/144/54 58/145/54

f 41/101/54 56/144/54 57/106/54

usemtl M_0045_Goldenrod
vn -1.70092e-029 -1 3.13812e-015
f 41/155/95 44/154/95 57/157/95

f 44/154/95 41/155/95 43/156/95

usemtl BackColor
vn 1.70092e-029 1 -3.13812e-015
f 43/156/96 41/155/96 44/154/96

f 57/157/96 44/154/96 41/155/96

usemtl M_0045_Goldenrod
vt -1.5748 15.7379
vn -1 -4.84416e-029 -7.99608e-015
vt -0.787402 20.2747
vt -1.5748 20.2747
f 45/180/97 57/181/97 44/182/97

vt -0.787402 15.7379
f 57/181/97 45/180/97 46/183/97

usemtl BackColor
vn 1 4.84416e-029 7.99608e-015
f 46/183/98 45/180/98 57/181/98

f 44/182/98 57/181/98 45/180/98

usemtl M_0045_Goldenrod
f 46/107/53 58/145/53 57/106/53

f 58/145/53 46/107/53 40/100/53

usemtl BackColor
f 40/100/54 46/107/54 58/145/54

f 46/107/54 40/100/54 39/99/54

f 57/106/54 58/145/54 46/107/54

usemtl M_0045_Goldenrod
v 0.01 0.499713 0.46
vt 1.5748 15.7367
vn 1 0 2.58955e-016
vt 0.787402 15.7367
f 73/184/99 58/103/99 40/185/99

v 0.01 0.614977 0.46
f 58/103/99 73/184/99 74/105/99

usemtl BackColor
vn -1 -0 -2.58955e-016
f 40/185/100 58/103/100 73/184/100

f 74/105/100 73/184/100 58/103/100

usemtl M_0094_PowderBlue
vn -2.58955e-016 6.26311e-015 1
v 0.15 0.614977 0.46
f 73/100/101 75/146/101 74/145/101

v 0.15 0.499502 0.46
f 75/146/101 73/100/101 76/112/101

usemtl BackColor
vn 2.58955e-016 -6.26311e-015 -1
f 76/112/102 73/100/102 75/146/102

usemtl M_0045_Goldenrod
vt 1.5748 -20.055
vn 0.00150825 0.999999 -6.26271e-015
vt 0.787402 -25.5668
vt 1.5748 -25.5668
f 73/186/103 47/187/103 76/188/103

vt 0.787402 -20.055
f 47/187/103 73/186/103 40/189/103

usemtl BackColor
vn -0.00150825 -0.999999 6.26271e-015
f 40/189/104 73/186/104 47/187/104

f 76/188/104 47/187/104 73/186/104

usemtl M_0045_Goldenrod
vn -1 5.90554e-032 -2.58955e-016
vt -1.5748 15.7284
vt -0.787402 15.7284
f 59/181/105 76/190/105 47/191/105

f 76/190/105 59/181/105 75/182/105

usemtl BackColor
vn 1 -5.90554e-032 2.58955e-016
f 47/191/106 76/190/106 59/181/106

f 75/182/106 59/181/106 76/190/106

usemtl M_0045_Goldenrod
vn 3.06443e-029 -1 6.26311e-015
f 58/176/107 75/177/107 59/178/107

f 75/177/107 58/176/107 74/179/107

usemtl BackColor
vn -3.06443e-029 1 -6.26311e-015
f 74/179/108 58/176/108 75/177/108

f 59/178/108 75/177/108 58/176/108

f 74/145/102 75/146/102 73/100/102

f 43/101/58 44/106/58 42/99/58

f 20/79/44 31/80/44 16/30/44

