# Alias OBJ Model File
# Exported from SketchUp, (c) 2000-2012 Trimble Navigation Limited
# File units = meters

mtllib roof_small_side.mtl

g Mesh1 sloped_roof_8_1 Model

usemtl M_0024_OrangeRed
v 0.5 0.5 -0.5
vt 1.35446e-014 42.2564
vn 0.447214 -0.894427 1.77128e-015
v -0.5 3.60956e-016 0.5
vt -39.3701 -1.76068
v -0.5 -1.12799e-017 -0.5
vt -1.42109e-014 -1.76068
f 1/1/1 2/2/1 3/3/1

v 0.5 0.5 0.5
vt -39.3701 42.2564
f 2/2/1 1/1/1 4/4/1

vn -0.447214 0.894427 -1.77128e-015
f 3/3/2 2/2/2 1/1/2

v -0.589443 -0.0447214 0.5
vt -39.3701 -5.69769
vn 0.447214 -0.894427 1.77948e-015
f 5/5/3 3/3/3 2/2/3

v -0.589443 -0.0447214 -0.5
vt -4.91729e-015 -5.69769
f 3/3/3 5/5/3 6/6/3

vn -0.447214 0.894427 -1.77948e-015
f 6/6/4 5/5/4 3/3/4

vt -1.06581e-014 -3.52137
vn 2.25597e-016 1 1.22022e-030
v -0.789443 -0.0447214 0.5
vt 39.3701 -11.3954
vt 39.3701 -3.52137
f 6/7/5 7/8/5 5/9/5

v -0.789443 -0.0447214 -0.5
vt -1.77636e-014 -11.3954
f 7/8/5 6/7/5 8/10/5

vn -2.25597e-016 -1 -1.22022e-030
f 8/10/6 6/7/6 7/8/6

v 0.5 0.6 -0.5
vt -39.3701 19.685
vn 2.09093e-015 2.42378e-015 -1
vt 3.52137 -5.69769
vt 11.3954 -5.69769
f 9/11/7 6/12/7 8/13/7

vt 1.42109e-013 -3.93701
f 6/12/7 9/11/7 3/14/7

vn -2.09093e-015 -2.42378e-015 1
f 8/13/8 6/12/8 9/11/8

f 3/14/8 9/11/8 6/12/8

vt -39.3701 15.748
f 3/14/7 9/11/7 1/15/7

f 1/15/8 9/11/8 3/14/8

vt -1.44574e-013 19.685
vn 1 0 -5.55112e-017
vt -1.44574e-013 15.748
f 9/16/9 4/15/9 1/17/9

v 0.5 0.6 0.5
f 4/15/9 9/16/9 10/11/9

vn -1 -0 5.55112e-017
f 1/17/10 4/15/10 9/16/10

f 4/4/2 1/1/2 2/2/2

vt -1.46056e-014 -3.93701
vn 5.61195e-015 -5.01096e-015 -1
f 2/18/11 10/11/11 4/15/11

f 5/12/11 10/11/11 2/18/11

f 10/11/11 5/12/11 7/13/11

vn -5.61195e-015 5.01096e-015 1
f 7/13/12 5/12/12 10/11/12

f 5/9/6 7/8/6 6/7/6

f 2/18/12 10/11/12 5/12/12

f 4/15/12 10/11/12 2/18/12

f 10/11/10 9/16/10 4/15/10

vt -7.12975e-014 44.0171
vn -0.447214 0.894427 -2.4273e-015
vt 39.3701 -12.7404
vt 39.3701 44.0171
f 9/19/13 7/20/13 10/21/13

vt 4.91468e-014 -12.7404
f 7/20/13 9/19/13 8/22/13

vn 0.447214 -0.894427 2.4273e-015
f 8/22/14 9/19/14 7/20/14

f 10/21/14 7/20/14 9/19/14

f 2/2/4 3/3/4 5/5/4

