# Alias OBJ Model File
# Exported from SketchUp, (c) 2000-2012 Trimble Navigation Limited
# File units = meters

mtllib roof_small_gable_middle_roof.mtl

g Mesh1 Group1 Model

usemtl M_0024_OrangeRed
v 0.5 0.1 -0.35
vt 39.3701 3.05799e-044
vn 5.77529e-015 8.60746e-030 1
v 1.53406e-015 0.25 -0.35
vt 19.685 5.90551
v 0.5 3.38396e-017 -0.35
vt 39.3701 -3.93701
f 1/1/1 2/2/1 3/3/1

v 1.53406e-015 0.35 -0.35
vt 19.685 9.84252
f 2/2/1 1/1/1 4/4/1

vn -5.77529e-015 -8.60746e-030 -1
f 3/3/2 2/2/2 1/1/2

vt 3.61666e-014 -14.9658
vn -0.447214 -0.894427 3.48515e-015
v 0.5 3.38396e-017 -0.45
vt -3.93701 -36.9744
vt 7.5886e-014 -36.9744
f 2/5/3 5/6/3 3/7/3

v 2.70717e-016 0.25 -0.45
vt -3.93701 -14.9658
f 5/6/3 2/5/3 6/8/3

vn 0.447214 0.894427 -3.48515e-015
f 6/8/4 2/5/4 5/6/4

v -0.5 3.38396e-017 -0.35
vt 3.55271e-015 -1.76068
vn 0.447214 -0.894427 -2.05009e-015
vt 3.93701 20.2479
vt 2.70006e-014 20.2479
f 7/9/5 6/10/5 2/11/5

v -0.5 3.38396e-017 -0.45
vt 3.93701 -1.76068
f 6/10/5 7/9/5 8/12/5

vn -0.447214 0.894427 2.05009e-015
f 8/12/6 7/9/6 6/10/6

vt -3.55271e-015 -3.93701
vn -1 0 -0
v -0.5 0.1 -0.55
vt -7.87402 0
vt -3.93701 -3.93701
f 7/13/7 9/14/7 8/15/7

v -0.5 0.1 -0.35
vt -3.55271e-015 0
f 9/14/7 7/13/7 10/16/7

vn 1 -0 0
f 10/16/8 7/13/8 9/14/8

vn 5.77529e-015 0 1
vt 2.0518e-029 0
vt 2.0518e-029 -3.93701
f 2/2/9 10/17/9 7/18/9

f 10/17/9 2/2/9 4/4/9

vn -5.77529e-015 -0 -1
f 7/18/10 10/17/10 2/2/10

vt 1.04193e-029 -2.23974e-045
vn 2.93277e-015 -6.3043e-031 1
v -0.7 4.51195e-017 -0.35
vt -7.87402 -3.93701
vt 1.04193e-029 -3.93701
f 10/19/11 11/20/11 7/21/11

vn -2.93277e-015 6.3043e-031 -1
f 7/21/12 11/20/12 10/19/12

v -0.7 5.63993e-017 -0.55
vt 7.87402 7.87402
vn -9.86988e-017 -1 -4.22995e-017
vt -3.88578e-016 3.38618e-015
vt 7.87402 -1.97065e-014
f 12/22/13 7/23/13 11/24/13

v -0.5 3.38396e-017 -0.55
vt -3.88578e-016 7.87402
f 7/23/13 12/22/13 13/25/13

vn 9.86988e-017 1 4.22995e-017
f 11/24/14 7/23/14 12/22/14

f 13/25/14 12/22/14 7/23/14

vt -3.55271e-015 -7.10543e-015
vn -4.51195e-016 9.02389e-016 -1
vt 7.87402 -3.93701
f 9/26/15 13/13/15 12/27/15

f 8/15/7 9/14/7 13/20/7

f 8/15/8 9/14/8 7/13/8

f 13/20/8 9/14/8 8/15/8

vt -7.10543e-016 -5.29896e-014
vn -9.02389e-017 6.72968e-015 -1
v -9.02389e-016 0.25 -0.55
vt -19.685 5.90551
vt -7.10543e-016 -3.93701
f 9/28/16 14/29/16 13/30/16

v 3.60956e-016 0.35 -0.55
vt -19.685 9.84252
f 14/29/16 9/28/16 15/31/16

vn 9.02389e-017 -6.72968e-015 1
f 13/30/17 14/29/17 9/28/17

vt 7.87402 20.2479
vn 0.447214 -0.894427 -2.2551e-015
vt 7.87402 -1.76068
f 14/32/18 8/12/18 13/33/18

f 8/12/18 14/32/18 6/10/18

vn -0.447214 0.894427 2.2551e-015
f 13/33/19 8/12/19 14/32/19

usemtl M_0042_Sienna
v 0.5 3.38396e-017 -0.55
vt -39.3701 7.87402
vn 0 -1 -0
vt 0 3.93701
vt 0 7.87402
f 16/34/20 8/35/20 13/36/20

vt -39.3701 3.93701
f 8/35/20 16/34/20 5/37/20

usemtl M_0024_OrangeRed
vn -0 1 0
f 13/36/21 8/35/21 16/34/21

vt -3.88578e-016 3.93701
f 7/23/13 13/25/13 8/38/13

f 8/38/14 13/25/14 7/23/14

f 5/37/21 16/34/21 8/35/21

vn -0.447214 -0.894427 3.38265e-015
vt -7.87402 -36.9744
f 6/8/22 16/39/22 5/6/22

vt -7.87402 -14.9658
f 16/39/22 6/8/22 14/40/22

vn 0.447214 0.894427 -3.38265e-015
f 14/40/23 6/8/23 16/39/23

f 6/10/19 14/32/19 8/12/19

usemtl M_0042_Sienna
vn 2.93277e-015 -1.12799e-014 1
vt 1.15463e-014 -3.93701
f 6/2/24 8/41/24 5/3/24

usemtl M_0024_OrangeRed
vn -2.93277e-015 1.12799e-014 -1
f 5/3/25 8/41/25 6/2/25

f 5/6/23 16/39/23 6/8/23

v 0.7 1.12799e-016 -0.55
vt -47.2441 7.87402
vn 2.25597e-016 -1 -1.69198e-016
f 17/42/26 5/37/26 16/34/26

vt -39.3701 2.3026e-013
f 5/37/26 17/42/26 3/43/26

vn -2.25597e-016 1 1.69198e-016
f 16/34/27 5/37/27 17/42/27

v 0.5 0.1 -0.55
vt 7.87402 0
vn 1 0 -0
vt 3.93701 -3.93701
f 18/44/28 5/45/28 16/27/28

vt 2.30926e-013 0
f 1/46/28 5/45/28 18/44/28

vt 2.30926e-013 -3.93701
f 5/45/28 1/46/28 3/47/28

vn -1 -0 0
f 3/47/29 1/46/29 5/45/29

vt 39.3701 0
vn 2.93277e-015 0 1
v 0.7 4.51195e-017 -0.35
vt 47.2441 -3.93701
f 1/48/30 3/3/30 19/49/30

vn -2.93277e-015 -0 -1
f 19/49/31 3/3/31 1/48/31

vt -47.2441 2.53353e-013
f 3/43/26 17/42/26 19/50/26

f 3/43/27 17/42/27 5/37/27

f 19/50/27 17/42/27 3/43/27

vt 7.87402 -35.2137
vn 0.447214 0.894427 4.48457e-016
vt 3.01394e-013 -44.0171
vt 7.87402 -44.0171
f 18/51/32 19/52/32 17/53/32

vt 2.70406e-013 -35.2137
f 19/52/32 18/51/32 1/54/32

vn -0.447214 -0.894427 -4.48457e-016
f 1/54/33 18/51/33 19/52/33

vn 0.447214 0.894427 -1.64007e-015
vt 4.50484e-014 -13.2051
vt 8.65441e-014 -35.2137
f 18/51/34 4/55/34 1/56/34

vt 7.87402 -13.2051
f 4/55/34 18/51/34 15/57/34

vn -0.447214 -0.894427 1.64007e-015
f 15/57/35 18/51/35 4/55/35

vt -39.3701 -5.29896e-014
f 18/58/16 14/29/16 15/31/16

vt -39.3701 -3.93701
f 14/29/16 18/58/16 16/59/16

f 16/59/17 18/58/17 14/29/17

vt -39.3701 -7.10543e-015
vn -3.54617e-031 9.02389e-016 -1
vt -47.2441 -3.93701
f 18/60/36 17/61/36 16/59/36

vn 3.54617e-031 -9.02389e-016 1
f 16/59/37 17/61/37 18/60/37

f 17/53/33 19/52/33 18/51/33

f 16/27/29 5/45/29 18/44/29

f 18/44/29 5/45/29 1/46/29

f 1/56/35 4/55/35 18/51/35

f 4/4/2 1/1/2 2/2/2

f 4/4/10 2/2/10 10/17/10

vt -6.98641e-014 22.0085
vn -0.447214 0.894427 1.0763e-015
vt -7.87402 1.69496e-014
vt -3.55271e-015 7.64755e-030
f 4/62/38 9/63/38 10/64/38

vt -7.87402 22.0085
f 9/63/38 4/62/38 15/65/38

vn 0.447214 -0.894427 -1.0763e-015
f 10/64/39 9/63/39 4/62/39

vt -7.87402 -8.80342
vn -0.447214 0.894427 -4.6127e-016
vt -3.55271e-015 -3.27752e-030
vt -7.87402 -7.26409e-015
f 12/66/40 10/67/40 9/68/40

vt 2.76614e-014 -8.80342
f 10/67/40 12/66/40 11/69/40

vn 0.447214 -0.894427 4.6127e-016
f 11/69/41 12/66/41 10/67/41

f 9/68/41 10/67/41 12/66/41

vn 4.51195e-016 -9.02389e-016 1
f 12/27/42 13/13/42 9/26/42

f 15/65/39 4/62/39 9/63/39

f 15/31/17 9/28/17 14/29/17

f 15/31/17 14/29/17 18/58/17

usemtl M_0042_Sienna
vn -9.02389e-017 2.25597e-014 -1
f 14/29/43 16/59/43 13/30/43

usemtl M_0024_OrangeRed
vn 9.02389e-017 -2.25597e-014 1
f 13/30/44 16/59/44 14/29/44

f 3/7/4 5/6/4 2/5/4

f 2/11/6 6/10/6 7/9/6

