# Alias OBJ Model File
# Exported from SketchUp, (c) 2000-2012 Trimble Navigation Limited
# File units = meters

mtllib roof_small_gable_corner_roof.mtl

g Mesh1 roof_small_gable1 Model

usemtl M_0042_Sienna
v -0.5 0 -0.45
vt 0 3.93701
vn 0 -1 0
v -0.5 0 -0.55
vt 0 0
v 0.5 0 -0.45
vt -39.3701 3.93701
f 1/1/1 2/2/1 3/3/1

vn -0 1 -0
f 3/3/2 2/2/2 1/1/2

v 0.5 0 -0.55
vt -39.3701 0
f 4/4/1 3/3/1 2/2/1

f 2/2/2 3/3/2 4/4/2

vn 1 0 1.80411e-016
v 0.5 0.5 -0.55
vt 0 19.685
vt 3.93701 0
f 4/2/3 5/5/3 3/6/3

vn -1 -0 -1.80411e-016
f 3/6/4 5/5/4 4/2/4

v 0.5 0.5 -0.45
vt 3.93701 19.685
f 6/7/3 3/6/3 5/5/3

f 5/5/4 3/6/4 6/7/4

vn -1.80411e-016 0 1
vt -39.3701 19.685
f 1/2/5 3/4/5 6/8/5

vn 1.80411e-016 -0 -1
f 6/8/6 3/4/6 1/2/6

vt -3.93701 44.0171
vn -0.447214 0.894427 -8.06824e-017
vt 1.0851e-030 44.0171
vt -3.93701 9.70547e-032
f 6/9/7 5/10/7 1/11/7

vn 0.447214 -0.894427 8.06824e-017
f 1/11/8 5/10/8 6/9/8

f 2/2/7 1/11/7 5/10/7

f 5/10/8 1/11/8 2/2/8

usemtl M_0024_OrangeRed
vt -3.93701 7.33032e-017
vn -0.447214 0.894427 -8.99919e-017
v -0.589443 -0.0447214 -0.45
vt -3.93701 -3.93701
f 1/12/9 2/2/9 7/13/9

vn 0.447214 -0.894427 8.99919e-017
f 7/13/10 2/2/10 1/12/10

v -0.589443 -0.0447214 -0.55
vt -7.33032e-017 -3.93701
f 8/14/9 7/13/9 2/2/9

f 2/2/10 7/13/10 8/14/10

usemtl M_0042_Sienna
vt 3.52137 3.93701
vn -2.53797e-016 -1 -3.52496e-016
v -0.589443 -0.0447214 -0.35
vt 3.52137 7.87402
vt 3.52137 6.20634e-016
f 7/15/11 9/16/11 8/17/11

usemtl M_0024_OrangeRed
vn -0.447214 0.894427 -3.45521e-016
vt -7.87402 -3.93701
vt -3.93701 2.08535e-015
f 7/13/12 9/18/12 1/19/12

vn 0.447214 -0.894427 3.45521e-016
f 1/19/13 9/18/13 7/13/13

v 0.5 0.5 -0.35
vt -7.87402 44.0171
f 10/20/12 1/19/12 9/18/12

f 6/9/12 1/19/12 10/20/12

f 10/20/13 1/19/13 6/9/13

f 9/18/13 1/19/13 10/20/13

vt -3.52137 -1.76068
vn 2.01228e-016 0 -1
v -0.789443 -0.0447214 -0.35
vt -11.3954 -1.76068
vt 39.3701 19.685
f 9/21/14 11/22/14 10/23/14

vn -2.01228e-016 -0 1
f 10/23/15 11/22/15 9/21/15

v 0.5 0.6 -0.35
vt 39.3701 23.622
f 12/24/14 10/23/14 11/22/14

vt 7.87402 19.685
vn 1 0 2.01228e-016
vt 7.87402 23.622
f 10/25/16 6/7/16 12/26/16

vn -1 -0 -2.01228e-016
f 12/26/17 6/7/17 10/25/17

v 0.5 0.6 -0.55
vt -8.19554e-016 23.622
f 12/26/16 6/7/16 13/27/16

f 13/27/17 6/7/17 12/26/17

vt -8.19554e-016 19.685
f 5/28/16 13/27/16 6/7/16

f 6/7/17 13/27/17 5/28/17

f 5/23/14 2/2/14 13/24/14

usemtl M_0042_Sienna
vt 39.3701 1.79179e-048
vn 1.91691e-016 -4.03475e-033 -1
f 4/29/18 2/2/18 5/23/18

vn -1.91691e-016 4.03475e-033 1
f 5/23/19 2/2/19 4/29/19

usemtl M_0024_OrangeRed
f 13/24/15 2/2/15 5/23/15

v -0.789443 -0.0447214 -0.55
f 13/24/14 2/2/14 14/22/14

f 14/22/15 2/2/15 13/24/15

f 8/21/14 14/22/14 2/2/14

f 2/2/15 14/22/15 8/21/15

usemtl M_0042_Sienna
vt 11.3954 6.20634e-016
f 8/17/11 9/16/11 14/30/11

vn 2.53797e-016 1 3.52496e-016
f 14/30/20 9/16/20 8/17/20

vt 11.3954 7.87402
f 11/31/11 14/30/11 9/16/11

usemtl M_0024_OrangeRed
vt -7.87402 -10.9797
vn -0.447214 0.894427 -2.95001e-016
vt -7.87402 45.7778
vt -5.46101e-015 -10.9797
f 11/32/21 12/33/21 14/34/21

usemtl M_0042_Sienna
vn 0.447214 -0.894427 2.95001e-016
f 14/34/22 12/33/22 11/32/22

usemtl M_0024_OrangeRed
vt 1.88673e-014 45.7778
f 13/35/21 14/34/21 12/33/21

usemtl M_0042_Sienna
f 12/33/22 14/34/22 13/35/22

usemtl M_0024_OrangeRed
f 11/22/15 10/23/15 12/24/15

usemtl M_0042_Sienna
f 9/16/20 14/30/20 11/31/20

f 8/17/20 9/16/20 7/15/20

