# Alias OBJ Model File
# Exported from SketchUp, (c) 2000-2012 Trimble Navigation Limited
# File units = meters

mtllib roof_small_corner_inner.mtl

g Mesh1 Component_11_1 Model

usemtl M_0024_OrangeRed
v -0.5 -1.12799e-017 -0.5
vt -39.3701 3.93701
vn -1 -3.44299e-029 -2.88765e-015
v -0.5 0.4 0.5
vt -2.84217e-014 19.685
v -0.5 0.5 0.5
vt -2.84217e-014 23.622
f 1/1/1 2/2/1 3/3/1

v -0.5 -0.1 -0.5
vt -39.3701 3.91422e-042
f 2/2/1 1/1/1 4/4/1

vn 1 3.44299e-029 2.88765e-015
f 3/3/2 2/2/2 1/1/2

vt -1.13687e-013 19.685
vn -1.80478e-015 -2.08462e-031 1
v 0.5 0.5 0.5
vt 39.3701 23.622
vt -1.13687e-013 23.622
f 2/5/3 5/6/3 3/7/3

v 0.5 0.4 0.5
vt 39.3701 19.685
f 5/6/3 2/5/3 6/8/3

vn 1.80478e-015 2.08462e-031 -1
f 6/8/4 2/5/4 5/6/4

vt 39.3701 8.80342
vn -1.23519e-015 -0.894427 0.447214
vt -1.13687e-013 8.80342
vt -1.08739e-013 -35.2137
f 6/9/5 2/10/5 4/11/5

vn 1.23519e-015 0.894427 -0.447214
f 4/11/6 2/10/6 6/9/6

f 4/4/2 1/1/2 2/2/2

vt 2.98428e-013 3.93701
vn 7.58007e-015 -1.08287e-014 -1
v 0.5 0.4 -0.5
vt -39.3701 19.685
vt 2.98428e-013 4.26326e-013
f 1/12/7 7/13/7 4/14/7

v 0.5 0.5 -0.5
vt -39.3701 23.622
f 7/13/7 1/12/7 8/15/7

vn -7.58007e-015 1.08287e-014 1
f 4/14/8 7/13/8 1/12/8

vt -4.83557e-014 44.0171
vn 0.447214 -0.894427 -6.50102e-017
vt 39.3701 5.11891e-015
vt 39.3701 44.0171
f 6/16/9 4/17/9 7/18/9

vn -0.447214 0.894427 6.50102e-017
f 7/18/10 4/17/10 6/16/10

vt 27.8388 1.90771e-013
vn 0.707107 -6.85267e-015 -0.707107
vt -27.8388 23.622
vt -27.8388 19.685
f 4/19/11 5/20/11 6/21/11

vt 27.8388 3.93701
f 5/20/11 4/19/11 1/22/11

vn -0.707107 6.85267e-015 0.707107
f 6/21/12 5/20/12 4/19/12

vn 1 0 -0
vt -4.26326e-014 23.622
vt -4.26326e-014 19.685
f 7/8/13 5/23/13 6/24/13

f 5/23/13 7/8/13 8/6/13

vn -1 -0 0
f 6/24/14 5/23/14 7/8/14

f 8/6/14 7/8/14 5/23/14

f 8/15/8 1/12/8 7/13/8

vt -39.3701 45.7778
vn -0.447214 0.894427 -6.50102e-017
vt -39.3701 1.76068
vt 3.69094e-014 45.7778
f 8/25/15 1/26/15 5/27/15

vn 0.447214 -0.894427 6.50102e-017
f 5/27/16 1/26/16 8/25/16

vt -39.3701 10.5641
vn 2.47039e-015 0.894427 -0.447214
vt 2.17478e-013 -33.453
vt 1.13687e-013 10.5641
f 5/28/17 1/29/17 3/30/17

vn -2.47039e-015 -0.894427 0.447214
f 3/30/18 1/29/18 5/28/18

f 1/22/12 4/19/12 5/20/12

f 3/7/4 5/6/4 2/5/4

