# Alias OBJ Model File
# Exported from SketchUp, (c) 2000-2012 Trimble Navigation Limited
# File units = meters

mtllib verandah.mtl

g Mesh1 sloped_roof_12_1 Model

usemtl FrontColor
v 5.41434e-015 1.1 -0.45
vt -17.7165 43.3071
vn -1 0 -5.27356e-016
v 7.21911e-016 1 0.55
vt 21.6535 39.3701
v 7.21911e-016 1.1 0.55
vt 21.6535 43.3071
f 1/1/1 2/2/1 3/3/1

v 5.41434e-015 1 -0.45
vt -17.7165 39.3701
f 2/2/1 1/1/1 4/4/1

usemtl BackColor
vn 1 -0 5.27356e-016
f 3/3/2 2/2/2 1/1/2

usemtl M_0021_DarkRed
vt 4.16439e-014 39.3701
vn -6.10623e-016 0 1
v 0.5 0.85 0.55
vt 19.685 33.4646
vt 4.16439e-014 43.3071
f 2/5/3 5/6/3 3/7/3

v 0.4 0.8 0.55
vt 15.748 31.4961
f 6/8/3 5/6/3 2/5/3

v 0.5 0.75 0.55
vt 19.685 29.5276
f 5/6/3 6/8/3 7/9/3

usemtl BackColor
vn 6.10623e-016 -0 -1
f 7/9/4 6/8/4 5/6/4

usemtl FrontColor
v 0.5 0.75 0.45
vt -17.7165 -4.40171
vn 0.447214 0.894427 -1.55238e-015
vt -21.6535 -3.19744e-014
vt -21.6535 -4.40171
f 8/10/5 6/11/5 7/12/5

v 0.4 0.8 0.45
vt -17.7165 -4.9738e-014
f 6/11/5 8/10/5 9/13/5

usemtl BackColor
vn -0.447214 -0.894427 1.55238e-015
f 9/13/6 8/10/6 6/11/6

usemtl FrontColor
v 0.4 0.7 0.45
vt 15.748 27.5591
vn -1.38778e-016 0 1
f 10/14/7 8/9/7 9/8/7

v 0.5 0.7 0.45
vt 19.685 27.5591
f 8/9/7 10/14/7 11/15/7

usemtl M_0132_LightGray
vn 1.38778e-016 -0 -1
f 11/15/8 10/14/8 8/9/8

usemtl M_0125_Plum
v 0.45 0.7 0.46
vt -17.7165 -18.1102
vn 0 -1 -0
vt -15.748 -17.7165
vt -19.685 -17.7165
f 12/16/9 10/17/9 11/18/9

v 0.421716 0.7 0.471716
vt -16.603 -18.5715
f 13/19/9 10/17/9 12/16/9

v 0.41 0.7 0.5
vt -16.1417 -19.685
f 14/20/9 10/17/9 13/19/9

v 0.4 0.7 0.55
vt -15.748 -21.6535
f 10/17/9 14/20/9 15/21/9

usemtl BackColor
vn -0 1 0
f 15/21/10 14/20/10 10/17/10

usemtl M_0125_Plum
v 0.421716 0.7 0.528284
vt -16.603 -20.7986
f 16/22/9 15/21/9 14/20/9

v 0.45 0.7 0.54
vt -17.7165 -21.2598
f 17/23/9 15/21/9 16/22/9

v 0.5 0.7 0.55
vt -19.685 -21.6535
f 15/21/9 17/23/9 18/24/9

usemtl BackColor
f 18/24/10 17/23/10 15/21/10

usemtl M_0125_Plum
v 0.478284 0.7 0.528284
vt -18.8301 -20.7986
f 18/24/9 17/23/9 19/25/9

usemtl BackColor
f 19/25/10 17/23/10 18/24/10

usemtl M_0132_LightGray
v 0.45 0.05 0.54
vt 8.23215 1.9685
vn 0.382683 0 0.92388
vt 9.43746 27.5591
vt 8.23215 27.5591
f 20/26/11 19/27/11 17/28/11

v 0.478284 0.05 0.528284
vt 9.43746 1.9685
f 19/27/11 20/26/11 21/29/11

usemtl BackColor
vn -0.382683 -0 -0.92388
f 21/29/12 20/26/12 19/27/12

usemtl M_0132_LightGray
vt 17.7165 -21.2598
vn 0 1 -0
v 0.5 0.05 0.55
vt 19.685 -21.6535
vt 18.8301 -20.7986
f 20/30/13 22/31/13 21/32/13

v 0.4 0.05 0.55
vt 15.748 -21.6535
f 20/30/13 23/33/13 22/31/13

v 0.421716 0.05 0.528284
vt 16.603 -20.7986
f 24/34/13 23/33/13 20/30/13

v 0.41 0.05 0.5
vt 16.1417 -19.685
f 23/33/13 24/34/13 25/35/13

usemtl BackColor
vn -0 -1 0
f 25/35/14 24/34/14 23/33/14

usemtl M_0132_LightGray
vt 25.5691 1.9685
vn -0.92388 0 0.382683
vt 24.3638 27.5591
vt 24.3638 1.9685
f 24/36/15 14/37/15 25/38/15

vt 25.5691 27.5591
f 14/37/15 24/36/15 16/39/15

usemtl BackColor
vn 0.92388 -0 -0.382683
f 16/39/16 24/36/16 14/37/16

usemtl M_0132_LightGray
vt 23.2984 1.9685
vn -0.382683 0 0.92388
vt 24.5037 27.5591
vt 23.2984 27.5591
f 24/40/17 17/41/17 16/42/17

vt 24.5037 1.9685
f 17/41/17 24/40/17 20/43/17

usemtl BackColor
vn 0.382683 -0 -0.92388
f 20/43/18 24/40/18 17/41/18

f 20/30/14 23/33/14 24/34/14

f 22/31/14 23/33/14 20/30/14

usemtl M_0132_LightGray
v 0.4 0 0.55
vt 15.748 0
vt 19.685 1.9685
vt 15.748 1.9685
f 26/44/7 22/45/7 23/46/7

v 0.5 0 0.55
vt 19.685 0
f 22/45/7 26/44/7 27/47/7

usemtl BackColor
f 27/47/8 26/44/8 22/45/8

usemtl M_0132_LightGray
v 0.5 0 0.45
f 26/21/9 28/18/9 27/24/9

v 0.4 0 0.45
f 28/18/9 26/21/9 29/17/9

usemtl BackColor
f 29/17/10 26/21/10 28/18/10

usemtl M_0132_LightGray
vt 21.6535 0
vn -1 0 -1.38778e-016
v 0.4 0.05 0.45
vt 17.7165 1.9685
vt 17.7165 0
f 26/48/19 30/49/19 29/50/19

vt 21.6535 1.9685
f 30/49/19 26/48/19 23/51/19

usemtl BackColor
vn 1 -0 1.38778e-016
f 23/51/20 26/48/20 30/49/20

f 23/46/8 22/45/8 26/44/8

f 29/50/20 30/49/20 26/48/20

usemtl M_0132_LightGray
vt -15.748 1.9685
vn 1.38778e-016 0 -1
vt -19.685 0
vt -15.748 0
f 30/52/21 28/53/21 29/54/21

v 0.5 0.05 0.45
vt -19.685 1.9685
f 28/53/21 30/52/21 31/55/21

usemtl BackColor
vn -1.38778e-016 -0 1
f 29/54/22 28/53/22 30/52/22

f 31/55/22 30/52/22 28/53/22

usemtl M_0132_LightGray
vt 15.748 -17.7165
v 0.45 0.05 0.46
vt 17.7165 -18.1102
vt 19.685 -17.7165
f 30/56/13 32/57/13 31/58/13

v 0.421716 0.05 0.471716
vt 16.603 -18.5715
f 32/57/13 30/56/13 33/59/13

usemtl BackColor
f 31/58/14 32/57/14 30/56/14

usemtl M_0132_LightGray
v 0.478284 0.05 0.471716
vt 18.8301 -18.5715
f 31/58/13 32/57/13 34/60/13

usemtl BackColor
f 34/60/14 32/57/14 31/58/14

usemtl M_0132_LightGray
vt -23.2984 27.5591
vn 0.382683 0 -0.92388
vt -24.5037 1.9685
vt -23.2984 1.9685
f 12/61/23 34/62/23 32/63/23

v 0.478284 0.7 0.471716
vt -24.5037 27.5591
f 34/62/23 12/61/23 35/64/23

usemtl BackColor
vn -0.382683 -0 0.92388
f 32/63/24 34/62/24 12/61/24

f 35/64/24 12/61/24 34/62/24

usemtl M_0125_Plum
vt -18.8301 -18.5715
f 12/16/9 11/18/9 35/65/9

usemtl BackColor
f 11/18/10 10/17/10 12/16/10

f 12/16/10 10/17/10 13/19/10

f 13/19/10 10/17/10 14/20/10

usemtl M_0132_LightGray
vt 10.8041 27.5591
vn -0.92388 0 -0.382683
vt 12.0094 1.9685
vt 12.0094 27.5591
f 13/66/25 25/67/25 14/68/25

vt 10.8041 1.9685
f 25/67/25 13/66/25 33/69/25

usemtl BackColor
vn 0.92388 -0 0.382683
f 14/68/26 25/67/26 13/66/26

f 25/38/16 14/37/16 24/36/16

f 33/69/26 13/66/26 25/67/26

usemtl M_0132_LightGray
vt -8.23215 27.5591
vn -0.382683 0 -0.92388
vt -9.43746 1.9685
vt -8.23215 1.9685
f 13/70/27 32/71/27 33/72/27

vt -9.43746 27.5591
f 32/71/27 13/70/27 12/73/27

usemtl BackColor
vn 0.382683 -0 0.92388
f 33/72/28 32/71/28 13/70/28

f 33/59/14 30/56/14 32/57/14

usemtl M_0132_LightGray
f 33/59/13 30/56/13 25/35/13

usemtl BackColor
f 25/35/14 30/56/14 33/59/14

usemtl M_0132_LightGray
f 25/35/13 30/56/13 23/33/13

usemtl BackColor
f 23/33/14 30/56/14 25/35/14

f 12/73/28 13/70/28 32/71/28

f 35/65/10 11/18/10 12/16/10

usemtl M_0125_Plum
v 0.49 0.7 0.5
vt -19.2913 -19.685
f 35/65/9 11/18/9 36/74/9

usemtl BackColor
f 36/74/10 11/18/10 35/65/10

usemtl M_0125_Plum
f 18/24/9 36/74/9 11/18/9

f 18/24/9 19/25/9 36/74/9

usemtl BackColor
f 36/74/10 19/25/10 18/24/10

usemtl M_0132_LightGray
vt -12.0094 27.5591
vn 0.92388 0 0.382683
v 0.49 0.05 0.5
vt -10.8041 1.9685
vt -10.8041 27.5591
f 19/75/29 37/76/29 36/77/29

vt -12.0094 1.9685
f 37/76/29 19/75/29 21/78/29

usemtl BackColor
vn -0.92388 -0 -0.382683
f 21/78/30 19/75/30 37/76/30

f 36/77/30 37/76/30 19/75/30

usemtl M_0132_LightGray
vt -24.3638 1.9685
vn 0.92388 0 -0.382683
vt -25.5691 27.5591
vt -25.5691 1.9685
f 34/79/31 36/80/31 37/81/31

vt -24.3638 27.5591
f 36/80/31 34/79/31 35/82/31

usemtl BackColor
vn -0.92388 -0 0.382683
f 37/81/32 36/80/32 34/79/32

f 35/82/32 34/79/32 36/80/32

usemtl M_0132_LightGray
vt 19.2913 -19.685
f 31/58/13 34/60/13 37/83/13

usemtl BackColor
f 37/83/14 34/60/14 31/58/14

usemtl M_0132_LightGray
f 31/58/13 37/83/13 22/31/13

usemtl BackColor
f 22/31/14 37/83/14 31/58/14

usemtl M_0132_LightGray
f 21/32/13 22/31/13 37/83/13

usemtl BackColor
f 21/32/14 22/31/14 20/30/14

f 37/83/14 22/31/14 21/32/14

usemtl M_0132_LightGray
vt -21.6535 1.9685
vn 1 0 1.38778e-016
vt -17.7165 0
vt -17.7165 1.9685
f 22/84/33 28/85/33 31/86/33

vt -21.6535 0
f 28/85/33 22/84/33 27/87/33

usemtl BackColor
vn -1 -0 -1.38778e-016
f 27/87/34 22/84/34 28/85/34

f 31/86/34 28/85/34 22/84/34

f 27/24/10 28/18/10 26/21/10

f 11/18/10 36/74/10 18/24/10

usemtl FrontColor
vt 21.6535 27.5591
vt 17.7165 29.5276
vt 17.7165 27.5591
f 18/88/19 8/89/19 11/90/19

vt 21.6535 29.5276
f 8/89/19 18/88/19 7/91/19

usemtl M_0132_LightGray
f 7/91/20 18/88/20 8/89/20

f 7/9/7 15/14/7 18/15/7

f 15/14/7 7/9/7 6/8/7

usemtl BackColor
f 18/15/8 15/14/8 7/9/8

f 6/8/8 7/9/8 15/14/8

f 7/12/6 6/11/6 8/10/6

usemtl FrontColor
vn -1 0 -6.10623e-016
v 0.5 0.85 -0.45
vt -17.7165 33.4646
f 7/91/35 38/92/35 8/89/35

vt 21.6535 33.4646
f 38/92/35 7/91/35 5/93/35

usemtl M_0021_DarkRed
vn 1 -0 6.10623e-016
f 5/93/36 7/91/36 38/92/36

f 8/89/36 38/92/36 7/91/36

usemtl FrontColor
v 0.5 0.75 -0.45
vt -17.7165 29.5276
f 8/89/35 38/92/35 39/94/35

usemtl M_0021_DarkRed
f 39/94/36 38/92/36 8/89/36

usemtl FrontColor
vn -9.71578e-016 5.37967e-031 1
vt 1.9595e-013 39.3701
f 38/6/37 4/95/37 39/9/37

vt 1.9595e-013 43.3071
f 4/95/37 38/6/37 1/96/37

usemtl BackColor
vn 9.71578e-016 -5.37967e-031 -1
f 39/9/38 4/95/38 38/6/38

usemtl FrontColor
vt -17.7165 -7.4607e-014
vn 0.447214 0.894427 2.17756e-015
vt 17.7165 -4.40171
vt 17.7165 17.6068
f 9/97/39 39/98/39 4/99/39

f 39/98/39 9/97/39 8/10/39

usemtl M_0021_DarkRed
vn -0.447214 -0.894427 -2.17756e-015
f 4/99/40 39/98/40 9/97/40

f 8/10/40 9/97/40 39/98/40

usemtl M_0132_LightGray
f 9/8/8 8/9/8 10/14/8

vt 17.7165 31.4961
f 15/88/19 9/100/19 10/90/19

vt 21.6535 31.4961
f 9/100/19 15/88/19 6/101/19

usemtl BackColor
f 6/101/20 15/88/20 9/100/20

f 10/90/20 9/100/20 15/88/20

usemtl FrontColor
vt -21.6535 -8.70415e-014
f 4/99/39 6/102/39 9/97/39

vt -21.6535 17.6068
f 6/102/39 4/99/39 2/103/39

usemtl M_0021_DarkRed
f 2/103/40 4/99/40 6/102/40

usemtl BackColor
f 4/4/2 1/1/2 2/2/2

f 1/96/38 38/6/38 4/95/38

usemtl M_0020_Red
vt 17.7165 19.3675
vn 0.447214 0.894427 1.15872e-015
vt -21.6535 -2.64103
vt 17.7165 -2.64103
f 1/104/41 5/105/41 38/106/41

vt -21.6535 19.3675
f 5/105/41 1/104/41 3/107/41

usemtl BackColor
vn -0.447214 -0.894427 -1.15872e-015
f 3/107/42 1/104/42 5/105/42

usemtl M_0020_Red
v -0.5 0.85 -0.45
vt -17.7165 -2.64103
vn -0.447214 0.894427 -1.04611e-015
vt 21.6535 19.3675
vt -17.7165 19.3675
f 40/108/43 3/109/43 1/110/43

v -0.5 0.85 0.55
vt 21.6535 -2.64103
f 3/109/43 40/108/43 41/111/43

usemtl BackColor
vn 0.447214 -0.894427 1.04611e-015
f 41/111/44 40/108/44 3/109/44

usemtl FrontColor
vt -21.6535 33.4646
v -0.5 0.75 0.45
vt 17.7165 33.4646
f 41/112/33 42/94/33 40/113/33

v -0.5 0.75 0.55
vt -21.6535 29.5276
f 42/94/33 41/112/33 43/114/33

usemtl M_0021_DarkRed
f 43/114/34 41/112/34 42/94/34

v -0.4 0.8 0.55
vt -15.748 31.4961
vn 2.22178e-016 -1.07593e-030 1
vt -19.685 33.4646
vt -19.685 29.5276
f 44/115/45 41/116/45 43/117/45

vt 2.36108e-014 39.3701
f 41/116/45 44/115/45 2/118/45

usemtl BackColor
vn -2.22178e-016 1.07593e-030 -1
f 43/117/46 41/116/46 44/115/46

f 2/118/46 44/115/46 41/116/46

usemtl FrontColor
vt 21.6535 17.6068
vn -0.447214 0.894427 -1.16633e-015
v -0.4 0.8 0.45
vt 17.7165 4.79616e-014
vt 21.6535 3.90799e-014
f 2/119/47 45/120/47 44/121/47

vt -17.7165 17.6068
f 4/122/47 45/120/47 2/119/47

v -0.5 0.75 -0.45
f 46/10/47 45/120/47 4/122/47

f 45/120/47 46/10/47 42/98/47

usemtl M_0021_DarkRed
vn 0.447214 -0.894427 1.16633e-015
f 42/98/48 46/10/48 45/120/48

usemtl FrontColor
f 40/113/33 42/94/33 46/89/33

usemtl M_0021_DarkRed
f 40/113/34 42/94/34 41/112/34

f 46/89/34 42/94/34 40/113/34

usemtl FrontColor
vt 2.61863e-013 39.3701
vn 2.74887e-015 0 1
f 4/123/49 40/116/49 46/117/49

vt 2.61863e-013 43.3071
f 40/116/49 4/123/49 1/124/49

usemtl BackColor
vn -2.74887e-015 -0 -1
f 46/117/50 40/116/50 4/123/50

f 1/124/50 4/123/50 40/116/50

f 1/110/44 3/109/44 40/108/44

usemtl M_0021_DarkRed
f 4/122/48 45/120/48 46/10/48

f 2/119/48 45/120/48 4/122/48

f 44/121/48 45/120/48 2/119/48

usemtl FrontColor
vn -0.447214 0.894427 4.37125e-015
vt 21.6535 3.55271e-015
vt 17.7165 5.68434e-014
f 42/98/51 44/125/51 45/126/51

vt 21.6535 -4.40171
f 44/125/51 42/98/51 43/127/51

usemtl M_0021_DarkRed
vn 0.447214 -0.894427 -4.37125e-015
f 43/127/52 42/98/52 44/125/52

usemtl FrontColor
v -0.5 0.7 0.45
vt -17.7165 27.5591
f 43/114/33 47/128/33 42/94/33

v -0.5 0.7 0.55
vt -21.6535 27.5591
f 47/128/33 43/114/33 48/129/33

usemtl M_0132_LightGray
f 48/129/34 43/114/34 47/128/34

vt -19.685 27.5591
f 48/130/7 44/115/7 43/117/7

v -0.4 0.7 0.55
vt -15.748 27.5591
f 44/115/7 48/130/7 49/131/7

usemtl BackColor
f 49/131/8 48/130/8 44/115/8

usemtl FrontColor
v -0.45 0.7 0.54
f 50/23/13 48/24/13 49/21/13

v -0.478284 0.7 0.528284
f 51/25/13 48/24/13 50/23/13

v -0.49 0.7 0.5
f 52/74/13 48/24/13 51/25/13

f 48/24/13 52/74/13 47/18/13

usemtl M_0125_Plum
f 47/18/14 52/74/14 48/24/14

usemtl FrontColor
v -0.478284 0.7 0.471716
f 53/65/13 47/18/13 52/74/13

v -0.45 0.7 0.46
f 54/16/13 47/18/13 53/65/13

v -0.4 0.7 0.45
f 47/18/13 54/16/13 55/17/13

usemtl M_0125_Plum
f 55/17/14 54/16/14 47/18/14

usemtl FrontColor
v -0.421716 0.7 0.471716
f 55/17/13 54/16/13 56/19/13

usemtl M_0125_Plum
f 56/19/14 54/16/14 55/17/14

usemtl M_0132_LightGray
v -0.421716 0.05 0.471716
vn 0.382683 -1.57244e-016 -0.92388
f 57/26/53 54/27/53 56/28/53

v -0.45 0.05 0.46
f 54/27/53 57/26/53 58/29/53

usemtl BackColor
vn -0.382683 1.57244e-016 0.92388
f 58/29/54 57/26/54 54/27/54

usemtl M_0132_LightGray
v -0.4 0.05 0.45
vn 8.00022e-018 1 -1.3625e-016
f 59/17/55 58/16/55 57/19/55

v -0.5 0.05 0.45
f 60/18/55 58/16/55 59/17/55

v -0.478284 0.05 0.471716
f 58/16/55 60/18/55 61/65/55

usemtl BackColor
vn -8.00022e-018 -1 1.3625e-016
f 59/17/56 58/16/56 60/18/56

f 57/19/56 58/16/56 59/17/56

usemtl M_0132_LightGray
v -0.41 0.05 0.5
f 59/17/55 57/19/55 62/20/55

usemtl BackColor
f 62/20/56 57/19/56 59/17/56

usemtl M_0132_LightGray
vn 0.92388 -1.57244e-016 -0.382683
v -0.41 0.7 0.5
f 57/76/57 63/75/57 62/78/57

f 63/75/57 57/76/57 56/77/57

usemtl BackColor
vn -0.92388 1.57244e-016 0.382683
f 62/78/58 63/75/58 57/76/58

usemtl M_0132_LightGray
v -0.421716 0.7 0.528284
vn 0.92388 -6.51327e-017 0.382683
f 64/80/59 62/79/59 63/82/59

v -0.421716 0.05 0.528284
f 62/79/59 64/80/59 65/81/59

usemtl BackColor
vn -0.92388 6.51327e-017 -0.382683
f 65/81/60 64/80/60 62/79/60

usemtl M_0132_LightGray
vn 0.382683 6.51327e-017 0.92388
v -0.45 0.05 0.54
f 64/61/61 66/62/61 65/63/61

f 66/62/61 64/61/61 50/64/61

usemtl BackColor
vn -0.382683 -6.51327e-017 -0.92388
f 65/63/62 66/62/62 64/61/62

usemtl M_0132_LightGray
v -0.4 0.05 0.55
f 66/23/55 67/21/55 65/22/55

v -0.5 0.05 0.55
f 66/23/55 68/24/55 67/21/55

v -0.478284 0.05 0.528284
f 69/25/55 68/24/55 66/23/55

v -0.49 0.05 0.5
f 70/74/55 68/24/55 69/25/55

f 68/24/55 70/74/55 60/18/55

usemtl BackColor
f 60/18/56 70/74/56 68/24/56

usemtl M_0132_LightGray
f 61/65/55 60/18/55 70/74/55

usemtl BackColor
f 61/65/56 60/18/56 58/16/56

f 70/74/56 60/18/56 61/65/56

usemtl M_0132_LightGray
f 70/36/60 53/37/60 61/38/60

f 53/37/60 70/36/60 52/39/60

usemtl BackColor
f 52/39/59 70/36/59 53/37/59

usemtl M_0132_LightGray
f 69/67/58 52/66/58 70/69/58

f 52/66/58 69/67/58 51/68/58

usemtl BackColor
f 51/68/57 69/67/57 52/66/57

usemtl M_0132_LightGray
f 69/71/54 50/70/54 51/73/54

f 50/70/54 69/71/54 66/72/54

usemtl BackColor
f 66/72/53 69/71/53 50/70/53

f 66/23/56 68/24/56 69/25/56

f 67/21/56 68/24/56 66/23/56

usemtl M_0132_LightGray
v -0.5 9.02389e-017 0.55
vt -19.685 3.55271e-015
f 71/132/7 67/52/7 68/55/7

v -0.4 9.02389e-017 0.55
vt -15.748 3.55271e-015
f 67/52/7 71/132/7 72/133/7

usemtl BackColor
f 72/133/8 71/132/8 67/52/8

usemtl M_0132_LightGray
v -0.4 9.02389e-017 0.45
f 71/31/9 73/56/9 72/33/9

v -0.5 9.02389e-017 0.45
f 73/56/9 71/31/9 74/58/9

usemtl BackColor
f 74/58/10 71/31/10 73/56/10

usemtl M_0132_LightGray
vt 17.7165 3.55271e-015
f 71/125/19 60/49/19 74/134/19

f 60/49/19 71/125/19 68/51/19

usemtl BackColor
f 68/51/20 71/125/20 60/49/20

f 68/55/8 67/52/8 71/132/8

f 74/134/20 60/49/20 71/125/20

usemtl M_0132_LightGray
vt 15.748 3.55271e-015
vt 19.685 3.55271e-015
f 60/45/21 73/135/21 74/136/21

f 73/135/21 60/45/21 59/46/21

usemtl BackColor
f 74/136/22 73/135/22 60/45/22

f 59/46/22 60/45/22 73/135/22

usemtl M_0132_LightGray
vt -17.7165 3.55271e-015
f 67/84/33 73/137/33 59/86/33

vt -21.6535 3.55271e-015
f 73/137/33 67/84/33 72/138/33

usemtl BackColor
f 72/138/34 67/84/34 73/137/34

f 59/86/34 73/137/34 67/84/34

usemtl M_0132_LightGray
f 59/17/55 62/20/55 67/21/55

usemtl BackColor
f 67/21/56 62/20/56 59/17/56

usemtl M_0132_LightGray
f 65/22/55 67/21/55 62/20/55

usemtl BackColor
f 65/22/56 67/21/56 66/23/56

f 62/20/56 67/21/56 65/22/56

f 72/33/10 73/56/10 71/31/10

f 69/25/56 68/24/56 70/74/56

f 70/69/57 52/66/57 69/67/57

f 51/73/53 50/70/53 69/71/53

usemtl M_0125_Plum
f 50/23/14 48/24/14 51/25/14

f 49/21/14 48/24/14 50/23/14

usemtl FrontColor
f 50/23/13 49/21/13 64/22/13

usemtl M_0125_Plum
f 64/22/14 49/21/14 50/23/14

usemtl FrontColor
f 64/22/13 49/21/13 63/20/13

usemtl M_0125_Plum
f 63/20/14 49/21/14 64/22/14

usemtl FrontColor
f 55/17/13 63/20/13 49/21/13

f 55/17/13 56/19/13 63/20/13

usemtl M_0125_Plum
f 63/20/14 56/19/14 55/17/14

usemtl BackColor
f 56/77/58 57/76/58 63/75/58

f 56/28/54 54/27/54 57/26/54

usemtl M_0125_Plum
f 49/21/14 63/20/14 55/17/14

usemtl M_0132_LightGray
vt -21.6535 31.4961
f 55/128/33 44/139/33 49/129/33

vt -17.7165 31.4961
f 44/139/33 55/128/33 45/140/33

usemtl BackColor
f 49/129/34 44/139/34 55/128/34

f 45/140/34 55/128/34 44/139/34

usemtl FrontColor
f 45/115/7 47/130/7 55/131/7

f 47/130/7 45/115/7 42/117/7

usemtl M_0132_LightGray
f 55/131/8 47/130/8 45/115/8

f 42/117/8 45/115/8 47/130/8

usemtl M_0021_DarkRed
f 45/126/52 44/125/52 42/98/52

usemtl M_0132_LightGray
f 42/94/34 47/128/34 43/114/34

usemtl BackColor
f 63/82/60 62/79/60 64/80/60

f 50/64/62 64/61/62 66/62/62

usemtl M_0125_Plum
f 51/25/14 48/24/14 52/74/14

usemtl BackColor
f 61/38/59 53/37/59 70/36/59

usemtl M_0132_LightGray
f 53/41/62 58/40/62 61/43/62

f 58/40/62 53/41/62 54/42/62

usemtl BackColor
f 61/43/61 58/40/61 53/41/61

f 54/42/61 53/41/61 58/40/61

usemtl M_0125_Plum
f 53/65/14 47/18/14 54/16/14

f 52/74/14 47/18/14 53/65/14

usemtl BackColor
f 43/117/8 44/115/8 48/130/8

usemtl M_0021_DarkRed
vt 2.36108e-014 43.3071
f 41/116/45 2/118/45 3/141/45

usemtl BackColor
f 3/141/46 2/118/46 41/116/46

f 3/7/4 5/6/4 2/5/4

f 2/5/4 5/6/4 6/8/4

f 38/106/42 5/105/42 1/104/42

usemtl M_0021_DarkRed
f 9/97/40 6/102/40 4/99/40

usemtl M_0132_LightGray
f 11/90/20 8/89/20 18/88/20

usemtl BackColor
f 16/42/18 17/41/18 24/40/18

f 16/22/10 15/21/10 17/23/10

f 14/20/10 15/21/10 16/22/10

f 17/28/12 19/27/12 20/26/12

