# Alias OBJ Model File
# Exported from SketchUp, (c) 2000-2012 Trimble Navigation Limited
# File units = meters

mtllib wall_window_8.mtl

g Mesh1 Group1 wall_9_1 Model

usemtl M_0094_PowderBlue
v -0.47 0.97 -0.51
vt 0 37.0079
vn 0 0 -1
v -9.02389e-016 0.03 -0.51
vt -18.5039 0
v -0.47 0.03 -0.51
vt 0 0
f 1/1/1 2/2/1 3/3/1

v -9.02389e-016 0.97 -0.51
vt -18.5039 37.0079
f 2/2/1 1/1/1 4/4/1

usemtl M_0042_Sienna
vn -0 -0 1
f 3/3/2 2/2/2 1/1/2

usemtl M_0094_PowderBlue
vt -18.5039 0.787402
vn 0 -1 -0
v -0.47 0.03 -0.49
vt 0 0.787402
f 2/5/3 5/3/3 3/6/3

v -9.02389e-016 0.03 -0.49
f 5/3/3 2/5/3 6/2/3

usemtl M_0042_Sienna
vn -0 1 0
f 3/6/4 5/3/4 2/5/4

usemtl M_0094_PowderBlue
vn -1 -7.84686e-016 -0
vt -0.787402 37.0079
vt -0.787402 0
f 5/3/5 1/7/5 3/8/5

v -0.47 0.97 -0.49
f 1/7/5 5/3/5 7/1/5

usemtl M_0042_Sienna
vn 1 7.84686e-016 0
f 7/1/6 5/3/6 1/7/6

usemtl M_0094_PowderBlue
vn 0 0 1
v -9.02389e-016 0.97 -0.49
vt 18.5039 37.0079
f 5/3/7 8/9/7 7/1/7

vt 18.5039 0
f 8/9/7 5/3/7 6/10/7

usemtl M_0042_Sienna
vn -0 -0 -1
f 6/10/8 5/3/8 8/9/8

f 6/2/4 2/5/4 5/3/4

usemtl M_0094_PowderBlue
vt 0.787402 0
vn 1 0 -0
f 2/11/9 8/1/9 6/3/9

vt 0.787402 37.0079
f 8/1/9 2/11/9 4/12/9

usemtl M_0042_Sienna
vn -1 -0 0
f 6/3/10 8/1/10 2/11/10

f 4/12/10 2/11/10 8/1/10

f 4/4/2 1/1/2 2/2/2

usemtl M_0094_PowderBlue
vn 0 1 -0
vt 18.5039 0.787402
f 1/6/11 8/10/11 4/13/11

f 8/10/11 1/6/11 7/3/11

usemtl M_0042_Sienna
vn -0 -1 0
f 7/3/12 1/6/12 8/10/12

f 4/13/12 8/10/12 1/6/12

f 7/1/8 8/9/8 5/3/8

f 3/8/6 1/7/6 5/3/6

g Mesh2 Group2 wall_9_1 Model

usemtl M_0094_PowderBlue
v 0.02 0.97 -0.51
v 0.49 0.03 -0.51
v 0.02 0.03 -0.51
f 9/1/1 10/2/1 11/3/1

v 0.49 0.97 -0.51
f 10/2/1 9/1/1 12/4/1

usemtl M_0042_Sienna
f 11/3/2 10/2/2 9/1/2

usemtl M_0094_PowderBlue
v 0.02 0.03 -0.49
f 10/5/3 13/3/3 11/6/3

v 0.49 0.03 -0.49
f 13/3/3 10/5/3 14/2/3

usemtl M_0042_Sienna
f 11/6/4 13/3/4 10/5/4

usemtl M_0094_PowderBlue
f 13/3/5 9/7/5 11/8/5

v 0.02 0.97 -0.49
f 9/7/5 13/3/5 15/1/5

usemtl M_0042_Sienna
f 15/1/6 13/3/6 9/7/6

usemtl M_0094_PowderBlue
v 0.49 0.97 -0.49
f 13/3/7 16/9/7 15/1/7

f 16/9/7 13/3/7 14/10/7

usemtl M_0042_Sienna
f 14/10/8 13/3/8 16/9/8

f 14/2/4 10/5/4 13/3/4

usemtl M_0094_PowderBlue
f 10/11/9 16/1/9 14/3/9

f 16/1/9 10/11/9 12/12/9

usemtl M_0042_Sienna
f 14/3/10 16/1/10 10/11/10

f 12/12/10 10/11/10 16/1/10

f 12/4/2 9/1/2 10/2/2

usemtl M_0094_PowderBlue
f 9/6/11 16/10/11 12/13/11

f 16/10/11 9/6/11 15/3/11

usemtl M_0042_Sienna
f 15/3/12 9/6/12 16/10/12

f 12/13/12 16/10/12 9/6/12

f 15/1/8 16/9/8 13/3/8

f 11/8/6 9/7/6 13/3/6

g Mesh3 wall_9_1 Model

v 0.02 0.97 -0.55
vt -3.93701 38.189
vn -1 0 -0
v 0.02 0.03 -0.45
vt 0 1.1811
v 0.02 0.97 -0.45
vt 0 38.189
f 17/14/13 18/15/13 19/16/13

v 0.02 0.03 -0.55
vt -3.93701 1.1811
f 18/15/13 17/14/13 20/17/13

vn 1 -0 0
f 19/16/14 18/15/14 17/14/14

vt 20.4724 38.189
v 5.41434e-016 0.03 -0.45
vt 19.685 1.1811
vt 20.4724 1.1811
f 19/18/7 21/19/7 18/20/7

v 5.41434e-016 0.97 -0.45
vt 19.685 38.189
f 21/19/7 19/18/7 22/21/7

f 18/20/8 21/19/8 19/18/8

v -0.5 0 -0.45
f 21/19/7 23/3/7 18/20/7

v -0.47 0.03 -0.45
vt 1.1811 1.1811
f 24/22/7 23/3/7 21/19/7

v -0.5 1 -0.45
vt 0 39.3701
f 23/3/7 24/22/7 25/23/7

f 25/23/8 24/22/8 23/3/8

v -0.47 0.97 -0.45
vt 1.1811 38.189
f 25/23/7 24/22/7 26/24/7

f 26/24/8 24/22/8 25/23/8

v -0.47 0.03 -0.55
vt 3.93701 1.1811
f 27/25/9 26/16/9 24/15/9

v -0.47 0.97 -0.55
vt 3.93701 38.189
f 26/16/9 27/25/9 28/26/9

f 24/15/10 26/16/10 27/25/10

f 28/26/10 27/25/10 26/16/10

v -0.5 1 -0.55
vt -3.55271e-016 39.3701
vn -9.02389e-017 9.02389e-017 1
f 29/27/15 27/22/15 28/24/15

v -0.5 0 -0.55
vt -3.55271e-016 3.55271e-016
f 30/28/15 27/22/15 29/27/15

v 5.41434e-016 0.03 -0.55
f 27/22/15 30/28/15 31/19/15

vn 9.02389e-017 -9.02389e-017 -1
f 29/27/16 27/22/16 30/28/16

f 28/24/16 27/22/16 29/27/16

v 0.5 1 -0.55
vt 39.3701 39.3701
f 29/27/15 28/24/15 32/29/15

f 32/29/16 28/24/16 29/27/16

v 5.41434e-016 0.97 -0.55
f 33/21/15 32/29/15 28/24/15

f 17/18/15 32/29/15 33/21/15

v 0.47 0.97 -0.55
vt 38.189 38.189
f 34/30/15 32/29/15 17/18/15

v 0.47 0.03 -0.55
vt 38.189 1.1811
f 35/31/15 32/29/15 34/30/15

v 0.5 0 -0.55
vt 39.3701 3.55271e-016
f 35/31/15 36/32/15 32/29/15

f 36/32/15 35/31/15 30/28/15

f 30/28/16 35/31/16 36/32/16

f 30/28/15 35/31/15 20/20/15

f 20/20/16 35/31/16 30/28/16

vt -38.189 3.93701
vn 4.29125e-017 -1 5.59103e-046
vt -20.4724 -6.60358e-046
vt -20.4724 3.93701
f 35/33/17 18/34/17 20/35/17

v 0.47 0.03 -0.45
vt -38.189 -6.60358e-046
f 18/34/17 35/33/17 37/36/17

vn -4.29125e-017 1 -5.59103e-046
f 20/35/18 18/34/18 35/33/18

f 20/17/14 17/14/14 18/15/14

f 17/18/7 31/19/7 20/20/7

f 31/19/7 17/18/7 33/21/7

f 20/20/8 31/19/8 17/18/8

f 31/19/15 30/28/15 20/20/15

f 31/19/16 30/28/16 27/22/16

f 20/20/16 30/28/16 31/19/16

vt -19.685 0
vt -19.685 3.93701
f 20/35/3 21/37/3 31/38/3

vt -20.4724 0
f 21/37/3 20/35/3 18/39/3

f 31/38/4 21/37/4 20/35/4

vt -1.1811 9.99349e-033
vn -4.11245e-017 -1 -8.46115e-033
vt -19.685 9.99349e-033
f 24/40/19 31/38/19 21/41/19

vt -1.1811 3.93701
f 31/38/19 24/40/19 27/42/19

vn 4.11245e-017 1 8.46115e-033
f 27/42/20 24/40/20 31/38/20

f 21/41/20 31/38/20 24/40/20

f 31/25/9 22/16/9 21/15/9

f 22/16/9 31/25/9 33/26/9

f 21/15/10 22/16/10 31/25/10

f 22/21/8 19/18/8 21/19/8

v 0.5 1 -0.45
f 19/18/7 38/29/7 22/21/7

v 0.47 0.97 -0.45
f 39/30/7 38/29/7 19/18/7

f 37/31/7 38/29/7 39/30/7

v 0.5 0 -0.45
vt 39.3701 0
f 37/31/7 40/43/7 38/29/7

f 40/43/7 37/31/7 23/3/7

f 23/3/8 37/31/8 40/43/8

f 23/3/7 37/31/7 18/20/7

f 18/20/8 37/31/8 23/3/8

f 37/36/18 35/33/18 18/34/18

f 35/25/9 39/16/9 37/15/9

f 39/16/9 35/25/9 34/26/9

f 37/15/10 39/16/10 35/25/10

f 39/30/8 38/29/8 37/31/8

f 19/18/8 38/29/8 39/30/8

f 22/21/8 38/29/8 19/18/8

f 22/21/7 38/29/7 26/24/7

f 26/24/8 38/29/8 22/21/8

f 25/23/7 26/24/7 38/29/7

f 38/29/8 26/24/8 25/23/8

vt -39.3701 3.93701
vt -39.3701 0
f 25/3/3 32/44/3 38/45/3

vt 0 3.93701
f 32/44/3 25/3/3 29/46/3

f 29/46/4 25/3/4 32/44/4

vt -3.93701 39.3701
f 29/47/13 23/3/13 25/23/13

vt -3.93701 0
f 23/3/13 29/47/13 30/48/13

f 25/23/14 23/3/14 29/47/14

f 30/48/14 29/47/14 23/3/14

f 40/43/11 30/46/11 23/3/11

vt 39.3701 3.93701
f 30/46/11 40/43/11 36/49/11

f 23/3/12 30/46/12 40/43/12

f 36/49/12 40/43/12 30/46/12

f 40/3/13 32/47/13 36/48/13

f 32/47/13 40/3/13 38/23/13

f 38/23/14 40/3/14 32/47/14

f 38/29/8 40/43/8 37/31/8

f 36/48/14 32/47/14 40/3/14

f 32/29/16 36/32/16 35/31/16

f 34/30/16 32/29/16 35/31/16

f 17/18/16 32/29/16 34/30/16

f 33/21/16 32/29/16 17/18/16

f 28/24/16 32/29/16 33/21/16

vt 1.1811 3.93701
vt 19.685 0
vt 19.685 3.93701
f 28/50/11 22/51/11 33/52/11

vt 1.1811 0
f 22/51/11 28/50/11 26/53/11

f 26/53/12 28/50/12 22/51/12

f 33/52/12 22/51/12 28/50/12

f 33/26/10 31/25/10 22/16/10

f 33/21/8 17/18/8 31/19/8

vt 20.4724 0
vt 20.4724 3.93701
f 33/52/11 19/54/11 17/55/11

f 19/54/11 33/52/11 22/51/11

f 22/51/12 33/52/12 19/54/12

f 17/55/12 19/54/12 33/52/12

vt 38.189 0
f 39/56/11 17/55/11 19/54/11

vt 38.189 3.93701
f 17/55/11 39/56/11 34/57/11

f 19/54/12 17/55/12 39/56/12

f 34/57/12 39/56/12 17/55/12

f 34/26/10 35/25/10 39/16/10

f 38/45/4 32/44/4 25/3/4

f 18/20/8 23/3/8 21/19/8

f 21/19/8 23/3/8 24/22/8

f 18/39/4 20/35/4 21/37/4

