# Alias OBJ Model File
# Exported from SketchUp, (c) 2000-2012 Trimble Navigation Limited
# File units = meters

mtllib wall.mtl

g Mesh1 wall1 Model

usemtl M_0042_Sienna
v 0.55 1 -0.45
vt 41.3386 0
vn 0 1 -0
v -0.55 1 -0.55
vt -1.9685 3.93701
v -0.55 1 -0.45
vt -1.9685 0
f 1/1/1 2/2/1 3/3/1

v 0.55 1 -0.55
vt 41.3386 3.93701
f 2/2/1 1/1/1 4/4/1

vn -0 -1 0
f 3/3/2 2/2/2 1/1/2

vt -3.93701 39.3701
vn -1 0 -0
v -0.55 -7.48471e-032 -0.45
vt 0 0
vt 0 39.3701
f 2/5/3 5/6/3 3/7/3

v -0.55 -7.48471e-032 -0.55
vt -3.93701 0
f 5/6/3 2/5/3 6/8/3

vn 1 -0 0
f 3/7/4 5/6/4 2/5/4

vn 0 0 1
vt 41.3386 39.3701
vt -1.9685 39.3701
f 5/3/5 1/9/5 3/10/5

v 0.55 -7.48471e-032 -0.45
f 1/9/5 5/3/5 7/1/5

vn -0 -0 -1
f 7/1/6 5/3/6 1/9/6

vt 1.9685 0
vn 0 -1 -0
v 0.55 -7.48471e-032 -0.55
vt -41.3386 3.93701
vt -41.3386 0
f 5/11/7 8/12/7 7/13/7

vt 1.9685 3.93701
f 8/12/7 5/11/7 6/14/7

vn -0 1 0
f 6/14/8 5/11/8 8/12/8

f 6/8/4 2/5/4 5/6/4

vt 1.9685 39.3701
vn 0 0 -1
f 2/15/9 8/13/9 6/11/9

vt -41.3386 39.3701
f 8/13/9 2/15/9 4/16/9

vn -0 -0 1
f 6/11/10 8/13/10 2/15/10

f 4/16/10 2/15/10 8/13/10

f 4/4/2 1/1/2 2/2/2

vn 1 0 -0
vt 3.93701 0
vt 3.93701 39.3701
f 1/7/11 8/17/11 4/18/11

f 8/17/11 1/7/11 7/6/11

vn -1 -0 0
f 7/6/12 1/7/12 8/17/12

f 4/18/12 8/17/12 1/7/12

f 7/13/8 8/12/8 5/11/8

f 3/10/6 1/9/6 5/3/6

