# Alias OBJ Model File
# Exported from SketchUp, (c) 2000-2012 Trimble Navigation Limited
# File units = meters

mtllib wall_window_9.mtl

g Mesh1 Group1 Group_5_1 Model

usemtl M_0094_PowderBlue
v 9.02389e-016 0.46 -0.49
vt 1.42109e-014 23.9414
vn -0.707107 0.707107 -0
v -0.43 0.03 -0.51
vt -0.787402 0
v -0.43 0.03 -0.49
vt 1.42109e-014 0
f 1/1/1 2/2/1 3/3/1

v 9.02389e-016 0.46 -0.51
vt -0.787402 23.9414
f 2/2/1 1/1/1 4/4/1

vn 0.707107 -0.707107 0
f 3/3/2 2/2/2 1/1/2

v 9.02389e-016 0.03 -0.51
vt -16.9291 0.787402
vn 0 -1 -0
vt 0 -1.42109e-014
vt 0 0.787402
f 5/5/3 3/6/3 2/7/3

v 9.02389e-016 0.03 -0.49
vt -16.9291 -1.42109e-014
f 3/6/3 5/5/3 6/8/3

vn -0 1 0
f 2/7/4 3/6/4 5/5/4

f 6/8/4 5/5/4 3/6/4

vt 0.787402 0
vn 1 0 -0
vt -1.42109e-014 16.9291
vt -1.42109e-014 0
f 5/9/5 1/10/5 6/11/5

vt 0.787402 16.9291
f 1/10/5 5/9/5 4/12/5

vn -1 -0 0
f 6/11/6 1/10/6 5/9/6

vt 16.9291 16.9291
vn 0 0 1
vt 0 0
vt 16.9291 0
f 1/13/7 3/14/7 6/15/7

vn -0 -0 -1
f 6/15/8 3/14/8 1/13/8

f 4/12/6 5/9/6 1/10/6

vt -16.9291 16.9291
vn 0 0 -1
vt -16.9291 0
f 4/16/9 5/17/9 2/14/9

vn -0 -0 1
f 2/14/10 5/17/10 4/16/10

f 4/4/2 1/1/2 2/2/2

g Mesh2 Group2 Group_5_1 Model

v 0.47 0.03 -0.51
v 0.47 0.93 -0.49
vt 0 35.4331
v 0.47 0.03 -0.49
f 7/9/5 8/18/5 9/14/5

v 0.47 0.93 -0.51
vt 0.787402 35.4331
f 8/18/5 7/9/5 10/19/5

f 9/14/6 8/18/6 7/9/6

vt 17.7165 35.4331
v 0.02 0.03 -0.49
vt 17.7165 0
f 8/20/7 11/14/7 9/21/7

v 0.02 0.48 -0.49
vt 0 17.7165
f 11/14/7 8/20/7 12/22/7

f 9/21/8 11/14/8 8/20/8

vt -17.7165 0.787402
vt -17.7165 0
f 11/14/3 7/23/3 9/24/3

v 0.02 0.03 -0.51
f 7/23/3 11/14/3 13/7/3

f 13/7/4 11/14/4 7/23/4

vn -1 0 -0
v 0.02 0.48 -0.51
vt -0.787402 17.7165
f 11/14/11 14/25/11 13/2/11

f 14/25/11 11/14/11 12/22/11

vn 1 -0 0
f 12/22/12 11/14/12 14/25/12

f 12/22/8 8/20/8 11/14/8

vt 0 37.5824
vt -0.787402 12.5275
vt 0 12.5275
f 8/26/1 14/27/1 12/28/1

vt -0.787402 37.5824
f 14/27/1 8/26/1 10/29/1

f 12/28/2 14/27/2 8/26/2

f 10/29/2 8/26/2 14/27/2

f 10/19/6 7/9/6 8/18/6

vt -17.7165 35.4331
f 7/24/9 14/22/9 10/30/9

f 14/22/9 7/24/9 13/14/9

f 13/14/10 7/24/10 14/22/10

f 10/30/10 14/22/10 7/24/10

f 13/2/12 14/25/12 11/14/12

f 9/24/4 7/23/4 11/14/4

g Mesh3 Group_5_1 Model

usemtl M_0042_Sienna
v -5.41434e-016 0.46 -0.45
vt 19.685 18.1102
v -0.47 0.03 -0.45
vt 1.1811 1.1811
v -0.43 0.03 -0.45
vt 2.75591 1.1811
f 15/31/7 16/32/7 17/33/7

v 0.47 0.97 -0.45
vt 38.189 38.189
f 16/32/7 15/31/7 18/34/7

usemtl BackColor
f 17/33/8 16/32/8 15/31/8

usemtl M_0042_Sienna
v 1.80478e-016 0.03 -0.45
vt 19.685 1.1811
f 16/32/7 19/35/7 17/33/7

v -0.5 0 -0.45
f 20/14/7 19/35/7 16/32/7

v 0.47 0.03 -0.45
vt 38.189 1.1811
f 19/35/7 20/14/7 21/36/7

usemtl BackColor
f 16/32/8 19/35/8 20/14/8

f 17/33/8 19/35/8 16/32/8

usemtl M_0042_Sienna
vt 19.685 -1.81799e-030
vn 4.19716e-016 1 -1.53923e-030
v -0.43 0.03 -0.55
vt 2.75591 3.93701
vt 2.75591 -1.81799e-030
f 19/37/13 22/38/13 17/39/13

v -5.41434e-016 0.03 -0.55
vt 19.685 3.93701
f 22/38/13 19/37/13 23/40/13

usemtl BackColor
vn -4.19716e-016 -1 1.53923e-030
f 17/39/14 22/38/14 19/37/14

usemtl M_0042_Sienna
vt 3.93701 2.78388
vn 0.707107 -0.707107 -0
vt 0 26.7253
vt 0 2.78388
f 22/41/15 15/42/15 17/43/15

v -5.41434e-016 0.46 -0.55
vt 3.93701 26.7253
f 15/42/15 22/41/15 24/44/15

usemtl BackColor
vn -0.707107 0.707107 0
f 17/43/16 15/42/16 22/41/16

f 24/44/16 22/41/16 15/42/16

usemtl M_0042_Sienna
vt -2.75591 1.1811
v 0.47 0.97 -0.55
vt -38.189 38.189
vt -19.685 18.1102
f 22/45/9 25/46/9 24/47/9

v -0.47 0.03 -0.55
vt -1.1811 1.1811
f 25/46/9 22/45/9 26/48/9

usemtl BackColor
f 26/48/10 22/45/10 25/46/10

usemtl M_0042_Sienna
vt -19.685 1.1811
f 23/49/9 26/48/9 22/45/9

v 0.5 0 -0.55
vt -39.3701 0
f 27/50/9 26/48/9 23/49/9

v -0.5 0 -0.55
f 26/48/9 27/50/9 28/14/9

usemtl BackColor
f 28/14/10 27/50/10 26/48/10

usemtl M_0042_Sienna
vt -39.3701 3.93701
vt 0 3.93701
f 27/51/3 20/14/3 28/52/3

v 0.5 0 -0.45
f 20/14/3 27/51/3 29/50/3

usemtl BackColor
f 28/52/4 20/14/4 27/51/4

usemtl M_0042_Sienna
v 0.5 1 -0.55
vt -3.93701 55.6777
vt -3.93701 0
f 20/14/1 30/53/1 28/54/1

vt 0 1.67033
f 16/55/1 30/53/1 20/14/1

vt 0 54.0074
f 18/56/1 30/53/1 16/55/1

v 0.5 1 -0.45
vt 0 55.6777
f 30/53/1 18/56/1 31/57/1

usemtl BackColor
f 31/57/2 18/56/2 30/53/2

usemtl M_0042_Sienna
v 0.47 0.93 -0.45
vt 38.189 36.6142
vt 39.3701 39.3701
f 32/58/7 31/59/7 18/34/7

f 21/36/7 31/59/7 32/58/7

vt 39.3701 0
f 21/36/7 29/60/7 31/59/7

f 29/60/7 21/36/7 20/14/7

usemtl BackColor
f 20/14/8 21/36/8 29/60/8

f 21/36/8 20/14/8 19/35/8

usemtl M_0042_Sienna
v 0.02 0.03 -0.45
vt 20.4724 1.1811
f 19/35/7 21/36/7 33/61/7

usemtl BackColor
f 33/61/8 21/36/8 19/35/8

usemtl M_0042_Sienna
vt 38.189 0
vn 0 1 -0
v 0.02 0.03 -0.55
vt 20.4724 3.93701
vt 20.4724 0
f 21/62/17 34/63/17 33/64/17

v 0.47 0.03 -0.55
vt 38.189 3.93701
f 34/63/17 21/62/17 35/65/17

usemtl BackColor
vn -0 -1 0
f 33/64/18 34/63/18 21/62/18

usemtl FrontColor
vt 19.685 0
f 34/63/17 19/66/17 33/64/17

f 19/66/17 34/63/17 23/40/17

usemtl BackColor
f 23/40/18 34/63/18 19/66/18

usemtl M_0042_Sienna
vt -38.189 1.1811
vt -20.4724 1.1811
f 35/67/9 23/49/9 34/68/9

f 35/67/9 27/50/9 23/49/9

vt -39.3701 39.3701
f 27/50/9 35/67/9 30/69/9

usemtl BackColor
f 30/69/10 35/67/10 27/50/10

usemtl M_0042_Sienna
v 0.47 0.93 -0.55
vt -38.189 36.6142
f 30/69/9 35/67/9 36/70/9

usemtl BackColor
f 36/70/10 35/67/10 30/69/10

usemtl M_0042_Sienna
vt 0 1.1811
vt -3.93701 36.6142
vt -3.93701 1.1811
f 21/71/11 36/72/11 35/73/11

vt 0 36.6142
f 36/72/11 21/71/11 32/74/11

usemtl BackColor
f 32/74/12 21/71/12 36/72/12

f 32/58/8 31/59/8 21/36/8

f 18/34/8 31/59/8 32/58/8

usemtl M_0042_Sienna
v 0.02 0.48 -0.45
vt 20.4724 18.8976
f 18/34/7 37/75/7 32/58/7

f 18/34/7 15/31/7 37/75/7

usemtl BackColor
f 18/34/8 15/31/8 16/32/8

f 37/75/8 15/31/8 18/34/8

usemtl M_0042_Sienna
f 19/35/7 37/75/7 15/31/7

f 37/75/7 19/35/7 33/61/7

usemtl BackColor
f 33/61/8 19/35/8 37/75/8

f 33/64/18 19/66/18 34/63/18

usemtl M_0042_Sienna
vt 3.93701 1.1811
vt 0 18.8976
f 34/76/5 37/77/5 33/71/5

v 0.02 0.48 -0.55
vt 3.93701 18.8976
f 37/77/5 34/76/5 38/78/5

usemtl BackColor
f 33/71/6 37/77/6 34/76/6

f 38/78/6 34/76/6 37/77/6

usemtl M_0042_Sienna
vt -20.4724 18.8976
f 34/68/9 24/47/9 38/79/9

f 24/47/9 34/68/9 23/49/9

usemtl BackColor
f 23/49/10 34/68/10 24/47/10

f 34/68/10 23/49/10 35/67/10

f 23/49/10 27/50/10 35/67/10

f 23/49/10 26/48/10 27/50/10

f 22/45/10 26/48/10 23/49/10

f 23/40/14 19/37/14 22/38/14

usemtl M_0042_Sienna
vt 7.10543e-014 1.1811
vn -1 -8.39432e-016 3.60956e-015
vt -3.93701 18.1102
f 19/80/19 24/81/19 23/73/19

vt 7.10543e-014 18.1102
f 24/81/19 19/80/19 15/82/19

usemtl BackColor
vn 1 8.39432e-016 -3.60956e-015
f 15/82/20 19/80/20 24/81/20

f 15/31/8 37/75/8 19/35/8

usemtl FrontColor
vt -3.55316e-014 26.7253
vn 0.707107 -0.707107 -1.27633e-015
vt 3.93701 27.8388
vt -3.69528e-014 27.8388
f 15/83/21 38/84/21 37/85/21

f 38/84/21 15/83/21 24/44/21

usemtl BackColor
vn -0.707107 0.707107 1.27633e-015
f 24/44/22 15/83/22 38/84/22

f 37/85/22 38/84/22 15/83/22

usemtl M_0042_Sienna
vn 0.707107 -0.707107 -1.13452e-015
vt -6.12722e-014 52.8938
vt -3.2847e-014 27.8388
f 38/84/23 32/86/23 37/87/23

vt 3.93701 52.8938
f 32/86/23 38/84/23 36/88/23

usemtl BackColor
vn -0.707107 0.707107 1.13452e-015
f 37/87/24 32/86/24 38/84/24

f 32/58/8 37/75/8 18/34/8

f 36/88/24 38/84/24 32/86/24

usemtl M_0042_Sienna
f 38/79/9 25/46/9 36/70/9

f 24/47/9 25/46/9 38/79/9

usemtl BackColor
f 24/47/10 25/46/10 22/45/10

f 38/79/10 25/46/10 24/47/10

f 36/70/10 25/46/10 38/79/10

usemtl M_0042_Sienna
f 30/69/9 36/70/9 25/46/9

usemtl BackColor
f 25/46/10 36/70/10 30/69/10

usemtl M_0042_Sienna
vt -3.93701 54.0074
f 28/54/1 30/53/1 25/89/1

usemtl BackColor
f 28/54/2 30/53/2 20/14/2

f 25/89/2 30/53/2 28/54/2

usemtl M_0042_Sienna
vt -3.93701 1.67033
f 28/54/1 25/89/1 26/90/1

usemtl BackColor
f 26/90/2 25/89/2 28/54/2

f 20/14/2 30/53/2 16/55/2

f 16/55/2 30/53/2 18/56/2

f 38/79/10 24/47/10 34/68/10

f 23/73/20 24/81/20 19/80/20

f 35/65/18 21/62/18 34/63/18

f 35/73/12 36/72/12 21/71/12

f 31/59/8 29/60/8 21/36/8

usemtl M_0042_Sienna
vt 3.93701 0
vt 0 39.3701
f 27/91/5 31/92/5 29/14/5

vt 3.93701 39.3701
f 31/92/5 27/91/5 30/93/5

usemtl BackColor
f 29/14/6 31/92/6 27/91/6

f 30/93/6 27/91/6 31/92/6

f 29/50/4 27/51/4 20/14/4

