# Alias OBJ Model File
# Exported from SketchUp, (c) 2000-2012 Trimble Navigation Limited
# File units = meters

mtllib wall_window_4_small.mtl

g Mesh1 window1 Model

usemtl FrontColor
v -0.15 0.65 -0.49
vt -1.5748 25.5906
vn -1 0 -0
v -0.15 0.35 -0.51
vt -2.3622 13.7795
v -0.15 0.35 -0.49
vt -1.5748 13.7795
f 1/1/1 2/2/1 3/3/1

v -0.15 0.65 -0.51
vt -2.3622 25.5906
f 2/2/1 1/1/1 4/4/1

usemtl M_0045_Goldenrod
vn 1 -0 0
f 3/3/2 2/2/2 1/1/2

vt 1.5748 25.5906
vn 0 1 -0
v 0.15 0.35 -0.51
vt 2.3622 13.7795
vt 2.3622 25.5906
f 3/5/3 5/6/3 2/7/3

v 0.15 0.35 -0.49
vt 1.5748 13.7795
f 5/6/3 3/5/3 6/8/3

usemtl BackColor
vn -0 -1 0
f 6/8/4 3/5/4 5/6/4

usemtl M_0045_Goldenrod
v -0.17 0.33 -0.49
vt -26.378 12.9921
vn -1.38778e-016 5.55112e-017 1
vt -13.7795 13.7795
vt -25.5906 13.7795
f 7/9/5 6/10/5 3/11/5

v 0.17 0.33 -0.49
vt -12.9921 12.9921
f 8/12/5 6/10/5 7/9/5

v 0.17 0.35 -0.49
vt -12.9921 13.7795
f 6/10/5 8/12/5 9/13/5

usemtl BackColor
vn 1.38778e-016 -5.55112e-017 -1
f 9/13/6 8/12/6 6/10/6

usemtl M_0043_SaddleBrown
v 0.17 0.33 -0.47
vt -0.787402 12.9921
vn -1 0 -1.38778e-016
vt -1.5748 12.9921
f 10/14/7 9/3/7 8/15/7

v 0.17 0.67 -0.47
vt -0.787402 26.378
f 9/3/7 10/14/7 11/16/7

usemtl BackColor
vn 1 -0 1.38778e-016
f 8/15/8 9/3/8 10/14/8

usemtl FrontColor
v 0.17 0.33 -0.51
vt 2.3622 12.9921
vn 1 0 1.38778e-016
vt 1.5748 12.9921
f 12/17/9 9/8/9 8/18/9

v 0.17 0.35 -0.51
f 9/8/9 12/17/9 13/6/9

usemtl BackColor
vn -1 -0 -1.38778e-016
f 8/18/10 9/8/10 12/17/10

f 13/6/10 12/17/10 9/8/10

usemtl M_0043_SaddleBrown
v 0.17 0.67 -0.53
vt -3.14961 26.378
vt -2.3622 12.9921
f 14/19/7 12/20/7 13/2/7

v 0.17 0.33 -0.53
vt -3.14961 12.9921
f 12/20/7 14/19/7 15/21/7

usemtl BackColor
f 15/21/8 14/19/8 12/20/8

usemtl M_0043_SaddleBrown
vt 12.9921 26.378
vn 1.38778e-016 -2.77556e-016 -1
v 0.2 0.7 -0.53
vt 11.811 27.5591
vt 12.9921 12.9921
f 14/22/11 16/23/11 15/24/11

v -0.2 0.7 -0.53
vt 27.5591 27.5591
f 16/23/11 14/22/11 17/25/11

usemtl BackColor
vn -1.38778e-016 2.77556e-016 1
f 17/25/12 14/22/12 16/23/12

usemtl M_0043_SaddleBrown
v -0.17 0.67 -0.53
vt 26.378 26.378
f 17/25/11 14/22/11 18/26/11

usemtl BackColor
f 18/26/12 14/22/12 17/25/12

usemtl M_0043_SaddleBrown
vn -3.85186e-032 -1 2.77556e-016
v -0.17 0.67 -0.51
vt -2.3622 26.378
f 14/21/13 19/27/13 18/19/13

v 0.17 0.67 -0.51
f 19/27/13 14/21/13 20/20/13

usemtl BackColor
vn 3.85186e-032 1 -2.77556e-016
f 20/20/14 14/21/14 19/27/14

usemtl M_0043_SaddleBrown
v 0.17 0.65 -0.51
f 14/19/7 21/4/7 20/27/7

f 14/19/7 13/2/7 21/4/7

usemtl BackColor
f 13/2/8 12/20/8 14/19/8

usemtl M_0045_Goldenrod
v -0.17 0.33 -0.51
vt 26.378 12.9921
vt 12.9921 13.7795
f 22/28/11 13/29/11 12/24/11

vt 13.7795 13.7795
f 13/29/11 22/28/11 5/30/11

usemtl BackColor
f 12/24/12 13/29/12 22/28/12

f 5/30/12 22/28/12 13/29/12

usemtl M_0045_Goldenrod
vt 25.5906 13.7795
f 5/30/11 22/28/11 2/31/11

usemtl BackColor
f 2/31/12 22/28/12 5/30/12

usemtl M_0045_Goldenrod
v -0.17 0.35 -0.51
vt 26.378 13.7795
f 2/31/11 22/28/11 23/32/11

usemtl BackColor
f 23/32/12 22/28/12 2/31/12

usemtl M_0043_SaddleBrown
vt 3.14961 26.378
f 22/17/9 18/33/9 23/6/9

v -0.17 0.33 -0.53
vt 3.14961 12.9921
f 18/33/9 22/17/9 24/34/9

usemtl BackColor
f 24/34/10 22/17/10 18/33/10

usemtl M_0043_SaddleBrown
vt 2.3622 26.378
f 22/35/14 15/34/14 24/33/14

f 15/34/14 22/35/14 12/17/14

usemtl BackColor
f 12/17/13 22/35/13 15/34/13

usemtl FrontColor
vt -1.5748 26.378
f 12/20/13 7/36/13 22/27/13

f 7/36/13 12/20/13 8/15/13

usemtl BackColor
f 8/15/14 12/20/14 7/36/14

f 22/27/14 7/36/14 12/20/14

usemtl FrontColor
v -0.17 0.35 -0.49
f 25/3/7 22/20/7 7/15/7

f 22/20/7 25/3/7 23/2/7

usemtl BackColor
f 7/15/8 22/20/8 25/3/8

f 23/2/8 25/3/8 22/20/8

usemtl FrontColor
v -0.17 0.65 -0.49
f 23/2/7 25/3/7 26/1/7

usemtl BackColor
f 26/1/8 25/3/8 23/2/8

usemtl M_0043_SaddleBrown
v -0.17 0.67 -0.47
vt 0.787402 26.378
f 27/37/9 25/8/9 26/5/9

v -0.17 0.33 -0.47
vt 0.787402 12.9921
f 28/38/9 25/8/9 27/37/9

f 25/8/9 28/38/9 7/18/9

usemtl BackColor
f 7/18/10 28/38/10 25/8/10

usemtl M_0043_SaddleBrown
vt 1.5748 26.378
f 28/37/14 8/18/14 7/39/14

f 8/18/14 28/37/14 10/38/14

usemtl BackColor
f 10/38/13 28/37/13 8/18/13

usemtl M_0043_SaddleBrown
v -0.2 0.3 -0.47
vt -27.5591 11.811
f 29/40/12 10/12/12 28/9/12

v 0.2 0.3 -0.47
vt -11.811 11.811
f 30/41/12 10/12/12 29/40/12

v 0.2 0.33 -0.47
vt -11.811 12.9921
f 10/12/12 30/41/12 31/42/12

usemtl BackColor
f 31/42/11 30/41/11 10/12/11

usemtl M_0043_SaddleBrown
vt -0.787402 11.811
v 0.2 0.7 -0.45
vt -7.10543e-015 27.5591
f 30/43/7 32/44/7 31/14/7

v 0.2 0.3 -0.45
vt 2.13163e-014 11.811
f 32/44/7 30/43/7 33/45/7

usemtl BackColor
f 33/45/8 30/43/8 32/44/8

usemtl M_0043_SaddleBrown
vt 0.787402 11.811
v -0.2 0.3 -0.45
vt -3.27822e-015 27.5591
vt -2.45945e-014 11.811
f 30/46/14 34/47/14 33/48/14

vt 0.787402 27.5591
f 34/47/14 30/46/14 29/49/14

usemtl BackColor
f 33/48/13 34/47/13 30/46/13

usemtl M_0042_Sienna
v -0.5 0 -0.45
vt -39.3701 7.88861e-030
f 35/50/12 33/41/12 34/40/12

v 0.5 0 -0.45
vt 0 7.88861e-030
f 36/51/12 33/41/12 35/50/12

vt -11.811 27.5591
f 33/41/12 36/51/12 32/52/12

usemtl BackColor
f 35/50/11 33/41/11 36/51/11

f 34/40/11 33/41/11 35/50/11

usemtl M_0042_Sienna
v -0.5 1 -0.45
vt -39.3701 39.3701
f 35/50/12 34/40/12 37/53/12

usemtl BackColor
f 37/53/11 34/40/11 35/50/11

usemtl M_0042_Sienna
v -0.2 0.7 -0.45
vt -27.5591 27.5591
f 38/54/12 37/53/12 34/40/12

f 32/52/12 37/53/12 38/54/12

v 0.5 1 -0.45
vt 0 39.3701
f 32/52/12 39/55/12 37/53/12

f 39/55/12 32/52/12 36/51/12

usemtl BackColor
f 36/51/11 32/52/11 39/55/11

f 32/52/11 36/51/11 33/41/11

f 37/53/11 39/55/11 32/52/11

usemtl M_0042_Sienna
v 0.5 1 -0.55
vt 3.93701 0
vt -1.09274e-014 39.3701
vt -1.09274e-014 0
f 40/56/14 37/57/14 39/58/14

v -0.5 1 -0.55
vt 3.93701 39.3701
f 37/57/14 40/56/14 41/59/14

usemtl BackColor
f 39/58/13 37/57/13 40/56/13

f 41/59/13 40/56/13 37/57/13

usemtl M_0042_Sienna
v 0.2 0.7 -0.55
vt 39.3701 39.3701
f 40/55/11 42/23/11 41/60/11

v 0.2 0.3 -0.55
vt 11.811 11.811
f 42/23/11 40/55/11 43/61/11

usemtl BackColor
f 41/60/12 42/23/12 40/55/12

usemtl M_0042_Sienna
v -0.2 0.7 -0.55
f 41/60/11 42/23/11 44/25/11

usemtl BackColor
f 44/25/12 42/23/12 41/60/12

usemtl M_0043_SaddleBrown
vt -3.93701 11.811
vt -3.14961 27.5591
vt -3.93701 27.5591
f 42/62/13 17/63/13 44/64/13

vt -3.14961 11.811
f 17/63/13 42/62/13 16/65/13

usemtl BackColor
f 16/65/14 42/62/14 17/63/14

usemtl M_0043_SaddleBrown
f 43/62/7 16/63/7 42/64/7

v 0.2 0.3 -0.53
f 16/63/7 43/62/7 45/65/7

usemtl BackColor
f 45/65/8 43/62/8 16/63/8

usemtl M_0043_SaddleBrown
vt 3.93701 11.811
v -0.2 0.3 -0.53
vt 3.14961 27.5591
vt 3.14961 11.811
f 43/66/14 46/67/14 45/68/14

v -0.2 0.3 -0.55
vt 3.93701 27.5591
f 46/67/14 43/66/14 47/69/14

usemtl BackColor
f 45/68/13 46/67/13 43/66/13

usemtl M_0043_SaddleBrown
vt 27.5591 11.811
f 15/24/11 45/61/11 46/70/11

f 45/61/11 15/24/11 16/23/11

usemtl BackColor
f 16/23/12 15/24/12 45/61/12

f 15/24/12 16/23/12 14/22/12

f 46/70/12 45/61/12 15/24/12

usemtl FrontColor
f 29/49/14 45/68/14 46/67/14

f 45/68/14 29/49/14 30/46/14

usemtl BackColor
f 30/46/13 29/49/13 45/68/13

f 29/40/11 10/12/11 30/41/11

f 28/9/11 10/12/11 29/40/11

usemtl M_0043_SaddleBrown
v -0.2 0.33 -0.47
vt -27.5591 12.9921
f 29/40/12 28/9/12 48/71/12

usemtl BackColor
f 48/71/11 28/9/11 29/40/11

usemtl M_0043_SaddleBrown
v -0.2 0.67 -0.47
vt -27.5591 26.378
f 28/9/12 49/72/12 48/71/12

vt -26.378 26.378
f 49/72/12 28/9/12 27/73/12

usemtl BackColor
f 27/73/11 28/9/11 49/72/11

f 27/37/10 25/8/10 28/38/10

f 26/5/10 25/8/10 27/37/10

usemtl M_0045_Goldenrod
vt -26.378 25.5906
vt -26.378 13.7795
f 3/11/12 26/74/12 25/75/12

vt -25.5906 25.5906
f 26/74/12 3/11/12 1/76/12

usemtl BackColor
f 1/76/11 3/11/11 26/74/11

usemtl M_0094_PowderBlue
vn 0 0 1
f 6/10/15 1/76/15 3/11/15

v 0.15 0.65 -0.49
vt -13.7795 25.5906
f 1/76/15 6/10/15 50/77/15

usemtl BackColor
vn -0 -0 -1
f 50/77/16 6/10/16 1/76/16

usemtl M_0045_Goldenrod
f 50/1/1 5/2/1 6/3/1

v 0.15 0.65 -0.51
f 5/2/1 50/1/1 51/4/1

usemtl BackColor
f 6/3/2 5/2/2 50/1/2

f 51/4/2 50/1/2 5/2/2

usemtl M_0045_Goldenrod
vn 1.65222e-029 -1 -3.60956e-014
f 50/3/17 4/4/17 51/2/17

f 4/4/17 50/3/17 1/1/17

usemtl BackColor
vn -1.65222e-029 1 3.60956e-014
f 1/1/18 50/3/18 4/4/18

usemtl M_0045_Goldenrod
vn -1.38778e-016 4.44089e-016 1
v -0.17 0.67 -0.49
f 50/77/19 52/73/19 1/76/19

v 0.17 0.65 -0.49
vt -12.9921 25.5906
f 53/78/19 52/73/19 50/77/19

v 0.17 0.67 -0.49
vt -12.9921 26.378
f 52/73/19 53/78/19 54/79/19

usemtl BackColor
vn 1.38778e-016 -4.44089e-016 -1
f 54/79/20 53/78/20 52/73/20

usemtl M_0043_SaddleBrown
f 53/1/7 11/16/7 54/36/7

f 9/3/7 11/16/7 53/1/7

usemtl BackColor
f 11/16/8 10/14/8 9/3/8

usemtl M_0043_SaddleBrown
f 31/42/12 11/79/12 10/12/12

v 0.2 0.67 -0.47
vt -11.811 26.378
f 11/79/12 31/42/12 55/80/12

usemtl BackColor
f 55/80/11 31/42/11 11/79/11

usemtl M_0043_SaddleBrown
f 31/14/7 32/44/7 55/16/7

usemtl BackColor
f 31/14/8 32/44/8 30/43/8

f 55/16/8 32/44/8 31/14/8

usemtl M_0043_SaddleBrown
v 0.2 0.7 -0.47
vt -0.787402 27.5591
f 55/16/7 32/44/7 56/81/7

usemtl BackColor
f 56/81/8 32/44/8 55/16/8

usemtl M_0043_SaddleBrown
vt -2.07725e-014 27.5591
vt 5.43747e-016 11.811
f 38/82/13 56/43/13 32/83/13

v -0.2 0.7 -0.47
f 56/43/13 38/82/13 57/81/13

usemtl BackColor
f 32/83/14 56/43/14 38/82/14

f 57/81/14 38/82/14 56/43/14

usemtl M_0043_SaddleBrown
vt 2.84217e-014 27.5591
f 38/84/9 49/37/9 57/49/9

f 38/84/9 48/38/9 49/37/9

vt 0 11.811
f 34/85/9 48/38/9 38/84/9

f 48/38/9 34/85/9 29/46/9

usemtl BackColor
f 29/46/10 34/85/10 48/38/10

f 29/49/13 30/46/13 34/47/13

f 38/84/10 48/38/10 34/85/10

f 49/37/10 48/38/10 38/84/10

f 48/71/11 49/72/11 28/9/11

usemtl FrontColor
f 17/63/7 48/14/7 49/16/7

f 46/65/7 48/14/7 17/63/7

f 48/14/7 46/65/7 29/43/7

usemtl BackColor
f 29/43/8 46/65/8 48/14/8

f 46/67/13 45/68/13 29/49/13

f 17/63/8 48/14/8 46/65/8

f 49/16/8 48/14/8 17/63/8

usemtl FrontColor
f 17/63/7 49/16/7 57/81/7

usemtl BackColor
f 57/81/8 49/16/8 17/63/8

usemtl M_0043_SaddleBrown
f 27/73/12 57/54/12 49/72/12

f 11/79/12 57/54/12 27/73/12

f 55/80/12 57/54/12 11/79/12

f 57/54/12 55/80/12 56/52/12

usemtl BackColor
f 56/52/11 55/80/11 57/54/11

usemtl FrontColor
f 55/37/9 16/67/9 56/49/9

f 31/38/9 16/67/9 55/37/9

f 30/46/9 16/67/9 31/38/9

f 16/67/9 30/46/9 45/68/9

usemtl BackColor
f 45/68/10 30/46/10 16/67/10

f 31/38/10 16/67/10 30/46/10

f 55/37/10 16/67/10 31/38/10

f 56/49/10 16/67/10 55/37/10

usemtl FrontColor
f 57/81/13 16/65/13 56/43/13

f 16/65/13 57/81/13 17/63/13

usemtl BackColor
f 56/43/14 16/65/14 57/81/14

f 17/63/14 57/81/14 16/65/14

f 11/79/11 57/54/11 55/80/11

f 27/73/11 57/54/11 11/79/11

f 49/72/11 57/54/11 27/73/11

f 57/49/10 49/37/10 38/84/10

usemtl M_0043_SaddleBrown
f 27/16/13 54/15/13 11/14/13

f 54/15/13 27/16/13 52/36/13

usemtl BackColor
f 11/14/14 54/15/14 27/16/14

f 54/36/8 11/16/8 53/1/8

f 53/1/8 11/16/8 9/3/8

usemtl FrontColor
f 9/8/9 21/7/9 53/5/9

f 9/8/9 13/6/9 21/7/9

usemtl BackColor
f 21/7/10 13/6/10 9/8/10

f 21/4/8 13/2/8 14/19/8

usemtl M_0045_Goldenrod
vt 12.9921 25.5906
f 5/30/11 21/86/11 13/29/11

vt 13.7795 25.5906
f 21/86/11 5/30/11 51/87/11

usemtl BackColor
f 13/29/12 21/86/12 5/30/12

f 51/87/12 5/30/12 21/86/12

usemtl M_0094_PowderBlue
vn 9.00388e-016 0 -1
f 2/31/21 51/87/21 5/30/21

vt 25.5906 25.5906
f 51/87/21 2/31/21 4/88/21

usemtl BackColor
vn -9.00388e-016 -0 1
f 5/30/22 51/87/22 2/31/22

f 4/88/22 2/31/22 51/87/22

usemtl M_0045_Goldenrod
f 4/4/2 1/1/2 2/2/2

usemtl FrontColor
f 4/7/14 26/39/14 1/5/14

v -0.17 0.65 -0.51
f 26/39/14 4/7/14 58/35/14

usemtl BackColor
f 1/5/13 26/39/13 4/7/13

usemtl M_0045_Goldenrod
f 1/76/19 52/73/19 26/74/19

usemtl BackColor
f 1/76/20 52/73/20 50/77/20

f 26/74/20 52/73/20 1/76/20

usemtl FrontColor
f 52/36/7 58/4/7 26/1/7

f 58/4/7 52/36/7 19/27/7

usemtl BackColor
f 26/1/8 58/4/8 52/36/8

f 58/35/13 4/7/13 26/39/13

usemtl M_0045_Goldenrod
vt 26.378 25.5906
f 19/26/11 4/88/11 58/89/11

f 19/26/11 51/87/11 4/88/11

f 20/22/11 51/87/11 19/26/11

f 51/87/11 20/22/11 21/86/11

usemtl BackColor
f 21/86/12 20/22/12 51/87/12

usemtl FrontColor
f 54/39/9 21/7/9 20/35/9

f 21/7/9 54/39/9 53/5/9

usemtl BackColor
f 53/5/10 54/39/10 21/7/10

f 20/35/10 21/7/10 54/39/10

f 20/27/8 21/4/8 14/19/8

usemtl FrontColor
f 20/17/14 52/39/14 54/18/14

f 52/39/14 20/17/14 19/35/14

usemtl BackColor
f 54/18/13 52/39/13 20/17/13

f 52/36/14 27/16/14 54/15/14

usemtl M_0043_SaddleBrown
f 27/37/9 26/5/9 52/39/9

usemtl BackColor
f 52/39/10 26/5/10 27/37/10

f 19/35/13 20/17/13 52/39/13

f 19/26/12 51/87/12 20/22/12

f 4/88/12 51/87/12 19/26/12

f 51/2/18 4/4/18 50/3/18

usemtl FrontColor
f 50/8/14 21/17/14 51/6/14

f 21/17/14 50/8/14 53/18/14

usemtl BackColor
f 53/18/13 50/8/13 21/17/13

usemtl M_0045_Goldenrod
f 50/77/12 9/13/12 53/78/12

f 9/13/12 50/77/12 6/10/12

usemtl BackColor
f 53/78/11 9/13/11 50/77/11

f 53/5/10 21/7/10 9/8/10

f 6/10/11 50/77/11 9/13/11

f 50/77/20 52/73/20 53/78/20

f 51/6/13 21/17/13 50/8/13

f 58/89/12 4/88/12 19/26/12

usemtl M_0045_Goldenrod
f 4/88/11 23/32/11 58/89/11

f 23/32/11 4/88/11 2/31/11

usemtl BackColor
f 2/31/12 4/88/12 23/32/12

f 58/89/12 23/32/12 4/88/12

usemtl M_0043_SaddleBrown
f 23/6/9 18/33/9 58/7/9

usemtl BackColor
f 23/6/10 18/33/10 22/17/10

f 58/7/10 18/33/10 23/6/10

usemtl M_0043_SaddleBrown
f 58/7/9 18/33/9 19/35/9

usemtl BackColor
f 19/35/10 18/33/10 58/7/10

f 18/19/14 19/27/14 14/21/14

f 19/27/8 52/36/8 58/4/8

usemtl FrontColor
f 23/2/7 26/1/7 58/4/7

usemtl BackColor
f 58/4/8 26/1/8 23/2/8

f 2/7/4 5/6/4 3/5/4

usemtl M_0043_SaddleBrown
f 47/66/9 17/67/9 46/68/9

f 17/67/9 47/66/9 44/69/9

usemtl BackColor
f 46/68/10 17/67/10 47/66/10

usemtl M_0043_SaddleBrown
f 17/25/11 18/26/11 46/70/11

usemtl BackColor
f 46/70/12 18/26/12 17/25/12

usemtl M_0043_SaddleBrown
f 24/28/11 46/70/11 18/26/11

f 15/24/11 46/70/11 24/28/11

usemtl BackColor
f 24/28/12 46/70/12 15/24/12

f 18/26/12 46/70/12 24/28/12

f 24/33/13 15/34/13 22/35/13

f 44/69/10 47/66/10 17/67/10

usemtl M_0042_Sienna
v -0.5 2.16573e-015 -0.55
vt 39.3701 8.63579e-014
f 47/70/11 59/90/11 44/25/11

f 43/61/11 59/90/11 47/70/11

v 0.5 2.16573e-015 -0.55
vt 0 8.63579e-014
f 43/61/11 60/91/11 59/90/11

f 60/91/11 43/61/11 40/55/11

usemtl BackColor
f 40/55/12 43/61/12 60/91/12

f 43/61/12 40/55/12 42/23/12

f 42/64/8 16/63/8 43/62/8

f 59/90/12 60/91/12 43/61/12

usemtl M_0042_Sienna
vt -2.84217e-014 0
vt -3.93701 39.3701
vt -3.93701 0
f 36/92/13 59/93/13 60/94/13

vt -2.84217e-014 39.3701
f 59/93/13 36/92/13 35/95/13

usemtl BackColor
f 35/95/14 36/92/14 59/93/14

f 60/94/14 59/93/14 36/92/14

usemtl M_0042_Sienna
vt 3.93701 8.52651e-014
vt 2.84217e-014 0
f 60/96/9 39/55/9 36/97/9

f 39/55/9 60/96/9 40/59/9

usemtl BackColor
f 36/97/10 39/55/10 60/96/10

f 40/59/10 60/96/10 39/55/10

usemtl M_0042_Sienna
vt -3.93701 8.52651e-014
f 37/55/7 59/98/7 35/92/7

f 59/98/7 37/55/7 41/93/7

usemtl BackColor
f 35/92/8 59/98/8 37/55/8

f 41/93/8 37/55/8 59/98/8

usemtl M_0042_Sienna
f 41/60/11 44/25/11 59/90/11

usemtl BackColor
f 59/90/12 44/25/12 41/60/12

f 44/25/12 59/90/12 47/70/12

f 47/70/12 59/90/12 43/61/12

f 47/69/13 43/66/13 46/67/13

f 44/64/14 17/63/14 42/62/14

f 34/40/11 37/53/11 38/54/11

f 38/54/11 37/53/11 32/52/11

f 10/12/11 11/79/11 31/42/11

f 3/11/16 1/76/16 6/10/16

f 3/11/6 6/10/6 7/9/6

f 7/9/6 6/10/6 8/12/6

f 7/39/13 8/18/13 28/37/13

usemtl M_0045_Goldenrod
f 7/9/5 3/11/5 25/75/5

usemtl BackColor
f 25/75/6 3/11/6 7/9/6

f 25/75/11 26/74/11 3/11/11

