# Alias OBJ Model File
# Exported from SketchUp, (c) 2000-2012 Trimble Navigation Limited
# File units = meters

mtllib window_bay_4b.mtl

g Mesh1 window_15_1 Model

usemtl FrontColor
v 0.33 0.67 -0.33
vt 3.14961 6.69291
vn 0 1 -0
v 0.01 0.67 -0.31
vt 2.3622 19.2913
v 0.33 0.67 -0.31
vt 2.3622 6.69291
f 1/1/1 2/2/1 3/3/1

v -0.01 0.67 -0.31
vt 2.3622 20.0787
f 2/2/1 1/1/1 4/4/1

usemtl M_0043_SaddleBrown
vn -0 -1 0
f 3/3/2 2/2/2 1/1/2

usemtl FrontColor
v 0.01 0.67 -0.29
vt 1.5748 19.2913
vn -5.63993e-016 1 -2.70717e-014
f 5/5/3 3/3/3 2/2/3

v 0.33 0.67 -0.29
vt 1.5748 6.69291
f 3/3/3 5/5/3 6/6/3

usemtl M_0043_SaddleBrown
vn 5.63993e-016 -1 2.70717e-014
f 6/6/4 5/5/4 3/3/4

usemtl FrontColor
v -0.01 0.67 -0.29
vt 1.5748 20.0787
vn 2.95808e-030 1 -3.60956e-014
f 7/7/5 6/6/5 5/5/5

v -0.33 0.67 -0.27
vt 0.787402 32.6772
f 8/8/5 6/6/5 7/7/5

v 0.33 0.67 -0.27
vt 0.787402 6.69291
f 6/6/5 8/8/5 9/9/5

usemtl M_0043_SaddleBrown
vn -2.95808e-030 -1 3.60956e-014
f 9/9/6 8/8/6 6/6/6

vt -6.69291 26.378
vn -1.36726e-016 -2.19342e-032 1
v -0.33 0.7 -0.27
vt -32.6772 27.5591
vt -32.6772 26.378
f 9/10/7 10/11/7 8/12/7

v 0.33 0.7 -0.27
vt -6.69291 27.5591
f 10/11/7 9/10/7 11/13/7

usemtl BackColor
vn 1.36726e-016 2.19342e-032 -1
f 11/13/8 9/10/8 10/11/8

usemtl M_0043_SaddleBrown
v 0.33 0.3 -0.27
vt -6.69291 11.811
vn 0 0 1
f 12/14/9 11/13/9 9/10/9

v 0.36 0.3 -0.27
vt -5.51181 11.811
f 13/15/9 11/13/9 12/14/9

v 0.36 0.7 -0.27
vt -5.51181 27.5591
f 11/13/9 13/15/9 14/16/9

usemtl BackColor
vn -0 -0 -1
f 14/16/10 13/15/10 11/13/10

usemtl M_0043_SaddleBrown
vt -0.787402 11.811
vn -1 0 -8.32667e-017
v 0.36 0.7 -0.25
vt -2.84217e-014 27.5591
vt -0.787402 27.5591
f 13/17/11 15/18/11 14/19/11

v 0.36 0.3 -0.25
vt 0 11.811
f 15/18/11 13/17/11 16/20/11

usemtl BackColor
vn 1 -0 8.32667e-017
f 16/20/12 13/17/12 15/18/12

usemtl M_0043_SaddleBrown
vt 0.787402 5.51181
vn 2.31112e-032 1 -2.77556e-016
v -0.36 0.3 -0.25
vt 2.74496e-016 33.8583
vt -3.27822e-015 5.51181
f 13/21/13 17/22/13 16/23/13

f 17/22/13 13/21/13 12/9/13

usemtl BackColor
vn -2.31112e-032 -1 2.77556e-016
f 16/23/14 17/22/14 13/21/14

usemtl M_0042_Sienna
v -0.4 -3.60956e-016 -0.25
vt -35.4331 7.10543e-014
vn 1.42331e-016 -1.80478e-016 1
vt -33.8583 11.811
f 18/24/15 16/15/15 17/25/15

v 0.4 -1.97523e-015 -0.25
vt -3.93701 7.50017e-015
f 19/26/15 16/15/15 18/24/15

f 16/15/15 19/26/15 15/16/15

usemtl BackColor
vn -1.42331e-016 1.80478e-016 -1
f 18/24/16 16/15/16 19/26/16

f 17/25/16 16/15/16 18/24/16

usemtl M_0042_Sienna
v -0.4 1 -0.25
vt -35.4331 39.3701
f 18/24/15 17/25/15 20/27/15

usemtl BackColor
f 20/27/16 17/25/16 18/24/16

usemtl M_0042_Sienna
v -0.36 0.7 -0.25
vt -33.8583 27.5591
f 21/28/15 20/27/15 17/25/15

f 15/16/15 20/27/15 21/28/15

v 0.4 1 -0.25
vt -3.93701 39.3701
f 15/16/15 22/29/15 20/27/15

f 22/29/15 15/16/15 19/26/15

usemtl BackColor
f 19/26/16 15/16/16 22/29/16

f 15/16/16 19/26/16 16/15/16

f 20/27/16 22/29/16 15/16/16

usemtl M_0042_Sienna
v 0.4 1 -0.35
vt 3.93701 3.93701
vn 3.00556e-031 1 -3.60956e-015
vt -1.38556e-013 35.4331
vt -1.42109e-013 3.93701
f 23/30/17 20/31/17 22/32/17

v -0.4 1 -0.35
vt 3.93701 35.4331
f 20/31/17 23/30/17 24/33/17

usemtl BackColor
vn -3.00556e-031 -1 3.60956e-015
f 22/32/18 20/31/18 23/30/18

f 24/33/18 23/30/18 20/31/18

usemtl M_0042_Sienna
vt 3.93701 39.3701
vn 3.08864e-016 -5.41434e-016 -1
v 0.36 0.7 -0.35
vt 5.51181 27.5591
vt 35.4331 39.3701
f 23/34/19 25/35/19 24/36/19

v 0.36 0.3 -0.35
vt 5.51181 11.811
f 25/35/19 23/34/19 26/37/19

usemtl BackColor
vn -3.08864e-016 5.41434e-016 1
f 24/36/20 25/35/20 23/34/20

usemtl M_0042_Sienna
v -0.36 0.7 -0.35
vt 33.8583 27.5591
f 24/36/19 25/35/19 27/38/19

usemtl BackColor
f 27/38/20 25/35/20 24/36/20

usemtl M_0043_SaddleBrown
v -0.33 0.7 -0.33
vt -3.14961 32.6772
vt -3.93701 33.8583
vt -3.93701 5.51181
f 28/39/14 27/40/14 25/41/14

v -0.36 0.7 -0.33
vt -3.14961 33.8583
f 27/40/14 28/39/14 29/42/14

usemtl BackColor
f 29/42/13 28/39/13 27/40/13

usemtl FrontColor
v 0.33 0.7 -0.33
vt -3.14961 6.69291
vn -1.00185e-030 -1 1.20319e-014
f 30/43/21 29/42/21 28/39/21

vt -0.787402 32.6772
f 10/44/21 29/42/21 30/43/21

v -0.36 0.7 -0.27
vt -0.787402 33.8583
f 29/42/21 10/44/21 31/45/21

usemtl BackColor
vn 1.00185e-030 1 -1.20319e-014
f 31/45/22 10/44/22 29/42/22

usemtl M_0043_SaddleBrown
vt -0.787402 6.69291
f 11/46/14 31/45/14 10/44/14

vt -2.43252e-014 33.8583
f 31/45/14 11/46/14 21/47/14

usemtl BackColor
f 21/47/13 11/46/13 31/45/13

usemtl M_0043_SaddleBrown
vt -0.787402 5.51181
f 14/48/14 21/47/14 11/46/14

vt -2.07725e-014 5.51181
f 21/47/14 14/48/14 15/49/14

usemtl BackColor
f 15/49/13 14/48/13 21/47/13

f 14/19/12 15/18/12 13/17/12

usemtl FrontColor
v 0.36 0.3 -0.33
vt -3.14961 11.811
f 14/19/11 32/50/11 13/17/11

v 0.36 0.7 -0.33
vt -3.14961 27.5591
f 32/50/11 14/19/11 33/51/11

usemtl BackColor
f 13/17/12 32/50/12 14/19/12

usemtl FrontColor
vt 3.14961 5.51181
f 32/52/1 12/9/1 13/21/1

v -0.33 0.3 -0.27
f 12/9/1 32/52/1 34/8/1

usemtl BackColor
f 13/21/2 12/9/2 32/52/2

f 12/9/14 13/21/14 17/22/14

f 12/14/10 11/13/10 13/15/10

f 9/10/10 11/13/10 12/14/10

usemtl M_0043_SaddleBrown
v 0.33 0.33 -0.27
vt -6.69291 12.9921
f 12/14/9 9/10/9 35/53/9

usemtl BackColor
f 35/53/10 9/10/10 12/14/10

usemtl FrontColor
vt 0.787402 12.9921
vn 1 0 8.32667e-017
vt 1.5748 26.378
vt 0.787402 26.378
f 35/54/23 6/55/23 9/56/23

v 0.33 0.33 -0.29
vt 1.5748 12.9921
f 6/55/23 35/54/23 36/57/23

usemtl M_0043_SaddleBrown
vn -1 -0 -8.32667e-017
f 36/57/24 35/54/24 6/55/24

vn 1.8488e-030 1 -2.25597e-014
v -0.33 0.33 -0.27
f 36/6/25 37/8/25 35/9/25

v -0.01 0.33 -0.29
f 37/8/25 36/6/25 38/7/25

usemtl BackColor
vn -1.8488e-030 -1 2.25597e-014
f 35/9/26 37/8/26 36/6/26

usemtl M_0043_SaddleBrown
vt -32.6772 12.9921
vn -1.36726e-016 -2.61154e-031 1
f 37/58/27 12/14/27 35/53/27

vt -32.6772 11.811
f 12/14/27 37/58/27 34/59/27

usemtl BackColor
vn 1.36726e-016 2.61154e-031 -1
f 35/53/28 12/14/28 37/58/28

f 34/59/28 37/58/28 12/14/28

usemtl M_0043_SaddleBrown
f 37/58/9 31/28/9 34/59/9

f 8/12/9 31/28/9 37/58/9

f 31/28/9 8/12/9 10/11/9

usemtl BackColor
f 10/11/10 8/12/10 31/28/10

f 8/12/8 10/11/8 9/10/8

f 37/58/10 31/28/10 8/12/10

f 34/59/10 31/28/10 37/58/10

usemtl M_0043_SaddleBrown
v -0.36 0.3 -0.27
f 34/59/9 31/28/9 39/25/9

usemtl BackColor
f 39/25/10 31/28/10 34/59/10

usemtl M_0043_SaddleBrown
vt 0.787402 27.5591
vt 3.55271e-015 11.811
vt 0.787402 11.811
f 31/60/23 17/61/23 39/62/23

vt 3.19744e-014 27.5591
f 17/61/23 31/60/23 21/63/23

usemtl BackColor
f 39/62/24 17/61/24 31/60/24

usemtl M_0043_SaddleBrown
vt 0.787402 33.8583
f 17/22/13 12/9/13 39/64/13

usemtl BackColor
f 39/64/14 12/9/14 17/22/14

usemtl M_0043_SaddleBrown
f 39/64/13 12/9/13 34/8/13

usemtl BackColor
f 34/8/14 12/9/14 39/64/14

f 34/8/2 32/52/2 12/9/2

usemtl FrontColor
f 34/8/1 32/52/1 39/64/1

usemtl BackColor
f 39/64/2 32/52/2 34/8/2

usemtl FrontColor
v -0.36 0.3 -0.33
vt 3.14961 33.8583
f 39/64/1 32/52/1 40/65/1

usemtl BackColor
f 40/65/2 32/52/2 39/64/2

usemtl FrontColor
v 0.33 0.3 -0.33
f 40/65/1 32/52/1 41/1/1

usemtl BackColor
f 41/1/2 32/52/2 40/65/2

usemtl M_0043_SaddleBrown
vt 3.93701 5.51181
f 26/66/13 41/1/13 32/52/13

v -0.33 0.3 -0.33
vt 3.14961 32.6772
f 41/1/13 26/66/13 42/67/13

usemtl BackColor
f 32/52/14 41/1/14 26/66/14

usemtl M_0043_SaddleBrown
vt 6.69291 11.811
vn 1.20319e-014 -6.62912e-016 -1
f 41/68/29 33/35/29 32/37/29

vt 6.69291 27.5591
f 33/35/29 41/68/29 30/69/29

usemtl BackColor
vn -1.20319e-014 6.62912e-016 1
f 32/37/30 33/35/30 41/68/30

usemtl M_0043_SaddleBrown
vt -3.93701 11.811
f 33/51/11 26/70/11 32/50/11

vt -3.93701 27.5591
f 26/70/11 33/51/11 25/71/11

usemtl BackColor
f 32/50/12 26/70/12 33/51/12

f 25/71/12 33/51/12 26/70/12

usemtl M_0043_SaddleBrown
vt -3.14961 5.51181
f 33/72/14 28/39/14 25/41/14

f 28/39/14 33/72/14 30/43/14

usemtl BackColor
f 30/43/13 33/72/13 28/39/13

usemtl FrontColor
f 33/72/21 10/44/21 30/43/21

f 14/48/21 10/44/21 33/72/21

f 10/44/21 14/48/21 11/46/21

usemtl BackColor
f 11/46/22 14/48/22 10/44/22

f 11/46/13 21/47/13 14/48/13

f 33/72/22 10/44/22 14/48/22

f 30/43/22 10/44/22 33/72/22

f 30/43/22 29/42/22 10/44/22

f 28/39/22 29/42/22 30/43/22

usemtl M_0043_SaddleBrown
vt 32.6772 27.5591
vn -1.20319e-014 -6.62912e-016 -1
vt 33.8583 11.811
f 28/73/31 40/74/31 29/38/31

v -0.33 0.67 -0.33
vt 32.6772 26.378
f 43/75/31 40/74/31 28/73/31

v -0.33 0.33 -0.33
vt 32.6772 12.9921
f 44/76/31 40/74/31 43/75/31

vt 32.6772 11.811
f 40/74/31 44/76/31 42/77/31

usemtl BackColor
vn 1.20319e-014 6.62912e-016 1
f 42/77/32 44/76/32 40/74/32

usemtl M_0043_SaddleBrown
v 0.33 0.33 -0.33
vt 6.69291 12.9921
vn 1.36726e-016 0 -1
f 45/78/33 42/77/33 44/76/33

f 42/77/33 45/78/33 41/68/33

usemtl BackColor
vn -1.36726e-016 -0 1
f 41/68/34 45/78/34 42/77/34

usemtl M_0043_SaddleBrown
f 30/69/29 41/68/29 45/78/29

usemtl BackColor
f 30/69/30 41/68/30 33/35/30

f 45/78/30 41/68/30 30/69/30

usemtl M_0043_SaddleBrown
vt 6.69291 26.378
f 30/69/29 45/78/29 1/79/29

usemtl BackColor
f 1/79/30 45/78/30 30/69/30

usemtl FrontColor
vt 3.14961 26.378
v 0.33 0.33 -0.31
vt 2.3622 12.9921
vt 3.14961 12.9921
f 1/80/23 46/81/23 45/82/23

vt 2.3622 26.378
f 46/81/23 1/80/23 3/83/23

usemtl M_0043_SaddleBrown
f 45/82/24 46/81/24 1/80/24

vn 2.06632e-030 1 -2.48157e-014
v 0.01 0.33 -0.31
f 45/1/35 47/2/35 46/3/35

v -0.01 0.33 -0.31
f 47/2/35 45/1/35 48/4/35

usemtl BackColor
vn -2.06632e-030 -1 2.48157e-014
f 46/3/36 47/2/36 45/1/36

usemtl M_0043_SaddleBrown
v 0.01 0.33 -0.29
vn 3.52496e-016 1 -1.91758e-014
f 49/5/37 46/3/37 47/2/37

f 46/3/37 49/5/37 36/6/37

usemtl BackColor
vn -3.52496e-016 -1 1.91758e-014
f 36/6/38 49/5/38 46/3/38

usemtl M_0043_SaddleBrown
f 38/7/25 36/6/25 49/5/25

usemtl BackColor
f 38/7/26 36/6/26 37/8/26

f 49/5/26 36/6/26 38/7/26

usemtl FrontColor
vt 19.2913 12.9921
vn 2.81997e-016 6.69196e-033 -1
f 49/84/39 6/79/39 36/78/39

vt 19.2913 26.378
f 6/79/39 49/84/39 5/85/39

usemtl BackColor
vn -2.81997e-016 -6.69196e-033 1
f 36/78/40 6/79/40 49/84/40

usemtl FrontColor
f 36/57/23 3/83/23 6/55/23

f 3/83/23 36/57/23 46/81/23

usemtl M_0043_SaddleBrown
f 46/81/24 36/57/24 3/83/24

f 6/55/24 3/83/24 36/57/24

f 3/83/24 1/80/24 46/81/24

usemtl FrontColor
vn 2.81997e-016 1.40883e-033 -1
f 47/84/41 3/79/41 46/78/41

f 3/79/41 47/84/41 2/85/41

usemtl BackColor
vn -2.81997e-016 -1.40883e-033 1
f 46/78/42 3/79/42 47/84/42

f 2/85/42 47/84/42 3/79/42

usemtl M_0043_SaddleBrown
vt 20.0787 12.9921
vn 0 0 -1
f 48/86/43 2/85/43 47/84/43

vt 20.0787 26.378
f 2/85/43 48/86/43 4/87/43

usemtl BackColor
vn -0 -0 1
f 47/84/44 2/85/44 48/86/44

usemtl FrontColor
vt -1.5748 12.9921
vn -1 -2.0735e-018 -1.05749e-016
vt -2.3622 26.378
vt -2.3622 12.9921
f 49/88/45 2/89/45 47/90/45

vt -1.5748 26.378
f 2/89/45 49/88/45 5/91/45

usemtl BackColor
vn 1 2.0735e-018 1.05749e-016
f 47/90/46 2/89/46 49/88/46

f 5/91/46 49/88/46 2/89/46

usemtl FrontColor
f 38/86/43 5/85/43 49/84/43

f 5/85/43 38/86/43 7/87/43

usemtl M_0043_SaddleBrown
f 49/84/44 5/85/44 38/86/44

usemtl BackColor
f 5/85/40 49/84/40 6/79/40

usemtl M_0043_SaddleBrown
f 5/5/6 6/6/6 7/7/6

f 7/7/6 6/6/6 8/8/6

usemtl FrontColor
v -0.33 0.67 -0.29
vt 1.5748 32.6772
f 8/8/5 7/7/5 50/92/5

usemtl M_0043_SaddleBrown
f 50/92/6 7/7/6 8/8/6

usemtl FrontColor
vn 5.63993e-016 1 -2.70717e-014
f 4/4/47 50/92/47 7/7/47

v -0.33 0.67 -0.31
vt 2.3622 32.6772
f 50/92/47 4/4/47 51/93/47

usemtl M_0043_SaddleBrown
vn -5.63993e-016 -1 2.70717e-014
f 7/7/48 50/92/48 4/4/48

usemtl FrontColor
vn 2.81997e-016 -6.69196e-033 -1
v -0.33 0.33 -0.29
f 7/87/49 52/76/49 50/75/49

f 52/76/49 7/87/49 38/86/49

usemtl BackColor
vn -2.81997e-016 6.69196e-033 1
f 38/86/50 7/87/50 52/76/50

usemtl FrontColor
f 38/57/46 4/83/46 7/55/46

f 4/83/46 38/57/46 48/81/46

usemtl BackColor
f 48/81/45 38/57/45 4/83/45

usemtl M_0043_SaddleBrown
vn 7.01271e-030 1 -2.48157e-014
f 48/4/51 52/92/51 38/7/51

v -0.33 0.33 -0.31
f 52/92/51 48/4/51 53/93/51

usemtl BackColor
vn -7.01271e-030 -1 2.48157e-014
f 38/7/52 52/92/52 48/4/52

usemtl M_0043_SaddleBrown
f 37/8/25 38/7/25 52/92/25

usemtl BackColor
f 52/92/26 38/7/26 37/8/26

usemtl M_0043_SaddleBrown
f 50/55/23 37/54/23 52/57/23

f 37/54/23 50/55/23 8/56/23

usemtl BackColor
f 52/57/24 37/54/24 50/55/24

f 8/56/24 50/55/24 37/54/24

usemtl M_0043_SaddleBrown
f 52/57/23 51/83/23 50/55/23

f 51/83/23 52/57/23 53/81/23

usemtl BackColor
f 53/81/24 52/57/24 51/83/24

f 53/93/52 48/4/52 52/92/52

usemtl M_0043_SaddleBrown
f 48/4/35 45/1/35 53/93/35

usemtl BackColor
f 48/4/36 45/1/36 47/2/36

f 53/93/36 45/1/36 48/4/36

usemtl M_0043_SaddleBrown
f 53/93/35 45/1/35 44/67/35

usemtl BackColor
f 44/67/36 45/1/36 53/93/36

f 44/76/34 42/77/34 45/78/34

usemtl M_0043_SaddleBrown
f 43/80/23 53/81/23 44/82/23

f 53/81/23 43/80/23 51/83/23

usemtl BackColor
f 44/82/24 53/81/24 43/80/24

f 51/83/24 43/80/24 53/81/24

usemtl FrontColor
f 51/93/1 1/1/1 43/67/1

f 4/4/1 1/1/1 51/93/1

usemtl M_0043_SaddleBrown
f 4/4/2 1/1/2 2/2/2

f 51/93/2 1/1/2 4/4/2

f 43/67/2 1/1/2 51/93/2

f 43/75/33 30/69/33 1/79/33

f 30/69/33 43/75/33 28/73/33

usemtl BackColor
f 1/79/34 30/69/34 43/75/34

f 28/73/34 43/75/34 30/69/34

f 28/73/32 40/74/32 43/75/32

f 29/38/32 40/74/32 28/73/32

usemtl M_0043_SaddleBrown
v -0.36 0.3 -0.35
vt 3.93701 11.811
vt 3.14961 27.5591
vt 3.14961 11.811
f 54/94/23 29/95/23 40/96/23

vt 3.93701 27.5591
f 29/95/23 54/94/23 27/97/23

usemtl BackColor
f 40/96/24 29/95/24 54/94/24

usemtl FrontColor
f 29/95/23 39/62/23 40/96/23

f 39/62/23 29/95/23 31/60/23

usemtl BackColor
f 40/96/24 39/62/24 29/95/24

f 31/60/24 29/95/24 39/62/24

f 27/97/24 54/94/24 29/95/24

usemtl M_0042_Sienna
v -0.4 0 -0.35
vt 35.4331 8.73968e-014
f 54/74/19 55/98/19 27/38/19

f 26/37/19 55/98/19 54/74/19

v 0.4 -9.87615e-016 -0.35
vt 3.93701 4.85143e-014
f 26/37/19 56/99/19 55/98/19

f 56/99/19 26/37/19 23/34/19

usemtl BackColor
f 23/34/20 26/37/20 56/99/20

f 26/37/20 23/34/20 25/35/20

f 55/98/20 56/99/20 26/37/20

usemtl M_0042_Sienna
vt -1.42109e-014 3.93701
vn -1.62618e-015 -1 -6.74285e-015
vt -3.93701 35.4331
vt -3.93701 3.93701
f 19/100/53 55/101/53 56/102/53

vt -3.55271e-015 35.4331
f 55/101/53 19/100/53 18/103/53

usemtl BackColor
vn 1.62618e-015 1 6.74285e-015
f 18/103/54 19/100/54 55/101/54

f 56/102/54 55/101/54 19/100/54

usemtl M_0042_Sienna
vn -2.75479e-014 -1 -1.57667e-014
v 0.5 -2.16573e-015 -0.45
vt -7.87402 -3.42001e-027
f 56/102/55 57/104/55 19/100/55

v 0.5 0 -0.55
vt -11.811 7.10543e-015
f 57/104/55 56/102/55 58/105/55

usemtl BackColor
vn 2.75479e-014 1 1.57667e-014
f 19/100/56 57/104/56 56/102/56

usemtl M_0042_Sienna
v 0.5 1 -0.45
vt 7.04273 39.3701
vn 0.894427 -2.46011e-016 0.447214
vt -1.76068 6.63388e-015
vt 7.04273 -8.66294e-016
f 59/106/57 19/107/57 57/108/57

vt -1.76068 39.3701
f 19/107/57 59/106/57 22/109/57

usemtl BackColor
vn -0.894427 2.46011e-016 -0.447214
f 57/108/58 19/107/58 59/106/58

f 22/109/58 59/106/58 19/107/58

usemtl M_0042_Sienna
vt 7.87402 -3.55271e-013
vn -9.02389e-015 1 -5.41434e-015
vt -2.13163e-013 3.93701
f 59/110/59 23/30/59 22/111/59

v 0.5 1 -0.55
vt 11.811 -3.48166e-013
f 23/30/59 59/110/59 60/112/59

usemtl BackColor
vn 9.02389e-015 -1 5.41434e-015
f 22/111/60 23/30/60 59/110/60

usemtl FrontColor
vt 0 39.3701
vt 3.93701 4.63827e-014
f 22/113/23 56/114/23 23/34/23

vt 1.42109e-014 7.50017e-015
f 56/114/23 22/113/23 19/115/23

usemtl BackColor
f 19/115/24 22/113/24 56/114/24

f 23/34/24 56/114/24 22/113/24

usemtl M_0042_Sienna
vn -0.894427 -3.23914e-016 -0.447214
vt -10.5641 8.69761e-014
vt -1.76068 4.80936e-014
f 23/109/61 58/116/61 56/117/61

vt -10.5641 39.3701
f 58/116/61 23/109/61 60/118/61

usemtl BackColor
vn 0.894427 3.23914e-016 0.447214
f 56/117/62 58/116/62 23/109/62

f 58/105/56 56/102/56 57/104/56

usemtl M_0042_Sienna
vt 11.811 8.52651e-014
vt 7.87402 39.3701
vt 7.87402 0
f 58/119/23 59/120/23 57/121/23

vt 11.811 39.3701
f 59/120/23 58/119/23 60/122/23

usemtl BackColor
f 57/121/24 59/120/24 58/119/24

f 60/122/24 58/119/24 59/120/24

f 60/118/62 23/109/62 58/116/62

f 60/112/60 59/110/60 23/30/60

usemtl M_0042_Sienna
v -0.5 -2.16573e-015 -0.45
vt -7.87402 39.3701
vn 3.42908e-014 -1 -1.26334e-014
f 61/123/63 55/101/63 18/103/63

v -0.5 0 -0.55
vt -11.811 39.3701
f 55/101/63 61/123/63 62/124/63

usemtl BackColor
vn -3.42908e-014 1 1.26334e-014
f 18/103/64 55/101/64 61/123/64

usemtl FrontColor
vt 3.93701 8.52651e-014
vt 3.55271e-015 39.3701
vt 3.55271e-015 7.10543e-014
f 55/125/23 20/126/23 18/127/23

f 20/126/23 55/125/23 24/34/23

usemtl BackColor
f 18/127/24 20/126/24 55/125/24

usemtl M_0042_Sienna
v -0.5 1 -0.45
vt -24.6496 39.3701
vn -0.894427 -1.64007e-016 0.447214
vt -15.8462 7.6252e-014
vt -15.8462 39.3701
f 63/128/65 18/129/65 20/130/65

vt -24.6496 5.19776e-015
f 18/129/65 63/128/65 61/131/65

usemtl BackColor
vn 0.894427 1.64007e-016 -0.447214
f 61/131/66 63/128/66 18/129/66

usemtl M_0042_Sienna
vt -11.811 8.52651e-014
vt -7.87402 0
f 63/123/11 62/132/11 61/133/11

v -0.5 1 -0.55
f 62/132/11 63/123/11 64/124/11

usemtl BackColor
f 61/133/12 62/132/12 63/123/12

f 62/124/64 61/123/64 55/101/64

usemtl M_0042_Sienna
vt 28.1709 39.3701
vn 0.894427 -2.4191e-016 -0.447214
vt 19.3675 7.80244e-014
vt 28.1709 7.80244e-014
f 64/134/67 55/135/67 62/136/67

vt 19.3675 39.3701
f 55/135/67 64/134/67 24/137/67

usemtl BackColor
vn -0.894427 2.4191e-016 0.447214
f 62/136/68 55/135/68 64/134/68

f 24/137/68 64/134/68 55/135/68

usemtl M_0042_Sienna
vn 9.02389e-015 1 -5.41434e-015
f 63/120/69 24/33/69 64/122/69

vt -2.0961e-013 35.4331
f 24/33/69 63/120/69 20/138/69

usemtl BackColor
vn -9.02389e-015 -1 5.41434e-015
f 20/138/70 63/120/70 24/33/70

f 20/130/66 18/129/66 63/128/66

f 64/122/70 24/33/70 63/120/70

f 64/124/12 63/123/12 62/132/12

f 24/34/24 55/125/24 20/126/24

usemtl M_0042_Sienna
f 24/36/19 27/38/19 55/98/19

usemtl BackColor
f 55/98/20 27/38/20 24/36/20

f 27/38/20 55/98/20 54/74/20

f 54/74/20 55/98/20 26/37/20

usemtl M_0043_SaddleBrown
vt 3.93701 33.8583
f 54/139/13 42/67/13 26/66/13

f 42/67/13 54/139/13 40/65/13

usemtl BackColor
f 40/65/14 54/139/14 42/67/14

f 26/66/14 42/67/14 54/139/14

f 42/67/14 26/66/14 41/1/14

usemtl FrontColor
f 40/65/1 41/1/1 42/67/1

usemtl BackColor
f 42/67/2 41/1/2 40/65/2

f 43/75/32 40/74/32 44/76/32

usemtl FrontColor
vn 2.81997e-016 0 -1
f 4/87/71 53/76/71 51/75/71

f 53/76/71 4/87/71 48/86/71

usemtl BackColor
vn -2.81997e-016 -0 1
f 48/86/72 4/87/72 53/76/72

f 4/87/44 48/86/44 2/85/44

usemtl FrontColor
vn 0 1 -1.80478e-014
f 7/7/73 2/2/73 4/4/73

f 2/2/73 7/7/73 5/5/73

usemtl M_0043_SaddleBrown
vn -0 -1 1.80478e-014
f 5/5/74 7/7/74 2/2/74

f 7/87/44 38/86/44 5/85/44

usemtl BackColor
f 7/55/45 4/83/45 38/57/45

usemtl M_0043_SaddleBrown
f 4/4/74 2/2/74 7/7/74

f 2/2/4 3/3/4 5/5/4

usemtl BackColor
f 51/75/72 53/76/72 4/87/72

usemtl M_0043_SaddleBrown
f 51/93/48 4/4/48 50/92/48

usemtl BackColor
f 50/55/24 51/83/24 52/57/24

f 50/75/50 52/76/50 7/87/50

usemtl M_0043_SaddleBrown
vn -5.63993e-015 1 -1.91758e-014
f 38/7/75 47/2/75 48/4/75

f 47/2/75 38/7/75 49/5/75

usemtl BackColor
vn 5.63993e-015 -1 1.91758e-014
f 49/5/76 38/7/76 47/2/76

f 48/4/76 47/2/76 38/7/76

f 47/2/38 46/3/38 49/5/38

f 33/51/12 14/19/12 32/50/12

f 10/44/13 31/45/13 11/46/13

f 25/41/13 28/39/13 33/72/13

f 25/41/13 27/40/13 28/39/13

f 21/63/24 31/60/24 17/61/24

f 17/25/16 20/27/16 21/28/16

f 21/28/16 20/27/16 15/16/16

usemtl M_0043_SaddleBrown
f 9/56/24 6/55/24 35/54/24

