# Alias OBJ Model File
# Exported from SketchUp, (c) 2000-2012 Trimble Navigation Limited
# File units = meters

mtllib window_bay_7.mtl

g Mesh1 window_13_1 Model

usemtl FrontColor
v 0.33 0.77 -0.27
vt 0.787402 6.69291
vn -1.12799e-015 1 -1.89977e-014
v 0.01 0.77 -0.33
vt 3.14961 19.2913
v 0.01 0.77 -0.27
vt 0.787402 19.2913
f 1/1/1 2/2/1 3/3/1

v 0.33 0.77 -0.33
vt 3.14961 6.69291
f 2/2/1 1/1/1 4/4/1

usemtl M_0043_SaddleBrown
vn 1.12799e-015 -1 1.89977e-014
f 3/3/2 2/2/2 1/1/2

usemtl FrontColor
vn 3.2606e-027 1 -2.40637e-014
v -0.01 0.77 -0.27
vt 0.787402 20.0787
f 2/2/3 5/5/3 3/3/3

v -0.01 0.77 -0.33
vt 3.14961 20.0787
f 5/5/3 2/2/3 6/6/3

usemtl BackColor
vn -3.2606e-027 -1 2.40637e-014
f 3/3/4 5/5/4 2/2/4

usemtl M_0043_SaddleBrown
vt -20.0787 30.315
vn -1.35442e-013 5.01327e-015 1
v 0.01 0.23 -0.27
vt -19.2913 9.05512
vt -19.2913 30.315
f 5/7/5 7/8/5 3/9/5

v -0.01 0.23 -0.27
vt -20.0787 9.05512
f 7/8/5 5/7/5 8/10/5

usemtl BackColor
vn 1.35442e-013 -5.01327e-015 -1
f 3/9/6 7/8/6 5/7/6

usemtl M_0043_SaddleBrown
vt 0.787402 9.05512
vn 1 -1.33687e-015 1.21151e-014
vt 3.14961 30.315
vt 0.787402 30.315
f 7/11/7 2/12/7 3/13/7

v 0.01 0.23 -0.33
vt 3.14961 9.05512
f 2/12/7 7/11/7 9/14/7

usemtl BackColor
vn -1 1.33687e-015 -1.21151e-014
f 9/14/8 7/11/8 2/12/8

usemtl FrontColor
vt -0.787402 19.2913
vn -2.00371e-030 -1 2.40637e-014
v -0.01 0.23 -0.33
vt -3.14961 20.0787
vt -3.14961 19.2913
f 7/15/9 10/16/9 9/17/9

vt -0.787402 20.0787
f 10/16/9 7/15/9 8/18/9

usemtl BackColor
vn 2.00371e-030 1 -2.40637e-014
f 8/18/10 7/15/10 10/16/10

f 8/10/6 5/7/6 7/8/6

usemtl M_0043_SaddleBrown
vt -3.14961 30.315
vn -1 0 -8.32667e-017
vt -0.787402 9.05512
vt -0.787402 30.315
f 6/19/11 8/20/11 5/21/11

vt -3.14961 9.05512
f 8/20/11 6/19/11 10/22/11

usemtl BackColor
vn 1 -0 8.32667e-017
f 10/22/12 6/19/12 8/20/12

usemtl M_0043_SaddleBrown
vt 20.0787 30.315
vn 8.32667e-017 -3.34218e-014 -1
vt 19.2913 9.05512
vt 20.0787 9.05512
f 6/23/13 9/24/13 10/25/13

vt 19.2913 30.315
f 9/24/13 6/23/13 2/26/13

usemtl BackColor
vn -8.32667e-017 3.34218e-014 1
f 2/26/14 6/23/14 9/24/14

f 6/6/4 2/2/4 5/5/4

usemtl M_0043_SaddleBrown
v -0.36 0.8 -0.33
vt 33.8583 31.4961
vn 2.77555e-015 3.31377e-013 -1
f 11/27/15 2/26/15 6/23/15

vt 6.69291 30.315
f 11/27/15 4/28/15 2/26/15

v 0.36 0.8 -0.33
vt 5.51181 31.4961
f 12/29/15 4/28/15 11/27/15

v 0.36 0.77 -0.33
vt 5.51181 30.315
f 4/28/15 12/29/15 13/30/15

usemtl BackColor
vn -2.77555e-015 -3.31377e-013 1
f 13/30/16 12/29/16 4/28/16

usemtl M_0043_SaddleBrown
v 0.36 0.8 -0.35
vt -3.93701 31.4961
vt -3.14961 31.4961
f 14/31/11 13/19/11 12/32/11

v 0.36 0.23 -0.33
f 14/31/11 15/22/11 13/19/11

v 0.36 0.2 -0.35
vt -3.93701 7.87402
f 16/33/11 15/22/11 14/31/11

v 0.36 0.2 -0.33
vt -3.14961 7.87402
f 15/22/11 16/33/11 17/34/11

usemtl BackColor
f 17/34/12 16/33/12 15/22/12

usemtl M_0043_SaddleBrown
vt 3.93701 5.51181
vn 2.31112e-032 1 -2.77556e-016
v -0.36 0.2 -0.33
vt 3.14961 33.8583
vt 3.14961 5.51181
f 16/35/17 18/36/17 17/37/17

v -0.36 0.2 -0.35
vt 3.93701 33.8583
f 18/36/17 16/35/17 19/38/17

usemtl BackColor
vn -2.31112e-032 -1 2.77556e-016
f 17/37/18 18/36/18 16/35/18

usemtl M_0043_SaddleBrown
vt 33.8583 7.87402
vn 1.36388e-015 1.94014e-013 -1
vt 5.51181 9.05512
vt 5.51181 7.87402
f 18/39/19 15/40/19 17/41/19

v 0.33 0.23 -0.33
vt 6.69291 9.05512
f 15/40/19 18/39/19 20/42/19

usemtl BackColor
vn -1.36388e-015 -1.94014e-013 1
f 17/41/20 15/40/20 18/39/20

f 20/42/20 18/39/20 15/40/20

usemtl M_0043_SaddleBrown
f 20/42/19 18/39/19 9/24/19

usemtl BackColor
f 9/24/20 18/39/20 20/42/20

usemtl M_0043_SaddleBrown
f 9/24/19 18/39/19 10/25/19

usemtl BackColor
f 10/25/20 18/39/20 9/24/20

usemtl M_0043_SaddleBrown
v -0.33 0.23 -0.33
vt 32.6772 9.05512
f 10/25/19 18/39/19 21/43/19

usemtl BackColor
f 21/43/20 18/39/20 10/25/20

usemtl M_0043_SaddleBrown
v -0.36 0.23 -0.33
vt 33.8583 9.05512
f 21/43/19 18/39/19 22/44/19

usemtl BackColor
f 22/44/20 18/39/20 21/43/20

usemtl M_0043_SaddleBrown
vt 3.93701 7.87402
vn 1 0 8.32667e-017
vt 3.14961 7.87402
f 19/45/21 22/14/21 18/46/21

v -0.36 0.8 -0.35
vt 3.93701 31.4961
f 22/14/21 19/45/21 23/47/21

usemtl BackColor
vn -1 -0 -8.32667e-017
f 18/46/22 22/14/22 19/45/22

f 23/47/22 19/45/22 22/14/22

usemtl M_0042_Sienna
vn -1.42331e-016 -1.80478e-016 -1
v -0.4 2.16573e-015 -0.35
vt 35.4331 8.59757e-014
f 19/39/23 24/48/23 23/27/23

f 16/41/23 24/48/23 19/39/23

v 0.4 2.16573e-015 -0.35
vt 3.93701 8.59757e-014
f 16/41/23 25/49/23 24/48/23

v 0.4 1 -0.35
vt 3.93701 39.3701
f 25/49/23 16/41/23 26/50/23

usemtl BackColor
vn 1.42331e-016 1.80478e-016 1
f 26/50/24 16/41/24 25/49/24

usemtl M_0042_Sienna
f 14/29/23 26/50/23 16/41/23

v -0.4 1 -0.35
vt 35.4331 39.3701
f 26/50/23 14/29/23 27/51/23

usemtl BackColor
f 27/51/24 14/29/24 26/50/24

usemtl M_0042_Sienna
f 27/51/23 14/29/23 23/27/23

usemtl BackColor
f 23/27/24 14/29/24 27/51/24

usemtl M_0043_SaddleBrown
vt -3.93701 5.51181
vt -3.14961 33.8583
vt -3.93701 33.8583
f 14/52/18 11/53/18 23/54/18

vt -3.14961 5.51181
f 11/53/18 14/52/18 12/55/18

usemtl BackColor
f 12/55/17 14/52/17 11/53/17

f 12/32/12 13/19/12 14/31/12

f 13/19/12 15/22/12 14/31/12

usemtl M_0043_SaddleBrown
vn 7.82071e-014 -2.77401e-014 -1
f 20/42/25 13/30/25 15/40/25

f 13/30/25 20/42/25 4/28/25

usemtl BackColor
vn -7.82071e-014 2.77401e-014 1
f 15/40/26 13/30/26 20/42/26

f 4/28/26 20/42/26 13/30/26

usemtl FrontColor
vn 1 -4.03324e-029 -5.07324e-015
v 0.33 0.23 -0.27
f 4/12/27 28/11/27 20/14/27

v 0.33 0.769773 -0.27
vt 0.787402 30.306
f 28/11/27 4/12/27 29/56/27

usemtl M_0043_SaddleBrown
vn -1 4.03324e-029 5.07324e-015
f 20/14/28 28/11/28 4/12/28

usemtl FrontColor
vt -0.787402 6.69291
vn 4.1629e-028 -1 1.89977e-014
vt -3.14961 6.69291
f 28/57/29 9/17/29 20/58/29

f 9/17/29 28/57/29 7/15/29

usemtl M_0043_SaddleBrown
vn -4.1629e-028 1 -1.89977e-014
f 7/15/30 28/57/30 9/17/30

usemtl M_0094_PowderBlue
vt -6.69291 9.05512
vn 1.68365e-014 1.00265e-014 1
f 28/59/31 3/9/31 7/8/31

vt -6.69291 30.306
f 29/60/31 3/9/31 28/59/31

vt -6.69291 30.315
f 3/9/31 29/60/31 1/61/31

usemtl BackColor
vn -1.68365e-014 -1.00265e-014 -1
f 1/61/32 29/60/32 3/9/32

usemtl FrontColor
f 29/56/27 4/12/27 1/13/27

usemtl M_0043_SaddleBrown
f 29/56/28 4/12/28 28/11/28

f 1/13/28 4/12/28 29/56/28

f 4/4/2 1/1/2 2/2/2

usemtl M_0094_PowderBlue
f 4/28/13 9/24/13 2/26/13

f 9/24/13 4/28/13 20/42/13

usemtl BackColor
f 20/42/14 4/28/14 9/24/14

f 2/26/14 9/24/14 4/28/14

f 2/26/16 4/28/16 11/27/16

f 11/27/16 4/28/16 12/29/16

f 6/23/16 2/26/16 11/27/16

usemtl M_0043_SaddleBrown
v -0.33 0.77 -0.33
vt 32.6772 30.315
f 11/27/15 6/23/15 30/62/15

usemtl BackColor
f 30/62/16 6/23/16 11/27/16

usemtl FrontColor
v -0.33 0.77 -0.27
vt 0.787402 32.6772
vn 1.12799e-015 1 -1.89977e-014
vt 3.14961 32.6772
f 31/63/33 6/6/33 30/64/33

f 6/6/33 31/63/33 5/5/33

usemtl M_0043_SaddleBrown
vn -1.12799e-015 -1 1.89977e-014
f 5/5/34 31/63/34 6/6/34

usemtl M_0094_PowderBlue
vt -32.6772 30.315
vn -8.54317e-015 1.50398e-014 1
f 31/65/35 8/10/35 5/7/35

v -0.33 0.23 -0.27
vt -32.6772 9.05512
f 8/10/35 31/65/35 32/66/35

usemtl BackColor
vn 8.54317e-015 -1.50398e-014 -1
f 5/7/36 8/10/36 31/65/36

f 5/21/12 8/20/12 6/19/12

f 32/66/36 31/65/36 8/10/36

usemtl FrontColor
f 30/19/11 32/20/11 31/21/11

f 32/20/11 30/19/11 21/22/11

usemtl M_0043_SaddleBrown
f 21/22/12 30/19/12 32/20/12

usemtl M_0094_PowderBlue
f 6/23/13 21/43/13 30/62/13

f 21/43/13 6/23/13 10/25/13

usemtl BackColor
f 10/25/14 6/23/14 21/43/14

f 10/25/14 9/24/14 6/23/14

f 9/17/10 10/16/10 7/15/10

f 30/62/14 21/43/14 6/23/14

usemtl M_0043_SaddleBrown
vn 5.41434e-014 -3.04139e-014 -1
f 22/44/37 30/62/37 21/43/37

v -0.36 0.77 -0.33
vt 33.8583 30.315
f 30/62/37 22/44/37 33/67/37

usemtl BackColor
vn -5.41434e-014 3.04139e-014 1
f 21/43/38 30/62/38 22/44/38

f 33/67/38 22/44/38 30/62/38

usemtl M_0043_SaddleBrown
f 22/14/21 23/47/21 33/12/21

usemtl BackColor
f 33/12/22 23/47/22 22/14/22

usemtl M_0043_SaddleBrown
vt 3.14961 31.4961
f 33/12/21 23/47/21 11/68/21

usemtl BackColor
f 11/68/22 23/47/22 33/12/22

f 23/54/17 11/53/17 14/52/17

usemtl M_0043_SaddleBrown
f 11/27/15 30/62/15 33/67/15

usemtl BackColor
f 33/67/16 30/62/16 11/27/16

usemtl M_0043_SaddleBrown
f 30/64/34 6/6/34 31/63/34

f 31/21/12 32/20/12 30/19/12

v -0.36 0.77 -0.27
vt -33.8583 30.315
vn -3.15836e-014 1.49563e-014 1
f 34/69/39 32/66/39 31/65/39

v -0.36 0.23 -0.27
vt -33.8583 9.05512
f 32/66/39 34/69/39 35/70/39

usemtl BackColor
vn 3.15836e-014 -1.49563e-014 -1
f 31/65/40 32/66/40 34/69/40

f 35/70/40 34/69/40 32/66/40

usemtl M_0043_SaddleBrown
v -0.36 0.8 -0.25
vt 3.19744e-014 31.4961
f 36/71/21 35/11/21 34/13/21

v -0.36 0.2 -0.25
vt 3.55271e-015 7.87402
f 37/72/21 35/11/21 36/71/21

v -0.36 0.2 -0.27
vt 0.787402 7.87402
f 35/11/21 37/72/21 38/73/21

usemtl BackColor
f 38/73/22 37/72/22 35/11/22

usemtl M_0043_SaddleBrown
vt 1.36724e-015 33.8583
v 0.36 0.2 -0.27
vt 0.787402 5.51181
vt 0.787402 33.8583
f 37/74/17 39/75/17 38/76/17

v 0.36 0.2 -0.25
vt 1.36724e-015 5.51181
f 39/75/17 37/74/17 40/77/17

usemtl BackColor
f 40/77/18 37/74/18 39/75/18

usemtl M_0042_Sienna
v -0.4 0 -0.25
vt -35.4331 -6.41186e-030
vn -8.32667e-017 -3.60956e-016 1
vt -5.51181 7.87402
vt -33.8583 7.87402
f 41/78/41 40/79/41 37/80/41

v 0.4 0 -0.25
vt -3.93701 -5.12949e-030
f 42/81/41 40/79/41 41/78/41

v 0.36 0.8 -0.25
vt -5.51181 31.4961
f 40/79/41 42/81/41 43/82/41

usemtl BackColor
vn 8.32667e-017 3.60956e-016 -1
f 41/78/42 40/79/42 42/81/42

f 37/80/42 40/79/42 41/78/42

usemtl M_0042_Sienna
v -0.4 1 -0.25
vt -35.4331 39.3701
f 41/78/41 37/80/41 44/83/41

usemtl BackColor
f 44/83/42 37/80/42 41/78/42

usemtl M_0042_Sienna
vt -33.8583 31.4961
f 36/84/41 44/83/41 37/80/41

f 43/82/41 44/83/41 36/84/41

v 0.4 1 -0.25
vt -3.93701 39.3701
f 43/82/41 45/85/41 44/83/41

f 45/85/41 43/82/41 42/81/41

usemtl BackColor
f 42/81/42 43/82/42 45/85/42

f 43/82/42 42/81/42 40/79/42

usemtl M_0043_SaddleBrown
vt -3.19744e-014 31.4961
vt -0.787402 7.87402
vt -3.55271e-015 7.87402
f 43/86/11 39/87/11 40/88/11

v 0.36 0.23 -0.27
f 39/87/11 43/86/11 46/20/11

usemtl BackColor
f 40/88/12 39/87/12 43/86/12

f 46/20/12 43/86/12 39/87/12

usemtl M_0043_SaddleBrown
v 0.36 0.769773 -0.27
vt -0.787402 30.306
f 46/20/11 43/86/11 47/89/11

usemtl BackColor
f 47/89/12 43/86/12 46/20/12

usemtl M_0043_SaddleBrown
v 0.36 0.8 -0.27
vt -0.787402 31.4961
f 47/89/11 43/86/11 48/90/11

usemtl BackColor
f 48/90/12 43/86/12 47/89/12

usemtl M_0043_SaddleBrown
vt -2.32325e-014 5.51181
v -0.36 0.8 -0.27
vt -0.787402 33.8583
vt -0.787402 5.51181
f 43/91/18 49/92/18 48/93/18

vt -2.32325e-014 33.8583
f 49/92/18 43/91/18 36/94/18

usemtl BackColor
f 36/94/17 43/91/17 49/92/17

f 36/84/42 44/83/42 43/82/42

f 37/80/42 44/83/42 36/84/42

f 36/71/22 35/11/22 37/72/22

f 34/13/22 35/11/22 36/71/22

usemtl M_0043_SaddleBrown
vt 0.787402 31.4961
f 36/71/21 34/13/21 49/95/21

usemtl BackColor
f 49/95/22 34/13/22 36/71/22

usemtl M_0043_SaddleBrown
vn -1.08202e-015 -6.66324e-016 1
f 31/65/43 49/84/43 34/69/43

f 5/7/43 49/84/43 31/65/43

f 3/9/43 49/84/43 5/7/43

f 1/61/43 49/84/43 3/9/43

vt -5.51181 30.306
f 47/96/43 49/84/43 1/61/43

f 49/84/43 47/96/43 48/82/43

usemtl BackColor
vn 1.08202e-015 6.66324e-016 -1
f 48/82/44 47/96/44 49/84/44

f 1/61/44 49/84/44 47/96/44

f 3/9/44 49/84/44 1/61/44

f 5/7/44 49/84/44 3/9/44

f 31/65/44 49/84/44 5/7/44

f 34/69/44 49/84/44 31/65/44

usemtl M_0043_SaddleBrown
f 29/60/43 47/96/43 1/61/43

vn 5.86553e-014 9.61282e-015 1
vt -5.51181 9.05512
f 29/60/45 46/97/45 47/96/45

f 46/97/45 29/60/45 28/59/45

usemtl BackColor
vn -5.86553e-014 -9.61282e-015 -1
f 47/96/46 46/97/46 29/60/46

f 28/59/46 29/60/46 46/97/46

f 28/59/32 3/9/32 29/60/32

f 7/8/32 3/9/32 28/59/32

f 3/13/8 2/12/8 7/11/8

usemtl M_0043_SaddleBrown
vn -1.32344e-016 -1.99027e-013 1
f 38/80/47 28/59/47 7/8/47

f 39/79/47 28/59/47 38/80/47

f 28/59/47 39/79/47 46/97/47

usemtl BackColor
vn 1.32344e-016 1.99027e-013 -1
f 46/97/48 39/79/48 28/59/48

f 38/80/48 28/59/48 39/79/48

f 7/8/48 28/59/48 38/80/48

usemtl M_0043_SaddleBrown
f 38/80/47 7/8/47 8/10/47

usemtl BackColor
f 8/10/48 7/8/48 38/80/48

usemtl M_0043_SaddleBrown
f 38/80/47 8/10/47 32/66/47

usemtl BackColor
f 32/66/48 8/10/48 38/80/48

usemtl FrontColor
vt -3.14961 32.6772
vn 9.33506e-016 -1 1.74254e-014
vt -0.787402 32.6772
f 21/98/49 8/18/49 32/99/49

f 8/18/49 21/98/49 10/16/49

usemtl M_0043_SaddleBrown
vn -9.33506e-016 1 -1.74254e-014
f 32/99/50 8/18/50 21/98/50

f 10/16/50 21/98/50 8/18/50

f 38/80/47 32/66/47 35/70/47

usemtl BackColor
f 35/70/48 32/66/48 38/80/48

f 38/76/18 39/75/18 37/74/18

f 1/61/44 47/96/44 29/60/44

f 48/93/17 49/92/17 43/91/17

f 44/83/42 45/85/42 43/82/42

usemtl M_0042_Sienna
vt 3.93701 3.93701
vn 3.00556e-031 1 -3.60956e-015
vt -1.38556e-013 35.4331
vt -1.42109e-013 3.93701
f 26/100/51 44/101/51 45/102/51

vt 3.93701 35.4331
f 44/101/51 26/100/51 27/103/51

usemtl BackColor
vn -3.00556e-031 -1 3.60956e-015
f 45/102/52 44/101/52 26/100/52

f 27/103/52 26/100/52 44/101/52

usemtl M_0042_Sienna
vn 9.02389e-015 1 -5.41434e-015
v -0.5 1 -0.45
vt 7.87402 39.3701
vt -2.0961e-013 35.4331
f 27/103/53 50/104/53 44/105/53

v -0.5 1 -0.55
vt 11.811 39.3701
f 50/104/53 27/103/53 51/106/53

usemtl BackColor
vn -9.02389e-015 -1 5.41434e-015
f 44/105/54 50/104/54 27/103/54

usemtl M_0042_Sienna
v -0.5 0 -0.45
vt -24.6496 7.79664e-015
vn -0.894427 -2.46011e-016 0.447214
vt -15.8462 39.3701
vt -24.6496 39.3701
f 52/107/55 44/108/55 50/109/55

vt -15.8462 7.79664e-015
f 44/108/55 52/107/55 41/110/55

usemtl BackColor
vn 0.894427 2.46011e-016 -0.447214
f 41/110/56 52/107/56 44/108/56

usemtl M_0042_Sienna
vt -7.87402 39.3701
vn 4.33147e-014 -1 -2.16573e-014
vt -3.93701 35.4331
vt -1.77636e-014 35.4331
f 52/111/57 24/112/57 41/113/57

v -0.5 2.16573e-015 -0.55
vt -11.811 39.3701
f 24/112/57 52/111/57 53/114/57

usemtl BackColor
vn -4.33147e-014 1 2.16573e-014
f 41/113/58 24/112/58 52/111/58

usemtl M_0042_Sienna
vt -3.93701 3.93701
vn -3.08311e-030 -1 -2.16573e-014
f 25/115/59 41/113/59 24/112/59

vt -1.42109e-014 3.93701
f 41/113/59 25/115/59 42/116/59

usemtl BackColor
vn 3.08311e-030 1 2.16573e-014
f 42/116/60 25/115/60 41/113/60

usemtl M_0042_Sienna
vn -4.33147e-014 -1 -2.16573e-014
v 0.5 0 -0.45
vt -7.87402 -7.38646e-027
f 25/115/61 54/117/61 42/116/61

v 0.5 2.16573e-015 -0.55
vt -11.811 -7.38646e-027
f 54/117/61 25/115/61 55/118/61

usemtl BackColor
vn 4.33147e-014 1 2.16573e-014
f 42/116/62 54/117/62 25/115/62

usemtl M_0042_Sienna
v 0.5 1 -0.45
vt 7.04273 39.3701
vn 0.894427 -2.46011e-016 0.447214
vt -1.76068 -8.66294e-016
vt 7.04273 -8.66294e-016
f 56/119/63 42/120/63 54/121/63

vt -1.76068 39.3701
f 42/120/63 56/119/63 45/122/63

usemtl BackColor
vn -0.894427 2.46011e-016 -0.447214
f 54/121/64 42/120/64 56/119/64

f 45/122/64 56/119/64 42/120/64

usemtl M_0042_Sienna
vt 7.87402 -3.55271e-013
vn -9.02389e-015 1 -5.41434e-015
vt -2.13163e-013 3.93701
f 56/123/65 26/100/65 45/124/65

v 0.5 1 -0.55
vt 11.811 -3.55271e-013
f 26/100/65 56/123/65 57/125/65

usemtl BackColor
vn 9.02389e-015 -1 5.41434e-015
f 45/124/66 26/100/66 56/123/66

usemtl FrontColor
vt 0 39.3701
vt 3.93701 8.52651e-014
f 45/126/21 25/127/21 26/50/21

vt 1.42109e-014 0
f 25/127/21 45/126/21 42/128/21

usemtl BackColor
f 42/128/22 45/126/22 25/127/22

f 26/50/22 25/127/22 45/126/22

usemtl M_0042_Sienna
vn -0.894427 -1.59907e-016 -0.447214
vt -10.5641 8.61098e-014
vt -1.76068 8.61098e-014
f 26/122/67 55/129/67 25/130/67

vt -10.5641 39.3701
f 55/129/67 26/122/67 57/131/67

usemtl BackColor
vn 0.894427 1.59907e-016 0.447214
f 25/130/68 55/129/68 26/122/68

f 55/118/62 25/115/62 54/117/62

usemtl M_0042_Sienna
vt 11.811 8.52651e-014
vt 7.87402 0
f 55/132/21 56/104/21 54/133/21

f 56/104/21 55/132/21 57/106/21

usemtl BackColor
f 54/133/22 56/104/22 55/132/22

f 57/106/22 55/132/22 56/104/22

f 57/131/68 26/122/68 55/129/68

f 57/125/66 56/123/66 26/100/66

f 24/112/60 41/113/60 25/115/60

usemtl FrontColor
vt -3.55271e-015 39.3701
vt -3.93701 8.52651e-014
vt -1.77636e-014 0
f 44/134/11 24/135/11 41/136/11

f 24/135/11 44/134/11 27/85/11

usemtl BackColor
f 41/136/12 24/135/12 44/134/12

f 27/85/12 44/134/12 24/135/12

usemtl M_0042_Sienna
vt 19.3675 7.80244e-014
vn 0.894427 -2.4191e-016 -0.447214
vt 28.1709 39.3701
vt 19.3675 39.3701
f 24/137/69 51/138/69 27/139/69

vt 28.1709 7.80244e-014
f 51/138/69 24/137/69 53/140/69

usemtl BackColor
vn -0.894427 2.4191e-016 0.447214
f 53/140/70 24/137/70 51/138/70

f 53/114/58 52/111/58 24/112/58

usemtl M_0042_Sienna
vt -11.811 8.52651e-014
vt -7.87402 0
f 50/111/11 53/141/11 52/142/11

f 53/141/11 50/111/11 51/114/11

usemtl BackColor
f 52/142/12 53/141/12 50/111/12

f 51/114/12 50/111/12 53/141/12

f 51/106/54 27/103/54 50/104/54

f 27/139/70 51/138/70 24/137/70

usemtl M_0042_Sienna
f 27/51/23 23/27/23 24/48/23

usemtl BackColor
f 24/48/24 23/27/24 27/51/24

f 23/27/24 24/48/24 19/39/24

f 19/39/24 24/48/24 16/41/24

f 24/48/24 25/49/24 16/41/24

f 19/38/18 16/35/18 18/36/18

f 50/109/56 44/108/56 52/107/56

usemtl M_0043_SaddleBrown
f 20/58/30 9/17/30 28/57/30

usemtl BackColor
f 14/31/12 15/22/12 16/33/12

f 16/41/24 26/50/24 14/29/24

